G04 #@! TF.GenerationSoftware,KiCad,Pcbnew,6.0.10-86aedd382b~118~ubuntu18.04.1*
G04 #@! TF.CreationDate,2024-09-27T11:47:30-06:00*
G04 #@! TF.ProjectId,mss-siding,6d73732d-7369-4646-996e-672e6b696361,rev?*
G04 #@! TF.SameCoordinates,Original*
G04 #@! TF.FileFunction,Copper,L1,Top*
G04 #@! TF.FilePolarity,Positive*
%FSLAX46Y46*%
G04 Gerber Fmt 4.6, Leading zero omitted, Abs format (unit mm)*
G04 Created by KiCad (PCBNEW 6.0.10-86aedd382b~118~ubuntu18.04.1) date 2024-09-27 11:47:30*
%MOMM*%
%LPD*%
G01*
G04 APERTURE LIST*
G04 #@! TA.AperFunction,SMDPad,CuDef*
%ADD10R,1.400000X1.900000*%
G04 #@! TD*
G04 #@! TA.AperFunction,ComponentPad*
%ADD11C,6.400000*%
G04 #@! TD*
G04 #@! TA.AperFunction,SMDPad,CuDef*
%ADD12R,5.562600X2.108200*%
G04 #@! TD*
G04 #@! TA.AperFunction,ComponentPad*
%ADD13R,2.300000X2.300000*%
G04 #@! TD*
G04 #@! TA.AperFunction,ComponentPad*
%ADD14C,2.300000*%
G04 #@! TD*
G04 #@! TA.AperFunction,SMDPad,CuDef*
%ADD15R,1.900000X1.400000*%
G04 #@! TD*
G04 #@! TA.AperFunction,ConnectorPad*
%ADD16C,0.787400*%
G04 #@! TD*
G04 #@! TA.AperFunction,SMDPad,CuDef*
%ADD17R,1.193800X2.489200*%
G04 #@! TD*
G04 #@! TA.AperFunction,ComponentPad*
%ADD18R,1.500000X1.500000*%
G04 #@! TD*
G04 #@! TA.AperFunction,ComponentPad*
%ADD19C,1.500000*%
G04 #@! TD*
G04 #@! TA.AperFunction,SMDPad,CuDef*
%ADD20R,1.800000X2.500000*%
G04 #@! TD*
G04 #@! TA.AperFunction,ComponentPad*
%ADD21R,2.500000X2.500000*%
G04 #@! TD*
G04 #@! TA.AperFunction,ComponentPad*
%ADD22C,2.500000*%
G04 #@! TD*
G04 #@! TA.AperFunction,SMDPad,CuDef*
%ADD23R,0.800000X2.660000*%
G04 #@! TD*
G04 #@! TA.AperFunction,SMDPad,CuDef*
%ADD24R,2.489200X1.193800*%
G04 #@! TD*
G04 #@! TA.AperFunction,SMDPad,CuDef*
%ADD25R,1.500000X0.900000*%
G04 #@! TD*
G04 #@! TA.AperFunction,SMDPad,CuDef*
%ADD26R,2.108200X5.562600*%
G04 #@! TD*
G04 #@! TA.AperFunction,ViaPad*
%ADD27C,0.609600*%
G04 #@! TD*
G04 #@! TA.AperFunction,Conductor*
%ADD28C,1.016000*%
G04 #@! TD*
G04 #@! TA.AperFunction,Conductor*
%ADD29C,0.254000*%
G04 #@! TD*
G04 #@! TA.AperFunction,Conductor*
%ADD30C,0.508000*%
G04 #@! TD*
G04 #@! TA.AperFunction,Conductor*
%ADD31C,0.457200*%
G04 #@! TD*
G04 APERTURE END LIST*
G04 #@! TA.AperFunction,SMDPad,CuDef*
G36*
G01*
X47216000Y-185362000D02*
X47216000Y-184462000D01*
G75*
G02*
X47466000Y-184212000I250000J0D01*
G01*
X47991000Y-184212000D01*
G75*
G02*
X48241000Y-184462000I0J-250000D01*
G01*
X48241000Y-185362000D01*
G75*
G02*
X47991000Y-185612000I-250000J0D01*
G01*
X47466000Y-185612000D01*
G75*
G02*
X47216000Y-185362000I0J250000D01*
G01*
G37*
G04 #@! TD.AperFunction*
G04 #@! TA.AperFunction,SMDPad,CuDef*
G36*
G01*
X49041000Y-185362000D02*
X49041000Y-184462000D01*
G75*
G02*
X49291000Y-184212000I250000J0D01*
G01*
X49816000Y-184212000D01*
G75*
G02*
X50066000Y-184462000I0J-250000D01*
G01*
X50066000Y-185362000D01*
G75*
G02*
X49816000Y-185612000I-250000J0D01*
G01*
X49291000Y-185612000D01*
G75*
G02*
X49041000Y-185362000I0J250000D01*
G01*
G37*
G04 #@! TD.AperFunction*
D10*
X70103000Y-175260000D03*
X66803000Y-175260000D03*
G04 #@! TA.AperFunction,SMDPad,CuDef*
G36*
G01*
X119638500Y-161054750D02*
X119638500Y-161954750D01*
G75*
G02*
X119388500Y-162204750I-250000J0D01*
G01*
X118863500Y-162204750D01*
G75*
G02*
X118613500Y-161954750I0J250000D01*
G01*
X118613500Y-161054750D01*
G75*
G02*
X118863500Y-160804750I250000J0D01*
G01*
X119388500Y-160804750D01*
G75*
G02*
X119638500Y-161054750I0J-250000D01*
G01*
G37*
G04 #@! TD.AperFunction*
G04 #@! TA.AperFunction,SMDPad,CuDef*
G36*
G01*
X117813500Y-161054750D02*
X117813500Y-161954750D01*
G75*
G02*
X117563500Y-162204750I-250000J0D01*
G01*
X117038500Y-162204750D01*
G75*
G02*
X116788500Y-161954750I0J250000D01*
G01*
X116788500Y-161054750D01*
G75*
G02*
X117038500Y-160804750I250000J0D01*
G01*
X117563500Y-160804750D01*
G75*
G02*
X117813500Y-161054750I0J-250000D01*
G01*
G37*
G04 #@! TD.AperFunction*
G04 #@! TA.AperFunction,SMDPad,CuDef*
G36*
G01*
X42319000Y-168714000D02*
X42319000Y-169614000D01*
G75*
G02*
X42069000Y-169864000I-250000J0D01*
G01*
X41544000Y-169864000D01*
G75*
G02*
X41294000Y-169614000I0J250000D01*
G01*
X41294000Y-168714000D01*
G75*
G02*
X41544000Y-168464000I250000J0D01*
G01*
X42069000Y-168464000D01*
G75*
G02*
X42319000Y-168714000I0J-250000D01*
G01*
G37*
G04 #@! TD.AperFunction*
G04 #@! TA.AperFunction,SMDPad,CuDef*
G36*
G01*
X40494000Y-168714000D02*
X40494000Y-169614000D01*
G75*
G02*
X40244000Y-169864000I-250000J0D01*
G01*
X39719000Y-169864000D01*
G75*
G02*
X39469000Y-169614000I0J250000D01*
G01*
X39469000Y-168714000D01*
G75*
G02*
X39719000Y-168464000I250000J0D01*
G01*
X40244000Y-168464000D01*
G75*
G02*
X40494000Y-168714000I0J-250000D01*
G01*
G37*
G04 #@! TD.AperFunction*
D11*
X29718000Y-119888000D03*
G04 #@! TA.AperFunction,SMDPad,CuDef*
G36*
G01*
X42319000Y-144457000D02*
X42319000Y-145357000D01*
G75*
G02*
X42069000Y-145607000I-250000J0D01*
G01*
X41544000Y-145607000D01*
G75*
G02*
X41294000Y-145357000I0J250000D01*
G01*
X41294000Y-144457000D01*
G75*
G02*
X41544000Y-144207000I250000J0D01*
G01*
X42069000Y-144207000D01*
G75*
G02*
X42319000Y-144457000I0J-250000D01*
G01*
G37*
G04 #@! TD.AperFunction*
G04 #@! TA.AperFunction,SMDPad,CuDef*
G36*
G01*
X40494000Y-144457000D02*
X40494000Y-145357000D01*
G75*
G02*
X40244000Y-145607000I-250000J0D01*
G01*
X39719000Y-145607000D01*
G75*
G02*
X39469000Y-145357000I0J250000D01*
G01*
X39469000Y-144457000D01*
G75*
G02*
X39719000Y-144207000I250000J0D01*
G01*
X40244000Y-144207000D01*
G75*
G02*
X40494000Y-144457000I0J-250000D01*
G01*
G37*
G04 #@! TD.AperFunction*
G04 #@! TA.AperFunction,SMDPad,CuDef*
G36*
G01*
X147723000Y-159748750D02*
X146473000Y-159748750D01*
G75*
G02*
X146323000Y-159598750I0J150000D01*
G01*
X146323000Y-159298750D01*
G75*
G02*
X146473000Y-159148750I150000J0D01*
G01*
X147723000Y-159148750D01*
G75*
G02*
X147873000Y-159298750I0J-150000D01*
G01*
X147873000Y-159598750D01*
G75*
G02*
X147723000Y-159748750I-150000J0D01*
G01*
G37*
G04 #@! TD.AperFunction*
G04 #@! TA.AperFunction,SMDPad,CuDef*
G36*
G01*
X147723000Y-158748750D02*
X146473000Y-158748750D01*
G75*
G02*
X146323000Y-158598750I0J150000D01*
G01*
X146323000Y-158298750D01*
G75*
G02*
X146473000Y-158148750I150000J0D01*
G01*
X147723000Y-158148750D01*
G75*
G02*
X147873000Y-158298750I0J-150000D01*
G01*
X147873000Y-158598750D01*
G75*
G02*
X147723000Y-158748750I-150000J0D01*
G01*
G37*
G04 #@! TD.AperFunction*
G04 #@! TA.AperFunction,SMDPad,CuDef*
G36*
G01*
X147723000Y-157748750D02*
X146473000Y-157748750D01*
G75*
G02*
X146323000Y-157598750I0J150000D01*
G01*
X146323000Y-157298750D01*
G75*
G02*
X146473000Y-157148750I150000J0D01*
G01*
X147723000Y-157148750D01*
G75*
G02*
X147873000Y-157298750I0J-150000D01*
G01*
X147873000Y-157598750D01*
G75*
G02*
X147723000Y-157748750I-150000J0D01*
G01*
G37*
G04 #@! TD.AperFunction*
G04 #@! TA.AperFunction,SMDPad,CuDef*
G36*
G01*
X147723000Y-156748750D02*
X146473000Y-156748750D01*
G75*
G02*
X146323000Y-156598750I0J150000D01*
G01*
X146323000Y-156298750D01*
G75*
G02*
X146473000Y-156148750I150000J0D01*
G01*
X147723000Y-156148750D01*
G75*
G02*
X147873000Y-156298750I0J-150000D01*
G01*
X147873000Y-156598750D01*
G75*
G02*
X147723000Y-156748750I-150000J0D01*
G01*
G37*
G04 #@! TD.AperFunction*
G04 #@! TA.AperFunction,SMDPad,CuDef*
G36*
G01*
X151623000Y-155748750D02*
X150323000Y-155748750D01*
G75*
G02*
X150073000Y-155498750I0J250000D01*
G01*
X150073000Y-154798750D01*
G75*
G02*
X150323000Y-154548750I250000J0D01*
G01*
X151623000Y-154548750D01*
G75*
G02*
X151873000Y-154798750I0J-250000D01*
G01*
X151873000Y-155498750D01*
G75*
G02*
X151623000Y-155748750I-250000J0D01*
G01*
G37*
G04 #@! TD.AperFunction*
G04 #@! TA.AperFunction,SMDPad,CuDef*
G36*
G01*
X151623000Y-161348750D02*
X150323000Y-161348750D01*
G75*
G02*
X150073000Y-161098750I0J250000D01*
G01*
X150073000Y-160398750D01*
G75*
G02*
X150323000Y-160148750I250000J0D01*
G01*
X151623000Y-160148750D01*
G75*
G02*
X151873000Y-160398750I0J-250000D01*
G01*
X151873000Y-161098750D01*
G75*
G02*
X151623000Y-161348750I-250000J0D01*
G01*
G37*
G04 #@! TD.AperFunction*
G04 #@! TA.AperFunction,SMDPad,CuDef*
G36*
X47648000Y-175018000D02*
G01*
X48148000Y-175018000D01*
X48148000Y-175022967D01*
X48227941Y-175024432D01*
X48363256Y-175066707D01*
X48481266Y-175145262D01*
X48572486Y-175253781D01*
X48629581Y-175383540D01*
X48647164Y-175518000D01*
X48648000Y-175518000D01*
X48648000Y-176018000D01*
X48647164Y-176018000D01*
X48647963Y-176024109D01*
X48626152Y-176164186D01*
X48565904Y-176292511D01*
X48472060Y-176398769D01*
X48352165Y-176474417D01*
X48215858Y-176513374D01*
X48148000Y-176512959D01*
X48148000Y-176518000D01*
X47648000Y-176518000D01*
X47648000Y-175018000D01*
G37*
G04 #@! TD.AperFunction*
G04 #@! TA.AperFunction,SMDPad,CuDef*
G36*
X46848000Y-176512959D02*
G01*
X46774095Y-176512508D01*
X46638274Y-176471889D01*
X46519312Y-176394782D01*
X46426774Y-176287385D01*
X46368097Y-176158333D01*
X46348000Y-176018000D01*
X46348000Y-175518000D01*
X46348149Y-175505784D01*
X46371669Y-175365983D01*
X46433481Y-175238404D01*
X46528616Y-175133300D01*
X46649426Y-175059123D01*
X46786199Y-175021834D01*
X46848000Y-175022967D01*
X46848000Y-175018000D01*
X47348000Y-175018000D01*
X47348000Y-176518000D01*
X46848000Y-176518000D01*
X46848000Y-176512959D01*
G37*
G04 #@! TD.AperFunction*
D12*
X58420000Y-158978600D03*
X58420000Y-163576000D03*
G04 #@! TA.AperFunction,SMDPad,CuDef*
G36*
G01*
X101960000Y-146668750D02*
X101960000Y-146368750D01*
G75*
G02*
X102110000Y-146218750I150000J0D01*
G01*
X103560000Y-146218750D01*
G75*
G02*
X103710000Y-146368750I0J-150000D01*
G01*
X103710000Y-146668750D01*
G75*
G02*
X103560000Y-146818750I-150000J0D01*
G01*
X102110000Y-146818750D01*
G75*
G02*
X101960000Y-146668750I0J150000D01*
G01*
G37*
G04 #@! TD.AperFunction*
G04 #@! TA.AperFunction,SMDPad,CuDef*
G36*
G01*
X101960000Y-147938750D02*
X101960000Y-147638750D01*
G75*
G02*
X102110000Y-147488750I150000J0D01*
G01*
X103560000Y-147488750D01*
G75*
G02*
X103710000Y-147638750I0J-150000D01*
G01*
X103710000Y-147938750D01*
G75*
G02*
X103560000Y-148088750I-150000J0D01*
G01*
X102110000Y-148088750D01*
G75*
G02*
X101960000Y-147938750I0J150000D01*
G01*
G37*
G04 #@! TD.AperFunction*
G04 #@! TA.AperFunction,SMDPad,CuDef*
G36*
G01*
X101960000Y-149208750D02*
X101960000Y-148908750D01*
G75*
G02*
X102110000Y-148758750I150000J0D01*
G01*
X103560000Y-148758750D01*
G75*
G02*
X103710000Y-148908750I0J-150000D01*
G01*
X103710000Y-149208750D01*
G75*
G02*
X103560000Y-149358750I-150000J0D01*
G01*
X102110000Y-149358750D01*
G75*
G02*
X101960000Y-149208750I0J150000D01*
G01*
G37*
G04 #@! TD.AperFunction*
G04 #@! TA.AperFunction,SMDPad,CuDef*
G36*
G01*
X101960000Y-150478750D02*
X101960000Y-150178750D01*
G75*
G02*
X102110000Y-150028750I150000J0D01*
G01*
X103560000Y-150028750D01*
G75*
G02*
X103710000Y-150178750I0J-150000D01*
G01*
X103710000Y-150478750D01*
G75*
G02*
X103560000Y-150628750I-150000J0D01*
G01*
X102110000Y-150628750D01*
G75*
G02*
X101960000Y-150478750I0J150000D01*
G01*
G37*
G04 #@! TD.AperFunction*
G04 #@! TA.AperFunction,SMDPad,CuDef*
G36*
G01*
X101960000Y-151748750D02*
X101960000Y-151448750D01*
G75*
G02*
X102110000Y-151298750I150000J0D01*
G01*
X103560000Y-151298750D01*
G75*
G02*
X103710000Y-151448750I0J-150000D01*
G01*
X103710000Y-151748750D01*
G75*
G02*
X103560000Y-151898750I-150000J0D01*
G01*
X102110000Y-151898750D01*
G75*
G02*
X101960000Y-151748750I0J150000D01*
G01*
G37*
G04 #@! TD.AperFunction*
G04 #@! TA.AperFunction,SMDPad,CuDef*
G36*
G01*
X101960000Y-153018750D02*
X101960000Y-152718750D01*
G75*
G02*
X102110000Y-152568750I150000J0D01*
G01*
X103560000Y-152568750D01*
G75*
G02*
X103710000Y-152718750I0J-150000D01*
G01*
X103710000Y-153018750D01*
G75*
G02*
X103560000Y-153168750I-150000J0D01*
G01*
X102110000Y-153168750D01*
G75*
G02*
X101960000Y-153018750I0J150000D01*
G01*
G37*
G04 #@! TD.AperFunction*
G04 #@! TA.AperFunction,SMDPad,CuDef*
G36*
G01*
X101960000Y-154288750D02*
X101960000Y-153988750D01*
G75*
G02*
X102110000Y-153838750I150000J0D01*
G01*
X103560000Y-153838750D01*
G75*
G02*
X103710000Y-153988750I0J-150000D01*
G01*
X103710000Y-154288750D01*
G75*
G02*
X103560000Y-154438750I-150000J0D01*
G01*
X102110000Y-154438750D01*
G75*
G02*
X101960000Y-154288750I0J150000D01*
G01*
G37*
G04 #@! TD.AperFunction*
G04 #@! TA.AperFunction,SMDPad,CuDef*
G36*
G01*
X101960000Y-155558750D02*
X101960000Y-155258750D01*
G75*
G02*
X102110000Y-155108750I150000J0D01*
G01*
X103560000Y-155108750D01*
G75*
G02*
X103710000Y-155258750I0J-150000D01*
G01*
X103710000Y-155558750D01*
G75*
G02*
X103560000Y-155708750I-150000J0D01*
G01*
X102110000Y-155708750D01*
G75*
G02*
X101960000Y-155558750I0J150000D01*
G01*
G37*
G04 #@! TD.AperFunction*
G04 #@! TA.AperFunction,SMDPad,CuDef*
G36*
G01*
X107110000Y-155558750D02*
X107110000Y-155258750D01*
G75*
G02*
X107260000Y-155108750I150000J0D01*
G01*
X108710000Y-155108750D01*
G75*
G02*
X108860000Y-155258750I0J-150000D01*
G01*
X108860000Y-155558750D01*
G75*
G02*
X108710000Y-155708750I-150000J0D01*
G01*
X107260000Y-155708750D01*
G75*
G02*
X107110000Y-155558750I0J150000D01*
G01*
G37*
G04 #@! TD.AperFunction*
G04 #@! TA.AperFunction,SMDPad,CuDef*
G36*
G01*
X107110000Y-154288750D02*
X107110000Y-153988750D01*
G75*
G02*
X107260000Y-153838750I150000J0D01*
G01*
X108710000Y-153838750D01*
G75*
G02*
X108860000Y-153988750I0J-150000D01*
G01*
X108860000Y-154288750D01*
G75*
G02*
X108710000Y-154438750I-150000J0D01*
G01*
X107260000Y-154438750D01*
G75*
G02*
X107110000Y-154288750I0J150000D01*
G01*
G37*
G04 #@! TD.AperFunction*
G04 #@! TA.AperFunction,SMDPad,CuDef*
G36*
G01*
X107110000Y-153018750D02*
X107110000Y-152718750D01*
G75*
G02*
X107260000Y-152568750I150000J0D01*
G01*
X108710000Y-152568750D01*
G75*
G02*
X108860000Y-152718750I0J-150000D01*
G01*
X108860000Y-153018750D01*
G75*
G02*
X108710000Y-153168750I-150000J0D01*
G01*
X107260000Y-153168750D01*
G75*
G02*
X107110000Y-153018750I0J150000D01*
G01*
G37*
G04 #@! TD.AperFunction*
G04 #@! TA.AperFunction,SMDPad,CuDef*
G36*
G01*
X107110000Y-151748750D02*
X107110000Y-151448750D01*
G75*
G02*
X107260000Y-151298750I150000J0D01*
G01*
X108710000Y-151298750D01*
G75*
G02*
X108860000Y-151448750I0J-150000D01*
G01*
X108860000Y-151748750D01*
G75*
G02*
X108710000Y-151898750I-150000J0D01*
G01*
X107260000Y-151898750D01*
G75*
G02*
X107110000Y-151748750I0J150000D01*
G01*
G37*
G04 #@! TD.AperFunction*
G04 #@! TA.AperFunction,SMDPad,CuDef*
G36*
G01*
X107110000Y-150478750D02*
X107110000Y-150178750D01*
G75*
G02*
X107260000Y-150028750I150000J0D01*
G01*
X108710000Y-150028750D01*
G75*
G02*
X108860000Y-150178750I0J-150000D01*
G01*
X108860000Y-150478750D01*
G75*
G02*
X108710000Y-150628750I-150000J0D01*
G01*
X107260000Y-150628750D01*
G75*
G02*
X107110000Y-150478750I0J150000D01*
G01*
G37*
G04 #@! TD.AperFunction*
G04 #@! TA.AperFunction,SMDPad,CuDef*
G36*
G01*
X107110000Y-149208750D02*
X107110000Y-148908750D01*
G75*
G02*
X107260000Y-148758750I150000J0D01*
G01*
X108710000Y-148758750D01*
G75*
G02*
X108860000Y-148908750I0J-150000D01*
G01*
X108860000Y-149208750D01*
G75*
G02*
X108710000Y-149358750I-150000J0D01*
G01*
X107260000Y-149358750D01*
G75*
G02*
X107110000Y-149208750I0J150000D01*
G01*
G37*
G04 #@! TD.AperFunction*
G04 #@! TA.AperFunction,SMDPad,CuDef*
G36*
G01*
X107110000Y-147938750D02*
X107110000Y-147638750D01*
G75*
G02*
X107260000Y-147488750I150000J0D01*
G01*
X108710000Y-147488750D01*
G75*
G02*
X108860000Y-147638750I0J-150000D01*
G01*
X108860000Y-147938750D01*
G75*
G02*
X108710000Y-148088750I-150000J0D01*
G01*
X107260000Y-148088750D01*
G75*
G02*
X107110000Y-147938750I0J150000D01*
G01*
G37*
G04 #@! TD.AperFunction*
G04 #@! TA.AperFunction,SMDPad,CuDef*
G36*
G01*
X107110000Y-146668750D02*
X107110000Y-146368750D01*
G75*
G02*
X107260000Y-146218750I150000J0D01*
G01*
X108710000Y-146218750D01*
G75*
G02*
X108860000Y-146368750I0J-150000D01*
G01*
X108860000Y-146668750D01*
G75*
G02*
X108710000Y-146818750I-150000J0D01*
G01*
X107260000Y-146818750D01*
G75*
G02*
X107110000Y-146668750I0J150000D01*
G01*
G37*
G04 #@! TD.AperFunction*
G04 #@! TA.AperFunction,SMDPad,CuDef*
G36*
G01*
X119638500Y-136924750D02*
X119638500Y-137824750D01*
G75*
G02*
X119388500Y-138074750I-250000J0D01*
G01*
X118863500Y-138074750D01*
G75*
G02*
X118613500Y-137824750I0J250000D01*
G01*
X118613500Y-136924750D01*
G75*
G02*
X118863500Y-136674750I250000J0D01*
G01*
X119388500Y-136674750D01*
G75*
G02*
X119638500Y-136924750I0J-250000D01*
G01*
G37*
G04 #@! TD.AperFunction*
G04 #@! TA.AperFunction,SMDPad,CuDef*
G36*
G01*
X117813500Y-136924750D02*
X117813500Y-137824750D01*
G75*
G02*
X117563500Y-138074750I-250000J0D01*
G01*
X117038500Y-138074750D01*
G75*
G02*
X116788500Y-137824750I0J250000D01*
G01*
X116788500Y-136924750D01*
G75*
G02*
X117038500Y-136674750I250000J0D01*
G01*
X117563500Y-136674750D01*
G75*
G02*
X117813500Y-136924750I0J-250000D01*
G01*
G37*
G04 #@! TD.AperFunction*
D13*
X35179000Y-174427000D03*
D14*
X35179000Y-177927000D03*
X35179000Y-181427000D03*
G04 #@! TA.AperFunction,SMDPad,CuDef*
G36*
X47648000Y-168414000D02*
G01*
X48148000Y-168414000D01*
X48148000Y-168418967D01*
X48227941Y-168420432D01*
X48363256Y-168462707D01*
X48481266Y-168541262D01*
X48572486Y-168649781D01*
X48629581Y-168779540D01*
X48647164Y-168914000D01*
X48648000Y-168914000D01*
X48648000Y-169414000D01*
X48647164Y-169414000D01*
X48647963Y-169420109D01*
X48626152Y-169560186D01*
X48565904Y-169688511D01*
X48472060Y-169794769D01*
X48352165Y-169870417D01*
X48215858Y-169909374D01*
X48148000Y-169908959D01*
X48148000Y-169914000D01*
X47648000Y-169914000D01*
X47648000Y-168414000D01*
G37*
G04 #@! TD.AperFunction*
G04 #@! TA.AperFunction,SMDPad,CuDef*
G36*
X46848000Y-169908959D02*
G01*
X46774095Y-169908508D01*
X46638274Y-169867889D01*
X46519312Y-169790782D01*
X46426774Y-169683385D01*
X46368097Y-169554333D01*
X46348000Y-169414000D01*
X46348000Y-168914000D01*
X46348149Y-168901784D01*
X46371669Y-168761983D01*
X46433481Y-168634404D01*
X46528616Y-168529300D01*
X46649426Y-168455123D01*
X46786199Y-168417834D01*
X46848000Y-168418967D01*
X46848000Y-168414000D01*
X47348000Y-168414000D01*
X47348000Y-169914000D01*
X46848000Y-169914000D01*
X46848000Y-169908959D01*
G37*
G04 #@! TD.AperFunction*
D13*
X35179000Y-125913000D03*
D14*
X35179000Y-129413000D03*
X35179000Y-132913000D03*
G04 #@! TA.AperFunction,SMDPad,CuDef*
G36*
G01*
X73428000Y-166789000D02*
X73428000Y-167089000D01*
G75*
G02*
X73278000Y-167239000I-150000J0D01*
G01*
X72253000Y-167239000D01*
G75*
G02*
X72103000Y-167089000I0J150000D01*
G01*
X72103000Y-166789000D01*
G75*
G02*
X72253000Y-166639000I150000J0D01*
G01*
X73278000Y-166639000D01*
G75*
G02*
X73428000Y-166789000I0J-150000D01*
G01*
G37*
G04 #@! TD.AperFunction*
G04 #@! TA.AperFunction,SMDPad,CuDef*
G36*
G01*
X73428000Y-165839000D02*
X73428000Y-166139000D01*
G75*
G02*
X73278000Y-166289000I-150000J0D01*
G01*
X72253000Y-166289000D01*
G75*
G02*
X72103000Y-166139000I0J150000D01*
G01*
X72103000Y-165839000D01*
G75*
G02*
X72253000Y-165689000I150000J0D01*
G01*
X73278000Y-165689000D01*
G75*
G02*
X73428000Y-165839000I0J-150000D01*
G01*
G37*
G04 #@! TD.AperFunction*
G04 #@! TA.AperFunction,SMDPad,CuDef*
G36*
G01*
X73428000Y-164889000D02*
X73428000Y-165189000D01*
G75*
G02*
X73278000Y-165339000I-150000J0D01*
G01*
X72253000Y-165339000D01*
G75*
G02*
X72103000Y-165189000I0J150000D01*
G01*
X72103000Y-164889000D01*
G75*
G02*
X72253000Y-164739000I150000J0D01*
G01*
X73278000Y-164739000D01*
G75*
G02*
X73428000Y-164889000I0J-150000D01*
G01*
G37*
G04 #@! TD.AperFunction*
G04 #@! TA.AperFunction,SMDPad,CuDef*
G36*
G01*
X71153000Y-164889000D02*
X71153000Y-165189000D01*
G75*
G02*
X71003000Y-165339000I-150000J0D01*
G01*
X69978000Y-165339000D01*
G75*
G02*
X69828000Y-165189000I0J150000D01*
G01*
X69828000Y-164889000D01*
G75*
G02*
X69978000Y-164739000I150000J0D01*
G01*
X71003000Y-164739000D01*
G75*
G02*
X71153000Y-164889000I0J-150000D01*
G01*
G37*
G04 #@! TD.AperFunction*
G04 #@! TA.AperFunction,SMDPad,CuDef*
G36*
G01*
X71153000Y-166789000D02*
X71153000Y-167089000D01*
G75*
G02*
X71003000Y-167239000I-150000J0D01*
G01*
X69978000Y-167239000D01*
G75*
G02*
X69828000Y-167089000I0J150000D01*
G01*
X69828000Y-166789000D01*
G75*
G02*
X69978000Y-166639000I150000J0D01*
G01*
X71003000Y-166639000D01*
G75*
G02*
X71153000Y-166789000I0J-150000D01*
G01*
G37*
G04 #@! TD.AperFunction*
G04 #@! TA.AperFunction,SMDPad,CuDef*
G36*
X87861000Y-187273750D02*
G01*
X87361000Y-187273750D01*
X87361000Y-187268783D01*
X87281059Y-187267318D01*
X87145744Y-187225043D01*
X87027734Y-187146488D01*
X86936514Y-187037969D01*
X86879419Y-186908210D01*
X86861836Y-186773750D01*
X86861000Y-186773750D01*
X86861000Y-186273750D01*
X86861836Y-186273750D01*
X86861037Y-186267641D01*
X86882848Y-186127564D01*
X86943096Y-185999239D01*
X87036940Y-185892981D01*
X87156835Y-185817333D01*
X87293142Y-185778376D01*
X87361000Y-185778791D01*
X87361000Y-185773750D01*
X87861000Y-185773750D01*
X87861000Y-187273750D01*
G37*
G04 #@! TD.AperFunction*
G04 #@! TA.AperFunction,SMDPad,CuDef*
G36*
X88661000Y-185778791D02*
G01*
X88734905Y-185779242D01*
X88870726Y-185819861D01*
X88989688Y-185896968D01*
X89082226Y-186004365D01*
X89140903Y-186133417D01*
X89161000Y-186273750D01*
X89161000Y-186773750D01*
X89160851Y-186785966D01*
X89137331Y-186925767D01*
X89075519Y-187053346D01*
X88980384Y-187158450D01*
X88859574Y-187232627D01*
X88722801Y-187269916D01*
X88661000Y-187268783D01*
X88661000Y-187273750D01*
X88161000Y-187273750D01*
X88161000Y-185773750D01*
X88661000Y-185773750D01*
X88661000Y-185778791D01*
G37*
G04 #@! TD.AperFunction*
D15*
X124206000Y-151978750D03*
X124206000Y-148678750D03*
G04 #@! TA.AperFunction,SMDPad,CuDef*
G36*
G01*
X124107000Y-133662000D02*
X124107000Y-134562000D01*
G75*
G02*
X123857000Y-134812000I-250000J0D01*
G01*
X123332000Y-134812000D01*
G75*
G02*
X123082000Y-134562000I0J250000D01*
G01*
X123082000Y-133662000D01*
G75*
G02*
X123332000Y-133412000I250000J0D01*
G01*
X123857000Y-133412000D01*
G75*
G02*
X124107000Y-133662000I0J-250000D01*
G01*
G37*
G04 #@! TD.AperFunction*
G04 #@! TA.AperFunction,SMDPad,CuDef*
G36*
G01*
X122282000Y-133662000D02*
X122282000Y-134562000D01*
G75*
G02*
X122032000Y-134812000I-250000J0D01*
G01*
X121507000Y-134812000D01*
G75*
G02*
X121257000Y-134562000I0J250000D01*
G01*
X121257000Y-133662000D01*
G75*
G02*
X121507000Y-133412000I250000J0D01*
G01*
X122032000Y-133412000D01*
G75*
G02*
X122282000Y-133662000I0J-250000D01*
G01*
G37*
G04 #@! TD.AperFunction*
G04 #@! TA.AperFunction,SMDPad,CuDef*
G36*
X47648000Y-134251000D02*
G01*
X48148000Y-134251000D01*
X48148000Y-134255967D01*
X48227941Y-134257432D01*
X48363256Y-134299707D01*
X48481266Y-134378262D01*
X48572486Y-134486781D01*
X48629581Y-134616540D01*
X48647164Y-134751000D01*
X48648000Y-134751000D01*
X48648000Y-135251000D01*
X48647164Y-135251000D01*
X48647963Y-135257109D01*
X48626152Y-135397186D01*
X48565904Y-135525511D01*
X48472060Y-135631769D01*
X48352165Y-135707417D01*
X48215858Y-135746374D01*
X48148000Y-135745959D01*
X48148000Y-135751000D01*
X47648000Y-135751000D01*
X47648000Y-134251000D01*
G37*
G04 #@! TD.AperFunction*
G04 #@! TA.AperFunction,SMDPad,CuDef*
G36*
X46848000Y-135745959D02*
G01*
X46774095Y-135745508D01*
X46638274Y-135704889D01*
X46519312Y-135627782D01*
X46426774Y-135520385D01*
X46368097Y-135391333D01*
X46348000Y-135251000D01*
X46348000Y-134751000D01*
X46348149Y-134738784D01*
X46371669Y-134598983D01*
X46433481Y-134471404D01*
X46528616Y-134366300D01*
X46649426Y-134292123D01*
X46786199Y-134254834D01*
X46848000Y-134255967D01*
X46848000Y-134251000D01*
X47348000Y-134251000D01*
X47348000Y-135751000D01*
X46848000Y-135751000D01*
X46848000Y-135745959D01*
G37*
G04 #@! TD.AperFunction*
D16*
X77216000Y-136017000D03*
X75946000Y-136017000D03*
X77216000Y-134747000D03*
X75946000Y-134747000D03*
X77216000Y-133477000D03*
X75946000Y-133477000D03*
G04 #@! TA.AperFunction,SMDPad,CuDef*
G36*
G01*
X115242000Y-150107750D02*
X115242000Y-151057750D01*
G75*
G02*
X114992000Y-151307750I-250000J0D01*
G01*
X114492000Y-151307750D01*
G75*
G02*
X114242000Y-151057750I0J250000D01*
G01*
X114242000Y-150107750D01*
G75*
G02*
X114492000Y-149857750I250000J0D01*
G01*
X114992000Y-149857750D01*
G75*
G02*
X115242000Y-150107750I0J-250000D01*
G01*
G37*
G04 #@! TD.AperFunction*
G04 #@! TA.AperFunction,SMDPad,CuDef*
G36*
G01*
X113342000Y-150107750D02*
X113342000Y-151057750D01*
G75*
G02*
X113092000Y-151307750I-250000J0D01*
G01*
X112592000Y-151307750D01*
G75*
G02*
X112342000Y-151057750I0J250000D01*
G01*
X112342000Y-150107750D01*
G75*
G02*
X112592000Y-149857750I250000J0D01*
G01*
X113092000Y-149857750D01*
G75*
G02*
X113342000Y-150107750I0J-250000D01*
G01*
G37*
G04 #@! TD.AperFunction*
G04 #@! TA.AperFunction,SMDPad,CuDef*
G36*
G01*
X61163000Y-120537000D02*
X61163000Y-121737000D01*
G75*
G02*
X60963000Y-121937000I-200000J0D01*
G01*
X60563000Y-121937000D01*
G75*
G02*
X60363000Y-121737000I0J200000D01*
G01*
X60363000Y-120537000D01*
G75*
G02*
X60563000Y-120337000I200000J0D01*
G01*
X60963000Y-120337000D01*
G75*
G02*
X61163000Y-120537000I0J-200000D01*
G01*
G37*
G04 #@! TD.AperFunction*
G04 #@! TA.AperFunction,SMDPad,CuDef*
G36*
G01*
X59913000Y-120537000D02*
X59913000Y-121737000D01*
G75*
G02*
X59713000Y-121937000I-200000J0D01*
G01*
X59313000Y-121937000D01*
G75*
G02*
X59113000Y-121737000I0J200000D01*
G01*
X59113000Y-120537000D01*
G75*
G02*
X59313000Y-120337000I200000J0D01*
G01*
X59713000Y-120337000D01*
G75*
G02*
X59913000Y-120537000I0J-200000D01*
G01*
G37*
G04 #@! TD.AperFunction*
G04 #@! TA.AperFunction,SMDPad,CuDef*
G36*
G01*
X58663000Y-120537000D02*
X58663000Y-121737000D01*
G75*
G02*
X58463000Y-121937000I-200000J0D01*
G01*
X58063000Y-121937000D01*
G75*
G02*
X57863000Y-121737000I0J200000D01*
G01*
X57863000Y-120537000D01*
G75*
G02*
X58063000Y-120337000I200000J0D01*
G01*
X58463000Y-120337000D01*
G75*
G02*
X58663000Y-120537000I0J-200000D01*
G01*
G37*
G04 #@! TD.AperFunction*
G04 #@! TA.AperFunction,SMDPad,CuDef*
G36*
G01*
X57413000Y-120537000D02*
X57413000Y-121737000D01*
G75*
G02*
X57213000Y-121937000I-200000J0D01*
G01*
X56813000Y-121937000D01*
G75*
G02*
X56613000Y-121737000I0J200000D01*
G01*
X56613000Y-120537000D01*
G75*
G02*
X56813000Y-120337000I200000J0D01*
G01*
X57213000Y-120337000D01*
G75*
G02*
X57413000Y-120537000I0J-200000D01*
G01*
G37*
G04 #@! TD.AperFunction*
G04 #@! TA.AperFunction,SMDPad,CuDef*
G36*
G01*
X55513000Y-116987001D02*
X55513000Y-119486999D01*
G75*
G02*
X55262999Y-119737000I-250001J0D01*
G01*
X53663001Y-119737000D01*
G75*
G02*
X53413000Y-119486999I0J250001D01*
G01*
X53413000Y-116987001D01*
G75*
G02*
X53663001Y-116737000I250001J0D01*
G01*
X55262999Y-116737000D01*
G75*
G02*
X55513000Y-116987001I0J-250001D01*
G01*
G37*
G04 #@! TD.AperFunction*
G04 #@! TA.AperFunction,SMDPad,CuDef*
G36*
G01*
X64363000Y-116987001D02*
X64363000Y-119486999D01*
G75*
G02*
X64112999Y-119737000I-250001J0D01*
G01*
X62513001Y-119737000D01*
G75*
G02*
X62263000Y-119486999I0J250001D01*
G01*
X62263000Y-116987001D01*
G75*
G02*
X62513001Y-116737000I250001J0D01*
G01*
X64112999Y-116737000D01*
G75*
G02*
X64363000Y-116987001I0J-250001D01*
G01*
G37*
G04 #@! TD.AperFunction*
G04 #@! TA.AperFunction,SMDPad,CuDef*
G36*
X47648000Y-127647000D02*
G01*
X48148000Y-127647000D01*
X48148000Y-127651967D01*
X48227941Y-127653432D01*
X48363256Y-127695707D01*
X48481266Y-127774262D01*
X48572486Y-127882781D01*
X48629581Y-128012540D01*
X48647164Y-128147000D01*
X48648000Y-128147000D01*
X48648000Y-128647000D01*
X48647164Y-128647000D01*
X48647963Y-128653109D01*
X48626152Y-128793186D01*
X48565904Y-128921511D01*
X48472060Y-129027769D01*
X48352165Y-129103417D01*
X48215858Y-129142374D01*
X48148000Y-129141959D01*
X48148000Y-129147000D01*
X47648000Y-129147000D01*
X47648000Y-127647000D01*
G37*
G04 #@! TD.AperFunction*
G04 #@! TA.AperFunction,SMDPad,CuDef*
G36*
X46848000Y-129141959D02*
G01*
X46774095Y-129141508D01*
X46638274Y-129100889D01*
X46519312Y-129023782D01*
X46426774Y-128916385D01*
X46368097Y-128787333D01*
X46348000Y-128647000D01*
X46348000Y-128147000D01*
X46348149Y-128134784D01*
X46371669Y-127994983D01*
X46433481Y-127867404D01*
X46528616Y-127762300D01*
X46649426Y-127688123D01*
X46786199Y-127650834D01*
X46848000Y-127651967D01*
X46848000Y-127647000D01*
X47348000Y-127647000D01*
X47348000Y-129147000D01*
X46848000Y-129147000D01*
X46848000Y-129141959D01*
G37*
G04 #@! TD.AperFunction*
G04 #@! TA.AperFunction,SMDPad,CuDef*
G36*
G01*
X116788500Y-156874750D02*
X116788500Y-155974750D01*
G75*
G02*
X117038500Y-155724750I250000J0D01*
G01*
X117563500Y-155724750D01*
G75*
G02*
X117813500Y-155974750I0J-250000D01*
G01*
X117813500Y-156874750D01*
G75*
G02*
X117563500Y-157124750I-250000J0D01*
G01*
X117038500Y-157124750D01*
G75*
G02*
X116788500Y-156874750I0J250000D01*
G01*
G37*
G04 #@! TD.AperFunction*
G04 #@! TA.AperFunction,SMDPad,CuDef*
G36*
G01*
X118613500Y-156874750D02*
X118613500Y-155974750D01*
G75*
G02*
X118863500Y-155724750I250000J0D01*
G01*
X119388500Y-155724750D01*
G75*
G02*
X119638500Y-155974750I0J-250000D01*
G01*
X119638500Y-156874750D01*
G75*
G02*
X119388500Y-157124750I-250000J0D01*
G01*
X118863500Y-157124750D01*
G75*
G02*
X118613500Y-156874750I0J250000D01*
G01*
G37*
G04 #@! TD.AperFunction*
G04 #@! TA.AperFunction,SMDPad,CuDef*
G36*
G01*
X115242000Y-133597750D02*
X115242000Y-134547750D01*
G75*
G02*
X114992000Y-134797750I-250000J0D01*
G01*
X114492000Y-134797750D01*
G75*
G02*
X114242000Y-134547750I0J250000D01*
G01*
X114242000Y-133597750D01*
G75*
G02*
X114492000Y-133347750I250000J0D01*
G01*
X114992000Y-133347750D01*
G75*
G02*
X115242000Y-133597750I0J-250000D01*
G01*
G37*
G04 #@! TD.AperFunction*
G04 #@! TA.AperFunction,SMDPad,CuDef*
G36*
G01*
X113342000Y-133597750D02*
X113342000Y-134547750D01*
G75*
G02*
X113092000Y-134797750I-250000J0D01*
G01*
X112592000Y-134797750D01*
G75*
G02*
X112342000Y-134547750I0J250000D01*
G01*
X112342000Y-133597750D01*
G75*
G02*
X112592000Y-133347750I250000J0D01*
G01*
X113092000Y-133347750D01*
G75*
G02*
X113342000Y-133597750I0J-250000D01*
G01*
G37*
G04 #@! TD.AperFunction*
G04 #@! TA.AperFunction,SMDPad,CuDef*
G36*
G01*
X139987000Y-154212750D02*
X140937000Y-154212750D01*
G75*
G02*
X141187000Y-154462750I0J-250000D01*
G01*
X141187000Y-154962750D01*
G75*
G02*
X140937000Y-155212750I-250000J0D01*
G01*
X139987000Y-155212750D01*
G75*
G02*
X139737000Y-154962750I0J250000D01*
G01*
X139737000Y-154462750D01*
G75*
G02*
X139987000Y-154212750I250000J0D01*
G01*
G37*
G04 #@! TD.AperFunction*
G04 #@! TA.AperFunction,SMDPad,CuDef*
G36*
G01*
X139987000Y-156112750D02*
X140937000Y-156112750D01*
G75*
G02*
X141187000Y-156362750I0J-250000D01*
G01*
X141187000Y-156862750D01*
G75*
G02*
X140937000Y-157112750I-250000J0D01*
G01*
X139987000Y-157112750D01*
G75*
G02*
X139737000Y-156862750I0J250000D01*
G01*
X139737000Y-156362750D01*
G75*
G02*
X139987000Y-156112750I250000J0D01*
G01*
G37*
G04 #@! TD.AperFunction*
G04 #@! TA.AperFunction,SMDPad,CuDef*
G36*
G01*
X42263000Y-185368250D02*
X42263000Y-184455750D01*
G75*
G02*
X42506750Y-184212000I243750J0D01*
G01*
X42994250Y-184212000D01*
G75*
G02*
X43238000Y-184455750I0J-243750D01*
G01*
X43238000Y-185368250D01*
G75*
G02*
X42994250Y-185612000I-243750J0D01*
G01*
X42506750Y-185612000D01*
G75*
G02*
X42263000Y-185368250I0J243750D01*
G01*
G37*
G04 #@! TD.AperFunction*
G04 #@! TA.AperFunction,SMDPad,CuDef*
G36*
G01*
X44138000Y-185368250D02*
X44138000Y-184455750D01*
G75*
G02*
X44381750Y-184212000I243750J0D01*
G01*
X44869250Y-184212000D01*
G75*
G02*
X45113000Y-184455750I0J-243750D01*
G01*
X45113000Y-185368250D01*
G75*
G02*
X44869250Y-185612000I-243750J0D01*
G01*
X44381750Y-185612000D01*
G75*
G02*
X44138000Y-185368250I0J243750D01*
G01*
G37*
G04 #@! TD.AperFunction*
D17*
X116038000Y-123188850D03*
X113538000Y-123188850D03*
X111038000Y-123188850D03*
X116038000Y-128700650D03*
X113538000Y-128700650D03*
X111038000Y-128700650D03*
D18*
X129067500Y-176978750D03*
D19*
X130337500Y-174438750D03*
X131607500Y-176978750D03*
X132877500Y-174438750D03*
X134147500Y-176978750D03*
X135417500Y-174438750D03*
X136687500Y-176978750D03*
X137957500Y-174438750D03*
D20*
X118872000Y-186110750D03*
X118872000Y-182110750D03*
G04 #@! TA.AperFunction,SMDPad,CuDef*
G36*
G01*
X119638500Y-133622750D02*
X119638500Y-134522750D01*
G75*
G02*
X119388500Y-134772750I-250000J0D01*
G01*
X118863500Y-134772750D01*
G75*
G02*
X118613500Y-134522750I0J250000D01*
G01*
X118613500Y-133622750D01*
G75*
G02*
X118863500Y-133372750I250000J0D01*
G01*
X119388500Y-133372750D01*
G75*
G02*
X119638500Y-133622750I0J-250000D01*
G01*
G37*
G04 #@! TD.AperFunction*
G04 #@! TA.AperFunction,SMDPad,CuDef*
G36*
G01*
X117813500Y-133622750D02*
X117813500Y-134522750D01*
G75*
G02*
X117563500Y-134772750I-250000J0D01*
G01*
X117038500Y-134772750D01*
G75*
G02*
X116788500Y-134522750I0J250000D01*
G01*
X116788500Y-133622750D01*
G75*
G02*
X117038500Y-133372750I250000J0D01*
G01*
X117563500Y-133372750D01*
G75*
G02*
X117813500Y-133622750I0J-250000D01*
G01*
G37*
G04 #@! TD.AperFunction*
D13*
X35179000Y-150170000D03*
D14*
X35179000Y-153670000D03*
X35179000Y-157170000D03*
G04 #@! TA.AperFunction,SMDPad,CuDef*
G36*
G01*
X55786000Y-165682000D02*
X56736000Y-165682000D01*
G75*
G02*
X56986000Y-165932000I0J-250000D01*
G01*
X56986000Y-166432000D01*
G75*
G02*
X56736000Y-166682000I-250000J0D01*
G01*
X55786000Y-166682000D01*
G75*
G02*
X55536000Y-166432000I0J250000D01*
G01*
X55536000Y-165932000D01*
G75*
G02*
X55786000Y-165682000I250000J0D01*
G01*
G37*
G04 #@! TD.AperFunction*
G04 #@! TA.AperFunction,SMDPad,CuDef*
G36*
G01*
X55786000Y-167582000D02*
X56736000Y-167582000D01*
G75*
G02*
X56986000Y-167832000I0J-250000D01*
G01*
X56986000Y-168332000D01*
G75*
G02*
X56736000Y-168582000I-250000J0D01*
G01*
X55786000Y-168582000D01*
G75*
G02*
X55536000Y-168332000I0J250000D01*
G01*
X55536000Y-167832000D01*
G75*
G02*
X55786000Y-167582000I250000J0D01*
G01*
G37*
G04 #@! TD.AperFunction*
G04 #@! TA.AperFunction,SMDPad,CuDef*
G36*
G01*
X42319000Y-137853000D02*
X42319000Y-138753000D01*
G75*
G02*
X42069000Y-139003000I-250000J0D01*
G01*
X41544000Y-139003000D01*
G75*
G02*
X41294000Y-138753000I0J250000D01*
G01*
X41294000Y-137853000D01*
G75*
G02*
X41544000Y-137603000I250000J0D01*
G01*
X42069000Y-137603000D01*
G75*
G02*
X42319000Y-137853000I0J-250000D01*
G01*
G37*
G04 #@! TD.AperFunction*
G04 #@! TA.AperFunction,SMDPad,CuDef*
G36*
G01*
X40494000Y-137853000D02*
X40494000Y-138753000D01*
G75*
G02*
X40244000Y-139003000I-250000J0D01*
G01*
X39719000Y-139003000D01*
G75*
G02*
X39469000Y-138753000I0J250000D01*
G01*
X39469000Y-137853000D01*
G75*
G02*
X39719000Y-137603000I250000J0D01*
G01*
X40244000Y-137603000D01*
G75*
G02*
X40494000Y-137853000I0J-250000D01*
G01*
G37*
G04 #@! TD.AperFunction*
G04 #@! TA.AperFunction,SMDPad,CuDef*
G36*
G01*
X119638500Y-146830750D02*
X119638500Y-147730750D01*
G75*
G02*
X119388500Y-147980750I-250000J0D01*
G01*
X118863500Y-147980750D01*
G75*
G02*
X118613500Y-147730750I0J250000D01*
G01*
X118613500Y-146830750D01*
G75*
G02*
X118863500Y-146580750I250000J0D01*
G01*
X119388500Y-146580750D01*
G75*
G02*
X119638500Y-146830750I0J-250000D01*
G01*
G37*
G04 #@! TD.AperFunction*
G04 #@! TA.AperFunction,SMDPad,CuDef*
G36*
G01*
X117813500Y-146830750D02*
X117813500Y-147730750D01*
G75*
G02*
X117563500Y-147980750I-250000J0D01*
G01*
X117038500Y-147980750D01*
G75*
G02*
X116788500Y-147730750I0J250000D01*
G01*
X116788500Y-146830750D01*
G75*
G02*
X117038500Y-146580750I250000J0D01*
G01*
X117563500Y-146580750D01*
G75*
G02*
X117813500Y-146830750I0J-250000D01*
G01*
G37*
G04 #@! TD.AperFunction*
D21*
X55793000Y-184704000D03*
D22*
X60793000Y-184704000D03*
D23*
X136410700Y-150036650D03*
X133210300Y-150036650D03*
X131000500Y-150036650D03*
X128790700Y-150036650D03*
X128790700Y-157224850D03*
X131000500Y-157224850D03*
X133210300Y-157224850D03*
X136410700Y-157224850D03*
D13*
X35179000Y-137978000D03*
D14*
X35179000Y-141478000D03*
X35179000Y-144978000D03*
D23*
X136410700Y-161720650D03*
X133210300Y-161720650D03*
X131000500Y-161720650D03*
X128790700Y-161720650D03*
X128790700Y-168908850D03*
X131000500Y-168908850D03*
X133210300Y-168908850D03*
X136410700Y-168908850D03*
X136410700Y-138352650D03*
X133210300Y-138352650D03*
X131000500Y-138352650D03*
X128790700Y-138352650D03*
X128790700Y-145540850D03*
X131000500Y-145540850D03*
X133210300Y-145540850D03*
X136410700Y-145540850D03*
G04 #@! TA.AperFunction,SMDPad,CuDef*
G36*
G01*
X42319000Y-141155000D02*
X42319000Y-142055000D01*
G75*
G02*
X42069000Y-142305000I-250000J0D01*
G01*
X41544000Y-142305000D01*
G75*
G02*
X41294000Y-142055000I0J250000D01*
G01*
X41294000Y-141155000D01*
G75*
G02*
X41544000Y-140905000I250000J0D01*
G01*
X42069000Y-140905000D01*
G75*
G02*
X42319000Y-141155000I0J-250000D01*
G01*
G37*
G04 #@! TD.AperFunction*
G04 #@! TA.AperFunction,SMDPad,CuDef*
G36*
G01*
X40494000Y-141155000D02*
X40494000Y-142055000D01*
G75*
G02*
X40244000Y-142305000I-250000J0D01*
G01*
X39719000Y-142305000D01*
G75*
G02*
X39469000Y-142055000I0J250000D01*
G01*
X39469000Y-141155000D01*
G75*
G02*
X39719000Y-140905000I250000J0D01*
G01*
X40244000Y-140905000D01*
G75*
G02*
X40494000Y-141155000I0J-250000D01*
G01*
G37*
G04 #@! TD.AperFunction*
G04 #@! TA.AperFunction,SMDPad,CuDef*
G36*
G01*
X116788500Y-159414750D02*
X116788500Y-158514750D01*
G75*
G02*
X117038500Y-158264750I250000J0D01*
G01*
X117563500Y-158264750D01*
G75*
G02*
X117813500Y-158514750I0J-250000D01*
G01*
X117813500Y-159414750D01*
G75*
G02*
X117563500Y-159664750I-250000J0D01*
G01*
X117038500Y-159664750D01*
G75*
G02*
X116788500Y-159414750I0J250000D01*
G01*
G37*
G04 #@! TD.AperFunction*
G04 #@! TA.AperFunction,SMDPad,CuDef*
G36*
G01*
X118613500Y-159414750D02*
X118613500Y-158514750D01*
G75*
G02*
X118863500Y-158264750I250000J0D01*
G01*
X119388500Y-158264750D01*
G75*
G02*
X119638500Y-158514750I0J-250000D01*
G01*
X119638500Y-159414750D01*
G75*
G02*
X119388500Y-159664750I-250000J0D01*
G01*
X118863500Y-159664750D01*
G75*
G02*
X118613500Y-159414750I0J250000D01*
G01*
G37*
G04 #@! TD.AperFunction*
D18*
X103886000Y-176998750D03*
D19*
X105156000Y-174458750D03*
X106426000Y-176998750D03*
X107696000Y-174458750D03*
X108966000Y-176998750D03*
X110236000Y-174458750D03*
X111506000Y-176998750D03*
X112776000Y-174458750D03*
G04 #@! TA.AperFunction,SMDPad,CuDef*
G36*
G01*
X42319000Y-172016000D02*
X42319000Y-172916000D01*
G75*
G02*
X42069000Y-173166000I-250000J0D01*
G01*
X41544000Y-173166000D01*
G75*
G02*
X41294000Y-172916000I0J250000D01*
G01*
X41294000Y-172016000D01*
G75*
G02*
X41544000Y-171766000I250000J0D01*
G01*
X42069000Y-171766000D01*
G75*
G02*
X42319000Y-172016000I0J-250000D01*
G01*
G37*
G04 #@! TD.AperFunction*
G04 #@! TA.AperFunction,SMDPad,CuDef*
G36*
G01*
X40494000Y-172016000D02*
X40494000Y-172916000D01*
G75*
G02*
X40244000Y-173166000I-250000J0D01*
G01*
X39719000Y-173166000D01*
G75*
G02*
X39469000Y-172916000I0J250000D01*
G01*
X39469000Y-172016000D01*
G75*
G02*
X39719000Y-171766000I250000J0D01*
G01*
X40244000Y-171766000D01*
G75*
G02*
X40494000Y-172016000I0J-250000D01*
G01*
G37*
G04 #@! TD.AperFunction*
G04 #@! TA.AperFunction,SMDPad,CuDef*
G36*
G01*
X71316000Y-151666000D02*
X70416000Y-151666000D01*
G75*
G02*
X70166000Y-151416000I0J250000D01*
G01*
X70166000Y-150891000D01*
G75*
G02*
X70416000Y-150641000I250000J0D01*
G01*
X71316000Y-150641000D01*
G75*
G02*
X71566000Y-150891000I0J-250000D01*
G01*
X71566000Y-151416000D01*
G75*
G02*
X71316000Y-151666000I-250000J0D01*
G01*
G37*
G04 #@! TD.AperFunction*
G04 #@! TA.AperFunction,SMDPad,CuDef*
G36*
G01*
X71316000Y-149841000D02*
X70416000Y-149841000D01*
G75*
G02*
X70166000Y-149591000I0J250000D01*
G01*
X70166000Y-149066000D01*
G75*
G02*
X70416000Y-148816000I250000J0D01*
G01*
X71316000Y-148816000D01*
G75*
G02*
X71566000Y-149066000I0J-250000D01*
G01*
X71566000Y-149591000D01*
G75*
G02*
X71316000Y-149841000I-250000J0D01*
G01*
G37*
G04 #@! TD.AperFunction*
G04 #@! TA.AperFunction,SMDPad,CuDef*
G36*
X87861000Y-173557750D02*
G01*
X87361000Y-173557750D01*
X87361000Y-173552783D01*
X87281059Y-173551318D01*
X87145744Y-173509043D01*
X87027734Y-173430488D01*
X86936514Y-173321969D01*
X86879419Y-173192210D01*
X86861836Y-173057750D01*
X86861000Y-173057750D01*
X86861000Y-172557750D01*
X86861836Y-172557750D01*
X86861037Y-172551641D01*
X86882848Y-172411564D01*
X86943096Y-172283239D01*
X87036940Y-172176981D01*
X87156835Y-172101333D01*
X87293142Y-172062376D01*
X87361000Y-172062791D01*
X87361000Y-172057750D01*
X87861000Y-172057750D01*
X87861000Y-173557750D01*
G37*
G04 #@! TD.AperFunction*
G04 #@! TA.AperFunction,SMDPad,CuDef*
G36*
X88661000Y-172062791D02*
G01*
X88734905Y-172063242D01*
X88870726Y-172103861D01*
X88989688Y-172180968D01*
X89082226Y-172288365D01*
X89140903Y-172417417D01*
X89161000Y-172557750D01*
X89161000Y-173057750D01*
X89160851Y-173069966D01*
X89137331Y-173209767D01*
X89075519Y-173337346D01*
X88980384Y-173442450D01*
X88859574Y-173516627D01*
X88722801Y-173553916D01*
X88661000Y-173552783D01*
X88661000Y-173557750D01*
X88161000Y-173557750D01*
X88161000Y-172057750D01*
X88661000Y-172057750D01*
X88661000Y-172062791D01*
G37*
G04 #@! TD.AperFunction*
G04 #@! TA.AperFunction,SMDPad,CuDef*
G36*
G01*
X42319000Y-134551000D02*
X42319000Y-135451000D01*
G75*
G02*
X42069000Y-135701000I-250000J0D01*
G01*
X41544000Y-135701000D01*
G75*
G02*
X41294000Y-135451000I0J250000D01*
G01*
X41294000Y-134551000D01*
G75*
G02*
X41544000Y-134301000I250000J0D01*
G01*
X42069000Y-134301000D01*
G75*
G02*
X42319000Y-134551000I0J-250000D01*
G01*
G37*
G04 #@! TD.AperFunction*
G04 #@! TA.AperFunction,SMDPad,CuDef*
G36*
G01*
X40494000Y-134551000D02*
X40494000Y-135451000D01*
G75*
G02*
X40244000Y-135701000I-250000J0D01*
G01*
X39719000Y-135701000D01*
G75*
G02*
X39469000Y-135451000I0J250000D01*
G01*
X39469000Y-134551000D01*
G75*
G02*
X39719000Y-134301000I250000J0D01*
G01*
X40244000Y-134301000D01*
G75*
G02*
X40494000Y-134551000I0J-250000D01*
G01*
G37*
G04 #@! TD.AperFunction*
G04 #@! TA.AperFunction,SMDPad,CuDef*
G36*
G01*
X101925000Y-134730750D02*
X101925000Y-134430750D01*
G75*
G02*
X102075000Y-134280750I150000J0D01*
G01*
X103525000Y-134280750D01*
G75*
G02*
X103675000Y-134430750I0J-150000D01*
G01*
X103675000Y-134730750D01*
G75*
G02*
X103525000Y-134880750I-150000J0D01*
G01*
X102075000Y-134880750D01*
G75*
G02*
X101925000Y-134730750I0J150000D01*
G01*
G37*
G04 #@! TD.AperFunction*
G04 #@! TA.AperFunction,SMDPad,CuDef*
G36*
G01*
X101925000Y-136000750D02*
X101925000Y-135700750D01*
G75*
G02*
X102075000Y-135550750I150000J0D01*
G01*
X103525000Y-135550750D01*
G75*
G02*
X103675000Y-135700750I0J-150000D01*
G01*
X103675000Y-136000750D01*
G75*
G02*
X103525000Y-136150750I-150000J0D01*
G01*
X102075000Y-136150750D01*
G75*
G02*
X101925000Y-136000750I0J150000D01*
G01*
G37*
G04 #@! TD.AperFunction*
G04 #@! TA.AperFunction,SMDPad,CuDef*
G36*
G01*
X101925000Y-137270750D02*
X101925000Y-136970750D01*
G75*
G02*
X102075000Y-136820750I150000J0D01*
G01*
X103525000Y-136820750D01*
G75*
G02*
X103675000Y-136970750I0J-150000D01*
G01*
X103675000Y-137270750D01*
G75*
G02*
X103525000Y-137420750I-150000J0D01*
G01*
X102075000Y-137420750D01*
G75*
G02*
X101925000Y-137270750I0J150000D01*
G01*
G37*
G04 #@! TD.AperFunction*
G04 #@! TA.AperFunction,SMDPad,CuDef*
G36*
G01*
X101925000Y-138540750D02*
X101925000Y-138240750D01*
G75*
G02*
X102075000Y-138090750I150000J0D01*
G01*
X103525000Y-138090750D01*
G75*
G02*
X103675000Y-138240750I0J-150000D01*
G01*
X103675000Y-138540750D01*
G75*
G02*
X103525000Y-138690750I-150000J0D01*
G01*
X102075000Y-138690750D01*
G75*
G02*
X101925000Y-138540750I0J150000D01*
G01*
G37*
G04 #@! TD.AperFunction*
G04 #@! TA.AperFunction,SMDPad,CuDef*
G36*
G01*
X101925000Y-139810750D02*
X101925000Y-139510750D01*
G75*
G02*
X102075000Y-139360750I150000J0D01*
G01*
X103525000Y-139360750D01*
G75*
G02*
X103675000Y-139510750I0J-150000D01*
G01*
X103675000Y-139810750D01*
G75*
G02*
X103525000Y-139960750I-150000J0D01*
G01*
X102075000Y-139960750D01*
G75*
G02*
X101925000Y-139810750I0J150000D01*
G01*
G37*
G04 #@! TD.AperFunction*
G04 #@! TA.AperFunction,SMDPad,CuDef*
G36*
G01*
X101925000Y-141080750D02*
X101925000Y-140780750D01*
G75*
G02*
X102075000Y-140630750I150000J0D01*
G01*
X103525000Y-140630750D01*
G75*
G02*
X103675000Y-140780750I0J-150000D01*
G01*
X103675000Y-141080750D01*
G75*
G02*
X103525000Y-141230750I-150000J0D01*
G01*
X102075000Y-141230750D01*
G75*
G02*
X101925000Y-141080750I0J150000D01*
G01*
G37*
G04 #@! TD.AperFunction*
G04 #@! TA.AperFunction,SMDPad,CuDef*
G36*
G01*
X101925000Y-142350750D02*
X101925000Y-142050750D01*
G75*
G02*
X102075000Y-141900750I150000J0D01*
G01*
X103525000Y-141900750D01*
G75*
G02*
X103675000Y-142050750I0J-150000D01*
G01*
X103675000Y-142350750D01*
G75*
G02*
X103525000Y-142500750I-150000J0D01*
G01*
X102075000Y-142500750D01*
G75*
G02*
X101925000Y-142350750I0J150000D01*
G01*
G37*
G04 #@! TD.AperFunction*
G04 #@! TA.AperFunction,SMDPad,CuDef*
G36*
G01*
X101925000Y-143620750D02*
X101925000Y-143320750D01*
G75*
G02*
X102075000Y-143170750I150000J0D01*
G01*
X103525000Y-143170750D01*
G75*
G02*
X103675000Y-143320750I0J-150000D01*
G01*
X103675000Y-143620750D01*
G75*
G02*
X103525000Y-143770750I-150000J0D01*
G01*
X102075000Y-143770750D01*
G75*
G02*
X101925000Y-143620750I0J150000D01*
G01*
G37*
G04 #@! TD.AperFunction*
G04 #@! TA.AperFunction,SMDPad,CuDef*
G36*
G01*
X107075000Y-143620750D02*
X107075000Y-143320750D01*
G75*
G02*
X107225000Y-143170750I150000J0D01*
G01*
X108675000Y-143170750D01*
G75*
G02*
X108825000Y-143320750I0J-150000D01*
G01*
X108825000Y-143620750D01*
G75*
G02*
X108675000Y-143770750I-150000J0D01*
G01*
X107225000Y-143770750D01*
G75*
G02*
X107075000Y-143620750I0J150000D01*
G01*
G37*
G04 #@! TD.AperFunction*
G04 #@! TA.AperFunction,SMDPad,CuDef*
G36*
G01*
X107075000Y-142350750D02*
X107075000Y-142050750D01*
G75*
G02*
X107225000Y-141900750I150000J0D01*
G01*
X108675000Y-141900750D01*
G75*
G02*
X108825000Y-142050750I0J-150000D01*
G01*
X108825000Y-142350750D01*
G75*
G02*
X108675000Y-142500750I-150000J0D01*
G01*
X107225000Y-142500750D01*
G75*
G02*
X107075000Y-142350750I0J150000D01*
G01*
G37*
G04 #@! TD.AperFunction*
G04 #@! TA.AperFunction,SMDPad,CuDef*
G36*
G01*
X107075000Y-141080750D02*
X107075000Y-140780750D01*
G75*
G02*
X107225000Y-140630750I150000J0D01*
G01*
X108675000Y-140630750D01*
G75*
G02*
X108825000Y-140780750I0J-150000D01*
G01*
X108825000Y-141080750D01*
G75*
G02*
X108675000Y-141230750I-150000J0D01*
G01*
X107225000Y-141230750D01*
G75*
G02*
X107075000Y-141080750I0J150000D01*
G01*
G37*
G04 #@! TD.AperFunction*
G04 #@! TA.AperFunction,SMDPad,CuDef*
G36*
G01*
X107075000Y-139810750D02*
X107075000Y-139510750D01*
G75*
G02*
X107225000Y-139360750I150000J0D01*
G01*
X108675000Y-139360750D01*
G75*
G02*
X108825000Y-139510750I0J-150000D01*
G01*
X108825000Y-139810750D01*
G75*
G02*
X108675000Y-139960750I-150000J0D01*
G01*
X107225000Y-139960750D01*
G75*
G02*
X107075000Y-139810750I0J150000D01*
G01*
G37*
G04 #@! TD.AperFunction*
G04 #@! TA.AperFunction,SMDPad,CuDef*
G36*
G01*
X107075000Y-138540750D02*
X107075000Y-138240750D01*
G75*
G02*
X107225000Y-138090750I150000J0D01*
G01*
X108675000Y-138090750D01*
G75*
G02*
X108825000Y-138240750I0J-150000D01*
G01*
X108825000Y-138540750D01*
G75*
G02*
X108675000Y-138690750I-150000J0D01*
G01*
X107225000Y-138690750D01*
G75*
G02*
X107075000Y-138540750I0J150000D01*
G01*
G37*
G04 #@! TD.AperFunction*
G04 #@! TA.AperFunction,SMDPad,CuDef*
G36*
G01*
X107075000Y-137270750D02*
X107075000Y-136970750D01*
G75*
G02*
X107225000Y-136820750I150000J0D01*
G01*
X108675000Y-136820750D01*
G75*
G02*
X108825000Y-136970750I0J-150000D01*
G01*
X108825000Y-137270750D01*
G75*
G02*
X108675000Y-137420750I-150000J0D01*
G01*
X107225000Y-137420750D01*
G75*
G02*
X107075000Y-137270750I0J150000D01*
G01*
G37*
G04 #@! TD.AperFunction*
G04 #@! TA.AperFunction,SMDPad,CuDef*
G36*
G01*
X107075000Y-136000750D02*
X107075000Y-135700750D01*
G75*
G02*
X107225000Y-135550750I150000J0D01*
G01*
X108675000Y-135550750D01*
G75*
G02*
X108825000Y-135700750I0J-150000D01*
G01*
X108825000Y-136000750D01*
G75*
G02*
X108675000Y-136150750I-150000J0D01*
G01*
X107225000Y-136150750D01*
G75*
G02*
X107075000Y-136000750I0J150000D01*
G01*
G37*
G04 #@! TD.AperFunction*
G04 #@! TA.AperFunction,SMDPad,CuDef*
G36*
G01*
X107075000Y-134730750D02*
X107075000Y-134430750D01*
G75*
G02*
X107225000Y-134280750I150000J0D01*
G01*
X108675000Y-134280750D01*
G75*
G02*
X108825000Y-134430750I0J-150000D01*
G01*
X108825000Y-134730750D01*
G75*
G02*
X108675000Y-134880750I-150000J0D01*
G01*
X107225000Y-134880750D01*
G75*
G02*
X107075000Y-134730750I0J150000D01*
G01*
G37*
G04 #@! TD.AperFunction*
G04 #@! TA.AperFunction,SMDPad,CuDef*
G36*
G01*
X99474000Y-135543750D02*
X100424000Y-135543750D01*
G75*
G02*
X100674000Y-135793750I0J-250000D01*
G01*
X100674000Y-136293750D01*
G75*
G02*
X100424000Y-136543750I-250000J0D01*
G01*
X99474000Y-136543750D01*
G75*
G02*
X99224000Y-136293750I0J250000D01*
G01*
X99224000Y-135793750D01*
G75*
G02*
X99474000Y-135543750I250000J0D01*
G01*
G37*
G04 #@! TD.AperFunction*
G04 #@! TA.AperFunction,SMDPad,CuDef*
G36*
G01*
X99474000Y-137443750D02*
X100424000Y-137443750D01*
G75*
G02*
X100674000Y-137693750I0J-250000D01*
G01*
X100674000Y-138193750D01*
G75*
G02*
X100424000Y-138443750I-250000J0D01*
G01*
X99474000Y-138443750D01*
G75*
G02*
X99224000Y-138193750I0J250000D01*
G01*
X99224000Y-137693750D01*
G75*
G02*
X99474000Y-137443750I250000J0D01*
G01*
G37*
G04 #@! TD.AperFunction*
D24*
X46570900Y-156170000D03*
X46570900Y-153670000D03*
X46570900Y-151170000D03*
X41059100Y-156170000D03*
X41059100Y-153670000D03*
X41059100Y-151170000D03*
G04 #@! TA.AperFunction,SMDPad,CuDef*
G36*
G01*
X119638500Y-143528750D02*
X119638500Y-144428750D01*
G75*
G02*
X119388500Y-144678750I-250000J0D01*
G01*
X118863500Y-144678750D01*
G75*
G02*
X118613500Y-144428750I0J250000D01*
G01*
X118613500Y-143528750D01*
G75*
G02*
X118863500Y-143278750I250000J0D01*
G01*
X119388500Y-143278750D01*
G75*
G02*
X119638500Y-143528750I0J-250000D01*
G01*
G37*
G04 #@! TD.AperFunction*
G04 #@! TA.AperFunction,SMDPad,CuDef*
G36*
G01*
X117813500Y-143528750D02*
X117813500Y-144428750D01*
G75*
G02*
X117563500Y-144678750I-250000J0D01*
G01*
X117038500Y-144678750D01*
G75*
G02*
X116788500Y-144428750I0J250000D01*
G01*
X116788500Y-143528750D01*
G75*
G02*
X117038500Y-143278750I250000J0D01*
G01*
X117563500Y-143278750D01*
G75*
G02*
X117813500Y-143528750I0J-250000D01*
G01*
G37*
G04 #@! TD.AperFunction*
G04 #@! TA.AperFunction,SMDPad,CuDef*
G36*
G01*
X115242000Y-140201750D02*
X115242000Y-141151750D01*
G75*
G02*
X114992000Y-141401750I-250000J0D01*
G01*
X114492000Y-141401750D01*
G75*
G02*
X114242000Y-141151750I0J250000D01*
G01*
X114242000Y-140201750D01*
G75*
G02*
X114492000Y-139951750I250000J0D01*
G01*
X114992000Y-139951750D01*
G75*
G02*
X115242000Y-140201750I0J-250000D01*
G01*
G37*
G04 #@! TD.AperFunction*
G04 #@! TA.AperFunction,SMDPad,CuDef*
G36*
G01*
X113342000Y-140201750D02*
X113342000Y-141151750D01*
G75*
G02*
X113092000Y-141401750I-250000J0D01*
G01*
X112592000Y-141401750D01*
G75*
G02*
X112342000Y-141151750I0J250000D01*
G01*
X112342000Y-140201750D01*
G75*
G02*
X112592000Y-139951750I250000J0D01*
G01*
X113092000Y-139951750D01*
G75*
G02*
X113342000Y-140201750I0J-250000D01*
G01*
G37*
G04 #@! TD.AperFunction*
G04 #@! TA.AperFunction,SMDPad,CuDef*
G36*
G01*
X74237000Y-175669000D02*
X73337000Y-175669000D01*
G75*
G02*
X73087000Y-175419000I0J250000D01*
G01*
X73087000Y-174894000D01*
G75*
G02*
X73337000Y-174644000I250000J0D01*
G01*
X74237000Y-174644000D01*
G75*
G02*
X74487000Y-174894000I0J-250000D01*
G01*
X74487000Y-175419000D01*
G75*
G02*
X74237000Y-175669000I-250000J0D01*
G01*
G37*
G04 #@! TD.AperFunction*
G04 #@! TA.AperFunction,SMDPad,CuDef*
G36*
G01*
X74237000Y-173844000D02*
X73337000Y-173844000D01*
G75*
G02*
X73087000Y-173594000I0J250000D01*
G01*
X73087000Y-173069000D01*
G75*
G02*
X73337000Y-172819000I250000J0D01*
G01*
X74237000Y-172819000D01*
G75*
G02*
X74487000Y-173069000I0J-250000D01*
G01*
X74487000Y-173594000D01*
G75*
G02*
X74237000Y-173844000I-250000J0D01*
G01*
G37*
G04 #@! TD.AperFunction*
G04 #@! TA.AperFunction,SMDPad,CuDef*
G36*
G01*
X119638500Y-153434750D02*
X119638500Y-154334750D01*
G75*
G02*
X119388500Y-154584750I-250000J0D01*
G01*
X118863500Y-154584750D01*
G75*
G02*
X118613500Y-154334750I0J250000D01*
G01*
X118613500Y-153434750D01*
G75*
G02*
X118863500Y-153184750I250000J0D01*
G01*
X119388500Y-153184750D01*
G75*
G02*
X119638500Y-153434750I0J-250000D01*
G01*
G37*
G04 #@! TD.AperFunction*
G04 #@! TA.AperFunction,SMDPad,CuDef*
G36*
G01*
X117813500Y-153434750D02*
X117813500Y-154334750D01*
G75*
G02*
X117563500Y-154584750I-250000J0D01*
G01*
X117038500Y-154584750D01*
G75*
G02*
X116788500Y-154334750I0J250000D01*
G01*
X116788500Y-153434750D01*
G75*
G02*
X117038500Y-153184750I250000J0D01*
G01*
X117563500Y-153184750D01*
G75*
G02*
X117813500Y-153434750I0J-250000D01*
G01*
G37*
G04 #@! TD.AperFunction*
G04 #@! TA.AperFunction,SMDPad,CuDef*
G36*
G01*
X99474000Y-147288750D02*
X100424000Y-147288750D01*
G75*
G02*
X100674000Y-147538750I0J-250000D01*
G01*
X100674000Y-148038750D01*
G75*
G02*
X100424000Y-148288750I-250000J0D01*
G01*
X99474000Y-148288750D01*
G75*
G02*
X99224000Y-148038750I0J250000D01*
G01*
X99224000Y-147538750D01*
G75*
G02*
X99474000Y-147288750I250000J0D01*
G01*
G37*
G04 #@! TD.AperFunction*
G04 #@! TA.AperFunction,SMDPad,CuDef*
G36*
G01*
X99474000Y-149188750D02*
X100424000Y-149188750D01*
G75*
G02*
X100674000Y-149438750I0J-250000D01*
G01*
X100674000Y-149938750D01*
G75*
G02*
X100424000Y-150188750I-250000J0D01*
G01*
X99474000Y-150188750D01*
G75*
G02*
X99224000Y-149938750I0J250000D01*
G01*
X99224000Y-149438750D01*
G75*
G02*
X99474000Y-149188750I250000J0D01*
G01*
G37*
G04 #@! TD.AperFunction*
G04 #@! TA.AperFunction,SMDPad,CuDef*
G36*
G01*
X71813000Y-129258000D02*
X72713000Y-129258000D01*
G75*
G02*
X72963000Y-129508000I0J-250000D01*
G01*
X72963000Y-130033000D01*
G75*
G02*
X72713000Y-130283000I-250000J0D01*
G01*
X71813000Y-130283000D01*
G75*
G02*
X71563000Y-130033000I0J250000D01*
G01*
X71563000Y-129508000D01*
G75*
G02*
X71813000Y-129258000I250000J0D01*
G01*
G37*
G04 #@! TD.AperFunction*
G04 #@! TA.AperFunction,SMDPad,CuDef*
G36*
G01*
X71813000Y-131083000D02*
X72713000Y-131083000D01*
G75*
G02*
X72963000Y-131333000I0J-250000D01*
G01*
X72963000Y-131858000D01*
G75*
G02*
X72713000Y-132108000I-250000J0D01*
G01*
X71813000Y-132108000D01*
G75*
G02*
X71563000Y-131858000I0J250000D01*
G01*
X71563000Y-131333000D01*
G75*
G02*
X71813000Y-131083000I250000J0D01*
G01*
G37*
G04 #@! TD.AperFunction*
G04 #@! TA.AperFunction,SMDPad,CuDef*
G36*
G01*
X119638500Y-150132750D02*
X119638500Y-151032750D01*
G75*
G02*
X119388500Y-151282750I-250000J0D01*
G01*
X118863500Y-151282750D01*
G75*
G02*
X118613500Y-151032750I0J250000D01*
G01*
X118613500Y-150132750D01*
G75*
G02*
X118863500Y-149882750I250000J0D01*
G01*
X119388500Y-149882750D01*
G75*
G02*
X119638500Y-150132750I0J-250000D01*
G01*
G37*
G04 #@! TD.AperFunction*
G04 #@! TA.AperFunction,SMDPad,CuDef*
G36*
G01*
X117813500Y-150132750D02*
X117813500Y-151032750D01*
G75*
G02*
X117563500Y-151282750I-250000J0D01*
G01*
X117038500Y-151282750D01*
G75*
G02*
X116788500Y-151032750I0J250000D01*
G01*
X116788500Y-150132750D01*
G75*
G02*
X117038500Y-149882750I250000J0D01*
G01*
X117563500Y-149882750D01*
G75*
G02*
X117813500Y-150132750I0J-250000D01*
G01*
G37*
G04 #@! TD.AperFunction*
G04 #@! TA.AperFunction,SMDPad,CuDef*
G36*
G01*
X116788500Y-164494750D02*
X116788500Y-163594750D01*
G75*
G02*
X117038500Y-163344750I250000J0D01*
G01*
X117563500Y-163344750D01*
G75*
G02*
X117813500Y-163594750I0J-250000D01*
G01*
X117813500Y-164494750D01*
G75*
G02*
X117563500Y-164744750I-250000J0D01*
G01*
X117038500Y-164744750D01*
G75*
G02*
X116788500Y-164494750I0J250000D01*
G01*
G37*
G04 #@! TD.AperFunction*
G04 #@! TA.AperFunction,SMDPad,CuDef*
G36*
G01*
X118613500Y-164494750D02*
X118613500Y-163594750D01*
G75*
G02*
X118863500Y-163344750I250000J0D01*
G01*
X119388500Y-163344750D01*
G75*
G02*
X119638500Y-163594750I0J-250000D01*
G01*
X119638500Y-164494750D01*
G75*
G02*
X119388500Y-164744750I-250000J0D01*
G01*
X118863500Y-164744750D01*
G75*
G02*
X118613500Y-164494750I0J250000D01*
G01*
G37*
G04 #@! TD.AperFunction*
G04 #@! TA.AperFunction,SMDPad,CuDef*
G36*
G01*
X68268000Y-151666000D02*
X67368000Y-151666000D01*
G75*
G02*
X67118000Y-151416000I0J250000D01*
G01*
X67118000Y-150891000D01*
G75*
G02*
X67368000Y-150641000I250000J0D01*
G01*
X68268000Y-150641000D01*
G75*
G02*
X68518000Y-150891000I0J-250000D01*
G01*
X68518000Y-151416000D01*
G75*
G02*
X68268000Y-151666000I-250000J0D01*
G01*
G37*
G04 #@! TD.AperFunction*
G04 #@! TA.AperFunction,SMDPad,CuDef*
G36*
G01*
X68268000Y-149841000D02*
X67368000Y-149841000D01*
G75*
G02*
X67118000Y-149591000I0J250000D01*
G01*
X67118000Y-149066000D01*
G75*
G02*
X67368000Y-148816000I250000J0D01*
G01*
X68268000Y-148816000D01*
G75*
G02*
X68518000Y-149066000I0J-250000D01*
G01*
X68518000Y-149591000D01*
G75*
G02*
X68268000Y-149841000I-250000J0D01*
G01*
G37*
G04 #@! TD.AperFunction*
D13*
X35179000Y-162235000D03*
D14*
X35179000Y-165735000D03*
X35179000Y-169235000D03*
G04 #@! TA.AperFunction,SMDPad,CuDef*
G36*
X47648000Y-130949000D02*
G01*
X48148000Y-130949000D01*
X48148000Y-130953967D01*
X48227941Y-130955432D01*
X48363256Y-130997707D01*
X48481266Y-131076262D01*
X48572486Y-131184781D01*
X48629581Y-131314540D01*
X48647164Y-131449000D01*
X48648000Y-131449000D01*
X48648000Y-131949000D01*
X48647164Y-131949000D01*
X48647963Y-131955109D01*
X48626152Y-132095186D01*
X48565904Y-132223511D01*
X48472060Y-132329769D01*
X48352165Y-132405417D01*
X48215858Y-132444374D01*
X48148000Y-132443959D01*
X48148000Y-132449000D01*
X47648000Y-132449000D01*
X47648000Y-130949000D01*
G37*
G04 #@! TD.AperFunction*
G04 #@! TA.AperFunction,SMDPad,CuDef*
G36*
X46848000Y-132443959D02*
G01*
X46774095Y-132443508D01*
X46638274Y-132402889D01*
X46519312Y-132325782D01*
X46426774Y-132218385D01*
X46368097Y-132089333D01*
X46348000Y-131949000D01*
X46348000Y-131449000D01*
X46348149Y-131436784D01*
X46371669Y-131296983D01*
X46433481Y-131169404D01*
X46528616Y-131064300D01*
X46649426Y-130990123D01*
X46786199Y-130952834D01*
X46848000Y-130953967D01*
X46848000Y-130949000D01*
X47348000Y-130949000D01*
X47348000Y-132449000D01*
X46848000Y-132449000D01*
X46848000Y-132443959D01*
G37*
G04 #@! TD.AperFunction*
G04 #@! TA.AperFunction,SMDPad,CuDef*
G36*
G01*
X48229000Y-120499000D02*
X48229000Y-121699000D01*
G75*
G02*
X48029000Y-121899000I-200000J0D01*
G01*
X47629000Y-121899000D01*
G75*
G02*
X47429000Y-121699000I0J200000D01*
G01*
X47429000Y-120499000D01*
G75*
G02*
X47629000Y-120299000I200000J0D01*
G01*
X48029000Y-120299000D01*
G75*
G02*
X48229000Y-120499000I0J-200000D01*
G01*
G37*
G04 #@! TD.AperFunction*
G04 #@! TA.AperFunction,SMDPad,CuDef*
G36*
G01*
X46979000Y-120499000D02*
X46979000Y-121699000D01*
G75*
G02*
X46779000Y-121899000I-200000J0D01*
G01*
X46379000Y-121899000D01*
G75*
G02*
X46179000Y-121699000I0J200000D01*
G01*
X46179000Y-120499000D01*
G75*
G02*
X46379000Y-120299000I200000J0D01*
G01*
X46779000Y-120299000D01*
G75*
G02*
X46979000Y-120499000I0J-200000D01*
G01*
G37*
G04 #@! TD.AperFunction*
G04 #@! TA.AperFunction,SMDPad,CuDef*
G36*
G01*
X45729000Y-120499000D02*
X45729000Y-121699000D01*
G75*
G02*
X45529000Y-121899000I-200000J0D01*
G01*
X45129000Y-121899000D01*
G75*
G02*
X44929000Y-121699000I0J200000D01*
G01*
X44929000Y-120499000D01*
G75*
G02*
X45129000Y-120299000I200000J0D01*
G01*
X45529000Y-120299000D01*
G75*
G02*
X45729000Y-120499000I0J-200000D01*
G01*
G37*
G04 #@! TD.AperFunction*
G04 #@! TA.AperFunction,SMDPad,CuDef*
G36*
G01*
X44479000Y-120499000D02*
X44479000Y-121699000D01*
G75*
G02*
X44279000Y-121899000I-200000J0D01*
G01*
X43879000Y-121899000D01*
G75*
G02*
X43679000Y-121699000I0J200000D01*
G01*
X43679000Y-120499000D01*
G75*
G02*
X43879000Y-120299000I200000J0D01*
G01*
X44279000Y-120299000D01*
G75*
G02*
X44479000Y-120499000I0J-200000D01*
G01*
G37*
G04 #@! TD.AperFunction*
G04 #@! TA.AperFunction,SMDPad,CuDef*
G36*
G01*
X42579000Y-116949001D02*
X42579000Y-119448999D01*
G75*
G02*
X42328999Y-119699000I-250001J0D01*
G01*
X40729001Y-119699000D01*
G75*
G02*
X40479000Y-119448999I0J250001D01*
G01*
X40479000Y-116949001D01*
G75*
G02*
X40729001Y-116699000I250001J0D01*
G01*
X42328999Y-116699000D01*
G75*
G02*
X42579000Y-116949001I0J-250001D01*
G01*
G37*
G04 #@! TD.AperFunction*
G04 #@! TA.AperFunction,SMDPad,CuDef*
G36*
G01*
X51429000Y-116949001D02*
X51429000Y-119448999D01*
G75*
G02*
X51178999Y-119699000I-250001J0D01*
G01*
X49579001Y-119699000D01*
G75*
G02*
X49329000Y-119448999I0J250001D01*
G01*
X49329000Y-116949001D01*
G75*
G02*
X49579001Y-116699000I250001J0D01*
G01*
X51178999Y-116699000D01*
G75*
G02*
X51429000Y-116949001I0J-250001D01*
G01*
G37*
G04 #@! TD.AperFunction*
D20*
X122047000Y-120515750D03*
X122047000Y-124515750D03*
G04 #@! TA.AperFunction,SMDPad,CuDef*
G36*
G01*
X42319000Y-175318000D02*
X42319000Y-176218000D01*
G75*
G02*
X42069000Y-176468000I-250000J0D01*
G01*
X41544000Y-176468000D01*
G75*
G02*
X41294000Y-176218000I0J250000D01*
G01*
X41294000Y-175318000D01*
G75*
G02*
X41544000Y-175068000I250000J0D01*
G01*
X42069000Y-175068000D01*
G75*
G02*
X42319000Y-175318000I0J-250000D01*
G01*
G37*
G04 #@! TD.AperFunction*
G04 #@! TA.AperFunction,SMDPad,CuDef*
G36*
G01*
X40494000Y-175318000D02*
X40494000Y-176218000D01*
G75*
G02*
X40244000Y-176468000I-250000J0D01*
G01*
X39719000Y-176468000D01*
G75*
G02*
X39469000Y-176218000I0J250000D01*
G01*
X39469000Y-175318000D01*
G75*
G02*
X39719000Y-175068000I250000J0D01*
G01*
X40244000Y-175068000D01*
G75*
G02*
X40494000Y-175318000I0J-250000D01*
G01*
G37*
G04 #@! TD.AperFunction*
G04 #@! TA.AperFunction,SMDPad,CuDef*
G36*
G01*
X115242000Y-136899750D02*
X115242000Y-137849750D01*
G75*
G02*
X114992000Y-138099750I-250000J0D01*
G01*
X114492000Y-138099750D01*
G75*
G02*
X114242000Y-137849750I0J250000D01*
G01*
X114242000Y-136899750D01*
G75*
G02*
X114492000Y-136649750I250000J0D01*
G01*
X114992000Y-136649750D01*
G75*
G02*
X115242000Y-136899750I0J-250000D01*
G01*
G37*
G04 #@! TD.AperFunction*
G04 #@! TA.AperFunction,SMDPad,CuDef*
G36*
G01*
X113342000Y-136899750D02*
X113342000Y-137849750D01*
G75*
G02*
X113092000Y-138099750I-250000J0D01*
G01*
X112592000Y-138099750D01*
G75*
G02*
X112342000Y-137849750I0J250000D01*
G01*
X112342000Y-136899750D01*
G75*
G02*
X112592000Y-136649750I250000J0D01*
G01*
X113092000Y-136649750D01*
G75*
G02*
X113342000Y-136899750I0J-250000D01*
G01*
G37*
G04 #@! TD.AperFunction*
G04 #@! TA.AperFunction,SMDPad,CuDef*
G36*
G01*
X68540000Y-140947000D02*
X68540000Y-141247000D01*
G75*
G02*
X68390000Y-141397000I-150000J0D01*
G01*
X66640000Y-141397000D01*
G75*
G02*
X66490000Y-141247000I0J150000D01*
G01*
X66490000Y-140947000D01*
G75*
G02*
X66640000Y-140797000I150000J0D01*
G01*
X68390000Y-140797000D01*
G75*
G02*
X68540000Y-140947000I0J-150000D01*
G01*
G37*
G04 #@! TD.AperFunction*
G04 #@! TA.AperFunction,SMDPad,CuDef*
G36*
G01*
X68540000Y-139677000D02*
X68540000Y-139977000D01*
G75*
G02*
X68390000Y-140127000I-150000J0D01*
G01*
X66640000Y-140127000D01*
G75*
G02*
X66490000Y-139977000I0J150000D01*
G01*
X66490000Y-139677000D01*
G75*
G02*
X66640000Y-139527000I150000J0D01*
G01*
X68390000Y-139527000D01*
G75*
G02*
X68540000Y-139677000I0J-150000D01*
G01*
G37*
G04 #@! TD.AperFunction*
G04 #@! TA.AperFunction,SMDPad,CuDef*
G36*
G01*
X68540000Y-138407000D02*
X68540000Y-138707000D01*
G75*
G02*
X68390000Y-138857000I-150000J0D01*
G01*
X66640000Y-138857000D01*
G75*
G02*
X66490000Y-138707000I0J150000D01*
G01*
X66490000Y-138407000D01*
G75*
G02*
X66640000Y-138257000I150000J0D01*
G01*
X68390000Y-138257000D01*
G75*
G02*
X68540000Y-138407000I0J-150000D01*
G01*
G37*
G04 #@! TD.AperFunction*
G04 #@! TA.AperFunction,SMDPad,CuDef*
G36*
G01*
X68540000Y-137137000D02*
X68540000Y-137437000D01*
G75*
G02*
X68390000Y-137587000I-150000J0D01*
G01*
X66640000Y-137587000D01*
G75*
G02*
X66490000Y-137437000I0J150000D01*
G01*
X66490000Y-137137000D01*
G75*
G02*
X66640000Y-136987000I150000J0D01*
G01*
X68390000Y-136987000D01*
G75*
G02*
X68540000Y-137137000I0J-150000D01*
G01*
G37*
G04 #@! TD.AperFunction*
G04 #@! TA.AperFunction,SMDPad,CuDef*
G36*
G01*
X68540000Y-135867000D02*
X68540000Y-136167000D01*
G75*
G02*
X68390000Y-136317000I-150000J0D01*
G01*
X66640000Y-136317000D01*
G75*
G02*
X66490000Y-136167000I0J150000D01*
G01*
X66490000Y-135867000D01*
G75*
G02*
X66640000Y-135717000I150000J0D01*
G01*
X68390000Y-135717000D01*
G75*
G02*
X68540000Y-135867000I0J-150000D01*
G01*
G37*
G04 #@! TD.AperFunction*
G04 #@! TA.AperFunction,SMDPad,CuDef*
G36*
G01*
X68540000Y-134597000D02*
X68540000Y-134897000D01*
G75*
G02*
X68390000Y-135047000I-150000J0D01*
G01*
X66640000Y-135047000D01*
G75*
G02*
X66490000Y-134897000I0J150000D01*
G01*
X66490000Y-134597000D01*
G75*
G02*
X66640000Y-134447000I150000J0D01*
G01*
X68390000Y-134447000D01*
G75*
G02*
X68540000Y-134597000I0J-150000D01*
G01*
G37*
G04 #@! TD.AperFunction*
G04 #@! TA.AperFunction,SMDPad,CuDef*
G36*
G01*
X68540000Y-133327000D02*
X68540000Y-133627000D01*
G75*
G02*
X68390000Y-133777000I-150000J0D01*
G01*
X66640000Y-133777000D01*
G75*
G02*
X66490000Y-133627000I0J150000D01*
G01*
X66490000Y-133327000D01*
G75*
G02*
X66640000Y-133177000I150000J0D01*
G01*
X68390000Y-133177000D01*
G75*
G02*
X68540000Y-133327000I0J-150000D01*
G01*
G37*
G04 #@! TD.AperFunction*
G04 #@! TA.AperFunction,SMDPad,CuDef*
G36*
G01*
X68540000Y-132057000D02*
X68540000Y-132357000D01*
G75*
G02*
X68390000Y-132507000I-150000J0D01*
G01*
X66640000Y-132507000D01*
G75*
G02*
X66490000Y-132357000I0J150000D01*
G01*
X66490000Y-132057000D01*
G75*
G02*
X66640000Y-131907000I150000J0D01*
G01*
X68390000Y-131907000D01*
G75*
G02*
X68540000Y-132057000I0J-150000D01*
G01*
G37*
G04 #@! TD.AperFunction*
G04 #@! TA.AperFunction,SMDPad,CuDef*
G36*
G01*
X68540000Y-130787000D02*
X68540000Y-131087000D01*
G75*
G02*
X68390000Y-131237000I-150000J0D01*
G01*
X66640000Y-131237000D01*
G75*
G02*
X66490000Y-131087000I0J150000D01*
G01*
X66490000Y-130787000D01*
G75*
G02*
X66640000Y-130637000I150000J0D01*
G01*
X68390000Y-130637000D01*
G75*
G02*
X68540000Y-130787000I0J-150000D01*
G01*
G37*
G04 #@! TD.AperFunction*
G04 #@! TA.AperFunction,SMDPad,CuDef*
G36*
G01*
X68540000Y-129517000D02*
X68540000Y-129817000D01*
G75*
G02*
X68390000Y-129967000I-150000J0D01*
G01*
X66640000Y-129967000D01*
G75*
G02*
X66490000Y-129817000I0J150000D01*
G01*
X66490000Y-129517000D01*
G75*
G02*
X66640000Y-129367000I150000J0D01*
G01*
X68390000Y-129367000D01*
G75*
G02*
X68540000Y-129517000I0J-150000D01*
G01*
G37*
G04 #@! TD.AperFunction*
G04 #@! TA.AperFunction,SMDPad,CuDef*
G36*
G01*
X59240000Y-129517000D02*
X59240000Y-129817000D01*
G75*
G02*
X59090000Y-129967000I-150000J0D01*
G01*
X57340000Y-129967000D01*
G75*
G02*
X57190000Y-129817000I0J150000D01*
G01*
X57190000Y-129517000D01*
G75*
G02*
X57340000Y-129367000I150000J0D01*
G01*
X59090000Y-129367000D01*
G75*
G02*
X59240000Y-129517000I0J-150000D01*
G01*
G37*
G04 #@! TD.AperFunction*
G04 #@! TA.AperFunction,SMDPad,CuDef*
G36*
G01*
X59240000Y-130787000D02*
X59240000Y-131087000D01*
G75*
G02*
X59090000Y-131237000I-150000J0D01*
G01*
X57340000Y-131237000D01*
G75*
G02*
X57190000Y-131087000I0J150000D01*
G01*
X57190000Y-130787000D01*
G75*
G02*
X57340000Y-130637000I150000J0D01*
G01*
X59090000Y-130637000D01*
G75*
G02*
X59240000Y-130787000I0J-150000D01*
G01*
G37*
G04 #@! TD.AperFunction*
G04 #@! TA.AperFunction,SMDPad,CuDef*
G36*
G01*
X59240000Y-132057000D02*
X59240000Y-132357000D01*
G75*
G02*
X59090000Y-132507000I-150000J0D01*
G01*
X57340000Y-132507000D01*
G75*
G02*
X57190000Y-132357000I0J150000D01*
G01*
X57190000Y-132057000D01*
G75*
G02*
X57340000Y-131907000I150000J0D01*
G01*
X59090000Y-131907000D01*
G75*
G02*
X59240000Y-132057000I0J-150000D01*
G01*
G37*
G04 #@! TD.AperFunction*
G04 #@! TA.AperFunction,SMDPad,CuDef*
G36*
G01*
X59240000Y-133327000D02*
X59240000Y-133627000D01*
G75*
G02*
X59090000Y-133777000I-150000J0D01*
G01*
X57340000Y-133777000D01*
G75*
G02*
X57190000Y-133627000I0J150000D01*
G01*
X57190000Y-133327000D01*
G75*
G02*
X57340000Y-133177000I150000J0D01*
G01*
X59090000Y-133177000D01*
G75*
G02*
X59240000Y-133327000I0J-150000D01*
G01*
G37*
G04 #@! TD.AperFunction*
G04 #@! TA.AperFunction,SMDPad,CuDef*
G36*
G01*
X59240000Y-134597000D02*
X59240000Y-134897000D01*
G75*
G02*
X59090000Y-135047000I-150000J0D01*
G01*
X57340000Y-135047000D01*
G75*
G02*
X57190000Y-134897000I0J150000D01*
G01*
X57190000Y-134597000D01*
G75*
G02*
X57340000Y-134447000I150000J0D01*
G01*
X59090000Y-134447000D01*
G75*
G02*
X59240000Y-134597000I0J-150000D01*
G01*
G37*
G04 #@! TD.AperFunction*
G04 #@! TA.AperFunction,SMDPad,CuDef*
G36*
G01*
X59240000Y-135867000D02*
X59240000Y-136167000D01*
G75*
G02*
X59090000Y-136317000I-150000J0D01*
G01*
X57340000Y-136317000D01*
G75*
G02*
X57190000Y-136167000I0J150000D01*
G01*
X57190000Y-135867000D01*
G75*
G02*
X57340000Y-135717000I150000J0D01*
G01*
X59090000Y-135717000D01*
G75*
G02*
X59240000Y-135867000I0J-150000D01*
G01*
G37*
G04 #@! TD.AperFunction*
G04 #@! TA.AperFunction,SMDPad,CuDef*
G36*
G01*
X59240000Y-137137000D02*
X59240000Y-137437000D01*
G75*
G02*
X59090000Y-137587000I-150000J0D01*
G01*
X57340000Y-137587000D01*
G75*
G02*
X57190000Y-137437000I0J150000D01*
G01*
X57190000Y-137137000D01*
G75*
G02*
X57340000Y-136987000I150000J0D01*
G01*
X59090000Y-136987000D01*
G75*
G02*
X59240000Y-137137000I0J-150000D01*
G01*
G37*
G04 #@! TD.AperFunction*
G04 #@! TA.AperFunction,SMDPad,CuDef*
G36*
G01*
X59240000Y-138407000D02*
X59240000Y-138707000D01*
G75*
G02*
X59090000Y-138857000I-150000J0D01*
G01*
X57340000Y-138857000D01*
G75*
G02*
X57190000Y-138707000I0J150000D01*
G01*
X57190000Y-138407000D01*
G75*
G02*
X57340000Y-138257000I150000J0D01*
G01*
X59090000Y-138257000D01*
G75*
G02*
X59240000Y-138407000I0J-150000D01*
G01*
G37*
G04 #@! TD.AperFunction*
G04 #@! TA.AperFunction,SMDPad,CuDef*
G36*
G01*
X59240000Y-139677000D02*
X59240000Y-139977000D01*
G75*
G02*
X59090000Y-140127000I-150000J0D01*
G01*
X57340000Y-140127000D01*
G75*
G02*
X57190000Y-139977000I0J150000D01*
G01*
X57190000Y-139677000D01*
G75*
G02*
X57340000Y-139527000I150000J0D01*
G01*
X59090000Y-139527000D01*
G75*
G02*
X59240000Y-139677000I0J-150000D01*
G01*
G37*
G04 #@! TD.AperFunction*
G04 #@! TA.AperFunction,SMDPad,CuDef*
G36*
G01*
X59240000Y-140947000D02*
X59240000Y-141247000D01*
G75*
G02*
X59090000Y-141397000I-150000J0D01*
G01*
X57340000Y-141397000D01*
G75*
G02*
X57190000Y-141247000I0J150000D01*
G01*
X57190000Y-140947000D01*
G75*
G02*
X57340000Y-140797000I150000J0D01*
G01*
X59090000Y-140797000D01*
G75*
G02*
X59240000Y-140947000I0J-150000D01*
G01*
G37*
G04 #@! TD.AperFunction*
G04 #@! TA.AperFunction,SMDPad,CuDef*
G36*
G01*
X63594000Y-168963000D02*
X62644000Y-168963000D01*
G75*
G02*
X62394000Y-168713000I0J250000D01*
G01*
X62394000Y-168213000D01*
G75*
G02*
X62644000Y-167963000I250000J0D01*
G01*
X63594000Y-167963000D01*
G75*
G02*
X63844000Y-168213000I0J-250000D01*
G01*
X63844000Y-168713000D01*
G75*
G02*
X63594000Y-168963000I-250000J0D01*
G01*
G37*
G04 #@! TD.AperFunction*
G04 #@! TA.AperFunction,SMDPad,CuDef*
G36*
G01*
X63594000Y-167063000D02*
X62644000Y-167063000D01*
G75*
G02*
X62394000Y-166813000I0J250000D01*
G01*
X62394000Y-166313000D01*
G75*
G02*
X62644000Y-166063000I250000J0D01*
G01*
X63594000Y-166063000D01*
G75*
G02*
X63844000Y-166313000I0J-250000D01*
G01*
X63844000Y-166813000D01*
G75*
G02*
X63594000Y-167063000I-250000J0D01*
G01*
G37*
G04 #@! TD.AperFunction*
G04 #@! TA.AperFunction,SMDPad,CuDef*
G36*
X47663000Y-164985000D02*
G01*
X48163000Y-164985000D01*
X48163000Y-164989967D01*
X48242941Y-164991432D01*
X48378256Y-165033707D01*
X48496266Y-165112262D01*
X48587486Y-165220781D01*
X48644581Y-165350540D01*
X48662164Y-165485000D01*
X48663000Y-165485000D01*
X48663000Y-165985000D01*
X48662164Y-165985000D01*
X48662963Y-165991109D01*
X48641152Y-166131186D01*
X48580904Y-166259511D01*
X48487060Y-166365769D01*
X48367165Y-166441417D01*
X48230858Y-166480374D01*
X48163000Y-166479959D01*
X48163000Y-166485000D01*
X47663000Y-166485000D01*
X47663000Y-164985000D01*
G37*
G04 #@! TD.AperFunction*
G04 #@! TA.AperFunction,SMDPad,CuDef*
G36*
X46863000Y-166479959D02*
G01*
X46789095Y-166479508D01*
X46653274Y-166438889D01*
X46534312Y-166361782D01*
X46441774Y-166254385D01*
X46383097Y-166125333D01*
X46363000Y-165985000D01*
X46363000Y-165485000D01*
X46363149Y-165472784D01*
X46386669Y-165332983D01*
X46448481Y-165205404D01*
X46543616Y-165100300D01*
X46664426Y-165026123D01*
X46801199Y-164988834D01*
X46863000Y-164989967D01*
X46863000Y-164985000D01*
X47363000Y-164985000D01*
X47363000Y-166485000D01*
X46863000Y-166485000D01*
X46863000Y-166479959D01*
G37*
G04 #@! TD.AperFunction*
D13*
X102814000Y-124333000D03*
D14*
X99314000Y-124333000D03*
X95814000Y-124333000D03*
G04 #@! TA.AperFunction,SMDPad,CuDef*
G36*
G01*
X76680000Y-169868000D02*
X76680000Y-168968000D01*
G75*
G02*
X76930000Y-168718000I250000J0D01*
G01*
X77455000Y-168718000D01*
G75*
G02*
X77705000Y-168968000I0J-250000D01*
G01*
X77705000Y-169868000D01*
G75*
G02*
X77455000Y-170118000I-250000J0D01*
G01*
X76930000Y-170118000D01*
G75*
G02*
X76680000Y-169868000I0J250000D01*
G01*
G37*
G04 #@! TD.AperFunction*
G04 #@! TA.AperFunction,SMDPad,CuDef*
G36*
G01*
X78505000Y-169868000D02*
X78505000Y-168968000D01*
G75*
G02*
X78755000Y-168718000I250000J0D01*
G01*
X79280000Y-168718000D01*
G75*
G02*
X79530000Y-168968000I0J-250000D01*
G01*
X79530000Y-169868000D01*
G75*
G02*
X79280000Y-170118000I-250000J0D01*
G01*
X78755000Y-170118000D01*
G75*
G02*
X78505000Y-169868000I0J250000D01*
G01*
G37*
G04 #@! TD.AperFunction*
G04 #@! TA.AperFunction,SMDPad,CuDef*
G36*
G01*
X147723000Y-170289750D02*
X146473000Y-170289750D01*
G75*
G02*
X146323000Y-170139750I0J150000D01*
G01*
X146323000Y-169839750D01*
G75*
G02*
X146473000Y-169689750I150000J0D01*
G01*
X147723000Y-169689750D01*
G75*
G02*
X147873000Y-169839750I0J-150000D01*
G01*
X147873000Y-170139750D01*
G75*
G02*
X147723000Y-170289750I-150000J0D01*
G01*
G37*
G04 #@! TD.AperFunction*
G04 #@! TA.AperFunction,SMDPad,CuDef*
G36*
G01*
X147723000Y-169289750D02*
X146473000Y-169289750D01*
G75*
G02*
X146323000Y-169139750I0J150000D01*
G01*
X146323000Y-168839750D01*
G75*
G02*
X146473000Y-168689750I150000J0D01*
G01*
X147723000Y-168689750D01*
G75*
G02*
X147873000Y-168839750I0J-150000D01*
G01*
X147873000Y-169139750D01*
G75*
G02*
X147723000Y-169289750I-150000J0D01*
G01*
G37*
G04 #@! TD.AperFunction*
G04 #@! TA.AperFunction,SMDPad,CuDef*
G36*
G01*
X147723000Y-168289750D02*
X146473000Y-168289750D01*
G75*
G02*
X146323000Y-168139750I0J150000D01*
G01*
X146323000Y-167839750D01*
G75*
G02*
X146473000Y-167689750I150000J0D01*
G01*
X147723000Y-167689750D01*
G75*
G02*
X147873000Y-167839750I0J-150000D01*
G01*
X147873000Y-168139750D01*
G75*
G02*
X147723000Y-168289750I-150000J0D01*
G01*
G37*
G04 #@! TD.AperFunction*
G04 #@! TA.AperFunction,SMDPad,CuDef*
G36*
G01*
X147723000Y-167289750D02*
X146473000Y-167289750D01*
G75*
G02*
X146323000Y-167139750I0J150000D01*
G01*
X146323000Y-166839750D01*
G75*
G02*
X146473000Y-166689750I150000J0D01*
G01*
X147723000Y-166689750D01*
G75*
G02*
X147873000Y-166839750I0J-150000D01*
G01*
X147873000Y-167139750D01*
G75*
G02*
X147723000Y-167289750I-150000J0D01*
G01*
G37*
G04 #@! TD.AperFunction*
G04 #@! TA.AperFunction,SMDPad,CuDef*
G36*
G01*
X151623000Y-171889750D02*
X150323000Y-171889750D01*
G75*
G02*
X150073000Y-171639750I0J250000D01*
G01*
X150073000Y-170939750D01*
G75*
G02*
X150323000Y-170689750I250000J0D01*
G01*
X151623000Y-170689750D01*
G75*
G02*
X151873000Y-170939750I0J-250000D01*
G01*
X151873000Y-171639750D01*
G75*
G02*
X151623000Y-171889750I-250000J0D01*
G01*
G37*
G04 #@! TD.AperFunction*
G04 #@! TA.AperFunction,SMDPad,CuDef*
G36*
G01*
X151623000Y-166289750D02*
X150323000Y-166289750D01*
G75*
G02*
X150073000Y-166039750I0J250000D01*
G01*
X150073000Y-165339750D01*
G75*
G02*
X150323000Y-165089750I250000J0D01*
G01*
X151623000Y-165089750D01*
G75*
G02*
X151873000Y-165339750I0J-250000D01*
G01*
X151873000Y-166039750D01*
G75*
G02*
X151623000Y-166289750I-250000J0D01*
G01*
G37*
G04 #@! TD.AperFunction*
G04 #@! TA.AperFunction,SMDPad,CuDef*
G36*
G01*
X115242000Y-143503750D02*
X115242000Y-144453750D01*
G75*
G02*
X114992000Y-144703750I-250000J0D01*
G01*
X114492000Y-144703750D01*
G75*
G02*
X114242000Y-144453750I0J250000D01*
G01*
X114242000Y-143503750D01*
G75*
G02*
X114492000Y-143253750I250000J0D01*
G01*
X114992000Y-143253750D01*
G75*
G02*
X115242000Y-143503750I0J-250000D01*
G01*
G37*
G04 #@! TD.AperFunction*
G04 #@! TA.AperFunction,SMDPad,CuDef*
G36*
G01*
X113342000Y-143503750D02*
X113342000Y-144453750D01*
G75*
G02*
X113092000Y-144703750I-250000J0D01*
G01*
X112592000Y-144703750D01*
G75*
G02*
X112342000Y-144453750I0J250000D01*
G01*
X112342000Y-143503750D01*
G75*
G02*
X112592000Y-143253750I250000J0D01*
G01*
X113092000Y-143253750D01*
G75*
G02*
X113342000Y-143503750I0J-250000D01*
G01*
G37*
G04 #@! TD.AperFunction*
G04 #@! TA.AperFunction,SMDPad,CuDef*
G36*
G01*
X78179000Y-130142000D02*
X78179000Y-129192000D01*
G75*
G02*
X78429000Y-128942000I250000J0D01*
G01*
X78929000Y-128942000D01*
G75*
G02*
X79179000Y-129192000I0J-250000D01*
G01*
X79179000Y-130142000D01*
G75*
G02*
X78929000Y-130392000I-250000J0D01*
G01*
X78429000Y-130392000D01*
G75*
G02*
X78179000Y-130142000I0J250000D01*
G01*
G37*
G04 #@! TD.AperFunction*
G04 #@! TA.AperFunction,SMDPad,CuDef*
G36*
G01*
X80079000Y-130142000D02*
X80079000Y-129192000D01*
G75*
G02*
X80329000Y-128942000I250000J0D01*
G01*
X80829000Y-128942000D01*
G75*
G02*
X81079000Y-129192000I0J-250000D01*
G01*
X81079000Y-130142000D01*
G75*
G02*
X80829000Y-130392000I-250000J0D01*
G01*
X80329000Y-130392000D01*
G75*
G02*
X80079000Y-130142000I0J250000D01*
G01*
G37*
G04 #@! TD.AperFunction*
G04 #@! TA.AperFunction,SMDPad,CuDef*
G36*
G01*
X42319000Y-178620000D02*
X42319000Y-179520000D01*
G75*
G02*
X42069000Y-179770000I-250000J0D01*
G01*
X41544000Y-179770000D01*
G75*
G02*
X41294000Y-179520000I0J250000D01*
G01*
X41294000Y-178620000D01*
G75*
G02*
X41544000Y-178370000I250000J0D01*
G01*
X42069000Y-178370000D01*
G75*
G02*
X42319000Y-178620000I0J-250000D01*
G01*
G37*
G04 #@! TD.AperFunction*
G04 #@! TA.AperFunction,SMDPad,CuDef*
G36*
G01*
X40494000Y-178620000D02*
X40494000Y-179520000D01*
G75*
G02*
X40244000Y-179770000I-250000J0D01*
G01*
X39719000Y-179770000D01*
G75*
G02*
X39469000Y-179520000I0J250000D01*
G01*
X39469000Y-178620000D01*
G75*
G02*
X39719000Y-178370000I250000J0D01*
G01*
X40244000Y-178370000D01*
G75*
G02*
X40494000Y-178620000I0J-250000D01*
G01*
G37*
G04 #@! TD.AperFunction*
D15*
X141224000Y-146898750D03*
X141224000Y-143598750D03*
G04 #@! TA.AperFunction,SMDPad,CuDef*
G36*
X87861000Y-178129750D02*
G01*
X87361000Y-178129750D01*
X87361000Y-178124783D01*
X87281059Y-178123318D01*
X87145744Y-178081043D01*
X87027734Y-178002488D01*
X86936514Y-177893969D01*
X86879419Y-177764210D01*
X86861836Y-177629750D01*
X86861000Y-177629750D01*
X86861000Y-177129750D01*
X86861836Y-177129750D01*
X86861037Y-177123641D01*
X86882848Y-176983564D01*
X86943096Y-176855239D01*
X87036940Y-176748981D01*
X87156835Y-176673333D01*
X87293142Y-176634376D01*
X87361000Y-176634791D01*
X87361000Y-176629750D01*
X87861000Y-176629750D01*
X87861000Y-178129750D01*
G37*
G04 #@! TD.AperFunction*
G04 #@! TA.AperFunction,SMDPad,CuDef*
G36*
X88661000Y-176634791D02*
G01*
X88734905Y-176635242D01*
X88870726Y-176675861D01*
X88989688Y-176752968D01*
X89082226Y-176860365D01*
X89140903Y-176989417D01*
X89161000Y-177129750D01*
X89161000Y-177629750D01*
X89160851Y-177641966D01*
X89137331Y-177781767D01*
X89075519Y-177909346D01*
X88980384Y-178014450D01*
X88859574Y-178088627D01*
X88722801Y-178125916D01*
X88661000Y-178124783D01*
X88661000Y-178129750D01*
X88161000Y-178129750D01*
X88161000Y-176629750D01*
X88661000Y-176629750D01*
X88661000Y-176634791D01*
G37*
G04 #@! TD.AperFunction*
G04 #@! TA.AperFunction,SMDPad,CuDef*
G36*
G01*
X124107000Y-136924750D02*
X124107000Y-137824750D01*
G75*
G02*
X123857000Y-138074750I-250000J0D01*
G01*
X123332000Y-138074750D01*
G75*
G02*
X123082000Y-137824750I0J250000D01*
G01*
X123082000Y-136924750D01*
G75*
G02*
X123332000Y-136674750I250000J0D01*
G01*
X123857000Y-136674750D01*
G75*
G02*
X124107000Y-136924750I0J-250000D01*
G01*
G37*
G04 #@! TD.AperFunction*
G04 #@! TA.AperFunction,SMDPad,CuDef*
G36*
G01*
X122282000Y-136924750D02*
X122282000Y-137824750D01*
G75*
G02*
X122032000Y-138074750I-250000J0D01*
G01*
X121507000Y-138074750D01*
G75*
G02*
X121257000Y-137824750I0J250000D01*
G01*
X121257000Y-136924750D01*
G75*
G02*
X121507000Y-136674750I250000J0D01*
G01*
X122032000Y-136674750D01*
G75*
G02*
X122282000Y-136924750I0J-250000D01*
G01*
G37*
G04 #@! TD.AperFunction*
G04 #@! TA.AperFunction,SMDPad,CuDef*
G36*
G01*
X121257000Y-131260000D02*
X121257000Y-130360000D01*
G75*
G02*
X121507000Y-130110000I250000J0D01*
G01*
X122032000Y-130110000D01*
G75*
G02*
X122282000Y-130360000I0J-250000D01*
G01*
X122282000Y-131260000D01*
G75*
G02*
X122032000Y-131510000I-250000J0D01*
G01*
X121507000Y-131510000D01*
G75*
G02*
X121257000Y-131260000I0J250000D01*
G01*
G37*
G04 #@! TD.AperFunction*
G04 #@! TA.AperFunction,SMDPad,CuDef*
G36*
G01*
X123082000Y-131260000D02*
X123082000Y-130360000D01*
G75*
G02*
X123332000Y-130110000I250000J0D01*
G01*
X123857000Y-130110000D01*
G75*
G02*
X124107000Y-130360000I0J-250000D01*
G01*
X124107000Y-131260000D01*
G75*
G02*
X123857000Y-131510000I-250000J0D01*
G01*
X123332000Y-131510000D01*
G75*
G02*
X123082000Y-131260000I0J250000D01*
G01*
G37*
G04 #@! TD.AperFunction*
G04 #@! TA.AperFunction,SMDPad,CuDef*
G36*
G01*
X104295000Y-131590750D02*
X104295000Y-132490750D01*
G75*
G02*
X104045000Y-132740750I-250000J0D01*
G01*
X103520000Y-132740750D01*
G75*
G02*
X103270000Y-132490750I0J250000D01*
G01*
X103270000Y-131590750D01*
G75*
G02*
X103520000Y-131340750I250000J0D01*
G01*
X104045000Y-131340750D01*
G75*
G02*
X104295000Y-131590750I0J-250000D01*
G01*
G37*
G04 #@! TD.AperFunction*
G04 #@! TA.AperFunction,SMDPad,CuDef*
G36*
G01*
X102470000Y-131590750D02*
X102470000Y-132490750D01*
G75*
G02*
X102220000Y-132740750I-250000J0D01*
G01*
X101695000Y-132740750D01*
G75*
G02*
X101445000Y-132490750I0J250000D01*
G01*
X101445000Y-131590750D01*
G75*
G02*
X101695000Y-131340750I250000J0D01*
G01*
X102220000Y-131340750D01*
G75*
G02*
X102470000Y-131590750I0J-250000D01*
G01*
G37*
G04 #@! TD.AperFunction*
G04 #@! TA.AperFunction,SMDPad,CuDef*
G36*
G01*
X42319000Y-165285000D02*
X42319000Y-166185000D01*
G75*
G02*
X42069000Y-166435000I-250000J0D01*
G01*
X41544000Y-166435000D01*
G75*
G02*
X41294000Y-166185000I0J250000D01*
G01*
X41294000Y-165285000D01*
G75*
G02*
X41544000Y-165035000I250000J0D01*
G01*
X42069000Y-165035000D01*
G75*
G02*
X42319000Y-165285000I0J-250000D01*
G01*
G37*
G04 #@! TD.AperFunction*
G04 #@! TA.AperFunction,SMDPad,CuDef*
G36*
G01*
X40494000Y-165285000D02*
X40494000Y-166185000D01*
G75*
G02*
X40244000Y-166435000I-250000J0D01*
G01*
X39719000Y-166435000D01*
G75*
G02*
X39469000Y-166185000I0J250000D01*
G01*
X39469000Y-165285000D01*
G75*
G02*
X39719000Y-165035000I250000J0D01*
G01*
X40244000Y-165035000D01*
G75*
G02*
X40494000Y-165285000I0J-250000D01*
G01*
G37*
G04 #@! TD.AperFunction*
G04 #@! TA.AperFunction,SMDPad,CuDef*
G36*
G01*
X87091000Y-120537000D02*
X87091000Y-121737000D01*
G75*
G02*
X86891000Y-121937000I-200000J0D01*
G01*
X86491000Y-121937000D01*
G75*
G02*
X86291000Y-121737000I0J200000D01*
G01*
X86291000Y-120537000D01*
G75*
G02*
X86491000Y-120337000I200000J0D01*
G01*
X86891000Y-120337000D01*
G75*
G02*
X87091000Y-120537000I0J-200000D01*
G01*
G37*
G04 #@! TD.AperFunction*
G04 #@! TA.AperFunction,SMDPad,CuDef*
G36*
G01*
X85841000Y-120537000D02*
X85841000Y-121737000D01*
G75*
G02*
X85641000Y-121937000I-200000J0D01*
G01*
X85241000Y-121937000D01*
G75*
G02*
X85041000Y-121737000I0J200000D01*
G01*
X85041000Y-120537000D01*
G75*
G02*
X85241000Y-120337000I200000J0D01*
G01*
X85641000Y-120337000D01*
G75*
G02*
X85841000Y-120537000I0J-200000D01*
G01*
G37*
G04 #@! TD.AperFunction*
G04 #@! TA.AperFunction,SMDPad,CuDef*
G36*
G01*
X84591000Y-120537000D02*
X84591000Y-121737000D01*
G75*
G02*
X84391000Y-121937000I-200000J0D01*
G01*
X83991000Y-121937000D01*
G75*
G02*
X83791000Y-121737000I0J200000D01*
G01*
X83791000Y-120537000D01*
G75*
G02*
X83991000Y-120337000I200000J0D01*
G01*
X84391000Y-120337000D01*
G75*
G02*
X84591000Y-120537000I0J-200000D01*
G01*
G37*
G04 #@! TD.AperFunction*
G04 #@! TA.AperFunction,SMDPad,CuDef*
G36*
G01*
X83341000Y-120537000D02*
X83341000Y-121737000D01*
G75*
G02*
X83141000Y-121937000I-200000J0D01*
G01*
X82741000Y-121937000D01*
G75*
G02*
X82541000Y-121737000I0J200000D01*
G01*
X82541000Y-120537000D01*
G75*
G02*
X82741000Y-120337000I200000J0D01*
G01*
X83141000Y-120337000D01*
G75*
G02*
X83341000Y-120537000I0J-200000D01*
G01*
G37*
G04 #@! TD.AperFunction*
G04 #@! TA.AperFunction,SMDPad,CuDef*
G36*
G01*
X90291000Y-116987001D02*
X90291000Y-119486999D01*
G75*
G02*
X90040999Y-119737000I-250001J0D01*
G01*
X88441001Y-119737000D01*
G75*
G02*
X88191000Y-119486999I0J250001D01*
G01*
X88191000Y-116987001D01*
G75*
G02*
X88441001Y-116737000I250001J0D01*
G01*
X90040999Y-116737000D01*
G75*
G02*
X90291000Y-116987001I0J-250001D01*
G01*
G37*
G04 #@! TD.AperFunction*
G04 #@! TA.AperFunction,SMDPad,CuDef*
G36*
G01*
X81441000Y-116987001D02*
X81441000Y-119486999D01*
G75*
G02*
X81190999Y-119737000I-250001J0D01*
G01*
X79591001Y-119737000D01*
G75*
G02*
X79341000Y-119486999I0J250001D01*
G01*
X79341000Y-116987001D01*
G75*
G02*
X79591001Y-116737000I250001J0D01*
G01*
X81190999Y-116737000D01*
G75*
G02*
X81441000Y-116987001I0J-250001D01*
G01*
G37*
G04 #@! TD.AperFunction*
G04 #@! TA.AperFunction,SMDPad,CuDef*
G36*
G01*
X115242000Y-146805750D02*
X115242000Y-147755750D01*
G75*
G02*
X114992000Y-148005750I-250000J0D01*
G01*
X114492000Y-148005750D01*
G75*
G02*
X114242000Y-147755750I0J250000D01*
G01*
X114242000Y-146805750D01*
G75*
G02*
X114492000Y-146555750I250000J0D01*
G01*
X114992000Y-146555750D01*
G75*
G02*
X115242000Y-146805750I0J-250000D01*
G01*
G37*
G04 #@! TD.AperFunction*
G04 #@! TA.AperFunction,SMDPad,CuDef*
G36*
G01*
X113342000Y-146805750D02*
X113342000Y-147755750D01*
G75*
G02*
X113092000Y-148005750I-250000J0D01*
G01*
X112592000Y-148005750D01*
G75*
G02*
X112342000Y-147755750I0J250000D01*
G01*
X112342000Y-146805750D01*
G75*
G02*
X112592000Y-146555750I250000J0D01*
G01*
X113092000Y-146555750D01*
G75*
G02*
X113342000Y-146805750I0J-250000D01*
G01*
G37*
G04 #@! TD.AperFunction*
G04 #@! TA.AperFunction,SMDPad,CuDef*
G36*
G01*
X79555000Y-164879000D02*
X79555000Y-165829000D01*
G75*
G02*
X79305000Y-166079000I-250000J0D01*
G01*
X78805000Y-166079000D01*
G75*
G02*
X78555000Y-165829000I0J250000D01*
G01*
X78555000Y-164879000D01*
G75*
G02*
X78805000Y-164629000I250000J0D01*
G01*
X79305000Y-164629000D01*
G75*
G02*
X79555000Y-164879000I0J-250000D01*
G01*
G37*
G04 #@! TD.AperFunction*
G04 #@! TA.AperFunction,SMDPad,CuDef*
G36*
G01*
X77655000Y-164879000D02*
X77655000Y-165829000D01*
G75*
G02*
X77405000Y-166079000I-250000J0D01*
G01*
X76905000Y-166079000D01*
G75*
G02*
X76655000Y-165829000I0J250000D01*
G01*
X76655000Y-164879000D01*
G75*
G02*
X76905000Y-164629000I250000J0D01*
G01*
X77405000Y-164629000D01*
G75*
G02*
X77655000Y-164879000I0J-250000D01*
G01*
G37*
G04 #@! TD.AperFunction*
G04 #@! TA.AperFunction,SMDPad,CuDef*
G36*
X47663000Y-161429000D02*
G01*
X48163000Y-161429000D01*
X48163000Y-161433967D01*
X48242941Y-161435432D01*
X48378256Y-161477707D01*
X48496266Y-161556262D01*
X48587486Y-161664781D01*
X48644581Y-161794540D01*
X48662164Y-161929000D01*
X48663000Y-161929000D01*
X48663000Y-162429000D01*
X48662164Y-162429000D01*
X48662963Y-162435109D01*
X48641152Y-162575186D01*
X48580904Y-162703511D01*
X48487060Y-162809769D01*
X48367165Y-162885417D01*
X48230858Y-162924374D01*
X48163000Y-162923959D01*
X48163000Y-162929000D01*
X47663000Y-162929000D01*
X47663000Y-161429000D01*
G37*
G04 #@! TD.AperFunction*
G04 #@! TA.AperFunction,SMDPad,CuDef*
G36*
X46863000Y-162923959D02*
G01*
X46789095Y-162923508D01*
X46653274Y-162882889D01*
X46534312Y-162805782D01*
X46441774Y-162698385D01*
X46383097Y-162569333D01*
X46363000Y-162429000D01*
X46363000Y-161929000D01*
X46363149Y-161916784D01*
X46386669Y-161776983D01*
X46448481Y-161649404D01*
X46543616Y-161544300D01*
X46664426Y-161470123D01*
X46801199Y-161432834D01*
X46863000Y-161433967D01*
X46863000Y-161429000D01*
X47363000Y-161429000D01*
X47363000Y-162929000D01*
X46863000Y-162929000D01*
X46863000Y-162923959D01*
G37*
G04 #@! TD.AperFunction*
G04 #@! TA.AperFunction,SMDPad,CuDef*
G36*
G01*
X99748000Y-131565750D02*
X99748000Y-132515750D01*
G75*
G02*
X99498000Y-132765750I-250000J0D01*
G01*
X98998000Y-132765750D01*
G75*
G02*
X98748000Y-132515750I0J250000D01*
G01*
X98748000Y-131565750D01*
G75*
G02*
X98998000Y-131315750I250000J0D01*
G01*
X99498000Y-131315750D01*
G75*
G02*
X99748000Y-131565750I0J-250000D01*
G01*
G37*
G04 #@! TD.AperFunction*
G04 #@! TA.AperFunction,SMDPad,CuDef*
G36*
G01*
X97848000Y-131565750D02*
X97848000Y-132515750D01*
G75*
G02*
X97598000Y-132765750I-250000J0D01*
G01*
X97098000Y-132765750D01*
G75*
G02*
X96848000Y-132515750I0J250000D01*
G01*
X96848000Y-131565750D01*
G75*
G02*
X97098000Y-131315750I250000J0D01*
G01*
X97598000Y-131315750D01*
G75*
G02*
X97848000Y-131565750I0J-250000D01*
G01*
G37*
G04 #@! TD.AperFunction*
G04 #@! TA.AperFunction,SMDPad,CuDef*
G36*
G01*
X79444000Y-175669000D02*
X78544000Y-175669000D01*
G75*
G02*
X78294000Y-175419000I0J250000D01*
G01*
X78294000Y-174894000D01*
G75*
G02*
X78544000Y-174644000I250000J0D01*
G01*
X79444000Y-174644000D01*
G75*
G02*
X79694000Y-174894000I0J-250000D01*
G01*
X79694000Y-175419000D01*
G75*
G02*
X79444000Y-175669000I-250000J0D01*
G01*
G37*
G04 #@! TD.AperFunction*
G04 #@! TA.AperFunction,SMDPad,CuDef*
G36*
G01*
X79444000Y-173844000D02*
X78544000Y-173844000D01*
G75*
G02*
X78294000Y-173594000I0J250000D01*
G01*
X78294000Y-173069000D01*
G75*
G02*
X78544000Y-172819000I250000J0D01*
G01*
X79444000Y-172819000D01*
G75*
G02*
X79694000Y-173069000I0J-250000D01*
G01*
X79694000Y-173594000D01*
G75*
G02*
X79444000Y-173844000I-250000J0D01*
G01*
G37*
G04 #@! TD.AperFunction*
G04 #@! TA.AperFunction,SMDPad,CuDef*
G36*
X47663000Y-171716000D02*
G01*
X48163000Y-171716000D01*
X48163000Y-171720967D01*
X48242941Y-171722432D01*
X48378256Y-171764707D01*
X48496266Y-171843262D01*
X48587486Y-171951781D01*
X48644581Y-172081540D01*
X48662164Y-172216000D01*
X48663000Y-172216000D01*
X48663000Y-172716000D01*
X48662164Y-172716000D01*
X48662963Y-172722109D01*
X48641152Y-172862186D01*
X48580904Y-172990511D01*
X48487060Y-173096769D01*
X48367165Y-173172417D01*
X48230858Y-173211374D01*
X48163000Y-173210959D01*
X48163000Y-173216000D01*
X47663000Y-173216000D01*
X47663000Y-171716000D01*
G37*
G04 #@! TD.AperFunction*
G04 #@! TA.AperFunction,SMDPad,CuDef*
G36*
X46863000Y-173210959D02*
G01*
X46789095Y-173210508D01*
X46653274Y-173169889D01*
X46534312Y-173092782D01*
X46441774Y-172985385D01*
X46383097Y-172856333D01*
X46363000Y-172716000D01*
X46363000Y-172216000D01*
X46363149Y-172203784D01*
X46386669Y-172063983D01*
X46448481Y-171936404D01*
X46543616Y-171831300D01*
X46664426Y-171757123D01*
X46801199Y-171719834D01*
X46863000Y-171720967D01*
X46863000Y-171716000D01*
X47363000Y-171716000D01*
X47363000Y-173216000D01*
X46863000Y-173216000D01*
X46863000Y-173210959D01*
G37*
G04 #@! TD.AperFunction*
D10*
X70103000Y-178689000D03*
X66803000Y-178689000D03*
G04 #@! TA.AperFunction,SMDPad,CuDef*
G36*
X87861000Y-182701750D02*
G01*
X87361000Y-182701750D01*
X87361000Y-182696783D01*
X87281059Y-182695318D01*
X87145744Y-182653043D01*
X87027734Y-182574488D01*
X86936514Y-182465969D01*
X86879419Y-182336210D01*
X86861836Y-182201750D01*
X86861000Y-182201750D01*
X86861000Y-181701750D01*
X86861836Y-181701750D01*
X86861037Y-181695641D01*
X86882848Y-181555564D01*
X86943096Y-181427239D01*
X87036940Y-181320981D01*
X87156835Y-181245333D01*
X87293142Y-181206376D01*
X87361000Y-181206791D01*
X87361000Y-181201750D01*
X87861000Y-181201750D01*
X87861000Y-182701750D01*
G37*
G04 #@! TD.AperFunction*
G04 #@! TA.AperFunction,SMDPad,CuDef*
G36*
X88661000Y-181206791D02*
G01*
X88734905Y-181207242D01*
X88870726Y-181247861D01*
X88989688Y-181324968D01*
X89082226Y-181432365D01*
X89140903Y-181561417D01*
X89161000Y-181701750D01*
X89161000Y-182201750D01*
X89160851Y-182213966D01*
X89137331Y-182353767D01*
X89075519Y-182481346D01*
X88980384Y-182586450D01*
X88859574Y-182660627D01*
X88722801Y-182697916D01*
X88661000Y-182696783D01*
X88661000Y-182701750D01*
X88161000Y-182701750D01*
X88161000Y-181201750D01*
X88661000Y-181201750D01*
X88661000Y-181206791D01*
G37*
G04 #@! TD.AperFunction*
G04 #@! TA.AperFunction,SMDPad,CuDef*
G36*
G01*
X100023000Y-158550750D02*
X100023000Y-157600750D01*
G75*
G02*
X100273000Y-157350750I250000J0D01*
G01*
X100773000Y-157350750D01*
G75*
G02*
X101023000Y-157600750I0J-250000D01*
G01*
X101023000Y-158550750D01*
G75*
G02*
X100773000Y-158800750I-250000J0D01*
G01*
X100273000Y-158800750D01*
G75*
G02*
X100023000Y-158550750I0J250000D01*
G01*
G37*
G04 #@! TD.AperFunction*
G04 #@! TA.AperFunction,SMDPad,CuDef*
G36*
G01*
X101923000Y-158550750D02*
X101923000Y-157600750D01*
G75*
G02*
X102173000Y-157350750I250000J0D01*
G01*
X102673000Y-157350750D01*
G75*
G02*
X102923000Y-157600750I0J-250000D01*
G01*
X102923000Y-158550750D01*
G75*
G02*
X102673000Y-158800750I-250000J0D01*
G01*
X102173000Y-158800750D01*
G75*
G02*
X101923000Y-158550750I0J250000D01*
G01*
G37*
G04 #@! TD.AperFunction*
X66803000Y-182118000D03*
X70103000Y-182118000D03*
G04 #@! TA.AperFunction,SMDPad,CuDef*
G36*
G01*
X119638500Y-140226750D02*
X119638500Y-141126750D01*
G75*
G02*
X119388500Y-141376750I-250000J0D01*
G01*
X118863500Y-141376750D01*
G75*
G02*
X118613500Y-141126750I0J250000D01*
G01*
X118613500Y-140226750D01*
G75*
G02*
X118863500Y-139976750I250000J0D01*
G01*
X119388500Y-139976750D01*
G75*
G02*
X119638500Y-140226750I0J-250000D01*
G01*
G37*
G04 #@! TD.AperFunction*
G04 #@! TA.AperFunction,SMDPad,CuDef*
G36*
G01*
X117813500Y-140226750D02*
X117813500Y-141126750D01*
G75*
G02*
X117563500Y-141376750I-250000J0D01*
G01*
X117038500Y-141376750D01*
G75*
G02*
X116788500Y-141126750I0J250000D01*
G01*
X116788500Y-140226750D01*
G75*
G02*
X117038500Y-139976750I250000J0D01*
G01*
X117563500Y-139976750D01*
G75*
G02*
X117813500Y-140226750I0J-250000D01*
G01*
G37*
G04 #@! TD.AperFunction*
G04 #@! TA.AperFunction,SMDPad,CuDef*
G36*
G01*
X42319000Y-161729000D02*
X42319000Y-162629000D01*
G75*
G02*
X42069000Y-162879000I-250000J0D01*
G01*
X41544000Y-162879000D01*
G75*
G02*
X41294000Y-162629000I0J250000D01*
G01*
X41294000Y-161729000D01*
G75*
G02*
X41544000Y-161479000I250000J0D01*
G01*
X42069000Y-161479000D01*
G75*
G02*
X42319000Y-161729000I0J-250000D01*
G01*
G37*
G04 #@! TD.AperFunction*
G04 #@! TA.AperFunction,SMDPad,CuDef*
G36*
G01*
X40494000Y-161729000D02*
X40494000Y-162629000D01*
G75*
G02*
X40244000Y-162879000I-250000J0D01*
G01*
X39719000Y-162879000D01*
G75*
G02*
X39469000Y-162629000I0J250000D01*
G01*
X39469000Y-161729000D01*
G75*
G02*
X39719000Y-161479000I250000J0D01*
G01*
X40244000Y-161479000D01*
G75*
G02*
X40494000Y-161729000I0J-250000D01*
G01*
G37*
G04 #@! TD.AperFunction*
G04 #@! TA.AperFunction,SMDPad,CuDef*
G36*
G01*
X65438000Y-161745000D02*
X66388000Y-161745000D01*
G75*
G02*
X66638000Y-161995000I0J-250000D01*
G01*
X66638000Y-162495000D01*
G75*
G02*
X66388000Y-162745000I-250000J0D01*
G01*
X65438000Y-162745000D01*
G75*
G02*
X65188000Y-162495000I0J250000D01*
G01*
X65188000Y-161995000D01*
G75*
G02*
X65438000Y-161745000I250000J0D01*
G01*
G37*
G04 #@! TD.AperFunction*
G04 #@! TA.AperFunction,SMDPad,CuDef*
G36*
G01*
X65438000Y-163645000D02*
X66388000Y-163645000D01*
G75*
G02*
X66638000Y-163895000I0J-250000D01*
G01*
X66638000Y-164395000D01*
G75*
G02*
X66388000Y-164645000I-250000J0D01*
G01*
X65438000Y-164645000D01*
G75*
G02*
X65188000Y-164395000I0J250000D01*
G01*
X65188000Y-163895000D01*
G75*
G02*
X65438000Y-163645000I250000J0D01*
G01*
G37*
G04 #@! TD.AperFunction*
G04 #@! TA.AperFunction,SMDPad,CuDef*
G36*
G01*
X61288000Y-144366000D02*
X61288000Y-143416000D01*
G75*
G02*
X61538000Y-143166000I250000J0D01*
G01*
X62038000Y-143166000D01*
G75*
G02*
X62288000Y-143416000I0J-250000D01*
G01*
X62288000Y-144366000D01*
G75*
G02*
X62038000Y-144616000I-250000J0D01*
G01*
X61538000Y-144616000D01*
G75*
G02*
X61288000Y-144366000I0J250000D01*
G01*
G37*
G04 #@! TD.AperFunction*
G04 #@! TA.AperFunction,SMDPad,CuDef*
G36*
G01*
X63188000Y-144366000D02*
X63188000Y-143416000D01*
G75*
G02*
X63438000Y-143166000I250000J0D01*
G01*
X63938000Y-143166000D01*
G75*
G02*
X64188000Y-143416000I0J-250000D01*
G01*
X64188000Y-144366000D01*
G75*
G02*
X63938000Y-144616000I-250000J0D01*
G01*
X63438000Y-144616000D01*
G75*
G02*
X63188000Y-144366000I0J250000D01*
G01*
G37*
G04 #@! TD.AperFunction*
G04 #@! TA.AperFunction,SMDPad,CuDef*
G36*
G01*
X72362000Y-169868000D02*
X72362000Y-168968000D01*
G75*
G02*
X72612000Y-168718000I250000J0D01*
G01*
X73137000Y-168718000D01*
G75*
G02*
X73387000Y-168968000I0J-250000D01*
G01*
X73387000Y-169868000D01*
G75*
G02*
X73137000Y-170118000I-250000J0D01*
G01*
X72612000Y-170118000D01*
G75*
G02*
X72362000Y-169868000I0J250000D01*
G01*
G37*
G04 #@! TD.AperFunction*
G04 #@! TA.AperFunction,SMDPad,CuDef*
G36*
G01*
X74187000Y-169868000D02*
X74187000Y-168968000D01*
G75*
G02*
X74437000Y-168718000I250000J0D01*
G01*
X74962000Y-168718000D01*
G75*
G02*
X75212000Y-168968000I0J-250000D01*
G01*
X75212000Y-169868000D01*
G75*
G02*
X74962000Y-170118000I-250000J0D01*
G01*
X74437000Y-170118000D01*
G75*
G02*
X74187000Y-169868000I0J250000D01*
G01*
G37*
G04 #@! TD.AperFunction*
D18*
X137632500Y-130282750D03*
D19*
X136362500Y-132822750D03*
X135092500Y-130282750D03*
X133822500Y-132822750D03*
X132552500Y-130282750D03*
X131282500Y-132822750D03*
X130012500Y-130282750D03*
X128742500Y-132822750D03*
G04 #@! TA.AperFunction,SMDPad,CuDef*
G36*
X47648000Y-137553000D02*
G01*
X48148000Y-137553000D01*
X48148000Y-137557967D01*
X48227941Y-137559432D01*
X48363256Y-137601707D01*
X48481266Y-137680262D01*
X48572486Y-137788781D01*
X48629581Y-137918540D01*
X48647164Y-138053000D01*
X48648000Y-138053000D01*
X48648000Y-138553000D01*
X48647164Y-138553000D01*
X48647963Y-138559109D01*
X48626152Y-138699186D01*
X48565904Y-138827511D01*
X48472060Y-138933769D01*
X48352165Y-139009417D01*
X48215858Y-139048374D01*
X48148000Y-139047959D01*
X48148000Y-139053000D01*
X47648000Y-139053000D01*
X47648000Y-137553000D01*
G37*
G04 #@! TD.AperFunction*
G04 #@! TA.AperFunction,SMDPad,CuDef*
G36*
X46848000Y-139047959D02*
G01*
X46774095Y-139047508D01*
X46638274Y-139006889D01*
X46519312Y-138929782D01*
X46426774Y-138822385D01*
X46368097Y-138693333D01*
X46348000Y-138553000D01*
X46348000Y-138053000D01*
X46348149Y-138040784D01*
X46371669Y-137900983D01*
X46433481Y-137773404D01*
X46528616Y-137668300D01*
X46649426Y-137594123D01*
X46786199Y-137556834D01*
X46848000Y-137557967D01*
X46848000Y-137553000D01*
X47348000Y-137553000D01*
X47348000Y-139053000D01*
X46848000Y-139053000D01*
X46848000Y-139047959D01*
G37*
G04 #@! TD.AperFunction*
G04 #@! TA.AperFunction,SMDPad,CuDef*
G36*
G01*
X147723000Y-149207750D02*
X146473000Y-149207750D01*
G75*
G02*
X146323000Y-149057750I0J150000D01*
G01*
X146323000Y-148757750D01*
G75*
G02*
X146473000Y-148607750I150000J0D01*
G01*
X147723000Y-148607750D01*
G75*
G02*
X147873000Y-148757750I0J-150000D01*
G01*
X147873000Y-149057750D01*
G75*
G02*
X147723000Y-149207750I-150000J0D01*
G01*
G37*
G04 #@! TD.AperFunction*
G04 #@! TA.AperFunction,SMDPad,CuDef*
G36*
G01*
X147723000Y-148207750D02*
X146473000Y-148207750D01*
G75*
G02*
X146323000Y-148057750I0J150000D01*
G01*
X146323000Y-147757750D01*
G75*
G02*
X146473000Y-147607750I150000J0D01*
G01*
X147723000Y-147607750D01*
G75*
G02*
X147873000Y-147757750I0J-150000D01*
G01*
X147873000Y-148057750D01*
G75*
G02*
X147723000Y-148207750I-150000J0D01*
G01*
G37*
G04 #@! TD.AperFunction*
G04 #@! TA.AperFunction,SMDPad,CuDef*
G36*
G01*
X147723000Y-147207750D02*
X146473000Y-147207750D01*
G75*
G02*
X146323000Y-147057750I0J150000D01*
G01*
X146323000Y-146757750D01*
G75*
G02*
X146473000Y-146607750I150000J0D01*
G01*
X147723000Y-146607750D01*
G75*
G02*
X147873000Y-146757750I0J-150000D01*
G01*
X147873000Y-147057750D01*
G75*
G02*
X147723000Y-147207750I-150000J0D01*
G01*
G37*
G04 #@! TD.AperFunction*
G04 #@! TA.AperFunction,SMDPad,CuDef*
G36*
G01*
X147723000Y-146207750D02*
X146473000Y-146207750D01*
G75*
G02*
X146323000Y-146057750I0J150000D01*
G01*
X146323000Y-145757750D01*
G75*
G02*
X146473000Y-145607750I150000J0D01*
G01*
X147723000Y-145607750D01*
G75*
G02*
X147873000Y-145757750I0J-150000D01*
G01*
X147873000Y-146057750D01*
G75*
G02*
X147723000Y-146207750I-150000J0D01*
G01*
G37*
G04 #@! TD.AperFunction*
G04 #@! TA.AperFunction,SMDPad,CuDef*
G36*
G01*
X151623000Y-145207750D02*
X150323000Y-145207750D01*
G75*
G02*
X150073000Y-144957750I0J250000D01*
G01*
X150073000Y-144257750D01*
G75*
G02*
X150323000Y-144007750I250000J0D01*
G01*
X151623000Y-144007750D01*
G75*
G02*
X151873000Y-144257750I0J-250000D01*
G01*
X151873000Y-144957750D01*
G75*
G02*
X151623000Y-145207750I-250000J0D01*
G01*
G37*
G04 #@! TD.AperFunction*
G04 #@! TA.AperFunction,SMDPad,CuDef*
G36*
G01*
X151623000Y-150807750D02*
X150323000Y-150807750D01*
G75*
G02*
X150073000Y-150557750I0J250000D01*
G01*
X150073000Y-149857750D01*
G75*
G02*
X150323000Y-149607750I250000J0D01*
G01*
X151623000Y-149607750D01*
G75*
G02*
X151873000Y-149857750I0J-250000D01*
G01*
X151873000Y-150557750D01*
G75*
G02*
X151623000Y-150807750I-250000J0D01*
G01*
G37*
G04 #@! TD.AperFunction*
G04 #@! TA.AperFunction,SMDPad,CuDef*
G36*
G01*
X58890000Y-169313000D02*
X58590000Y-169313000D01*
G75*
G02*
X58440000Y-169163000I0J150000D01*
G01*
X58440000Y-168138000D01*
G75*
G02*
X58590000Y-167988000I150000J0D01*
G01*
X58890000Y-167988000D01*
G75*
G02*
X59040000Y-168138000I0J-150000D01*
G01*
X59040000Y-169163000D01*
G75*
G02*
X58890000Y-169313000I-150000J0D01*
G01*
G37*
G04 #@! TD.AperFunction*
G04 #@! TA.AperFunction,SMDPad,CuDef*
G36*
G01*
X59840000Y-169313000D02*
X59540000Y-169313000D01*
G75*
G02*
X59390000Y-169163000I0J150000D01*
G01*
X59390000Y-168138000D01*
G75*
G02*
X59540000Y-167988000I150000J0D01*
G01*
X59840000Y-167988000D01*
G75*
G02*
X59990000Y-168138000I0J-150000D01*
G01*
X59990000Y-169163000D01*
G75*
G02*
X59840000Y-169313000I-150000J0D01*
G01*
G37*
G04 #@! TD.AperFunction*
G04 #@! TA.AperFunction,SMDPad,CuDef*
G36*
G01*
X60790000Y-169313000D02*
X60490000Y-169313000D01*
G75*
G02*
X60340000Y-169163000I0J150000D01*
G01*
X60340000Y-168138000D01*
G75*
G02*
X60490000Y-167988000I150000J0D01*
G01*
X60790000Y-167988000D01*
G75*
G02*
X60940000Y-168138000I0J-150000D01*
G01*
X60940000Y-169163000D01*
G75*
G02*
X60790000Y-169313000I-150000J0D01*
G01*
G37*
G04 #@! TD.AperFunction*
G04 #@! TA.AperFunction,SMDPad,CuDef*
G36*
G01*
X60790000Y-167038000D02*
X60490000Y-167038000D01*
G75*
G02*
X60340000Y-166888000I0J150000D01*
G01*
X60340000Y-165863000D01*
G75*
G02*
X60490000Y-165713000I150000J0D01*
G01*
X60790000Y-165713000D01*
G75*
G02*
X60940000Y-165863000I0J-150000D01*
G01*
X60940000Y-166888000D01*
G75*
G02*
X60790000Y-167038000I-150000J0D01*
G01*
G37*
G04 #@! TD.AperFunction*
G04 #@! TA.AperFunction,SMDPad,CuDef*
G36*
G01*
X59840000Y-167038000D02*
X59540000Y-167038000D01*
G75*
G02*
X59390000Y-166888000I0J150000D01*
G01*
X59390000Y-165863000D01*
G75*
G02*
X59540000Y-165713000I150000J0D01*
G01*
X59840000Y-165713000D01*
G75*
G02*
X59990000Y-165863000I0J-150000D01*
G01*
X59990000Y-166888000D01*
G75*
G02*
X59840000Y-167038000I-150000J0D01*
G01*
G37*
G04 #@! TD.AperFunction*
G04 #@! TA.AperFunction,SMDPad,CuDef*
G36*
G01*
X58890000Y-167038000D02*
X58590000Y-167038000D01*
G75*
G02*
X58440000Y-166888000I0J150000D01*
G01*
X58440000Y-165863000D01*
G75*
G02*
X58590000Y-165713000I150000J0D01*
G01*
X58890000Y-165713000D01*
G75*
G02*
X59040000Y-165863000I0J-150000D01*
G01*
X59040000Y-166888000D01*
G75*
G02*
X58890000Y-167038000I-150000J0D01*
G01*
G37*
G04 #@! TD.AperFunction*
G04 #@! TA.AperFunction,SMDPad,CuDef*
G36*
G01*
X116788500Y-167034750D02*
X116788500Y-166134750D01*
G75*
G02*
X117038500Y-165884750I250000J0D01*
G01*
X117563500Y-165884750D01*
G75*
G02*
X117813500Y-166134750I0J-250000D01*
G01*
X117813500Y-167034750D01*
G75*
G02*
X117563500Y-167284750I-250000J0D01*
G01*
X117038500Y-167284750D01*
G75*
G02*
X116788500Y-167034750I0J250000D01*
G01*
G37*
G04 #@! TD.AperFunction*
G04 #@! TA.AperFunction,SMDPad,CuDef*
G36*
G01*
X118613500Y-167034750D02*
X118613500Y-166134750D01*
G75*
G02*
X118863500Y-165884750I250000J0D01*
G01*
X119388500Y-165884750D01*
G75*
G02*
X119638500Y-166134750I0J-250000D01*
G01*
X119638500Y-167034750D01*
G75*
G02*
X119388500Y-167284750I-250000J0D01*
G01*
X118863500Y-167284750D01*
G75*
G02*
X118613500Y-167034750I0J250000D01*
G01*
G37*
G04 #@! TD.AperFunction*
G04 #@! TA.AperFunction,SMDPad,CuDef*
G36*
G01*
X98209000Y-172275750D02*
X98509000Y-172275750D01*
G75*
G02*
X98659000Y-172425750I0J-150000D01*
G01*
X98659000Y-173600750D01*
G75*
G02*
X98509000Y-173750750I-150000J0D01*
G01*
X98209000Y-173750750D01*
G75*
G02*
X98059000Y-173600750I0J150000D01*
G01*
X98059000Y-172425750D01*
G75*
G02*
X98209000Y-172275750I150000J0D01*
G01*
G37*
G04 #@! TD.AperFunction*
G04 #@! TA.AperFunction,SMDPad,CuDef*
G36*
G01*
X96309000Y-172275750D02*
X96609000Y-172275750D01*
G75*
G02*
X96759000Y-172425750I0J-150000D01*
G01*
X96759000Y-173600750D01*
G75*
G02*
X96609000Y-173750750I-150000J0D01*
G01*
X96309000Y-173750750D01*
G75*
G02*
X96159000Y-173600750I0J150000D01*
G01*
X96159000Y-172425750D01*
G75*
G02*
X96309000Y-172275750I150000J0D01*
G01*
G37*
G04 #@! TD.AperFunction*
G04 #@! TA.AperFunction,SMDPad,CuDef*
G36*
G01*
X97259000Y-174150750D02*
X97559000Y-174150750D01*
G75*
G02*
X97709000Y-174300750I0J-150000D01*
G01*
X97709000Y-175475750D01*
G75*
G02*
X97559000Y-175625750I-150000J0D01*
G01*
X97259000Y-175625750D01*
G75*
G02*
X97109000Y-175475750I0J150000D01*
G01*
X97109000Y-174300750D01*
G75*
G02*
X97259000Y-174150750I150000J0D01*
G01*
G37*
G04 #@! TD.AperFunction*
D11*
X29718000Y-187452000D03*
G04 #@! TA.AperFunction,SMDPad,CuDef*
G36*
G01*
X62644000Y-161745000D02*
X63594000Y-161745000D01*
G75*
G02*
X63844000Y-161995000I0J-250000D01*
G01*
X63844000Y-162495000D01*
G75*
G02*
X63594000Y-162745000I-250000J0D01*
G01*
X62644000Y-162745000D01*
G75*
G02*
X62394000Y-162495000I0J250000D01*
G01*
X62394000Y-161995000D01*
G75*
G02*
X62644000Y-161745000I250000J0D01*
G01*
G37*
G04 #@! TD.AperFunction*
G04 #@! TA.AperFunction,SMDPad,CuDef*
G36*
G01*
X62644000Y-163645000D02*
X63594000Y-163645000D01*
G75*
G02*
X63844000Y-163895000I0J-250000D01*
G01*
X63844000Y-164395000D01*
G75*
G02*
X63594000Y-164645000I-250000J0D01*
G01*
X62644000Y-164645000D01*
G75*
G02*
X62394000Y-164395000I0J250000D01*
G01*
X62394000Y-163895000D01*
G75*
G02*
X62644000Y-163645000I250000J0D01*
G01*
G37*
G04 #@! TD.AperFunction*
G04 #@! TA.AperFunction,SMDPad,CuDef*
G36*
G01*
X142278000Y-164147750D02*
X142578000Y-164147750D01*
G75*
G02*
X142728000Y-164297750I0J-150000D01*
G01*
X142728000Y-165472750D01*
G75*
G02*
X142578000Y-165622750I-150000J0D01*
G01*
X142278000Y-165622750D01*
G75*
G02*
X142128000Y-165472750I0J150000D01*
G01*
X142128000Y-164297750D01*
G75*
G02*
X142278000Y-164147750I150000J0D01*
G01*
G37*
G04 #@! TD.AperFunction*
G04 #@! TA.AperFunction,SMDPad,CuDef*
G36*
G01*
X140378000Y-164147750D02*
X140678000Y-164147750D01*
G75*
G02*
X140828000Y-164297750I0J-150000D01*
G01*
X140828000Y-165472750D01*
G75*
G02*
X140678000Y-165622750I-150000J0D01*
G01*
X140378000Y-165622750D01*
G75*
G02*
X140228000Y-165472750I0J150000D01*
G01*
X140228000Y-164297750D01*
G75*
G02*
X140378000Y-164147750I150000J0D01*
G01*
G37*
G04 #@! TD.AperFunction*
G04 #@! TA.AperFunction,SMDPad,CuDef*
G36*
G01*
X141328000Y-166022750D02*
X141628000Y-166022750D01*
G75*
G02*
X141778000Y-166172750I0J-150000D01*
G01*
X141778000Y-167347750D01*
G75*
G02*
X141628000Y-167497750I-150000J0D01*
G01*
X141328000Y-167497750D01*
G75*
G02*
X141178000Y-167347750I0J150000D01*
G01*
X141178000Y-166172750D01*
G75*
G02*
X141328000Y-166022750I150000J0D01*
G01*
G37*
G04 #@! TD.AperFunction*
G04 #@! TA.AperFunction,SMDPad,CuDef*
G36*
G01*
X115242000Y-153409750D02*
X115242000Y-154359750D01*
G75*
G02*
X114992000Y-154609750I-250000J0D01*
G01*
X114492000Y-154609750D01*
G75*
G02*
X114242000Y-154359750I0J250000D01*
G01*
X114242000Y-153409750D01*
G75*
G02*
X114492000Y-153159750I250000J0D01*
G01*
X114992000Y-153159750D01*
G75*
G02*
X115242000Y-153409750I0J-250000D01*
G01*
G37*
G04 #@! TD.AperFunction*
G04 #@! TA.AperFunction,SMDPad,CuDef*
G36*
G01*
X113342000Y-153409750D02*
X113342000Y-154359750D01*
G75*
G02*
X113092000Y-154609750I-250000J0D01*
G01*
X112592000Y-154609750D01*
G75*
G02*
X112342000Y-154359750I0J250000D01*
G01*
X112342000Y-153409750D01*
G75*
G02*
X112592000Y-153159750I250000J0D01*
G01*
X113092000Y-153159750D01*
G75*
G02*
X113342000Y-153409750I0J-250000D01*
G01*
G37*
G04 #@! TD.AperFunction*
D15*
X79019400Y-161949750D03*
X79019400Y-158649750D03*
G04 #@! TA.AperFunction,SMDPad,CuDef*
G36*
G01*
X63886000Y-174583000D02*
X63886000Y-175683000D01*
G75*
G02*
X63636000Y-175933000I-250000J0D01*
G01*
X60636000Y-175933000D01*
G75*
G02*
X60386000Y-175683000I0J250000D01*
G01*
X60386000Y-174583000D01*
G75*
G02*
X60636000Y-174333000I250000J0D01*
G01*
X63636000Y-174333000D01*
G75*
G02*
X63886000Y-174583000I0J-250000D01*
G01*
G37*
G04 #@! TD.AperFunction*
G04 #@! TA.AperFunction,SMDPad,CuDef*
G36*
G01*
X58486000Y-174583000D02*
X58486000Y-175683000D01*
G75*
G02*
X58236000Y-175933000I-250000J0D01*
G01*
X55236000Y-175933000D01*
G75*
G02*
X54986000Y-175683000I0J250000D01*
G01*
X54986000Y-174583000D01*
G75*
G02*
X55236000Y-174333000I250000J0D01*
G01*
X58236000Y-174333000D01*
G75*
G02*
X58486000Y-174583000I0J-250000D01*
G01*
G37*
G04 #@! TD.AperFunction*
G04 #@! TA.AperFunction,SMDPad,CuDef*
G36*
G01*
X74157000Y-120545000D02*
X74157000Y-121745000D01*
G75*
G02*
X73957000Y-121945000I-200000J0D01*
G01*
X73557000Y-121945000D01*
G75*
G02*
X73357000Y-121745000I0J200000D01*
G01*
X73357000Y-120545000D01*
G75*
G02*
X73557000Y-120345000I200000J0D01*
G01*
X73957000Y-120345000D01*
G75*
G02*
X74157000Y-120545000I0J-200000D01*
G01*
G37*
G04 #@! TD.AperFunction*
G04 #@! TA.AperFunction,SMDPad,CuDef*
G36*
G01*
X72907000Y-120545000D02*
X72907000Y-121745000D01*
G75*
G02*
X72707000Y-121945000I-200000J0D01*
G01*
X72307000Y-121945000D01*
G75*
G02*
X72107000Y-121745000I0J200000D01*
G01*
X72107000Y-120545000D01*
G75*
G02*
X72307000Y-120345000I200000J0D01*
G01*
X72707000Y-120345000D01*
G75*
G02*
X72907000Y-120545000I0J-200000D01*
G01*
G37*
G04 #@! TD.AperFunction*
G04 #@! TA.AperFunction,SMDPad,CuDef*
G36*
G01*
X71657000Y-120545000D02*
X71657000Y-121745000D01*
G75*
G02*
X71457000Y-121945000I-200000J0D01*
G01*
X71057000Y-121945000D01*
G75*
G02*
X70857000Y-121745000I0J200000D01*
G01*
X70857000Y-120545000D01*
G75*
G02*
X71057000Y-120345000I200000J0D01*
G01*
X71457000Y-120345000D01*
G75*
G02*
X71657000Y-120545000I0J-200000D01*
G01*
G37*
G04 #@! TD.AperFunction*
G04 #@! TA.AperFunction,SMDPad,CuDef*
G36*
G01*
X70407000Y-120545000D02*
X70407000Y-121745000D01*
G75*
G02*
X70207000Y-121945000I-200000J0D01*
G01*
X69807000Y-121945000D01*
G75*
G02*
X69607000Y-121745000I0J200000D01*
G01*
X69607000Y-120545000D01*
G75*
G02*
X69807000Y-120345000I200000J0D01*
G01*
X70207000Y-120345000D01*
G75*
G02*
X70407000Y-120545000I0J-200000D01*
G01*
G37*
G04 #@! TD.AperFunction*
G04 #@! TA.AperFunction,SMDPad,CuDef*
G36*
G01*
X68507000Y-116995001D02*
X68507000Y-119494999D01*
G75*
G02*
X68256999Y-119745000I-250001J0D01*
G01*
X66657001Y-119745000D01*
G75*
G02*
X66407000Y-119494999I0J250001D01*
G01*
X66407000Y-116995001D01*
G75*
G02*
X66657001Y-116745000I250001J0D01*
G01*
X68256999Y-116745000D01*
G75*
G02*
X68507000Y-116995001I0J-250001D01*
G01*
G37*
G04 #@! TD.AperFunction*
G04 #@! TA.AperFunction,SMDPad,CuDef*
G36*
G01*
X77357000Y-116995001D02*
X77357000Y-119494999D01*
G75*
G02*
X77106999Y-119745000I-250001J0D01*
G01*
X75507001Y-119745000D01*
G75*
G02*
X75257000Y-119494999I0J250001D01*
G01*
X75257000Y-116995001D01*
G75*
G02*
X75507001Y-116745000I250001J0D01*
G01*
X77106999Y-116745000D01*
G75*
G02*
X77357000Y-116995001I0J-250001D01*
G01*
G37*
G04 #@! TD.AperFunction*
D25*
X63410000Y-151764000D03*
X63410000Y-148464000D03*
X58510000Y-148464000D03*
X58510000Y-151764000D03*
D11*
X148082000Y-187412750D03*
G04 #@! TA.AperFunction,SMDPad,CuDef*
G36*
X47648000Y-140855000D02*
G01*
X48148000Y-140855000D01*
X48148000Y-140859967D01*
X48227941Y-140861432D01*
X48363256Y-140903707D01*
X48481266Y-140982262D01*
X48572486Y-141090781D01*
X48629581Y-141220540D01*
X48647164Y-141355000D01*
X48648000Y-141355000D01*
X48648000Y-141855000D01*
X48647164Y-141855000D01*
X48647963Y-141861109D01*
X48626152Y-142001186D01*
X48565904Y-142129511D01*
X48472060Y-142235769D01*
X48352165Y-142311417D01*
X48215858Y-142350374D01*
X48148000Y-142349959D01*
X48148000Y-142355000D01*
X47648000Y-142355000D01*
X47648000Y-140855000D01*
G37*
G04 #@! TD.AperFunction*
G04 #@! TA.AperFunction,SMDPad,CuDef*
G36*
X46848000Y-142349959D02*
G01*
X46774095Y-142349508D01*
X46638274Y-142308889D01*
X46519312Y-142231782D01*
X46426774Y-142124385D01*
X46368097Y-141995333D01*
X46348000Y-141855000D01*
X46348000Y-141355000D01*
X46348149Y-141342784D01*
X46371669Y-141202983D01*
X46433481Y-141075404D01*
X46528616Y-140970300D01*
X46649426Y-140896123D01*
X46786199Y-140858834D01*
X46848000Y-140859967D01*
X46848000Y-140855000D01*
X47348000Y-140855000D01*
X47348000Y-142355000D01*
X46848000Y-142355000D01*
X46848000Y-142349959D01*
G37*
G04 #@! TD.AperFunction*
G04 #@! TA.AperFunction,SMDPad,CuDef*
G36*
G01*
X116812000Y-171987750D02*
X116812000Y-171087750D01*
G75*
G02*
X117062000Y-170837750I250000J0D01*
G01*
X117587000Y-170837750D01*
G75*
G02*
X117837000Y-171087750I0J-250000D01*
G01*
X117837000Y-171987750D01*
G75*
G02*
X117587000Y-172237750I-250000J0D01*
G01*
X117062000Y-172237750D01*
G75*
G02*
X116812000Y-171987750I0J250000D01*
G01*
G37*
G04 #@! TD.AperFunction*
G04 #@! TA.AperFunction,SMDPad,CuDef*
G36*
G01*
X118637000Y-171987750D02*
X118637000Y-171087750D01*
G75*
G02*
X118887000Y-170837750I250000J0D01*
G01*
X119412000Y-170837750D01*
G75*
G02*
X119662000Y-171087750I0J-250000D01*
G01*
X119662000Y-171987750D01*
G75*
G02*
X119412000Y-172237750I-250000J0D01*
G01*
X118887000Y-172237750D01*
G75*
G02*
X118637000Y-171987750I0J250000D01*
G01*
G37*
G04 #@! TD.AperFunction*
G04 #@! TA.AperFunction,SMDPad,CuDef*
G36*
X47648000Y-144157000D02*
G01*
X48148000Y-144157000D01*
X48148000Y-144161967D01*
X48227941Y-144163432D01*
X48363256Y-144205707D01*
X48481266Y-144284262D01*
X48572486Y-144392781D01*
X48629581Y-144522540D01*
X48647164Y-144657000D01*
X48648000Y-144657000D01*
X48648000Y-145157000D01*
X48647164Y-145157000D01*
X48647963Y-145163109D01*
X48626152Y-145303186D01*
X48565904Y-145431511D01*
X48472060Y-145537769D01*
X48352165Y-145613417D01*
X48215858Y-145652374D01*
X48148000Y-145651959D01*
X48148000Y-145657000D01*
X47648000Y-145657000D01*
X47648000Y-144157000D01*
G37*
G04 #@! TD.AperFunction*
G04 #@! TA.AperFunction,SMDPad,CuDef*
G36*
X46848000Y-145651959D02*
G01*
X46774095Y-145651508D01*
X46638274Y-145610889D01*
X46519312Y-145533782D01*
X46426774Y-145426385D01*
X46368097Y-145297333D01*
X46348000Y-145157000D01*
X46348000Y-144657000D01*
X46348149Y-144644784D01*
X46371669Y-144504983D01*
X46433481Y-144377404D01*
X46528616Y-144272300D01*
X46649426Y-144198123D01*
X46786199Y-144160834D01*
X46848000Y-144161967D01*
X46848000Y-144157000D01*
X47348000Y-144157000D01*
X47348000Y-145657000D01*
X46848000Y-145657000D01*
X46848000Y-145651959D01*
G37*
G04 #@! TD.AperFunction*
G04 #@! TA.AperFunction,SMDPad,CuDef*
G36*
G01*
X42319000Y-127947000D02*
X42319000Y-128847000D01*
G75*
G02*
X42069000Y-129097000I-250000J0D01*
G01*
X41544000Y-129097000D01*
G75*
G02*
X41294000Y-128847000I0J250000D01*
G01*
X41294000Y-127947000D01*
G75*
G02*
X41544000Y-127697000I250000J0D01*
G01*
X42069000Y-127697000D01*
G75*
G02*
X42319000Y-127947000I0J-250000D01*
G01*
G37*
G04 #@! TD.AperFunction*
G04 #@! TA.AperFunction,SMDPad,CuDef*
G36*
G01*
X40494000Y-127947000D02*
X40494000Y-128847000D01*
G75*
G02*
X40244000Y-129097000I-250000J0D01*
G01*
X39719000Y-129097000D01*
G75*
G02*
X39469000Y-128847000I0J250000D01*
G01*
X39469000Y-127947000D01*
G75*
G02*
X39719000Y-127697000I250000J0D01*
G01*
X40244000Y-127697000D01*
G75*
G02*
X40494000Y-127947000I0J-250000D01*
G01*
G37*
G04 #@! TD.AperFunction*
G04 #@! TA.AperFunction,SMDPad,CuDef*
G36*
G01*
X116788500Y-169574750D02*
X116788500Y-168674750D01*
G75*
G02*
X117038500Y-168424750I250000J0D01*
G01*
X117563500Y-168424750D01*
G75*
G02*
X117813500Y-168674750I0J-250000D01*
G01*
X117813500Y-169574750D01*
G75*
G02*
X117563500Y-169824750I-250000J0D01*
G01*
X117038500Y-169824750D01*
G75*
G02*
X116788500Y-169574750I0J250000D01*
G01*
G37*
G04 #@! TD.AperFunction*
G04 #@! TA.AperFunction,SMDPad,CuDef*
G36*
G01*
X118613500Y-169574750D02*
X118613500Y-168674750D01*
G75*
G02*
X118863500Y-168424750I250000J0D01*
G01*
X119388500Y-168424750D01*
G75*
G02*
X119638500Y-168674750I0J-250000D01*
G01*
X119638500Y-169574750D01*
G75*
G02*
X119388500Y-169824750I-250000J0D01*
G01*
X118863500Y-169824750D01*
G75*
G02*
X118613500Y-169574750I0J250000D01*
G01*
G37*
G04 #@! TD.AperFunction*
G04 #@! TA.AperFunction,SMDPad,CuDef*
G36*
X47663000Y-178320000D02*
G01*
X48163000Y-178320000D01*
X48163000Y-178324967D01*
X48242941Y-178326432D01*
X48378256Y-178368707D01*
X48496266Y-178447262D01*
X48587486Y-178555781D01*
X48644581Y-178685540D01*
X48662164Y-178820000D01*
X48663000Y-178820000D01*
X48663000Y-179320000D01*
X48662164Y-179320000D01*
X48662963Y-179326109D01*
X48641152Y-179466186D01*
X48580904Y-179594511D01*
X48487060Y-179700769D01*
X48367165Y-179776417D01*
X48230858Y-179815374D01*
X48163000Y-179814959D01*
X48163000Y-179820000D01*
X47663000Y-179820000D01*
X47663000Y-178320000D01*
G37*
G04 #@! TD.AperFunction*
G04 #@! TA.AperFunction,SMDPad,CuDef*
G36*
X46863000Y-179814959D02*
G01*
X46789095Y-179814508D01*
X46653274Y-179773889D01*
X46534312Y-179696782D01*
X46441774Y-179589385D01*
X46383097Y-179460333D01*
X46363000Y-179320000D01*
X46363000Y-178820000D01*
X46363149Y-178807784D01*
X46386669Y-178667983D01*
X46448481Y-178540404D01*
X46543616Y-178435300D01*
X46664426Y-178361123D01*
X46801199Y-178323834D01*
X46863000Y-178324967D01*
X46863000Y-178320000D01*
X47363000Y-178320000D01*
X47363000Y-179820000D01*
X46863000Y-179820000D01*
X46863000Y-179814959D01*
G37*
G04 #@! TD.AperFunction*
G04 #@! TA.AperFunction,SMDPad,CuDef*
G36*
G01*
X99850000Y-167571000D02*
X99850000Y-168471000D01*
G75*
G02*
X99600000Y-168721000I-250000J0D01*
G01*
X99075000Y-168721000D01*
G75*
G02*
X98825000Y-168471000I0J250000D01*
G01*
X98825000Y-167571000D01*
G75*
G02*
X99075000Y-167321000I250000J0D01*
G01*
X99600000Y-167321000D01*
G75*
G02*
X99850000Y-167571000I0J-250000D01*
G01*
G37*
G04 #@! TD.AperFunction*
G04 #@! TA.AperFunction,SMDPad,CuDef*
G36*
G01*
X98025000Y-167571000D02*
X98025000Y-168471000D01*
G75*
G02*
X97775000Y-168721000I-250000J0D01*
G01*
X97250000Y-168721000D01*
G75*
G02*
X97000000Y-168471000I0J250000D01*
G01*
X97000000Y-167571000D01*
G75*
G02*
X97250000Y-167321000I250000J0D01*
G01*
X97775000Y-167321000D01*
G75*
G02*
X98025000Y-167571000I0J-250000D01*
G01*
G37*
G04 #@! TD.AperFunction*
G04 #@! TA.AperFunction,SMDPad,CuDef*
G36*
G01*
X147723000Y-138539750D02*
X146473000Y-138539750D01*
G75*
G02*
X146323000Y-138389750I0J150000D01*
G01*
X146323000Y-138089750D01*
G75*
G02*
X146473000Y-137939750I150000J0D01*
G01*
X147723000Y-137939750D01*
G75*
G02*
X147873000Y-138089750I0J-150000D01*
G01*
X147873000Y-138389750D01*
G75*
G02*
X147723000Y-138539750I-150000J0D01*
G01*
G37*
G04 #@! TD.AperFunction*
G04 #@! TA.AperFunction,SMDPad,CuDef*
G36*
G01*
X147723000Y-137539750D02*
X146473000Y-137539750D01*
G75*
G02*
X146323000Y-137389750I0J150000D01*
G01*
X146323000Y-137089750D01*
G75*
G02*
X146473000Y-136939750I150000J0D01*
G01*
X147723000Y-136939750D01*
G75*
G02*
X147873000Y-137089750I0J-150000D01*
G01*
X147873000Y-137389750D01*
G75*
G02*
X147723000Y-137539750I-150000J0D01*
G01*
G37*
G04 #@! TD.AperFunction*
G04 #@! TA.AperFunction,SMDPad,CuDef*
G36*
G01*
X147723000Y-136539750D02*
X146473000Y-136539750D01*
G75*
G02*
X146323000Y-136389750I0J150000D01*
G01*
X146323000Y-136089750D01*
G75*
G02*
X146473000Y-135939750I150000J0D01*
G01*
X147723000Y-135939750D01*
G75*
G02*
X147873000Y-136089750I0J-150000D01*
G01*
X147873000Y-136389750D01*
G75*
G02*
X147723000Y-136539750I-150000J0D01*
G01*
G37*
G04 #@! TD.AperFunction*
G04 #@! TA.AperFunction,SMDPad,CuDef*
G36*
G01*
X147723000Y-135539750D02*
X146473000Y-135539750D01*
G75*
G02*
X146323000Y-135389750I0J150000D01*
G01*
X146323000Y-135089750D01*
G75*
G02*
X146473000Y-134939750I150000J0D01*
G01*
X147723000Y-134939750D01*
G75*
G02*
X147873000Y-135089750I0J-150000D01*
G01*
X147873000Y-135389750D01*
G75*
G02*
X147723000Y-135539750I-150000J0D01*
G01*
G37*
G04 #@! TD.AperFunction*
G04 #@! TA.AperFunction,SMDPad,CuDef*
G36*
G01*
X151623000Y-140139750D02*
X150323000Y-140139750D01*
G75*
G02*
X150073000Y-139889750I0J250000D01*
G01*
X150073000Y-139189750D01*
G75*
G02*
X150323000Y-138939750I250000J0D01*
G01*
X151623000Y-138939750D01*
G75*
G02*
X151873000Y-139189750I0J-250000D01*
G01*
X151873000Y-139889750D01*
G75*
G02*
X151623000Y-140139750I-250000J0D01*
G01*
G37*
G04 #@! TD.AperFunction*
G04 #@! TA.AperFunction,SMDPad,CuDef*
G36*
G01*
X151623000Y-134539750D02*
X150323000Y-134539750D01*
G75*
G02*
X150073000Y-134289750I0J250000D01*
G01*
X150073000Y-133589750D01*
G75*
G02*
X150323000Y-133339750I250000J0D01*
G01*
X151623000Y-133339750D01*
G75*
G02*
X151873000Y-133589750I0J-250000D01*
G01*
X151873000Y-134289750D01*
G75*
G02*
X151623000Y-134539750I-250000J0D01*
G01*
G37*
G04 #@! TD.AperFunction*
D20*
X123190000Y-186110750D03*
X123190000Y-182110750D03*
G04 #@! TA.AperFunction,SMDPad,CuDef*
G36*
G01*
X76004000Y-172819000D02*
X76904000Y-172819000D01*
G75*
G02*
X77154000Y-173069000I0J-250000D01*
G01*
X77154000Y-173594000D01*
G75*
G02*
X76904000Y-173844000I-250000J0D01*
G01*
X76004000Y-173844000D01*
G75*
G02*
X75754000Y-173594000I0J250000D01*
G01*
X75754000Y-173069000D01*
G75*
G02*
X76004000Y-172819000I250000J0D01*
G01*
G37*
G04 #@! TD.AperFunction*
G04 #@! TA.AperFunction,SMDPad,CuDef*
G36*
G01*
X76004000Y-174644000D02*
X76904000Y-174644000D01*
G75*
G02*
X77154000Y-174894000I0J-250000D01*
G01*
X77154000Y-175419000D01*
G75*
G02*
X76904000Y-175669000I-250000J0D01*
G01*
X76004000Y-175669000D01*
G75*
G02*
X75754000Y-175419000I0J250000D01*
G01*
X75754000Y-174894000D01*
G75*
G02*
X76004000Y-174644000I250000J0D01*
G01*
G37*
G04 #@! TD.AperFunction*
D11*
X148082000Y-119848750D03*
G04 #@! TA.AperFunction,SMDPad,CuDef*
G36*
G01*
X42319000Y-131249000D02*
X42319000Y-132149000D01*
G75*
G02*
X42069000Y-132399000I-250000J0D01*
G01*
X41544000Y-132399000D01*
G75*
G02*
X41294000Y-132149000I0J250000D01*
G01*
X41294000Y-131249000D01*
G75*
G02*
X41544000Y-130999000I250000J0D01*
G01*
X42069000Y-130999000D01*
G75*
G02*
X42319000Y-131249000I0J-250000D01*
G01*
G37*
G04 #@! TD.AperFunction*
G04 #@! TA.AperFunction,SMDPad,CuDef*
G36*
G01*
X40494000Y-131249000D02*
X40494000Y-132149000D01*
G75*
G02*
X40244000Y-132399000I-250000J0D01*
G01*
X39719000Y-132399000D01*
G75*
G02*
X39469000Y-132149000I0J250000D01*
G01*
X39469000Y-131249000D01*
G75*
G02*
X39719000Y-130999000I250000J0D01*
G01*
X40244000Y-130999000D01*
G75*
G02*
X40494000Y-131249000I0J-250000D01*
G01*
G37*
G04 #@! TD.AperFunction*
D10*
X66803000Y-185547000D03*
X70103000Y-185547000D03*
G04 #@! TA.AperFunction,SMDPad,CuDef*
G36*
G01*
X103205000Y-167136750D02*
X103005000Y-167136750D01*
G75*
G02*
X102905000Y-167036750I0J100000D01*
G01*
X102905000Y-165761750D01*
G75*
G02*
X103005000Y-165661750I100000J0D01*
G01*
X103205000Y-165661750D01*
G75*
G02*
X103305000Y-165761750I0J-100000D01*
G01*
X103305000Y-167036750D01*
G75*
G02*
X103205000Y-167136750I-100000J0D01*
G01*
G37*
G04 #@! TD.AperFunction*
G04 #@! TA.AperFunction,SMDPad,CuDef*
G36*
G01*
X103855000Y-167136750D02*
X103655000Y-167136750D01*
G75*
G02*
X103555000Y-167036750I0J100000D01*
G01*
X103555000Y-165761750D01*
G75*
G02*
X103655000Y-165661750I100000J0D01*
G01*
X103855000Y-165661750D01*
G75*
G02*
X103955000Y-165761750I0J-100000D01*
G01*
X103955000Y-167036750D01*
G75*
G02*
X103855000Y-167136750I-100000J0D01*
G01*
G37*
G04 #@! TD.AperFunction*
G04 #@! TA.AperFunction,SMDPad,CuDef*
G36*
G01*
X104505000Y-167136750D02*
X104305000Y-167136750D01*
G75*
G02*
X104205000Y-167036750I0J100000D01*
G01*
X104205000Y-165761750D01*
G75*
G02*
X104305000Y-165661750I100000J0D01*
G01*
X104505000Y-165661750D01*
G75*
G02*
X104605000Y-165761750I0J-100000D01*
G01*
X104605000Y-167036750D01*
G75*
G02*
X104505000Y-167136750I-100000J0D01*
G01*
G37*
G04 #@! TD.AperFunction*
G04 #@! TA.AperFunction,SMDPad,CuDef*
G36*
G01*
X105155000Y-167136750D02*
X104955000Y-167136750D01*
G75*
G02*
X104855000Y-167036750I0J100000D01*
G01*
X104855000Y-165761750D01*
G75*
G02*
X104955000Y-165661750I100000J0D01*
G01*
X105155000Y-165661750D01*
G75*
G02*
X105255000Y-165761750I0J-100000D01*
G01*
X105255000Y-167036750D01*
G75*
G02*
X105155000Y-167136750I-100000J0D01*
G01*
G37*
G04 #@! TD.AperFunction*
G04 #@! TA.AperFunction,SMDPad,CuDef*
G36*
G01*
X105805000Y-167136750D02*
X105605000Y-167136750D01*
G75*
G02*
X105505000Y-167036750I0J100000D01*
G01*
X105505000Y-165761750D01*
G75*
G02*
X105605000Y-165661750I100000J0D01*
G01*
X105805000Y-165661750D01*
G75*
G02*
X105905000Y-165761750I0J-100000D01*
G01*
X105905000Y-167036750D01*
G75*
G02*
X105805000Y-167136750I-100000J0D01*
G01*
G37*
G04 #@! TD.AperFunction*
G04 #@! TA.AperFunction,SMDPad,CuDef*
G36*
G01*
X106455000Y-167136750D02*
X106255000Y-167136750D01*
G75*
G02*
X106155000Y-167036750I0J100000D01*
G01*
X106155000Y-165761750D01*
G75*
G02*
X106255000Y-165661750I100000J0D01*
G01*
X106455000Y-165661750D01*
G75*
G02*
X106555000Y-165761750I0J-100000D01*
G01*
X106555000Y-167036750D01*
G75*
G02*
X106455000Y-167136750I-100000J0D01*
G01*
G37*
G04 #@! TD.AperFunction*
G04 #@! TA.AperFunction,SMDPad,CuDef*
G36*
G01*
X107105000Y-167136750D02*
X106905000Y-167136750D01*
G75*
G02*
X106805000Y-167036750I0J100000D01*
G01*
X106805000Y-165761750D01*
G75*
G02*
X106905000Y-165661750I100000J0D01*
G01*
X107105000Y-165661750D01*
G75*
G02*
X107205000Y-165761750I0J-100000D01*
G01*
X107205000Y-167036750D01*
G75*
G02*
X107105000Y-167136750I-100000J0D01*
G01*
G37*
G04 #@! TD.AperFunction*
G04 #@! TA.AperFunction,SMDPad,CuDef*
G36*
G01*
X107755000Y-167136750D02*
X107555000Y-167136750D01*
G75*
G02*
X107455000Y-167036750I0J100000D01*
G01*
X107455000Y-165761750D01*
G75*
G02*
X107555000Y-165661750I100000J0D01*
G01*
X107755000Y-165661750D01*
G75*
G02*
X107855000Y-165761750I0J-100000D01*
G01*
X107855000Y-167036750D01*
G75*
G02*
X107755000Y-167136750I-100000J0D01*
G01*
G37*
G04 #@! TD.AperFunction*
G04 #@! TA.AperFunction,SMDPad,CuDef*
G36*
G01*
X108405000Y-167136750D02*
X108205000Y-167136750D01*
G75*
G02*
X108105000Y-167036750I0J100000D01*
G01*
X108105000Y-165761750D01*
G75*
G02*
X108205000Y-165661750I100000J0D01*
G01*
X108405000Y-165661750D01*
G75*
G02*
X108505000Y-165761750I0J-100000D01*
G01*
X108505000Y-167036750D01*
G75*
G02*
X108405000Y-167136750I-100000J0D01*
G01*
G37*
G04 #@! TD.AperFunction*
G04 #@! TA.AperFunction,SMDPad,CuDef*
G36*
G01*
X109055000Y-167136750D02*
X108855000Y-167136750D01*
G75*
G02*
X108755000Y-167036750I0J100000D01*
G01*
X108755000Y-165761750D01*
G75*
G02*
X108855000Y-165661750I100000J0D01*
G01*
X109055000Y-165661750D01*
G75*
G02*
X109155000Y-165761750I0J-100000D01*
G01*
X109155000Y-167036750D01*
G75*
G02*
X109055000Y-167136750I-100000J0D01*
G01*
G37*
G04 #@! TD.AperFunction*
G04 #@! TA.AperFunction,SMDPad,CuDef*
G36*
G01*
X109705000Y-167136750D02*
X109505000Y-167136750D01*
G75*
G02*
X109405000Y-167036750I0J100000D01*
G01*
X109405000Y-165761750D01*
G75*
G02*
X109505000Y-165661750I100000J0D01*
G01*
X109705000Y-165661750D01*
G75*
G02*
X109805000Y-165761750I0J-100000D01*
G01*
X109805000Y-167036750D01*
G75*
G02*
X109705000Y-167136750I-100000J0D01*
G01*
G37*
G04 #@! TD.AperFunction*
G04 #@! TA.AperFunction,SMDPad,CuDef*
G36*
G01*
X110355000Y-167136750D02*
X110155000Y-167136750D01*
G75*
G02*
X110055000Y-167036750I0J100000D01*
G01*
X110055000Y-165761750D01*
G75*
G02*
X110155000Y-165661750I100000J0D01*
G01*
X110355000Y-165661750D01*
G75*
G02*
X110455000Y-165761750I0J-100000D01*
G01*
X110455000Y-167036750D01*
G75*
G02*
X110355000Y-167136750I-100000J0D01*
G01*
G37*
G04 #@! TD.AperFunction*
G04 #@! TA.AperFunction,SMDPad,CuDef*
G36*
G01*
X110355000Y-161411750D02*
X110155000Y-161411750D01*
G75*
G02*
X110055000Y-161311750I0J100000D01*
G01*
X110055000Y-160036750D01*
G75*
G02*
X110155000Y-159936750I100000J0D01*
G01*
X110355000Y-159936750D01*
G75*
G02*
X110455000Y-160036750I0J-100000D01*
G01*
X110455000Y-161311750D01*
G75*
G02*
X110355000Y-161411750I-100000J0D01*
G01*
G37*
G04 #@! TD.AperFunction*
G04 #@! TA.AperFunction,SMDPad,CuDef*
G36*
G01*
X109705000Y-161411750D02*
X109505000Y-161411750D01*
G75*
G02*
X109405000Y-161311750I0J100000D01*
G01*
X109405000Y-160036750D01*
G75*
G02*
X109505000Y-159936750I100000J0D01*
G01*
X109705000Y-159936750D01*
G75*
G02*
X109805000Y-160036750I0J-100000D01*
G01*
X109805000Y-161311750D01*
G75*
G02*
X109705000Y-161411750I-100000J0D01*
G01*
G37*
G04 #@! TD.AperFunction*
G04 #@! TA.AperFunction,SMDPad,CuDef*
G36*
G01*
X109055000Y-161411750D02*
X108855000Y-161411750D01*
G75*
G02*
X108755000Y-161311750I0J100000D01*
G01*
X108755000Y-160036750D01*
G75*
G02*
X108855000Y-159936750I100000J0D01*
G01*
X109055000Y-159936750D01*
G75*
G02*
X109155000Y-160036750I0J-100000D01*
G01*
X109155000Y-161311750D01*
G75*
G02*
X109055000Y-161411750I-100000J0D01*
G01*
G37*
G04 #@! TD.AperFunction*
G04 #@! TA.AperFunction,SMDPad,CuDef*
G36*
G01*
X108405000Y-161411750D02*
X108205000Y-161411750D01*
G75*
G02*
X108105000Y-161311750I0J100000D01*
G01*
X108105000Y-160036750D01*
G75*
G02*
X108205000Y-159936750I100000J0D01*
G01*
X108405000Y-159936750D01*
G75*
G02*
X108505000Y-160036750I0J-100000D01*
G01*
X108505000Y-161311750D01*
G75*
G02*
X108405000Y-161411750I-100000J0D01*
G01*
G37*
G04 #@! TD.AperFunction*
G04 #@! TA.AperFunction,SMDPad,CuDef*
G36*
G01*
X107755000Y-161411750D02*
X107555000Y-161411750D01*
G75*
G02*
X107455000Y-161311750I0J100000D01*
G01*
X107455000Y-160036750D01*
G75*
G02*
X107555000Y-159936750I100000J0D01*
G01*
X107755000Y-159936750D01*
G75*
G02*
X107855000Y-160036750I0J-100000D01*
G01*
X107855000Y-161311750D01*
G75*
G02*
X107755000Y-161411750I-100000J0D01*
G01*
G37*
G04 #@! TD.AperFunction*
G04 #@! TA.AperFunction,SMDPad,CuDef*
G36*
G01*
X107105000Y-161411750D02*
X106905000Y-161411750D01*
G75*
G02*
X106805000Y-161311750I0J100000D01*
G01*
X106805000Y-160036750D01*
G75*
G02*
X106905000Y-159936750I100000J0D01*
G01*
X107105000Y-159936750D01*
G75*
G02*
X107205000Y-160036750I0J-100000D01*
G01*
X107205000Y-161311750D01*
G75*
G02*
X107105000Y-161411750I-100000J0D01*
G01*
G37*
G04 #@! TD.AperFunction*
G04 #@! TA.AperFunction,SMDPad,CuDef*
G36*
G01*
X106455000Y-161411750D02*
X106255000Y-161411750D01*
G75*
G02*
X106155000Y-161311750I0J100000D01*
G01*
X106155000Y-160036750D01*
G75*
G02*
X106255000Y-159936750I100000J0D01*
G01*
X106455000Y-159936750D01*
G75*
G02*
X106555000Y-160036750I0J-100000D01*
G01*
X106555000Y-161311750D01*
G75*
G02*
X106455000Y-161411750I-100000J0D01*
G01*
G37*
G04 #@! TD.AperFunction*
G04 #@! TA.AperFunction,SMDPad,CuDef*
G36*
G01*
X105805000Y-161411750D02*
X105605000Y-161411750D01*
G75*
G02*
X105505000Y-161311750I0J100000D01*
G01*
X105505000Y-160036750D01*
G75*
G02*
X105605000Y-159936750I100000J0D01*
G01*
X105805000Y-159936750D01*
G75*
G02*
X105905000Y-160036750I0J-100000D01*
G01*
X105905000Y-161311750D01*
G75*
G02*
X105805000Y-161411750I-100000J0D01*
G01*
G37*
G04 #@! TD.AperFunction*
G04 #@! TA.AperFunction,SMDPad,CuDef*
G36*
G01*
X105155000Y-161411750D02*
X104955000Y-161411750D01*
G75*
G02*
X104855000Y-161311750I0J100000D01*
G01*
X104855000Y-160036750D01*
G75*
G02*
X104955000Y-159936750I100000J0D01*
G01*
X105155000Y-159936750D01*
G75*
G02*
X105255000Y-160036750I0J-100000D01*
G01*
X105255000Y-161311750D01*
G75*
G02*
X105155000Y-161411750I-100000J0D01*
G01*
G37*
G04 #@! TD.AperFunction*
G04 #@! TA.AperFunction,SMDPad,CuDef*
G36*
G01*
X104505000Y-161411750D02*
X104305000Y-161411750D01*
G75*
G02*
X104205000Y-161311750I0J100000D01*
G01*
X104205000Y-160036750D01*
G75*
G02*
X104305000Y-159936750I100000J0D01*
G01*
X104505000Y-159936750D01*
G75*
G02*
X104605000Y-160036750I0J-100000D01*
G01*
X104605000Y-161311750D01*
G75*
G02*
X104505000Y-161411750I-100000J0D01*
G01*
G37*
G04 #@! TD.AperFunction*
G04 #@! TA.AperFunction,SMDPad,CuDef*
G36*
G01*
X103855000Y-161411750D02*
X103655000Y-161411750D01*
G75*
G02*
X103555000Y-161311750I0J100000D01*
G01*
X103555000Y-160036750D01*
G75*
G02*
X103655000Y-159936750I100000J0D01*
G01*
X103855000Y-159936750D01*
G75*
G02*
X103955000Y-160036750I0J-100000D01*
G01*
X103955000Y-161311750D01*
G75*
G02*
X103855000Y-161411750I-100000J0D01*
G01*
G37*
G04 #@! TD.AperFunction*
G04 #@! TA.AperFunction,SMDPad,CuDef*
G36*
G01*
X103205000Y-161411750D02*
X103005000Y-161411750D01*
G75*
G02*
X102905000Y-161311750I0J100000D01*
G01*
X102905000Y-160036750D01*
G75*
G02*
X103005000Y-159936750I100000J0D01*
G01*
X103205000Y-159936750D01*
G75*
G02*
X103305000Y-160036750I0J-100000D01*
G01*
X103305000Y-161311750D01*
G75*
G02*
X103205000Y-161411750I-100000J0D01*
G01*
G37*
G04 #@! TD.AperFunction*
D26*
X70713600Y-160528000D03*
X75311000Y-160528000D03*
G04 #@! TA.AperFunction,SMDPad,CuDef*
G36*
X87861000Y-168985750D02*
G01*
X87361000Y-168985750D01*
X87361000Y-168980783D01*
X87281059Y-168979318D01*
X87145744Y-168937043D01*
X87027734Y-168858488D01*
X86936514Y-168749969D01*
X86879419Y-168620210D01*
X86861836Y-168485750D01*
X86861000Y-168485750D01*
X86861000Y-167985750D01*
X86861836Y-167985750D01*
X86861037Y-167979641D01*
X86882848Y-167839564D01*
X86943096Y-167711239D01*
X87036940Y-167604981D01*
X87156835Y-167529333D01*
X87293142Y-167490376D01*
X87361000Y-167490791D01*
X87361000Y-167485750D01*
X87861000Y-167485750D01*
X87861000Y-168985750D01*
G37*
G04 #@! TD.AperFunction*
G04 #@! TA.AperFunction,SMDPad,CuDef*
G36*
X88661000Y-167490791D02*
G01*
X88734905Y-167491242D01*
X88870726Y-167531861D01*
X88989688Y-167608968D01*
X89082226Y-167716365D01*
X89140903Y-167845417D01*
X89161000Y-167985750D01*
X89161000Y-168485750D01*
X89160851Y-168497966D01*
X89137331Y-168637767D01*
X89075519Y-168765346D01*
X88980384Y-168870450D01*
X88859574Y-168944627D01*
X88722801Y-168981916D01*
X88661000Y-168980783D01*
X88661000Y-168985750D01*
X88161000Y-168985750D01*
X88161000Y-167485750D01*
X88661000Y-167485750D01*
X88661000Y-167490791D01*
G37*
G04 #@! TD.AperFunction*
D15*
X141224000Y-139532750D03*
X141224000Y-136232750D03*
D27*
X87361000Y-183617750D03*
X140462000Y-158964750D03*
X123825000Y-124674750D03*
X56642000Y-173101000D03*
X140462000Y-157948750D03*
X39243000Y-148463000D03*
X147066000Y-150836750D03*
X100610000Y-143470750D03*
X65024000Y-134747000D03*
X117348000Y-180173750D03*
X111600000Y-150582750D03*
X61722000Y-165862000D03*
X134874000Y-156678750D03*
X56642000Y-177292000D03*
X55245000Y-173101000D03*
X53721000Y-149987000D03*
X147066000Y-161377750D03*
X65405000Y-166497000D03*
X66040000Y-134747000D03*
X101372000Y-143470750D03*
X110998000Y-153884750D03*
X65024000Y-143891000D03*
X134874000Y-157694750D03*
X110998000Y-126452750D03*
X111760000Y-153884750D03*
X66421000Y-165481000D03*
X77724000Y-175133000D03*
X87361000Y-169901750D03*
X110998000Y-140676750D03*
X111760000Y-137374750D03*
X150876000Y-157948750D03*
X65913000Y-143891000D03*
X140462000Y-163536750D03*
X101407000Y-155408750D03*
X100645000Y-155408750D03*
X40513000Y-148463000D03*
X111760000Y-147280750D03*
X62611000Y-165354000D03*
X39243000Y-149733000D03*
X110998000Y-134072750D03*
X77089000Y-166751000D03*
X53721000Y-148463000D03*
X74175457Y-164120485D03*
X110236000Y-164171750D03*
X110255000Y-165041750D03*
X95044500Y-173013250D03*
X87361000Y-179045750D03*
X118872000Y-180173750D03*
X40259000Y-184912000D03*
X120269000Y-124674750D03*
X121031000Y-183221750D03*
X74803000Y-133477000D03*
X70103000Y-183770000D03*
X77089000Y-163830000D03*
X63627000Y-165354000D03*
X53721000Y-151511000D03*
X111760000Y-140676750D03*
X147066000Y-140168750D03*
X74168000Y-165100000D03*
X150876000Y-147407750D03*
X123190000Y-180173750D03*
X80264000Y-175133000D03*
X57912000Y-173101000D03*
X147066000Y-149947750D03*
X147066000Y-160488750D03*
X111760000Y-134072750D03*
X150876000Y-168489750D03*
X122682000Y-126579750D03*
X121412000Y-126579750D03*
X82296000Y-129667000D03*
X120269000Y-126198750D03*
X150876000Y-136739750D03*
X110838000Y-150582750D03*
X55245000Y-177292000D03*
X147066000Y-171918750D03*
X147066000Y-139279750D03*
X71375000Y-183770000D03*
X110998000Y-147280750D03*
X60071000Y-136017000D03*
X121666000Y-180173750D03*
X120396000Y-180173750D03*
X111760000Y-143978750D03*
X94155500Y-173013250D03*
X87361000Y-174473750D03*
X40513000Y-149733000D03*
X73914000Y-133477000D03*
X60071000Y-137287000D03*
X110998000Y-125436750D03*
X124714000Y-180173750D03*
X41148000Y-184912000D03*
X61722000Y-166624000D03*
X57912000Y-177292000D03*
X123825000Y-126198750D03*
X110998000Y-143978750D03*
X140462000Y-162520750D03*
X110998000Y-137374750D03*
X121031000Y-181951750D03*
X65405000Y-165481000D03*
X147066000Y-171029750D03*
X66421000Y-166497000D03*
X58039000Y-170942000D03*
X64516000Y-162560000D03*
X58039000Y-169926000D03*
X64516000Y-161671000D03*
X122428000Y-135596750D03*
X121158000Y-135596750D03*
X117301000Y-167901750D03*
X117301000Y-157741750D03*
X78994000Y-168021000D03*
X117301000Y-165361750D03*
X78994000Y-166878000D03*
X101092000Y-154138750D03*
X107950000Y-156424750D03*
X128790700Y-147268050D03*
X128790700Y-148030050D03*
X123698000Y-146772750D03*
X101600000Y-174331750D03*
X123698000Y-146010750D03*
X101600000Y-175220750D03*
X123698000Y-165822750D03*
X123698000Y-164806750D03*
X133210300Y-142429350D03*
X133210300Y-143470750D03*
X122682000Y-166838750D03*
X122682000Y-141438750D03*
X122682000Y-167854750D03*
X122682000Y-142454750D03*
X121666000Y-165060750D03*
X121666000Y-141438750D03*
X121666000Y-142454750D03*
X121666000Y-166076750D03*
X50165000Y-121158000D03*
X50165000Y-122047000D03*
X60325000Y-154432000D03*
X62992000Y-154432000D03*
X76327000Y-121158000D03*
X76327000Y-122047000D03*
X80391000Y-122809000D03*
X66675000Y-122809000D03*
X126746000Y-151344750D03*
X123825000Y-169632750D03*
X124968000Y-169632750D03*
X126746000Y-152360750D03*
X128778000Y-152614750D03*
X128778000Y-151852750D03*
X128778000Y-158964750D03*
X128790700Y-159714050D03*
X127508000Y-172680750D03*
X126746000Y-172680750D03*
X42926000Y-163449000D03*
X69850000Y-130937000D03*
X69850000Y-132207000D03*
X43815000Y-167005000D03*
X44704000Y-170434000D03*
X69850000Y-133477000D03*
X130556000Y-154900750D03*
X130556000Y-154138750D03*
X132080000Y-150836750D03*
X132080000Y-149312750D03*
X132080000Y-156678750D03*
X132080000Y-157694750D03*
X133858000Y-165060750D03*
X133858000Y-166076750D03*
X63246000Y-121158000D03*
X63246000Y-122047000D03*
X89281000Y-121158000D03*
X89281000Y-122047000D03*
X125730000Y-146010750D03*
X125730000Y-146772750D03*
X125730000Y-159980750D03*
X125730000Y-160996750D03*
X124714000Y-156043750D03*
X124714000Y-144486750D03*
X124714000Y-162266750D03*
X124714000Y-143470750D03*
X124714000Y-155281750D03*
X124714000Y-163282750D03*
X105195250Y-132040750D03*
X106148500Y-132040750D03*
X69850000Y-137287000D03*
X45593000Y-173736000D03*
X78359000Y-134747000D03*
X46366750Y-177026250D03*
X76581000Y-138557000D03*
X62865000Y-138557000D03*
X62865000Y-140208000D03*
X52451000Y-143129000D03*
X74803000Y-134747000D03*
X76581000Y-139827000D03*
X45593000Y-180340000D03*
X62865000Y-139343903D03*
X56134000Y-141732000D03*
X111633000Y-132080000D03*
X112649000Y-132080000D03*
X66167000Y-151257000D03*
X60579000Y-153035000D03*
X66167000Y-153670000D03*
X108204000Y-157567750D03*
X109601000Y-154138750D03*
X54864000Y-122936000D03*
X64008000Y-153670000D03*
X59436000Y-153035000D03*
D28*
X70103000Y-178689000D02*
X70103000Y-175260000D01*
X69469000Y-173355000D02*
X70103000Y-173989000D01*
X70103000Y-173989000D02*
X70103000Y-175260000D01*
X62230000Y-173355000D02*
X69469000Y-173355000D01*
D29*
X99988250Y-139660750D02*
X99949000Y-139700000D01*
D30*
X97348000Y-132040750D02*
X95814000Y-130506750D01*
X110998000Y-134072750D02*
X112842000Y-134072750D01*
X147066000Y-161377750D02*
X147066000Y-159480750D01*
X58215000Y-136017000D02*
X60071000Y-136017000D01*
D29*
X103755000Y-165318750D02*
X104013000Y-165060750D01*
X102835000Y-151598750D02*
X100036750Y-151598750D01*
D30*
X40259000Y-184912000D02*
X42750500Y-184912000D01*
D29*
X100036750Y-151598750D02*
X99949000Y-151511000D01*
D30*
X110998000Y-137374750D02*
X112842000Y-137374750D01*
D28*
X140462000Y-164951250D02*
X140462000Y-156612750D01*
D30*
X110998000Y-153884750D02*
X112842000Y-153884750D01*
X65913000Y-143891000D02*
X65024000Y-143891000D01*
X87361000Y-169901750D02*
X87361000Y-174473750D01*
D29*
X82296000Y-129667000D02*
X80579000Y-129667000D01*
D30*
X96459000Y-173013250D02*
X95044500Y-173013250D01*
X74175457Y-164120485D02*
X74175457Y-165092543D01*
X100610000Y-143470750D02*
X102454000Y-143470750D01*
X73914000Y-133477000D02*
X75946000Y-133477000D01*
D29*
X105055000Y-160674250D02*
X105055000Y-164959750D01*
X99988250Y-142200750D02*
X99949000Y-142240000D01*
D30*
X74168000Y-165608000D02*
X74168000Y-165100000D01*
D29*
X110236000Y-164171750D02*
X110255000Y-164190750D01*
D30*
X147066000Y-170021750D02*
X147098000Y-169989750D01*
X134874000Y-157694750D02*
X134874000Y-158710750D01*
D29*
X101512250Y-149058750D02*
X102835000Y-149058750D01*
D28*
X70103000Y-183770000D02*
X71375000Y-183770000D01*
D30*
X102423000Y-157120750D02*
X102423000Y-158075750D01*
D28*
X70103000Y-183770000D02*
X70103000Y-185547000D01*
D29*
X104405000Y-166399250D02*
X104405000Y-165071750D01*
D30*
X60071000Y-137287000D02*
X60071000Y-136017000D01*
D29*
X105055000Y-164959750D02*
X105156000Y-165060750D01*
X110255000Y-164190750D02*
X110255000Y-166399250D01*
D30*
X80264000Y-175133000D02*
X77724000Y-175133000D01*
X134112000Y-159472750D02*
X131826000Y-159472750D01*
X99949000Y-154712750D02*
X100645000Y-155408750D01*
X87361000Y-183617750D02*
X87361000Y-186523750D01*
X147066000Y-171918750D02*
X147066000Y-170021750D01*
X99949000Y-149688750D02*
X99949000Y-151511000D01*
X147066000Y-150836750D02*
X147066000Y-148939750D01*
X74175457Y-165092543D02*
X74168000Y-165100000D01*
X66040000Y-134747000D02*
X65024000Y-134747000D01*
X99949000Y-142240000D02*
X99949000Y-142809750D01*
X99949000Y-142809750D02*
X100610000Y-143470750D01*
X110998000Y-140676750D02*
X112842000Y-140676750D01*
X95814000Y-130506750D02*
X95814000Y-123970750D01*
X99949000Y-151511000D02*
X99949000Y-154712750D01*
X67515000Y-134747000D02*
X66040000Y-134747000D01*
D28*
X77089000Y-166751000D02*
X77089000Y-163830000D01*
D30*
X72765500Y-165989000D02*
X73787000Y-165989000D01*
X100645000Y-155408750D02*
X102489000Y-155408750D01*
D29*
X100882250Y-149688750D02*
X101512250Y-149058750D01*
D30*
X110838000Y-150582750D02*
X112682000Y-150582750D01*
X87361000Y-168235750D02*
X87361000Y-169901750D01*
X73787000Y-165989000D02*
X74168000Y-165608000D01*
X101407000Y-155408750D02*
X101407000Y-156104750D01*
X147066000Y-140168750D02*
X147066000Y-138271750D01*
X134874000Y-156678750D02*
X134874000Y-157694750D01*
X53722000Y-148464000D02*
X53721000Y-148463000D01*
D29*
X99949000Y-149688750D02*
X100882250Y-149688750D01*
D28*
X70103000Y-182118000D02*
X70103000Y-183770000D01*
D30*
X131826000Y-159472750D02*
X131000500Y-160298250D01*
D29*
X102800000Y-139660750D02*
X99988250Y-139660750D01*
D30*
X87361000Y-179045750D02*
X87361000Y-183617750D01*
D29*
X104405000Y-165071750D02*
X104394000Y-165060750D01*
X104013000Y-165060750D02*
X104394000Y-165060750D01*
D30*
X65024000Y-143891000D02*
X63688000Y-143891000D01*
X99949000Y-137943750D02*
X99949000Y-139700000D01*
D29*
X103755000Y-166399250D02*
X103755000Y-165318750D01*
D30*
X131000500Y-160298250D02*
X131000500Y-161720650D01*
X134874000Y-158710750D02*
X134112000Y-159472750D01*
X110998000Y-147280750D02*
X112842000Y-147280750D01*
X110998000Y-143978750D02*
X112842000Y-143978750D01*
X121270000Y-126721750D02*
X121412000Y-126579750D01*
D29*
X110255000Y-165041750D02*
X110236000Y-165060750D01*
X102800000Y-142200750D02*
X99988250Y-142200750D01*
D30*
X101407000Y-156104750D02*
X102423000Y-157120750D01*
D29*
X105156000Y-165060750D02*
X104394000Y-165060750D01*
D30*
X87361000Y-174473750D02*
X87361000Y-179045750D01*
D29*
X110236000Y-165060750D02*
X105156000Y-165060750D01*
D30*
X99949000Y-139700000D02*
X99949000Y-142240000D01*
X95044500Y-173013250D02*
X94155500Y-173013250D01*
X58510000Y-148464000D02*
X53722000Y-148464000D01*
D29*
X70866000Y-149328500D02*
X70866000Y-147193000D01*
D30*
X148852000Y-147907750D02*
X148971000Y-147788750D01*
D29*
X70866000Y-147193000D02*
X70739000Y-147066000D01*
D28*
X58215000Y-134747000D02*
X60452000Y-134747000D01*
X72644000Y-185547000D02*
X72644000Y-178308000D01*
D30*
X52070000Y-183769000D02*
X52070000Y-158369000D01*
D28*
X68199000Y-166751000D02*
X68199000Y-164846000D01*
X148971000Y-154773750D02*
X138049000Y-154773750D01*
X71882000Y-177546000D02*
X71882000Y-173482000D01*
D30*
X101404500Y-160674250D02*
X103105000Y-160674250D01*
D28*
X98425000Y-147788750D02*
X98171000Y-148042750D01*
X148971000Y-158329750D02*
X148971000Y-179959000D01*
D31*
X99949000Y-147026750D02*
X99949000Y-147788750D01*
D28*
X148971000Y-138009750D02*
X148971000Y-137247750D01*
D29*
X58740000Y-168650500D02*
X58039000Y-169351500D01*
D28*
X137414000Y-117562750D02*
X105410000Y-117562750D01*
D30*
X72263000Y-136017000D02*
X67515000Y-136017000D01*
D28*
X99949000Y-147788750D02*
X98425000Y-147788750D01*
D30*
X68392000Y-165039000D02*
X68199000Y-164846000D01*
D28*
X137706100Y-150036650D02*
X137922000Y-149820750D01*
D31*
X102800000Y-134580750D02*
X100330000Y-134580750D01*
D30*
X147098000Y-158448750D02*
X148852000Y-158448750D01*
D28*
X61722000Y-147066000D02*
X61722000Y-151765000D01*
X99147750Y-158075750D02*
X98171000Y-157099000D01*
X136410700Y-150036650D02*
X137706100Y-150036650D01*
X148971000Y-129119750D02*
X137414000Y-117562750D01*
X60452000Y-134747000D02*
X61722000Y-136017000D01*
D30*
X75946000Y-136017000D02*
X72263000Y-136017000D01*
D28*
X139192000Y-189738000D02*
X76835000Y-189738000D01*
D30*
X148963000Y-137239750D02*
X148971000Y-137247750D01*
D28*
X67515000Y-136017000D02*
X61722000Y-136017000D01*
D29*
X67818000Y-149328500D02*
X67818000Y-147193000D01*
D28*
X72644000Y-178308000D02*
X71882000Y-177546000D01*
D31*
X99949000Y-134961750D02*
X99949000Y-136043750D01*
D28*
X61722000Y-147066000D02*
X69723000Y-147066000D01*
D30*
X147098000Y-147907750D02*
X148852000Y-147907750D01*
X68387000Y-166939000D02*
X68199000Y-166751000D01*
X70490500Y-166939000D02*
X68387000Y-166939000D01*
D28*
X98171000Y-147066000D02*
X98171000Y-148042750D01*
D30*
X70490500Y-165039000D02*
X68392000Y-165039000D01*
D31*
X102835000Y-146518750D02*
X100457000Y-146518750D01*
D28*
X137922000Y-139152750D02*
X137121900Y-138352650D01*
D30*
X148852000Y-158448750D02*
X148971000Y-158329750D01*
X49553500Y-184912000D02*
X50927000Y-184912000D01*
D28*
X76835000Y-189738000D02*
X72644000Y-185547000D01*
D29*
X58039000Y-169351500D02*
X58039000Y-169926000D01*
X58039000Y-169926000D02*
X58039000Y-170942000D01*
D28*
X105410000Y-117562750D02*
X102814000Y-120158750D01*
D30*
X50927000Y-184912000D02*
X52070000Y-183769000D01*
D29*
X61723000Y-151764000D02*
X61722000Y-151765000D01*
D28*
X137121900Y-138352650D02*
X136410700Y-138352650D01*
X68199000Y-169799000D02*
X68199000Y-161798000D01*
X71882000Y-173482000D02*
X68199000Y-169799000D01*
X136410700Y-161720650D02*
X137198100Y-161720650D01*
X67945000Y-147066000D02*
X70739000Y-147066000D01*
D30*
X147098000Y-168989750D02*
X148836000Y-168989750D01*
D28*
X102814000Y-120158750D02*
X102814000Y-123970750D01*
X100523000Y-158075750D02*
X99147750Y-158075750D01*
X148971000Y-147788750D02*
X148971000Y-138009750D01*
D29*
X67818000Y-147193000D02*
X67945000Y-147066000D01*
D28*
X137922000Y-160996750D02*
X137922000Y-154900750D01*
X70739000Y-147066000D02*
X98171000Y-147066000D01*
D30*
X100523000Y-159792750D02*
X101404500Y-160674250D01*
D29*
X72263000Y-131595500D02*
X72263000Y-136017000D01*
D28*
X99949000Y-136043750D02*
X98867000Y-136043750D01*
X137198100Y-161720650D02*
X137922000Y-160996750D01*
X138049000Y-154773750D02*
X137922000Y-154900750D01*
X98171000Y-136739750D02*
X98171000Y-147066000D01*
X61722000Y-136017000D02*
X61722000Y-147066000D01*
X148971000Y-154773750D02*
X148971000Y-147788750D01*
X98171000Y-157099000D02*
X98171000Y-148042750D01*
X148971000Y-179959000D02*
X139192000Y-189738000D01*
D30*
X100523000Y-158075750D02*
X100523000Y-159792750D01*
D31*
X100330000Y-134580750D02*
X99949000Y-134961750D01*
X100457000Y-146518750D02*
X99949000Y-147026750D01*
D30*
X147098000Y-137239750D02*
X148963000Y-137239750D01*
D28*
X98867000Y-136043750D02*
X98171000Y-136739750D01*
D29*
X63410000Y-151764000D02*
X61723000Y-151764000D01*
D28*
X148971000Y-158329750D02*
X148971000Y-154773750D01*
X61722000Y-151765000D02*
X61722000Y-156083000D01*
X148971000Y-138009750D02*
X148971000Y-129119750D01*
X137922000Y-154900750D02*
X137922000Y-149820750D01*
X137922000Y-149820750D02*
X137922000Y-139152750D01*
X66803000Y-182118000D02*
X66803000Y-178689000D01*
X58379000Y-182118000D02*
X55793000Y-184704000D01*
X66803000Y-182118000D02*
X58379000Y-182118000D01*
X68453000Y-184912000D02*
X68453000Y-176910000D01*
X63419000Y-184704000D02*
X60793000Y-184704000D01*
X66803000Y-185547000D02*
X67818000Y-185547000D01*
X66803000Y-185547000D02*
X64262000Y-185547000D01*
X67818000Y-185547000D02*
X68453000Y-184912000D01*
X64262000Y-185547000D02*
X63419000Y-184704000D01*
X68453000Y-176910000D02*
X66803000Y-175260000D01*
D30*
X57023000Y-163576000D02*
X56261000Y-164338000D01*
X59182000Y-163576000D02*
X59690000Y-164084000D01*
X58420000Y-163576000D02*
X57023000Y-163576000D01*
X58420000Y-163576000D02*
X59182000Y-163576000D01*
X56261000Y-164338000D02*
X56261000Y-166182000D01*
X59690000Y-164084000D02*
X59690000Y-166375500D01*
D29*
X57023000Y-167132000D02*
X56388000Y-167132000D01*
X58740000Y-166375500D02*
X57779500Y-166375500D01*
X57779500Y-166375500D02*
X57023000Y-167132000D01*
X56388000Y-167132000D02*
X56261000Y-167259000D01*
X56261000Y-167259000D02*
X56261000Y-168082000D01*
X72159500Y-129667000D02*
X72263000Y-129770500D01*
X76604500Y-129770500D02*
X78575500Y-129770500D01*
X76581000Y-132842000D02*
X76581000Y-129794000D01*
X67515000Y-129667000D02*
X72159500Y-129667000D01*
X77216000Y-133477000D02*
X76581000Y-132842000D01*
X76581000Y-129794000D02*
X76604500Y-129770500D01*
X78575500Y-129770500D02*
X78679000Y-129667000D01*
X72263000Y-129770500D02*
X76604500Y-129770500D01*
X107950000Y-143470750D02*
X109728000Y-143470750D01*
D30*
X114742000Y-140676750D02*
X117301000Y-140676750D01*
D29*
X114808000Y-141946750D02*
X114808000Y-140742750D01*
X114808000Y-140742750D02*
X114742000Y-140676750D01*
X114554000Y-142200750D02*
X114808000Y-141946750D01*
X110998000Y-142200750D02*
X114554000Y-142200750D01*
X109728000Y-143470750D02*
X110998000Y-142200750D01*
D30*
X117301000Y-167901750D02*
X117301000Y-165361750D01*
D28*
X79017500Y-165391500D02*
X79055000Y-165354000D01*
D30*
X117324500Y-171537750D02*
X117324500Y-169148250D01*
X123594500Y-135104500D02*
X123102250Y-135596750D01*
X117324500Y-169148250D02*
X117301000Y-169124750D01*
X123594500Y-134112000D02*
X123594500Y-135104500D01*
X121158000Y-135596750D02*
X121666000Y-135596750D01*
X123102250Y-135596750D02*
X122428000Y-135596750D01*
X117301000Y-165361750D02*
X117301000Y-157741750D01*
D28*
X79017500Y-169418000D02*
X79017500Y-165391500D01*
D30*
X121769500Y-135700250D02*
X121666000Y-135596750D01*
X117301000Y-169124750D02*
X117301000Y-167901750D01*
D28*
X79055000Y-161985350D02*
X79019400Y-161949750D01*
D30*
X121666000Y-135596750D02*
X122428000Y-135596750D01*
X117301000Y-157741750D02*
X117301000Y-156424750D01*
X121769500Y-137374750D02*
X121769500Y-135700250D01*
D28*
X79055000Y-165354000D02*
X79055000Y-161985350D01*
D29*
X111506000Y-138898750D02*
X109474000Y-140930750D01*
D30*
X114742000Y-137374750D02*
X117301000Y-137374750D01*
D29*
X114808000Y-137440750D02*
X114808000Y-138644750D01*
X114808000Y-138644750D02*
X114554000Y-138898750D01*
X114554000Y-138898750D02*
X111506000Y-138898750D01*
X109474000Y-140930750D02*
X107950000Y-140930750D01*
X114742000Y-137374750D02*
X114808000Y-137440750D01*
D30*
X114742000Y-153884750D02*
X117301000Y-153884750D01*
D29*
X107950000Y-156424750D02*
X113665000Y-156424750D01*
X102835000Y-154138750D02*
X101092000Y-154138750D01*
X113665000Y-156424750D02*
X114742000Y-155347750D01*
X114742000Y-155347750D02*
X114742000Y-153884750D01*
X114554000Y-135596750D02*
X111344000Y-135596750D01*
X114742000Y-134072750D02*
X114808000Y-134138750D01*
X114808000Y-135342750D02*
X114554000Y-135596750D01*
D30*
X114742000Y-134072750D02*
X117301000Y-134072750D01*
D29*
X114808000Y-134138750D02*
X114808000Y-135342750D01*
X109820000Y-137120750D02*
X107950000Y-137120750D01*
X111344000Y-135596750D02*
X109820000Y-137120750D01*
D28*
X75311000Y-163309300D02*
X75311000Y-165989000D01*
X75311000Y-160528000D02*
X75311000Y-164198300D01*
X75311000Y-160528000D02*
X75565000Y-160274000D01*
D30*
X74361000Y-166939000D02*
X74930000Y-166370000D01*
D28*
X75565000Y-160274000D02*
X78486000Y-160274000D01*
X75311000Y-165989000D02*
X74930000Y-166370000D01*
X74930000Y-166370000D02*
X74422000Y-166878000D01*
X78486000Y-160274000D02*
X79019400Y-159740600D01*
D30*
X72765500Y-166939000D02*
X74361000Y-166939000D01*
D28*
X79019400Y-159740600D02*
X79019400Y-158649750D01*
D29*
X114742000Y-148489750D02*
X114742000Y-147280750D01*
D30*
X114742000Y-147280750D02*
X117301000Y-147280750D01*
D29*
X114300000Y-148931750D02*
X114742000Y-148489750D01*
X109347000Y-152868750D02*
X109982000Y-152233750D01*
X109982000Y-149947750D02*
X110998000Y-148931750D01*
X107985000Y-152868750D02*
X109347000Y-152868750D01*
X110998000Y-148931750D02*
X114300000Y-148931750D01*
X109982000Y-152233750D02*
X109982000Y-149947750D01*
X114808000Y-144044750D02*
X114742000Y-143978750D01*
X114808000Y-145248750D02*
X114808000Y-144044750D01*
X109982000Y-146137750D02*
X110490000Y-145629750D01*
X114427000Y-145629750D02*
X114808000Y-145248750D01*
X109474000Y-149058750D02*
X109982000Y-148550750D01*
X109982000Y-148550750D02*
X109982000Y-146137750D01*
D30*
X114742000Y-143978750D02*
X117301000Y-143978750D01*
D29*
X110490000Y-145629750D02*
X114427000Y-145629750D01*
X107985000Y-149058750D02*
X109474000Y-149058750D01*
X109474000Y-155408750D02*
X110236000Y-154646750D01*
X110236000Y-154646750D02*
X110236000Y-153122750D01*
X110236000Y-153122750D02*
X111125000Y-152233750D01*
D30*
X114742000Y-150582750D02*
X117301000Y-150582750D01*
D29*
X111125000Y-152233750D02*
X114173000Y-152233750D01*
X107985000Y-155408750D02*
X109474000Y-155408750D01*
X114173000Y-152233750D02*
X114742000Y-151664750D01*
X114742000Y-151664750D02*
X114742000Y-150582750D01*
D30*
X130302000Y-188301750D02*
X120904000Y-188301750D01*
X118872000Y-186269750D02*
X118872000Y-186110750D01*
X120904000Y-188301750D02*
X118872000Y-186269750D01*
D28*
X107696000Y-184491750D02*
X109315000Y-186110750D01*
X109315000Y-186110750D02*
X118872000Y-186110750D01*
D30*
X107696000Y-178649750D02*
X107696000Y-174458750D01*
X147098000Y-167989750D02*
X146296000Y-167989750D01*
X145288000Y-171791750D02*
X147066000Y-173569750D01*
X147066000Y-173569750D02*
X147066000Y-179030750D01*
X128790700Y-145540850D02*
X128790700Y-147268050D01*
X147066000Y-179030750D02*
X145415000Y-180681750D01*
D28*
X107696000Y-178649750D02*
X107696000Y-184491750D01*
D30*
X145288000Y-168997750D02*
X145288000Y-171791750D01*
X137922000Y-180681750D02*
X130302000Y-188301750D01*
X128790700Y-148030050D02*
X128790700Y-147268050D01*
X145415000Y-180681750D02*
X137922000Y-180681750D01*
X146296000Y-167989750D02*
X145288000Y-168997750D01*
X130048000Y-153376750D02*
X125604000Y-153376750D01*
X125604000Y-153376750D02*
X124206000Y-151978750D01*
X131000500Y-150036650D02*
X131000500Y-152424250D01*
X131000500Y-152424250D02*
X130048000Y-153376750D01*
X123190000Y-164044750D02*
X123698000Y-164552750D01*
X97457500Y-174839750D02*
X97409000Y-174888250D01*
X101600000Y-174839750D02*
X97457500Y-174839750D01*
X121158000Y-147280750D02*
X122428000Y-146010750D01*
X124206000Y-147280750D02*
X124206000Y-148678750D01*
X123698000Y-146010750D02*
X123698000Y-146772750D01*
X123698000Y-146772750D02*
X124206000Y-147280750D01*
X101600000Y-174331750D02*
X101600000Y-174839750D01*
X123698000Y-164806750D02*
X123698000Y-165822750D01*
X101600000Y-174839750D02*
X101600000Y-175220750D01*
X123698000Y-164552750D02*
X123698000Y-164806750D01*
X119126000Y-164044750D02*
X123190000Y-164044750D01*
X119126000Y-147280750D02*
X121158000Y-147280750D01*
X122428000Y-146010750D02*
X123698000Y-146010750D01*
D28*
X130016000Y-186110750D02*
X123190000Y-186110750D01*
D30*
X146177000Y-174077750D02*
X146177000Y-178141750D01*
X145407000Y-157448750D02*
X144272000Y-158583750D01*
D28*
X132877500Y-179574250D02*
X132877500Y-183313250D01*
X130048000Y-186142750D02*
X130016000Y-186110750D01*
D30*
X132877500Y-174438750D02*
X132877500Y-178558250D01*
X144272000Y-172172750D02*
X146177000Y-174077750D01*
D28*
X132877500Y-178558250D02*
X132877500Y-179574250D01*
D30*
X144653000Y-179665750D02*
X132969000Y-179665750D01*
X147098000Y-157448750D02*
X145407000Y-157448750D01*
D28*
X132877500Y-183313250D02*
X130048000Y-186142750D01*
D30*
X132969000Y-179665750D02*
X132877500Y-179574250D01*
X144272000Y-158583750D02*
X144272000Y-172172750D01*
X146177000Y-178141750D02*
X144653000Y-179665750D01*
X133210300Y-145540850D02*
X133210300Y-142594450D01*
X44625500Y-184912000D02*
X47728500Y-184912000D01*
X119126000Y-135342750D02*
X119126000Y-134072750D01*
D28*
X133822500Y-121591250D02*
X133822500Y-126798250D01*
D30*
X122682000Y-168616750D02*
X122174000Y-169124750D01*
X120396000Y-138644750D02*
X120396000Y-136612750D01*
X122682000Y-166838750D02*
X122682000Y-168616750D01*
D28*
X133822500Y-128830250D02*
X133822500Y-126798250D01*
D30*
X142494000Y-126706750D02*
X143510000Y-127722750D01*
X122682000Y-140930750D02*
X120396000Y-138644750D01*
X133914000Y-126706750D02*
X142494000Y-126706750D01*
X133822500Y-126798250D02*
X133914000Y-126706750D01*
X120396000Y-136612750D02*
X119126000Y-135342750D01*
X131000500Y-167791250D02*
X130048000Y-166838750D01*
D28*
X122047000Y-120515750D02*
X122714000Y-119848750D01*
D30*
X143510000Y-136104750D02*
X143382000Y-136232750D01*
X147091000Y-136232750D02*
X147098000Y-136239750D01*
X122174000Y-169124750D02*
X119126000Y-169124750D01*
X131000500Y-168908850D02*
X131000500Y-167791250D01*
X143382000Y-136232750D02*
X147091000Y-136232750D01*
X141732000Y-136232750D02*
X143382000Y-136232750D01*
D28*
X132080000Y-119848750D02*
X133822500Y-121591250D01*
D30*
X133822500Y-128830250D02*
X133822500Y-132822750D01*
D28*
X122714000Y-119848750D02*
X132080000Y-119848750D01*
D30*
X122682000Y-142454750D02*
X122682000Y-141438750D01*
X143510000Y-127722750D02*
X143510000Y-136104750D01*
X122682000Y-141438750D02*
X122682000Y-140930750D01*
X130048000Y-166838750D02*
X122682000Y-166838750D01*
X122682000Y-167854750D02*
X122682000Y-166838750D01*
X147089000Y-146898750D02*
X144398000Y-146898750D01*
X141224000Y-139532750D02*
X143890000Y-139532750D01*
X144398000Y-140040750D02*
X144398000Y-146898750D01*
X147098000Y-146907750D02*
X147089000Y-146898750D01*
X143890000Y-139532750D02*
X144398000Y-140040750D01*
X144398000Y-146898750D02*
X141224000Y-146898750D01*
X119126000Y-137374750D02*
X119126000Y-138644750D01*
X132080000Y-135596750D02*
X132080000Y-133620250D01*
X132080000Y-135596750D02*
X138684000Y-135596750D01*
X121666000Y-141184750D02*
X121666000Y-141438750D01*
X138684000Y-135596750D02*
X139192000Y-136104750D01*
X132080000Y-133620250D02*
X131282500Y-132822750D01*
X132080000Y-141184750D02*
X132080000Y-135596750D01*
X131000500Y-142264250D02*
X132080000Y-141184750D01*
X139192000Y-136104750D02*
X139192000Y-142200750D01*
X121666000Y-142454750D02*
X121666000Y-141438750D01*
X119126000Y-138644750D02*
X121666000Y-141184750D01*
X121158000Y-166584750D02*
X121666000Y-166076750D01*
X121666000Y-165060750D02*
X121666000Y-166076750D01*
X131000500Y-145540850D02*
X131000500Y-142264250D01*
X119126000Y-166584750D02*
X121158000Y-166584750D01*
X140590000Y-143598750D02*
X141224000Y-143598750D01*
X139192000Y-142200750D02*
X140590000Y-143598750D01*
X45720000Y-131699000D02*
X44450000Y-130429000D01*
X39981500Y-130532500D02*
X39878000Y-130429000D01*
X46848000Y-131699000D02*
X45720000Y-131699000D01*
X39878000Y-130429000D02*
X38989000Y-130429000D01*
X39981500Y-131699000D02*
X39981500Y-130532500D01*
X50106000Y-121099000D02*
X50165000Y-121158000D01*
X39878000Y-130429000D02*
X44450000Y-130429000D01*
X37973000Y-129413000D02*
X35179000Y-129413000D01*
X47829000Y-121099000D02*
X50106000Y-121099000D01*
X38989000Y-130429000D02*
X37973000Y-129413000D01*
X45720000Y-135001000D02*
X44450000Y-133731000D01*
X46848000Y-135001000D02*
X45720000Y-135001000D01*
X46579000Y-122144000D02*
X47117000Y-122682000D01*
X38044000Y-132913000D02*
X35179000Y-132913000D01*
X38862000Y-133731000D02*
X38044000Y-132913000D01*
X47117000Y-122682000D02*
X49530000Y-122682000D01*
X49530000Y-122682000D02*
X50165000Y-122047000D01*
X40005000Y-133731000D02*
X38862000Y-133731000D01*
X39981500Y-135001000D02*
X39981500Y-133754500D01*
X44450000Y-133731000D02*
X40005000Y-133731000D01*
X46579000Y-121099000D02*
X46579000Y-122144000D01*
X39981500Y-133754500D02*
X40005000Y-133731000D01*
X46863000Y-127254000D02*
X46863000Y-128382000D01*
X40005000Y-126873000D02*
X46482000Y-126873000D01*
X39045000Y-125913000D02*
X35179000Y-125913000D01*
X46482000Y-126873000D02*
X46863000Y-127254000D01*
X46863000Y-128382000D02*
X46848000Y-128397000D01*
X45339000Y-121109000D02*
X45339000Y-126873000D01*
X45329000Y-121099000D02*
X45339000Y-121109000D01*
X40005000Y-126873000D02*
X39045000Y-125913000D01*
X40005000Y-128373500D02*
X39981500Y-128397000D01*
X40005000Y-126873000D02*
X40005000Y-128373500D01*
X69987000Y-121099000D02*
X69987000Y-119009000D01*
D28*
X35179000Y-157170000D02*
X35179000Y-150170000D01*
X46570900Y-153670000D02*
X35179000Y-153670000D01*
D30*
X44079000Y-121099000D02*
X44079000Y-119009000D01*
D29*
X95885000Y-164592000D02*
X97512500Y-166219500D01*
D28*
X32385000Y-148209000D02*
X32385000Y-124079000D01*
D29*
X53594000Y-153670000D02*
X46570900Y-153670000D01*
D28*
X32385000Y-124079000D02*
X38354000Y-118110000D01*
D30*
X57013000Y-121137000D02*
X57013000Y-119009000D01*
D28*
X35179000Y-150170000D02*
X34346000Y-150170000D01*
D29*
X54356000Y-154432000D02*
X53594000Y-153670000D01*
X97512500Y-166219500D02*
X97512500Y-168021000D01*
X95885000Y-155829000D02*
X95885000Y-164592000D01*
D28*
X34346000Y-150170000D02*
X32385000Y-148209000D01*
D30*
X82941000Y-121145000D02*
X82941000Y-119263000D01*
D29*
X94488000Y-154432000D02*
X95885000Y-155829000D01*
X62992000Y-154432000D02*
X94488000Y-154432000D01*
D30*
X57013000Y-119009000D02*
X57023000Y-118999000D01*
D29*
X60325000Y-154432000D02*
X54356000Y-154432000D01*
D30*
X37592000Y-165735000D02*
X38862000Y-164465000D01*
X45593000Y-164465000D02*
X46863000Y-165735000D01*
X76327000Y-121158000D02*
X73770000Y-121158000D01*
X40005000Y-164465000D02*
X45593000Y-164465000D01*
X39981500Y-165735000D02*
X39981500Y-164488500D01*
X39981500Y-164488500D02*
X40005000Y-164465000D01*
X73770000Y-121158000D02*
X73757000Y-121145000D01*
X35179000Y-165735000D02*
X37592000Y-165735000D01*
X38862000Y-164465000D02*
X40005000Y-164465000D01*
X40132000Y-167894000D02*
X45578000Y-167894000D01*
X45578000Y-167894000D02*
X46848000Y-169164000D01*
X39981500Y-168044500D02*
X40132000Y-167894000D01*
X72898000Y-122809000D02*
X72507000Y-122418000D01*
X72507000Y-122418000D02*
X72507000Y-121145000D01*
X76327000Y-122047000D02*
X75565000Y-122809000D01*
X39116000Y-167894000D02*
X40132000Y-167894000D01*
X35179000Y-169235000D02*
X37775000Y-169235000D01*
X37775000Y-169235000D02*
X39116000Y-167894000D01*
X75565000Y-122809000D02*
X72898000Y-122809000D01*
X39981500Y-169164000D02*
X39981500Y-168044500D01*
X83820000Y-122809000D02*
X84201000Y-122428000D01*
X39981500Y-172466000D02*
X39981500Y-171219500D01*
X84201000Y-121147000D02*
X84191000Y-121137000D01*
X38410000Y-171196000D02*
X40005000Y-171196000D01*
X35179000Y-174427000D02*
X38410000Y-171196000D01*
X39981500Y-171219500D02*
X40005000Y-171196000D01*
X80391000Y-122809000D02*
X83820000Y-122809000D01*
X45593000Y-171196000D02*
X46863000Y-172466000D01*
X84201000Y-122428000D02*
X84201000Y-121147000D01*
X40005000Y-171196000D02*
X45593000Y-171196000D01*
X39878000Y-160782000D02*
X45466000Y-160782000D01*
X37409000Y-162235000D02*
X38862000Y-160782000D01*
X35179000Y-162235000D02*
X37409000Y-162235000D01*
X45466000Y-160782000D02*
X46863000Y-162179000D01*
X71257000Y-122418000D02*
X71257000Y-121145000D01*
X70866000Y-122809000D02*
X71257000Y-122418000D01*
X38862000Y-160782000D02*
X39878000Y-160782000D01*
X39981500Y-160885500D02*
X39878000Y-160782000D01*
X39981500Y-162179000D02*
X39981500Y-160885500D01*
X66675000Y-122809000D02*
X70866000Y-122809000D01*
X119126000Y-150582750D02*
X125984000Y-150582750D01*
X125984000Y-150582750D02*
X126746000Y-151344750D01*
X123444000Y-169632750D02*
X121539000Y-171537750D01*
X126746000Y-152360750D02*
X126746000Y-151344750D01*
X124968000Y-169632750D02*
X123444000Y-169632750D01*
X121539000Y-171537750D02*
X119149500Y-171537750D01*
D29*
X104648000Y-168021000D02*
X105055000Y-167614000D01*
X105055000Y-167614000D02*
X105055000Y-166399250D01*
X99337500Y-168021000D02*
X104648000Y-168021000D01*
D30*
X128778000Y-152614750D02*
X128778000Y-150049350D01*
X128778000Y-150049350D02*
X128790700Y-150036650D01*
X128790700Y-159714050D02*
X128790700Y-157224850D01*
X133210300Y-161720650D02*
X133210300Y-163143050D01*
X128524000Y-171156750D02*
X127508000Y-172172750D01*
X127508000Y-172172750D02*
X127508000Y-172680750D01*
X126746000Y-172680750D02*
X127508000Y-172680750D01*
X133210300Y-163143050D02*
X135128000Y-165060750D01*
X128790700Y-168908850D02*
X128790700Y-170890050D01*
X135128000Y-170394750D02*
X134366000Y-171156750D01*
X135128000Y-165060750D02*
X135128000Y-170394750D01*
X134366000Y-171156750D02*
X128524000Y-171156750D01*
X48163000Y-163165000D02*
X48163000Y-162179000D01*
X42926000Y-163449000D02*
X42037000Y-163449000D01*
X42037000Y-163449000D02*
X41806500Y-163218500D01*
X41806500Y-163218500D02*
X41806500Y-162179000D01*
X47879000Y-163449000D02*
X48163000Y-163165000D01*
X42926000Y-163449000D02*
X47879000Y-163449000D01*
X69850000Y-130937000D02*
X67515000Y-130937000D01*
X69850000Y-132207000D02*
X67515000Y-132207000D01*
X43815000Y-167005000D02*
X42037000Y-167005000D01*
X43815000Y-167005000D02*
X47879000Y-167005000D01*
X41794750Y-166762750D02*
X41794750Y-165723250D01*
X42037000Y-167005000D02*
X41794750Y-166762750D01*
X47879000Y-167005000D02*
X48163000Y-166721000D01*
X48163000Y-166721000D02*
X48163000Y-165735000D01*
X41794750Y-169152250D02*
X41794750Y-170191750D01*
X69850000Y-133477000D02*
X67515000Y-133477000D01*
X41794750Y-170191750D02*
X42037000Y-170434000D01*
X42037000Y-170434000D02*
X47879000Y-170434000D01*
X47879000Y-170434000D02*
X48148000Y-170165000D01*
X48148000Y-170165000D02*
X48148000Y-169164000D01*
X123190000Y-155154750D02*
X119126000Y-155154750D01*
X119126000Y-156424750D02*
X119126000Y-153884750D01*
X130556000Y-154138750D02*
X124206000Y-154138750D01*
X124206000Y-154138750D02*
X123190000Y-155154750D01*
X130556000Y-154900750D02*
X130556000Y-154138750D01*
X74699500Y-169418000D02*
X77192500Y-169418000D01*
X71628000Y-169037000D02*
X72009000Y-169418000D01*
X73787000Y-173331500D02*
X73787000Y-172212000D01*
X72009000Y-169418000D02*
X72874500Y-169418000D01*
X72070000Y-165039000D02*
X71628000Y-165481000D01*
X71628000Y-165481000D02*
X71628000Y-169037000D01*
X73787000Y-172212000D02*
X72874500Y-171299500D01*
X72765500Y-165039000D02*
X72070000Y-165039000D01*
X72874500Y-171299500D02*
X72874500Y-169418000D01*
X73787000Y-175156500D02*
X76454000Y-175156500D01*
X132080000Y-150836750D02*
X132080000Y-150074750D01*
X132118100Y-150036650D02*
X132080000Y-150074750D01*
X132080000Y-150074750D02*
X132080000Y-149312750D01*
X133210300Y-150036650D02*
X132118100Y-150036650D01*
X132118100Y-157224850D02*
X133210300Y-157224850D01*
X132080000Y-157694750D02*
X132080000Y-157186750D01*
X132080000Y-157186750D02*
X132118100Y-157224850D01*
X132080000Y-157186750D02*
X132080000Y-156678750D01*
X133858000Y-166076750D02*
X133858000Y-165060750D01*
X133210300Y-166724450D02*
X133858000Y-166076750D01*
X129794000Y-163536750D02*
X132334000Y-163536750D01*
X132334000Y-163536750D02*
X133858000Y-165060750D01*
X133210300Y-168908850D02*
X133210300Y-166724450D01*
X128790700Y-161720650D02*
X128790700Y-162533450D01*
X128790700Y-162533450D02*
X129794000Y-163536750D01*
X46848000Y-141605000D02*
X45466000Y-141605000D01*
X39981500Y-141605000D02*
X39981500Y-140485500D01*
X37211000Y-141478000D02*
X35179000Y-141478000D01*
X60784000Y-121158000D02*
X60763000Y-121137000D01*
X45466000Y-141605000D02*
X44196000Y-140335000D01*
X38354000Y-140335000D02*
X37211000Y-141478000D01*
X63246000Y-121158000D02*
X60784000Y-121158000D01*
X40132000Y-140335000D02*
X38354000Y-140335000D01*
X44196000Y-140335000D02*
X40132000Y-140335000D01*
X39981500Y-140485500D02*
X40132000Y-140335000D01*
X46848000Y-144907000D02*
X45466000Y-144907000D01*
X37648000Y-144978000D02*
X35179000Y-144978000D01*
X44196000Y-143637000D02*
X40005000Y-143637000D01*
X39981500Y-143660500D02*
X40005000Y-143637000D01*
X59513000Y-121997000D02*
X59513000Y-121137000D01*
X40005000Y-143637000D02*
X38989000Y-143637000D01*
X60198000Y-122682000D02*
X59513000Y-121997000D01*
X45466000Y-144907000D02*
X44196000Y-143637000D01*
X39981500Y-144907000D02*
X39981500Y-143660500D01*
X63246000Y-122047000D02*
X62611000Y-122682000D01*
X62611000Y-122682000D02*
X60198000Y-122682000D01*
X38989000Y-143637000D02*
X37648000Y-144978000D01*
X45578000Y-174498000D02*
X46848000Y-175768000D01*
X40005000Y-174498000D02*
X40513000Y-174498000D01*
X86712000Y-121158000D02*
X86691000Y-121137000D01*
X35179000Y-177927000D02*
X38608000Y-174498000D01*
X89281000Y-121158000D02*
X86712000Y-121158000D01*
X39981500Y-174521500D02*
X40005000Y-174498000D01*
X40513000Y-174498000D02*
X45578000Y-174498000D01*
X38608000Y-174498000D02*
X40513000Y-174498000D01*
X39981500Y-175768000D02*
X39981500Y-174521500D01*
X38989000Y-174498000D02*
X40005000Y-174498000D01*
X85441000Y-122271000D02*
X85441000Y-121137000D01*
X85979000Y-122809000D02*
X85441000Y-122271000D01*
X38806000Y-177800000D02*
X40132000Y-177800000D01*
X39981500Y-179070000D02*
X39981500Y-177950500D01*
X39981500Y-177950500D02*
X40132000Y-177800000D01*
X40132000Y-177800000D02*
X45593000Y-177800000D01*
X88519000Y-122809000D02*
X85979000Y-122809000D01*
X89281000Y-122047000D02*
X88519000Y-122809000D01*
X35179000Y-181427000D02*
X38806000Y-177800000D01*
X45593000Y-177800000D02*
X46863000Y-179070000D01*
X124714000Y-158964750D02*
X125730000Y-159980750D01*
X120396000Y-145248750D02*
X124968000Y-145248750D01*
X124968000Y-145248750D02*
X125730000Y-146010750D01*
X125730000Y-146772750D02*
X125730000Y-146010750D01*
X119126000Y-158964750D02*
X124714000Y-158964750D01*
X119126000Y-143978750D02*
X120396000Y-145248750D01*
X125730000Y-160996750D02*
X125730000Y-159980750D01*
X120904000Y-143470750D02*
X124714000Y-143470750D01*
X124714000Y-156043750D02*
X124714000Y-155281750D01*
X123952000Y-161504750D02*
X124714000Y-162266750D01*
X119126000Y-141692750D02*
X120904000Y-143470750D01*
X119126000Y-140676750D02*
X119126000Y-141692750D01*
X124714000Y-163282750D02*
X124714000Y-162266750D01*
X119126000Y-161504750D02*
X123952000Y-161504750D01*
X124714000Y-144486750D02*
X124714000Y-143470750D01*
X131000500Y-156615250D02*
X129667000Y-155281750D01*
X129667000Y-155281750D02*
X124714000Y-155281750D01*
X131000500Y-157224850D02*
X131000500Y-156615250D01*
X131000500Y-135080750D02*
X128742500Y-132822750D01*
X131000500Y-138352650D02*
X131000500Y-135080750D01*
X100330000Y-128738750D02*
X99314000Y-127722750D01*
X103124000Y-128738750D02*
X100330000Y-128738750D01*
X99314000Y-127722750D02*
X99314000Y-123970750D01*
X103782500Y-129397250D02*
X103124000Y-128738750D01*
X103782500Y-132040750D02*
X103782500Y-129397250D01*
X105195250Y-132040750D02*
X106148500Y-132040750D01*
X103782500Y-132040750D02*
X105195250Y-132040750D01*
X41806500Y-129436500D02*
X42037000Y-129667000D01*
X42037000Y-129667000D02*
X48133000Y-129667000D01*
X48148000Y-129652000D02*
X48133000Y-129667000D01*
X48148000Y-128397000D02*
X48148000Y-129652000D01*
X41806500Y-128397000D02*
X41806500Y-129436500D01*
X58215000Y-129667000D02*
X48133000Y-129667000D01*
X42022000Y-132976500D02*
X48118000Y-132976500D01*
X58215000Y-130937000D02*
X50815000Y-130937000D01*
X41791500Y-132746000D02*
X42022000Y-132976500D01*
X48133000Y-131706500D02*
X48133000Y-132961500D01*
X50815000Y-130937000D02*
X48775500Y-132976500D01*
X48118000Y-132976500D02*
X48775500Y-132976500D01*
X41791500Y-131706500D02*
X41791500Y-132746000D01*
X58215000Y-132207000D02*
X53848000Y-132207000D01*
X42022000Y-136271000D02*
X49784000Y-136271000D01*
X49784000Y-136271000D02*
X53848000Y-132207000D01*
X41791500Y-135001000D02*
X41791500Y-136040500D01*
X41791500Y-136040500D02*
X42022000Y-136271000D01*
X48148000Y-135001000D02*
X48148000Y-136002000D01*
X48760500Y-139580500D02*
X54864000Y-133477000D01*
X42022000Y-139580500D02*
X41791500Y-139350000D01*
X42022000Y-139580500D02*
X48760500Y-139580500D01*
X48148000Y-138303000D02*
X48148000Y-139304000D01*
X54864000Y-133477000D02*
X58215000Y-133477000D01*
X41791500Y-139350000D02*
X41791500Y-138310500D01*
X47879000Y-173736000D02*
X45593000Y-173736000D01*
X42025250Y-173724250D02*
X41794750Y-173493750D01*
X48163000Y-173452000D02*
X47879000Y-173736000D01*
X69850000Y-137287000D02*
X67515000Y-137287000D01*
X41794750Y-173493750D02*
X41794750Y-172454250D01*
X45593000Y-173736000D02*
X42025250Y-173724250D01*
X48163000Y-172466000D02*
X48163000Y-173452000D01*
X48887500Y-142882500D02*
X42022000Y-142882500D01*
X41791500Y-142652000D02*
X41791500Y-141612500D01*
X54483000Y-137287000D02*
X48887500Y-142882500D01*
X42022000Y-142882500D02*
X41791500Y-142652000D01*
X58215000Y-137287000D02*
X54483000Y-137287000D01*
X48133000Y-141612500D02*
X48133000Y-142867500D01*
X42025250Y-177026250D02*
X46366750Y-177026250D01*
X48148000Y-176769000D02*
X48148000Y-175768000D01*
X67515000Y-138557000D02*
X62865000Y-138557000D01*
X47890750Y-177026250D02*
X48148000Y-176769000D01*
D29*
X67515000Y-138557000D02*
X76581000Y-138557000D01*
X78359000Y-134747000D02*
X77216000Y-134747000D01*
D30*
X41794750Y-176795750D02*
X42025250Y-177026250D01*
X41794750Y-175756250D02*
X41794750Y-176795750D01*
X46366750Y-177026250D02*
X47890750Y-177026250D01*
X41791500Y-145954000D02*
X42022000Y-146184500D01*
D29*
X75946000Y-134747000D02*
X74803000Y-134747000D01*
X70739000Y-139827000D02*
X76581000Y-139827000D01*
X69469000Y-141097000D02*
X70739000Y-139827000D01*
D30*
X65278000Y-140208000D02*
X62865000Y-140208000D01*
X48252500Y-146184500D02*
X51681500Y-146184500D01*
X51681500Y-146184500D02*
X52451000Y-145415000D01*
X48148000Y-144907000D02*
X48148000Y-146080000D01*
X41791500Y-144914500D02*
X41791500Y-145954000D01*
D29*
X67515000Y-141097000D02*
X69469000Y-141097000D01*
D30*
X42022000Y-146184500D02*
X48252500Y-146184500D01*
X48148000Y-146080000D02*
X48252500Y-146184500D01*
X52451000Y-145415000D02*
X52451000Y-143129000D01*
X67515000Y-141097000D02*
X66167000Y-141097000D01*
X66167000Y-141097000D02*
X65278000Y-140208000D01*
X48163000Y-180056000D02*
X48163000Y-179070000D01*
X62865000Y-139343903D02*
X65683903Y-139343903D01*
D29*
X77851000Y-136652000D02*
X77216000Y-136017000D01*
D30*
X42025250Y-180328250D02*
X41794750Y-180097750D01*
D29*
X69635000Y-139192000D02*
X77597000Y-139192000D01*
D30*
X41794750Y-180097750D02*
X41794750Y-179058250D01*
X47465408Y-180328250D02*
X47890750Y-180328250D01*
D29*
X77851000Y-138938000D02*
X77851000Y-136652000D01*
X69000000Y-139827000D02*
X69635000Y-139192000D01*
X67515000Y-139827000D02*
X69000000Y-139827000D01*
D30*
X45593000Y-180340000D02*
X47465408Y-180328250D01*
X66167000Y-139827000D02*
X67515000Y-139827000D01*
X47890750Y-180328250D02*
X48163000Y-180056000D01*
X65683903Y-139343903D02*
X66167000Y-139827000D01*
X45593000Y-180340000D02*
X42025250Y-180328250D01*
D29*
X77597000Y-139192000D02*
X77851000Y-138938000D01*
D28*
X136398000Y-153249750D02*
X135128000Y-151979750D01*
X141478000Y-166760250D02*
X136598900Y-166760250D01*
X136410700Y-147268050D02*
X136410700Y-145540850D01*
X135216900Y-163625650D02*
X135216900Y-160018850D01*
X135128000Y-151979750D02*
X135128000Y-148550750D01*
X136410700Y-168908850D02*
X136410700Y-167105450D01*
X136410700Y-166572050D02*
X136410700Y-164819450D01*
X136398000Y-158837750D02*
X136398000Y-153249750D01*
X135216900Y-160018850D02*
X136398000Y-158837750D01*
X135128000Y-148550750D02*
X136410700Y-147268050D01*
X136410700Y-167105450D02*
X136410700Y-166572050D01*
X136410700Y-164819450D02*
X135216900Y-163625650D01*
X136598900Y-166760250D02*
X136410700Y-166572050D01*
D29*
X105331500Y-173013250D02*
X108955000Y-169389750D01*
X98359000Y-173013250D02*
X105331500Y-173013250D01*
X108955000Y-169389750D02*
X108955000Y-166399250D01*
D30*
X142428000Y-170714750D02*
X140716000Y-172426750D01*
X128524000Y-173696750D02*
X116586000Y-173696750D01*
X129794000Y-172426750D02*
X140716000Y-172426750D01*
X129794000Y-172426750D02*
X128524000Y-173696750D01*
X109605000Y-166399250D02*
X109605000Y-167238829D01*
X109605000Y-167238829D02*
X110220921Y-167854750D01*
X142428000Y-164885250D02*
X142428000Y-170714750D01*
X115062000Y-167854750D02*
X115824000Y-168616750D01*
X115824000Y-168616750D02*
X115824000Y-172934750D01*
X110220921Y-167854750D02*
X115062000Y-167854750D01*
X115824000Y-172934750D02*
X116586000Y-173696750D01*
X125222000Y-136779000D02*
X124626250Y-137374750D01*
X125222000Y-131318000D02*
X125222000Y-136779000D01*
X124626250Y-137374750D02*
X123594500Y-137374750D01*
X124714000Y-130810000D02*
X125222000Y-131318000D01*
X123594500Y-130810000D02*
X124714000Y-130810000D01*
X116038000Y-128700650D02*
X117309900Y-128700650D01*
X117309900Y-128739900D02*
X119380000Y-130810000D01*
X117309900Y-128700650D02*
X117309900Y-128739900D01*
X119380000Y-130810000D02*
X121769500Y-130810000D01*
X78994000Y-173331500D02*
X76454000Y-173331500D01*
D29*
X56134000Y-140462000D02*
X56134000Y-141732000D01*
X56769000Y-139827000D02*
X56134000Y-140462000D01*
X58215000Y-139827000D02*
X56769000Y-139827000D01*
X56769000Y-146812000D02*
X59309000Y-146812000D01*
X59481500Y-151764000D02*
X58510000Y-151764000D01*
X56134000Y-146177000D02*
X56769000Y-146812000D01*
X56134000Y-141732000D02*
X56134000Y-146177000D01*
X59690000Y-147193000D02*
X59690000Y-151555500D01*
X59309000Y-146812000D02*
X59690000Y-147193000D01*
X59690000Y-151555500D02*
X59481500Y-151764000D01*
X107005000Y-159719434D02*
X107005000Y-160674250D01*
X104902000Y-136866750D02*
X104902000Y-157616434D01*
X104902000Y-157616434D02*
X107005000Y-159719434D01*
X107950000Y-135850750D02*
X105918000Y-135850750D01*
X105918000Y-135850750D02*
X104902000Y-136866750D01*
D30*
X120777000Y-132080000D02*
X112903000Y-132080000D01*
X121769500Y-134112000D02*
X121769500Y-133072500D01*
X120904000Y-132207000D02*
X120777000Y-132080000D01*
X112903000Y-132080000D02*
X112649000Y-132080000D01*
X112649000Y-132080000D02*
X111633000Y-132080000D01*
X121769500Y-133072500D02*
X120904000Y-132207000D01*
D29*
X96520000Y-155448000D02*
X96520000Y-161290000D01*
X66167000Y-153670000D02*
X94742000Y-153670000D01*
X58215000Y-138557000D02*
X60071000Y-138557000D01*
X96520000Y-161290000D02*
X98298000Y-163068000D01*
X103505000Y-163068000D02*
X104405000Y-162168000D01*
X94742000Y-153670000D02*
X96520000Y-155448000D01*
X67714500Y-151257000D02*
X67818000Y-151153500D01*
X60071000Y-138557000D02*
X60579000Y-139065000D01*
X98298000Y-163068000D02*
X103505000Y-163068000D01*
X66167000Y-151257000D02*
X67714500Y-151257000D01*
X60579000Y-139065000D02*
X60579000Y-153035000D01*
X104405000Y-162168000D02*
X104405000Y-160674250D01*
X104140000Y-135215750D02*
X104521000Y-134834750D01*
X101727000Y-135215750D02*
X104140000Y-135215750D01*
X101473000Y-135469750D02*
X101727000Y-135215750D01*
X101727000Y-137120750D02*
X101473000Y-136866750D01*
X104140000Y-133437750D02*
X102362000Y-133437750D01*
X102362000Y-133437750D02*
X101957500Y-133033250D01*
X104521000Y-134834750D02*
X104521000Y-133818750D01*
X101957500Y-133033250D02*
X101957500Y-132040750D01*
X101473000Y-136866750D02*
X101473000Y-135469750D01*
D30*
X99248000Y-132040750D02*
X101957500Y-132040750D01*
D29*
X104521000Y-133818750D02*
X104140000Y-133437750D01*
X102800000Y-137120750D02*
X101727000Y-137120750D01*
D30*
X120142000Y-120864750D02*
X119634000Y-120356750D01*
X124968000Y-121118750D02*
X123698000Y-122388750D01*
X131318000Y-131024750D02*
X131318000Y-122388750D01*
X130048000Y-121118750D02*
X124968000Y-121118750D01*
X113538000Y-121118750D02*
X113538000Y-123188850D01*
X131318000Y-122388750D02*
X130048000Y-121118750D01*
X123698000Y-122388750D02*
X120650000Y-122388750D01*
X119634000Y-120356750D02*
X114300000Y-120356750D01*
X127254000Y-133818750D02*
X127254000Y-132040750D01*
X130810000Y-131532750D02*
X131318000Y-131024750D01*
X120142000Y-121880750D02*
X120142000Y-120864750D01*
X113538000Y-123188850D02*
X113538000Y-128700650D01*
X128790700Y-135355450D02*
X127254000Y-133818750D01*
X128790700Y-138352650D02*
X128790700Y-135355450D01*
X114300000Y-120356750D02*
X113538000Y-121118750D01*
X127254000Y-132040750D02*
X127762000Y-131532750D01*
X127762000Y-131532750D02*
X130810000Y-131532750D01*
X120650000Y-122388750D02*
X120142000Y-121880750D01*
D29*
X106670474Y-151862276D02*
X106934000Y-151598750D01*
X109605000Y-159876802D02*
X106670474Y-156942276D01*
X106670474Y-156942276D02*
X106670474Y-151862276D01*
X106934000Y-151598750D02*
X107985000Y-151598750D01*
X109605000Y-160674250D02*
X109605000Y-159876802D01*
X106680000Y-147788750D02*
X107985000Y-147788750D01*
X108955000Y-160674250D02*
X108955000Y-159837460D01*
X106197400Y-157079860D02*
X106197400Y-148271350D01*
X108955000Y-159837460D02*
X106197400Y-157079860D01*
X106197400Y-148271350D02*
X106680000Y-147788750D01*
X102800000Y-135850750D02*
X103505000Y-135850750D01*
X106355000Y-159680092D02*
X106355000Y-160674250D01*
X104446600Y-157771692D02*
X106355000Y-159680092D01*
X103505000Y-135850750D02*
X104446600Y-136792350D01*
X104446600Y-136792350D02*
X104446600Y-157771692D01*
X103505000Y-152868750D02*
X104014800Y-153378550D01*
X105705000Y-159640750D02*
X105705000Y-160674250D01*
X102835000Y-152868750D02*
X103505000Y-152868750D01*
X104014800Y-157950550D02*
X105705000Y-159640750D01*
X104014800Y-153378550D02*
X104014800Y-157950550D01*
X110255000Y-159618750D02*
X108204000Y-157567750D01*
X110255000Y-160674250D02*
X110255000Y-159618750D01*
X107985000Y-154138750D02*
X109601000Y-154138750D01*
X105705000Y-166399250D02*
X105705000Y-168575750D01*
X89804000Y-169378750D02*
X104902000Y-169378750D01*
X88661000Y-168235750D02*
X89804000Y-169378750D01*
X105705000Y-168575750D02*
X104902000Y-169378750D01*
X105156000Y-169886750D02*
X106355000Y-168687750D01*
X90678000Y-172807750D02*
X93599000Y-169886750D01*
X106355000Y-168687750D02*
X106355000Y-166399250D01*
X88661000Y-172807750D02*
X90678000Y-172807750D01*
X93599000Y-169886750D02*
X105156000Y-169886750D01*
X92202000Y-172045750D02*
X93726000Y-170521750D01*
X91567000Y-177379750D02*
X92202000Y-176744750D01*
X107005000Y-168799750D02*
X107005000Y-166399250D01*
X88661000Y-177379750D02*
X91567000Y-177379750D01*
X92202000Y-176744750D02*
X92202000Y-172045750D01*
X93726000Y-170521750D02*
X105283000Y-170521750D01*
X105283000Y-170521750D02*
X107005000Y-168799750D01*
X105664000Y-171029750D02*
X107655000Y-169038750D01*
X92075000Y-181951750D02*
X92837000Y-181189750D01*
X107655000Y-169038750D02*
X107655000Y-166399250D01*
X92837000Y-172299750D02*
X94107000Y-171029750D01*
X88661000Y-181951750D02*
X92075000Y-181951750D01*
X92837000Y-181189750D02*
X92837000Y-172299750D01*
X94107000Y-171029750D02*
X105664000Y-171029750D01*
X88661000Y-186523750D02*
X92710000Y-186523750D01*
X93472000Y-185761750D02*
X93472000Y-172426750D01*
X108305000Y-169277750D02*
X108305000Y-166399250D01*
X106045000Y-171537750D02*
X108305000Y-169277750D01*
X94361000Y-171537750D02*
X106045000Y-171537750D01*
X92710000Y-186523750D02*
X93472000Y-185761750D01*
X93472000Y-172426750D02*
X94361000Y-171537750D01*
D30*
X40005000Y-138279500D02*
X39981500Y-138303000D01*
X44323000Y-137033000D02*
X40005000Y-137033000D01*
X45593000Y-138303000D02*
X44323000Y-137033000D01*
X37155000Y-137978000D02*
X35179000Y-137978000D01*
X58263000Y-122331000D02*
X58263000Y-121137000D01*
X54864000Y-122936000D02*
X57658000Y-122936000D01*
X57658000Y-122936000D02*
X58263000Y-122331000D01*
X46848000Y-138303000D02*
X45593000Y-138303000D01*
X40005000Y-137033000D02*
X38100000Y-137033000D01*
X40005000Y-137033000D02*
X40005000Y-138279500D01*
X38100000Y-137033000D02*
X37155000Y-137978000D01*
D29*
X107655000Y-159758776D02*
X107655000Y-160674250D01*
X107950000Y-139660750D02*
X105791000Y-139660750D01*
X105791000Y-139660750D02*
X105333800Y-140117950D01*
X105333800Y-157437576D02*
X107655000Y-159758776D01*
X105333800Y-140117950D02*
X105333800Y-157437576D01*
X106172000Y-142200750D02*
X107950000Y-142200750D01*
X108305000Y-159798118D02*
X105765600Y-157258718D01*
X108305000Y-160674250D02*
X108305000Y-159798118D01*
X105765600Y-157258718D02*
X105765600Y-142607150D01*
X105765600Y-142607150D02*
X106172000Y-142200750D01*
X70866000Y-151153500D02*
X70866000Y-153035000D01*
X97028000Y-155067000D02*
X94996000Y-153035000D01*
X98552000Y-162560000D02*
X97028000Y-161036000D01*
X103755000Y-162056000D02*
X103251000Y-162560000D01*
X64643000Y-153035000D02*
X64008000Y-153670000D01*
X60071000Y-141351000D02*
X60121800Y-141401800D01*
X64643000Y-153035000D02*
X94996000Y-153035000D01*
X97028000Y-161036000D02*
X97028000Y-155067000D01*
X103251000Y-162560000D02*
X98552000Y-162560000D01*
X60121800Y-152349200D02*
X59436000Y-153035000D01*
X103755000Y-160674250D02*
X103755000Y-162056000D01*
X59817000Y-141097000D02*
X60071000Y-141351000D01*
X60121800Y-141401800D02*
X60121800Y-152349200D01*
X58215000Y-141097000D02*
X59817000Y-141097000D01*
G04 #@! TA.AperFunction,Conductor*
G36*
X54298121Y-147848002D02*
G01*
X54344614Y-147901658D01*
X54356000Y-147954000D01*
X54356000Y-152020000D01*
X54335998Y-152088121D01*
X54282342Y-152134614D01*
X54230000Y-152146000D01*
X38734000Y-152146000D01*
X38665879Y-152125998D01*
X38619386Y-152072342D01*
X38608000Y-152020000D01*
X38608000Y-147954000D01*
X38628002Y-147885879D01*
X38681658Y-147839386D01*
X38734000Y-147828000D01*
X54230000Y-147828000D01*
X54298121Y-147848002D01*
G37*
G04 #@! TD.AperFunction*
G04 #@! TA.AperFunction,Conductor*
G36*
X71882000Y-162815000D02*
G01*
X71861998Y-162883121D01*
X71808342Y-162929614D01*
X71756000Y-162941000D01*
X61721000Y-162941000D01*
X61652879Y-162920998D01*
X61606386Y-162867342D01*
X61595000Y-162815000D01*
X61595000Y-159893000D01*
X71882000Y-159893000D01*
X71882000Y-162815000D01*
G37*
G04 #@! TD.AperFunction*
G04 #@! TA.AperFunction,Conductor*
G36*
X64135000Y-167132000D02*
G01*
X60358424Y-167132000D01*
X60290303Y-167111998D01*
X60243810Y-167058342D01*
X60233975Y-166986290D01*
X60243725Y-166924727D01*
X60244500Y-166919834D01*
X60244500Y-165831166D01*
X60229498Y-165736445D01*
X60224995Y-165727608D01*
X60224994Y-165727604D01*
X60212234Y-165702562D01*
X60198500Y-165645359D01*
X60198500Y-165480000D01*
X60218502Y-165411879D01*
X60272158Y-165365386D01*
X60324500Y-165354000D01*
X64135000Y-165354000D01*
X64135000Y-167132000D01*
G37*
G04 #@! TD.AperFunction*
G04 #@! TA.AperFunction,Conductor*
G36*
X66871121Y-163469002D02*
G01*
X66917614Y-163522658D01*
X66929000Y-163575000D01*
X66929000Y-167006000D01*
X66908998Y-167074121D01*
X66855342Y-167120614D01*
X66803000Y-167132000D01*
X62103000Y-167132000D01*
X62103000Y-163575000D01*
X62123002Y-163506879D01*
X62176658Y-163460386D01*
X62229000Y-163449000D01*
X66803000Y-163449000D01*
X66871121Y-163469002D01*
G37*
G04 #@! TD.AperFunction*
G04 #@! TA.AperFunction,Conductor*
G36*
X58616121Y-171851002D02*
G01*
X58662614Y-171904658D01*
X58674000Y-171957000D01*
X58674000Y-178309000D01*
X58653998Y-178377121D01*
X58600342Y-178423614D01*
X58548000Y-178435000D01*
X54482000Y-178435000D01*
X54413879Y-178414998D01*
X54367386Y-178361342D01*
X54356000Y-178309000D01*
X54356000Y-171957000D01*
X54376002Y-171888879D01*
X54429658Y-171842386D01*
X54482000Y-171831000D01*
X58548000Y-171831000D01*
X58616121Y-171851002D01*
G37*
G04 #@! TD.AperFunction*
G04 #@! TA.AperFunction,Conductor*
G36*
X90747121Y-116352002D02*
G01*
X90793614Y-116405658D01*
X90805000Y-116458000D01*
X90805000Y-119635000D01*
X90784998Y-119703121D01*
X90731342Y-119749614D01*
X90679000Y-119761000D01*
X36575000Y-119761000D01*
X36506879Y-119740998D01*
X36460386Y-119687342D01*
X36449000Y-119635000D01*
X36449000Y-116458000D01*
X36469002Y-116389879D01*
X36522658Y-116343386D01*
X36575000Y-116332000D01*
X90679000Y-116332000D01*
X90747121Y-116352002D01*
G37*
G04 #@! TD.AperFunction*
G04 #@! TA.AperFunction,Conductor*
G36*
X71824121Y-155214002D02*
G01*
X71870614Y-155267658D01*
X71882000Y-155320000D01*
X71882000Y-159385000D01*
X38734000Y-159385000D01*
X38665879Y-159364998D01*
X38619386Y-159311342D01*
X38608000Y-159259000D01*
X38608000Y-155320000D01*
X38628002Y-155251879D01*
X38681658Y-155205386D01*
X38734000Y-155194000D01*
X71756000Y-155194000D01*
X71824121Y-155214002D01*
G37*
G04 #@! TD.AperFunction*
G04 #@! TA.AperFunction,Conductor*
G36*
X64077121Y-167660002D02*
G01*
X64123614Y-167713658D01*
X64135000Y-167766000D01*
X64135000Y-178309000D01*
X64114998Y-178377121D01*
X64061342Y-178423614D01*
X64009000Y-178435000D01*
X59435000Y-178435000D01*
X59366879Y-178414998D01*
X59320386Y-178361342D01*
X59309000Y-178309000D01*
X59309000Y-167766000D01*
X59329002Y-167697879D01*
X59382658Y-167651386D01*
X59435000Y-167640000D01*
X64009000Y-167640000D01*
X64077121Y-167660002D01*
G37*
G04 #@! TD.AperFunction*
G04 #@! TA.AperFunction,Conductor*
G36*
X71882000Y-161925000D02*
G01*
X55498000Y-161925000D01*
X55429879Y-161904998D01*
X55383386Y-161851342D01*
X55372000Y-161799000D01*
X55372000Y-157734000D01*
X71882000Y-157734000D01*
X71882000Y-161925000D01*
G37*
G04 #@! TD.AperFunction*
G04 #@! TA.AperFunction,Conductor*
G36*
X125291121Y-179431752D02*
G01*
X125337614Y-179485408D01*
X125349000Y-179537750D01*
X125349000Y-183857750D01*
X125328998Y-183925871D01*
X125275342Y-183972364D01*
X125223000Y-183983750D01*
X116712000Y-183983750D01*
X116643879Y-183963748D01*
X116597386Y-183910092D01*
X116586000Y-183857750D01*
X116586000Y-179537750D01*
X116606002Y-179469629D01*
X116659658Y-179423136D01*
X116712000Y-179411750D01*
X125223000Y-179411750D01*
X125291121Y-179431752D01*
G37*
G04 #@! TD.AperFunction*
G04 #@! TA.AperFunction,Conductor*
G36*
X151834121Y-124313752D02*
G01*
X151880614Y-124367408D01*
X151892000Y-124419750D01*
X151892000Y-183857750D01*
X151871998Y-183925871D01*
X151818342Y-183972364D01*
X151766000Y-183983750D01*
X149986000Y-183983750D01*
X149917879Y-183963748D01*
X149871386Y-183910092D01*
X149860000Y-183857750D01*
X149860000Y-124419750D01*
X149880002Y-124351629D01*
X149933658Y-124305136D01*
X149986000Y-124293750D01*
X151766000Y-124293750D01*
X151834121Y-124313752D01*
G37*
G04 #@! TD.AperFunction*
G04 #@! TA.AperFunction,Conductor*
G36*
X111956121Y-121392752D02*
G01*
X112002614Y-121446408D01*
X112014000Y-121498750D01*
X112014000Y-130390750D01*
X111993998Y-130458871D01*
X111940342Y-130505364D01*
X111888000Y-130516750D01*
X107822000Y-130516750D01*
X107753879Y-130496748D01*
X107707386Y-130443092D01*
X107696000Y-130390750D01*
X107696000Y-121498750D01*
X107716002Y-121430629D01*
X107769658Y-121384136D01*
X107822000Y-121372750D01*
X111888000Y-121372750D01*
X111956121Y-121392752D01*
G37*
G04 #@! TD.AperFunction*
G04 #@! TA.AperFunction,Conductor*
G36*
X124275121Y-123297752D02*
G01*
X124321614Y-123351408D01*
X124333000Y-123403750D01*
X124333000Y-127215750D01*
X124312998Y-127283871D01*
X124259342Y-127330364D01*
X124207000Y-127341750D01*
X119887000Y-127341750D01*
X119818879Y-127321748D01*
X119772386Y-127268092D01*
X119761000Y-127215750D01*
X119761000Y-123403750D01*
X119781002Y-123335629D01*
X119834658Y-123289136D01*
X119887000Y-123277750D01*
X124207000Y-123277750D01*
X124275121Y-123297752D01*
G37*
G04 #@! TD.AperFunction*
G04 #@! TA.AperFunction,Conductor*
G36*
X119068121Y-121392752D02*
G01*
X119114614Y-121446408D01*
X119126000Y-121498750D01*
X119126000Y-130390750D01*
X119105998Y-130458871D01*
X119052342Y-130505364D01*
X119000000Y-130516750D01*
X115188000Y-130516750D01*
X115119879Y-130496748D01*
X115073386Y-130443092D01*
X115062000Y-130390750D01*
X115062000Y-121498750D01*
X115082002Y-121430629D01*
X115135658Y-121384136D01*
X115188000Y-121372750D01*
X119000000Y-121372750D01*
X119068121Y-121392752D01*
G37*
G04 #@! TD.AperFunction*
M02*
