G04 #@! TF.GenerationSoftware,KiCad,Pcbnew,6.0.10-86aedd382b~118~ubuntu18.04.1*
G04 #@! TF.CreationDate,2024-12-31T11:37:35-07:00*
G04 #@! TF.ProjectId,mss-switch,6d73732d-7377-4697-9463-682e6b696361,rev?*
G04 #@! TF.SameCoordinates,Original*
G04 #@! TF.FileFunction,Soldermask,Top*
G04 #@! TF.FilePolarity,Negative*
%FSLAX46Y46*%
G04 Gerber Fmt 4.6, Leading zero omitted, Abs format (unit mm)*
G04 Created by KiCad (PCBNEW 6.0.10-86aedd382b~118~ubuntu18.04.1) date 2024-12-31 11:37:35*
%MOMM*%
%LPD*%
G01*
G04 APERTURE LIST*
%ADD10C,6.552400*%
%ADD11C,2.452400*%
%ADD12C,1.143000*%
%ADD13C,0.939800*%
%ADD14C,3.352400*%
%ADD15C,1.652400*%
%ADD16C,2.652400*%
G04 APERTURE END LIST*
G36*
G01*
X47139800Y-185362000D02*
X47139800Y-184462000D01*
G75*
G02*
X47466000Y-184135800I326200J0D01*
G01*
X47991000Y-184135800D01*
G75*
G02*
X48317200Y-184462000I0J-326200D01*
G01*
X48317200Y-185362000D01*
G75*
G02*
X47991000Y-185688200I-326200J0D01*
G01*
X47466000Y-185688200D01*
G75*
G02*
X47139800Y-185362000I0J326200D01*
G01*
G37*
G36*
G01*
X48964800Y-185362000D02*
X48964800Y-184462000D01*
G75*
G02*
X49291000Y-184135800I326200J0D01*
G01*
X49816000Y-184135800D01*
G75*
G02*
X50142200Y-184462000I0J-326200D01*
G01*
X50142200Y-185362000D01*
G75*
G02*
X49816000Y-185688200I-326200J0D01*
G01*
X49291000Y-185688200D01*
G75*
G02*
X48964800Y-185362000I0J326200D01*
G01*
G37*
G36*
G01*
X70879200Y-174310000D02*
X70879200Y-176210000D01*
G75*
G02*
X70803000Y-176286200I-76200J0D01*
G01*
X69403000Y-176286200D01*
G75*
G02*
X69326800Y-176210000I0J76200D01*
G01*
X69326800Y-174310000D01*
G75*
G02*
X69403000Y-174233800I76200J0D01*
G01*
X70803000Y-174233800D01*
G75*
G02*
X70879200Y-174310000I0J-76200D01*
G01*
G37*
G36*
G01*
X67579200Y-174310000D02*
X67579200Y-176210000D01*
G75*
G02*
X67503000Y-176286200I-76200J0D01*
G01*
X66103000Y-176286200D01*
G75*
G02*
X66026800Y-176210000I0J76200D01*
G01*
X66026800Y-174310000D01*
G75*
G02*
X66103000Y-174233800I76200J0D01*
G01*
X67503000Y-174233800D01*
G75*
G02*
X67579200Y-174310000I0J-76200D01*
G01*
G37*
G36*
G01*
X116712300Y-161954750D02*
X116712300Y-161054750D01*
G75*
G02*
X117038500Y-160728550I326200J0D01*
G01*
X117563500Y-160728550D01*
G75*
G02*
X117889700Y-161054750I0J-326200D01*
G01*
X117889700Y-161954750D01*
G75*
G02*
X117563500Y-162280950I-326200J0D01*
G01*
X117038500Y-162280950D01*
G75*
G02*
X116712300Y-161954750I0J326200D01*
G01*
G37*
G36*
G01*
X118537300Y-161954750D02*
X118537300Y-161054750D01*
G75*
G02*
X118863500Y-160728550I326200J0D01*
G01*
X119388500Y-160728550D01*
G75*
G02*
X119714700Y-161054750I0J-326200D01*
G01*
X119714700Y-161954750D01*
G75*
G02*
X119388500Y-162280950I-326200J0D01*
G01*
X118863500Y-162280950D01*
G75*
G02*
X118537300Y-161954750I0J326200D01*
G01*
G37*
G36*
G01*
X42395200Y-168714000D02*
X42395200Y-169614000D01*
G75*
G02*
X42069000Y-169940200I-326200J0D01*
G01*
X41544000Y-169940200D01*
G75*
G02*
X41217800Y-169614000I0J326200D01*
G01*
X41217800Y-168714000D01*
G75*
G02*
X41544000Y-168387800I326200J0D01*
G01*
X42069000Y-168387800D01*
G75*
G02*
X42395200Y-168714000I0J-326200D01*
G01*
G37*
G36*
G01*
X40570200Y-168714000D02*
X40570200Y-169614000D01*
G75*
G02*
X40244000Y-169940200I-326200J0D01*
G01*
X39719000Y-169940200D01*
G75*
G02*
X39392800Y-169614000I0J326200D01*
G01*
X39392800Y-168714000D01*
G75*
G02*
X39719000Y-168387800I326200J0D01*
G01*
X40244000Y-168387800D01*
G75*
G02*
X40570200Y-168714000I0J-326200D01*
G01*
G37*
D10*
X29718000Y-119888000D03*
G36*
G01*
X42395200Y-144457000D02*
X42395200Y-145357000D01*
G75*
G02*
X42069000Y-145683200I-326200J0D01*
G01*
X41544000Y-145683200D01*
G75*
G02*
X41217800Y-145357000I0J326200D01*
G01*
X41217800Y-144457000D01*
G75*
G02*
X41544000Y-144130800I326200J0D01*
G01*
X42069000Y-144130800D01*
G75*
G02*
X42395200Y-144457000I0J-326200D01*
G01*
G37*
G36*
G01*
X40570200Y-144457000D02*
X40570200Y-145357000D01*
G75*
G02*
X40244000Y-145683200I-326200J0D01*
G01*
X39719000Y-145683200D01*
G75*
G02*
X39392800Y-145357000I0J326200D01*
G01*
X39392800Y-144457000D01*
G75*
G02*
X39719000Y-144130800I326200J0D01*
G01*
X40244000Y-144130800D01*
G75*
G02*
X40570200Y-144457000I0J-326200D01*
G01*
G37*
G36*
G01*
X147723000Y-159824950D02*
X146473000Y-159824950D01*
G75*
G02*
X146246800Y-159598750I0J226200D01*
G01*
X146246800Y-159298750D01*
G75*
G02*
X146473000Y-159072550I226200J0D01*
G01*
X147723000Y-159072550D01*
G75*
G02*
X147949200Y-159298750I0J-226200D01*
G01*
X147949200Y-159598750D01*
G75*
G02*
X147723000Y-159824950I-226200J0D01*
G01*
G37*
G36*
G01*
X147723000Y-158824950D02*
X146473000Y-158824950D01*
G75*
G02*
X146246800Y-158598750I0J226200D01*
G01*
X146246800Y-158298750D01*
G75*
G02*
X146473000Y-158072550I226200J0D01*
G01*
X147723000Y-158072550D01*
G75*
G02*
X147949200Y-158298750I0J-226200D01*
G01*
X147949200Y-158598750D01*
G75*
G02*
X147723000Y-158824950I-226200J0D01*
G01*
G37*
G36*
G01*
X147723000Y-157824950D02*
X146473000Y-157824950D01*
G75*
G02*
X146246800Y-157598750I0J226200D01*
G01*
X146246800Y-157298750D01*
G75*
G02*
X146473000Y-157072550I226200J0D01*
G01*
X147723000Y-157072550D01*
G75*
G02*
X147949200Y-157298750I0J-226200D01*
G01*
X147949200Y-157598750D01*
G75*
G02*
X147723000Y-157824950I-226200J0D01*
G01*
G37*
G36*
G01*
X147723000Y-156824950D02*
X146473000Y-156824950D01*
G75*
G02*
X146246800Y-156598750I0J226200D01*
G01*
X146246800Y-156298750D01*
G75*
G02*
X146473000Y-156072550I226200J0D01*
G01*
X147723000Y-156072550D01*
G75*
G02*
X147949200Y-156298750I0J-226200D01*
G01*
X147949200Y-156598750D01*
G75*
G02*
X147723000Y-156824950I-226200J0D01*
G01*
G37*
G36*
G01*
X151623000Y-155824950D02*
X150323000Y-155824950D01*
G75*
G02*
X149996800Y-155498750I0J326200D01*
G01*
X149996800Y-154798750D01*
G75*
G02*
X150323000Y-154472550I326200J0D01*
G01*
X151623000Y-154472550D01*
G75*
G02*
X151949200Y-154798750I0J-326200D01*
G01*
X151949200Y-155498750D01*
G75*
G02*
X151623000Y-155824950I-326200J0D01*
G01*
G37*
G36*
G01*
X151623000Y-161424950D02*
X150323000Y-161424950D01*
G75*
G02*
X149996800Y-161098750I0J326200D01*
G01*
X149996800Y-160398750D01*
G75*
G02*
X150323000Y-160072550I326200J0D01*
G01*
X151623000Y-160072550D01*
G75*
G02*
X151949200Y-160398750I0J-326200D01*
G01*
X151949200Y-161098750D01*
G75*
G02*
X151623000Y-161424950I-326200J0D01*
G01*
G37*
G36*
X47599020Y-176576373D02*
G01*
X47572958Y-176531232D01*
X47571800Y-176518000D01*
X47571800Y-175018000D01*
X47589627Y-174969020D01*
X47634768Y-174942958D01*
X47648000Y-174941800D01*
X48148000Y-174941800D01*
X48162334Y-174947017D01*
X48229337Y-174948245D01*
X48250664Y-174951699D01*
X48385979Y-174993974D01*
X48405480Y-175003275D01*
X48523490Y-175081830D01*
X48539596Y-175096231D01*
X48630816Y-175204750D01*
X48642233Y-175223092D01*
X48699328Y-175352851D01*
X48705138Y-175373660D01*
X48722060Y-175503068D01*
X48723042Y-175504768D01*
X48724200Y-175518000D01*
X48724200Y-176018000D01*
X48723448Y-176020066D01*
X48723256Y-176035833D01*
X48701445Y-176175910D01*
X48695128Y-176196570D01*
X48634880Y-176324895D01*
X48623018Y-176342953D01*
X48529174Y-176449211D01*
X48512721Y-176463213D01*
X48392826Y-176538861D01*
X48373105Y-176547683D01*
X48236798Y-176586640D01*
X48215392Y-176589573D01*
X48167745Y-176589282D01*
X48161232Y-176593042D01*
X48148000Y-176594200D01*
X47648000Y-176594200D01*
X47599020Y-176576373D01*
G37*
G36*
X46833919Y-176589075D02*
G01*
X46773630Y-176588707D01*
X46752262Y-176585513D01*
X46616441Y-176544894D01*
X46596828Y-176535832D01*
X46477866Y-176458725D01*
X46461585Y-176444522D01*
X46369047Y-176337125D01*
X46357408Y-176318924D01*
X46298731Y-176189872D01*
X46292667Y-176169135D01*
X46272570Y-176028802D01*
X46271800Y-176018000D01*
X46271800Y-175518000D01*
X46271806Y-175517071D01*
X46271955Y-175504855D01*
X46273005Y-175493142D01*
X46296525Y-175353341D01*
X46303094Y-175332758D01*
X46364906Y-175205179D01*
X46376987Y-175187268D01*
X46472122Y-175082164D01*
X46488745Y-175068363D01*
X46609555Y-174994186D01*
X46629383Y-174985606D01*
X46766156Y-174948317D01*
X46787596Y-174945647D01*
X46828802Y-174946402D01*
X46834768Y-174942958D01*
X46848000Y-174941800D01*
X47348000Y-174941800D01*
X47396980Y-174959627D01*
X47423042Y-175004768D01*
X47424200Y-175018000D01*
X47424200Y-176518000D01*
X47406373Y-176566980D01*
X47361232Y-176593042D01*
X47348000Y-176594200D01*
X46848000Y-176594200D01*
X46833919Y-176589075D01*
G37*
G36*
G01*
X55638700Y-157848300D02*
X61201300Y-157848300D01*
G75*
G02*
X61277500Y-157924500I0J-76200D01*
G01*
X61277500Y-160032700D01*
G75*
G02*
X61201300Y-160108900I-76200J0D01*
G01*
X55638700Y-160108900D01*
G75*
G02*
X55562500Y-160032700I0J76200D01*
G01*
X55562500Y-157924500D01*
G75*
G02*
X55638700Y-157848300I76200J0D01*
G01*
G37*
G36*
G01*
X55638700Y-162445700D02*
X61201300Y-162445700D01*
G75*
G02*
X61277500Y-162521900I0J-76200D01*
G01*
X61277500Y-164630100D01*
G75*
G02*
X61201300Y-164706300I-76200J0D01*
G01*
X55638700Y-164706300D01*
G75*
G02*
X55562500Y-164630100I0J76200D01*
G01*
X55562500Y-162521900D01*
G75*
G02*
X55638700Y-162445700I76200J0D01*
G01*
G37*
G36*
G01*
X101883800Y-146668750D02*
X101883800Y-146368750D01*
G75*
G02*
X102110000Y-146142550I226200J0D01*
G01*
X103560000Y-146142550D01*
G75*
G02*
X103786200Y-146368750I0J-226200D01*
G01*
X103786200Y-146668750D01*
G75*
G02*
X103560000Y-146894950I-226200J0D01*
G01*
X102110000Y-146894950D01*
G75*
G02*
X101883800Y-146668750I0J226200D01*
G01*
G37*
G36*
G01*
X101883800Y-147938750D02*
X101883800Y-147638750D01*
G75*
G02*
X102110000Y-147412550I226200J0D01*
G01*
X103560000Y-147412550D01*
G75*
G02*
X103786200Y-147638750I0J-226200D01*
G01*
X103786200Y-147938750D01*
G75*
G02*
X103560000Y-148164950I-226200J0D01*
G01*
X102110000Y-148164950D01*
G75*
G02*
X101883800Y-147938750I0J226200D01*
G01*
G37*
G36*
G01*
X101883800Y-149208750D02*
X101883800Y-148908750D01*
G75*
G02*
X102110000Y-148682550I226200J0D01*
G01*
X103560000Y-148682550D01*
G75*
G02*
X103786200Y-148908750I0J-226200D01*
G01*
X103786200Y-149208750D01*
G75*
G02*
X103560000Y-149434950I-226200J0D01*
G01*
X102110000Y-149434950D01*
G75*
G02*
X101883800Y-149208750I0J226200D01*
G01*
G37*
G36*
G01*
X101883800Y-150478750D02*
X101883800Y-150178750D01*
G75*
G02*
X102110000Y-149952550I226200J0D01*
G01*
X103560000Y-149952550D01*
G75*
G02*
X103786200Y-150178750I0J-226200D01*
G01*
X103786200Y-150478750D01*
G75*
G02*
X103560000Y-150704950I-226200J0D01*
G01*
X102110000Y-150704950D01*
G75*
G02*
X101883800Y-150478750I0J226200D01*
G01*
G37*
G36*
G01*
X101883800Y-151748750D02*
X101883800Y-151448750D01*
G75*
G02*
X102110000Y-151222550I226200J0D01*
G01*
X103560000Y-151222550D01*
G75*
G02*
X103786200Y-151448750I0J-226200D01*
G01*
X103786200Y-151748750D01*
G75*
G02*
X103560000Y-151974950I-226200J0D01*
G01*
X102110000Y-151974950D01*
G75*
G02*
X101883800Y-151748750I0J226200D01*
G01*
G37*
G36*
G01*
X101883800Y-153018750D02*
X101883800Y-152718750D01*
G75*
G02*
X102110000Y-152492550I226200J0D01*
G01*
X103560000Y-152492550D01*
G75*
G02*
X103786200Y-152718750I0J-226200D01*
G01*
X103786200Y-153018750D01*
G75*
G02*
X103560000Y-153244950I-226200J0D01*
G01*
X102110000Y-153244950D01*
G75*
G02*
X101883800Y-153018750I0J226200D01*
G01*
G37*
G36*
G01*
X101883800Y-154288750D02*
X101883800Y-153988750D01*
G75*
G02*
X102110000Y-153762550I226200J0D01*
G01*
X103560000Y-153762550D01*
G75*
G02*
X103786200Y-153988750I0J-226200D01*
G01*
X103786200Y-154288750D01*
G75*
G02*
X103560000Y-154514950I-226200J0D01*
G01*
X102110000Y-154514950D01*
G75*
G02*
X101883800Y-154288750I0J226200D01*
G01*
G37*
G36*
G01*
X101883800Y-155558750D02*
X101883800Y-155258750D01*
G75*
G02*
X102110000Y-155032550I226200J0D01*
G01*
X103560000Y-155032550D01*
G75*
G02*
X103786200Y-155258750I0J-226200D01*
G01*
X103786200Y-155558750D01*
G75*
G02*
X103560000Y-155784950I-226200J0D01*
G01*
X102110000Y-155784950D01*
G75*
G02*
X101883800Y-155558750I0J226200D01*
G01*
G37*
G36*
G01*
X107033800Y-155558750D02*
X107033800Y-155258750D01*
G75*
G02*
X107260000Y-155032550I226200J0D01*
G01*
X108710000Y-155032550D01*
G75*
G02*
X108936200Y-155258750I0J-226200D01*
G01*
X108936200Y-155558750D01*
G75*
G02*
X108710000Y-155784950I-226200J0D01*
G01*
X107260000Y-155784950D01*
G75*
G02*
X107033800Y-155558750I0J226200D01*
G01*
G37*
G36*
G01*
X107033800Y-154288750D02*
X107033800Y-153988750D01*
G75*
G02*
X107260000Y-153762550I226200J0D01*
G01*
X108710000Y-153762550D01*
G75*
G02*
X108936200Y-153988750I0J-226200D01*
G01*
X108936200Y-154288750D01*
G75*
G02*
X108710000Y-154514950I-226200J0D01*
G01*
X107260000Y-154514950D01*
G75*
G02*
X107033800Y-154288750I0J226200D01*
G01*
G37*
G36*
G01*
X107033800Y-153018750D02*
X107033800Y-152718750D01*
G75*
G02*
X107260000Y-152492550I226200J0D01*
G01*
X108710000Y-152492550D01*
G75*
G02*
X108936200Y-152718750I0J-226200D01*
G01*
X108936200Y-153018750D01*
G75*
G02*
X108710000Y-153244950I-226200J0D01*
G01*
X107260000Y-153244950D01*
G75*
G02*
X107033800Y-153018750I0J226200D01*
G01*
G37*
G36*
G01*
X107033800Y-151748750D02*
X107033800Y-151448750D01*
G75*
G02*
X107260000Y-151222550I226200J0D01*
G01*
X108710000Y-151222550D01*
G75*
G02*
X108936200Y-151448750I0J-226200D01*
G01*
X108936200Y-151748750D01*
G75*
G02*
X108710000Y-151974950I-226200J0D01*
G01*
X107260000Y-151974950D01*
G75*
G02*
X107033800Y-151748750I0J226200D01*
G01*
G37*
G36*
G01*
X107033800Y-150478750D02*
X107033800Y-150178750D01*
G75*
G02*
X107260000Y-149952550I226200J0D01*
G01*
X108710000Y-149952550D01*
G75*
G02*
X108936200Y-150178750I0J-226200D01*
G01*
X108936200Y-150478750D01*
G75*
G02*
X108710000Y-150704950I-226200J0D01*
G01*
X107260000Y-150704950D01*
G75*
G02*
X107033800Y-150478750I0J226200D01*
G01*
G37*
G36*
G01*
X107033800Y-149208750D02*
X107033800Y-148908750D01*
G75*
G02*
X107260000Y-148682550I226200J0D01*
G01*
X108710000Y-148682550D01*
G75*
G02*
X108936200Y-148908750I0J-226200D01*
G01*
X108936200Y-149208750D01*
G75*
G02*
X108710000Y-149434950I-226200J0D01*
G01*
X107260000Y-149434950D01*
G75*
G02*
X107033800Y-149208750I0J226200D01*
G01*
G37*
G36*
G01*
X107033800Y-147938750D02*
X107033800Y-147638750D01*
G75*
G02*
X107260000Y-147412550I226200J0D01*
G01*
X108710000Y-147412550D01*
G75*
G02*
X108936200Y-147638750I0J-226200D01*
G01*
X108936200Y-147938750D01*
G75*
G02*
X108710000Y-148164950I-226200J0D01*
G01*
X107260000Y-148164950D01*
G75*
G02*
X107033800Y-147938750I0J226200D01*
G01*
G37*
G36*
G01*
X107033800Y-146668750D02*
X107033800Y-146368750D01*
G75*
G02*
X107260000Y-146142550I226200J0D01*
G01*
X108710000Y-146142550D01*
G75*
G02*
X108936200Y-146368750I0J-226200D01*
G01*
X108936200Y-146668750D01*
G75*
G02*
X108710000Y-146894950I-226200J0D01*
G01*
X107260000Y-146894950D01*
G75*
G02*
X107033800Y-146668750I0J226200D01*
G01*
G37*
G36*
G01*
X119714700Y-136924750D02*
X119714700Y-137824750D01*
G75*
G02*
X119388500Y-138150950I-326200J0D01*
G01*
X118863500Y-138150950D01*
G75*
G02*
X118537300Y-137824750I0J326200D01*
G01*
X118537300Y-136924750D01*
G75*
G02*
X118863500Y-136598550I326200J0D01*
G01*
X119388500Y-136598550D01*
G75*
G02*
X119714700Y-136924750I0J-326200D01*
G01*
G37*
G36*
G01*
X117889700Y-136924750D02*
X117889700Y-137824750D01*
G75*
G02*
X117563500Y-138150950I-326200J0D01*
G01*
X117038500Y-138150950D01*
G75*
G02*
X116712300Y-137824750I0J326200D01*
G01*
X116712300Y-136924750D01*
G75*
G02*
X117038500Y-136598550I326200J0D01*
G01*
X117563500Y-136598550D01*
G75*
G02*
X117889700Y-136924750I0J-326200D01*
G01*
G37*
G36*
G01*
X34029000Y-173200800D02*
X36329000Y-173200800D01*
G75*
G02*
X36405200Y-173277000I0J-76200D01*
G01*
X36405200Y-175577000D01*
G75*
G02*
X36329000Y-175653200I-76200J0D01*
G01*
X34029000Y-175653200D01*
G75*
G02*
X33952800Y-175577000I0J76200D01*
G01*
X33952800Y-173277000D01*
G75*
G02*
X34029000Y-173200800I76200J0D01*
G01*
G37*
D11*
X35179000Y-177927000D03*
X35179000Y-181427000D03*
G36*
X47599020Y-169972373D02*
G01*
X47572958Y-169927232D01*
X47571800Y-169914000D01*
X47571800Y-168414000D01*
X47589627Y-168365020D01*
X47634768Y-168338958D01*
X47648000Y-168337800D01*
X48148000Y-168337800D01*
X48162334Y-168343017D01*
X48229337Y-168344245D01*
X48250664Y-168347699D01*
X48385979Y-168389974D01*
X48405480Y-168399275D01*
X48523490Y-168477830D01*
X48539596Y-168492231D01*
X48630816Y-168600750D01*
X48642233Y-168619092D01*
X48699328Y-168748851D01*
X48705138Y-168769660D01*
X48722060Y-168899068D01*
X48723042Y-168900768D01*
X48724200Y-168914000D01*
X48724200Y-169414000D01*
X48723448Y-169416066D01*
X48723256Y-169431833D01*
X48701445Y-169571910D01*
X48695128Y-169592570D01*
X48634880Y-169720895D01*
X48623018Y-169738953D01*
X48529174Y-169845211D01*
X48512721Y-169859213D01*
X48392826Y-169934861D01*
X48373105Y-169943683D01*
X48236798Y-169982640D01*
X48215392Y-169985573D01*
X48167745Y-169985282D01*
X48161232Y-169989042D01*
X48148000Y-169990200D01*
X47648000Y-169990200D01*
X47599020Y-169972373D01*
G37*
G36*
X46833919Y-169985075D02*
G01*
X46773630Y-169984707D01*
X46752262Y-169981513D01*
X46616441Y-169940894D01*
X46596828Y-169931832D01*
X46477866Y-169854725D01*
X46461585Y-169840522D01*
X46369047Y-169733125D01*
X46357408Y-169714924D01*
X46298731Y-169585872D01*
X46292667Y-169565135D01*
X46272570Y-169424802D01*
X46271800Y-169414000D01*
X46271800Y-168914000D01*
X46271806Y-168913071D01*
X46271955Y-168900855D01*
X46273005Y-168889142D01*
X46296525Y-168749341D01*
X46303094Y-168728758D01*
X46364906Y-168601179D01*
X46376987Y-168583268D01*
X46472122Y-168478164D01*
X46488745Y-168464363D01*
X46609555Y-168390186D01*
X46629383Y-168381606D01*
X46766156Y-168344317D01*
X46787596Y-168341647D01*
X46828802Y-168342402D01*
X46834768Y-168338958D01*
X46848000Y-168337800D01*
X47348000Y-168337800D01*
X47396980Y-168355627D01*
X47423042Y-168400768D01*
X47424200Y-168414000D01*
X47424200Y-169914000D01*
X47406373Y-169962980D01*
X47361232Y-169989042D01*
X47348000Y-169990200D01*
X46848000Y-169990200D01*
X46833919Y-169985075D01*
G37*
G36*
G01*
X34029000Y-124686800D02*
X36329000Y-124686800D01*
G75*
G02*
X36405200Y-124763000I0J-76200D01*
G01*
X36405200Y-127063000D01*
G75*
G02*
X36329000Y-127139200I-76200J0D01*
G01*
X34029000Y-127139200D01*
G75*
G02*
X33952800Y-127063000I0J76200D01*
G01*
X33952800Y-124763000D01*
G75*
G02*
X34029000Y-124686800I76200J0D01*
G01*
G37*
X35179000Y-129413000D03*
X35179000Y-132913000D03*
G36*
G01*
X73504200Y-166789000D02*
X73504200Y-167089000D01*
G75*
G02*
X73278000Y-167315200I-226200J0D01*
G01*
X72253000Y-167315200D01*
G75*
G02*
X72026800Y-167089000I0J226200D01*
G01*
X72026800Y-166789000D01*
G75*
G02*
X72253000Y-166562800I226200J0D01*
G01*
X73278000Y-166562800D01*
G75*
G02*
X73504200Y-166789000I0J-226200D01*
G01*
G37*
G36*
G01*
X73504200Y-165839000D02*
X73504200Y-166139000D01*
G75*
G02*
X73278000Y-166365200I-226200J0D01*
G01*
X72253000Y-166365200D01*
G75*
G02*
X72026800Y-166139000I0J226200D01*
G01*
X72026800Y-165839000D01*
G75*
G02*
X72253000Y-165612800I226200J0D01*
G01*
X73278000Y-165612800D01*
G75*
G02*
X73504200Y-165839000I0J-226200D01*
G01*
G37*
G36*
G01*
X73504200Y-164889000D02*
X73504200Y-165189000D01*
G75*
G02*
X73278000Y-165415200I-226200J0D01*
G01*
X72253000Y-165415200D01*
G75*
G02*
X72026800Y-165189000I0J226200D01*
G01*
X72026800Y-164889000D01*
G75*
G02*
X72253000Y-164662800I226200J0D01*
G01*
X73278000Y-164662800D01*
G75*
G02*
X73504200Y-164889000I0J-226200D01*
G01*
G37*
G36*
G01*
X71229200Y-164889000D02*
X71229200Y-165189000D01*
G75*
G02*
X71003000Y-165415200I-226200J0D01*
G01*
X69978000Y-165415200D01*
G75*
G02*
X69751800Y-165189000I0J226200D01*
G01*
X69751800Y-164889000D01*
G75*
G02*
X69978000Y-164662800I226200J0D01*
G01*
X71003000Y-164662800D01*
G75*
G02*
X71229200Y-164889000I0J-226200D01*
G01*
G37*
G36*
G01*
X71229200Y-166789000D02*
X71229200Y-167089000D01*
G75*
G02*
X71003000Y-167315200I-226200J0D01*
G01*
X69978000Y-167315200D01*
G75*
G02*
X69751800Y-167089000I0J226200D01*
G01*
X69751800Y-166789000D01*
G75*
G02*
X69978000Y-166562800I226200J0D01*
G01*
X71003000Y-166562800D01*
G75*
G02*
X71229200Y-166789000I0J-226200D01*
G01*
G37*
G36*
X87909980Y-185715377D02*
G01*
X87936042Y-185760518D01*
X87937200Y-185773750D01*
X87937200Y-187273750D01*
X87919373Y-187322730D01*
X87874232Y-187348792D01*
X87861000Y-187349950D01*
X87361000Y-187349950D01*
X87346666Y-187344733D01*
X87279663Y-187343505D01*
X87258336Y-187340051D01*
X87123021Y-187297776D01*
X87103520Y-187288475D01*
X86985510Y-187209920D01*
X86969404Y-187195519D01*
X86878184Y-187087000D01*
X86866767Y-187068658D01*
X86809672Y-186938899D01*
X86803862Y-186918090D01*
X86786940Y-186788682D01*
X86785958Y-186786982D01*
X86784800Y-186773750D01*
X86784800Y-186273750D01*
X86785552Y-186271684D01*
X86785744Y-186255917D01*
X86807555Y-186115840D01*
X86813872Y-186095180D01*
X86874120Y-185966855D01*
X86885982Y-185948797D01*
X86979826Y-185842539D01*
X86996279Y-185828537D01*
X87116174Y-185752889D01*
X87135895Y-185744067D01*
X87272202Y-185705110D01*
X87293608Y-185702177D01*
X87341255Y-185702468D01*
X87347768Y-185698708D01*
X87361000Y-185697550D01*
X87861000Y-185697550D01*
X87909980Y-185715377D01*
G37*
G36*
X88675081Y-185702675D02*
G01*
X88735370Y-185703043D01*
X88756738Y-185706237D01*
X88892559Y-185746856D01*
X88912172Y-185755918D01*
X89031134Y-185833025D01*
X89047415Y-185847228D01*
X89139953Y-185954625D01*
X89151592Y-185972826D01*
X89210269Y-186101878D01*
X89216333Y-186122615D01*
X89236430Y-186262948D01*
X89237200Y-186273750D01*
X89237200Y-186773750D01*
X89237194Y-186774679D01*
X89237045Y-186786895D01*
X89235995Y-186798608D01*
X89212475Y-186938409D01*
X89205906Y-186958992D01*
X89144094Y-187086571D01*
X89132013Y-187104482D01*
X89036878Y-187209586D01*
X89020255Y-187223387D01*
X88899445Y-187297564D01*
X88879617Y-187306144D01*
X88742844Y-187343433D01*
X88721404Y-187346103D01*
X88680198Y-187345348D01*
X88674232Y-187348792D01*
X88661000Y-187349950D01*
X88161000Y-187349950D01*
X88112020Y-187332123D01*
X88085958Y-187286982D01*
X88084800Y-187273750D01*
X88084800Y-185773750D01*
X88102627Y-185724770D01*
X88147768Y-185698708D01*
X88161000Y-185697550D01*
X88661000Y-185697550D01*
X88675081Y-185702675D01*
G37*
G36*
G01*
X125664000Y-144793200D02*
X123764000Y-144793200D01*
G75*
G02*
X123687800Y-144717000I0J76200D01*
G01*
X123687800Y-143317000D01*
G75*
G02*
X123764000Y-143240800I76200J0D01*
G01*
X125664000Y-143240800D01*
G75*
G02*
X125740200Y-143317000I0J-76200D01*
G01*
X125740200Y-144717000D01*
G75*
G02*
X125664000Y-144793200I-76200J0D01*
G01*
G37*
G36*
G01*
X125664000Y-141493200D02*
X123764000Y-141493200D01*
G75*
G02*
X123687800Y-141417000I0J76200D01*
G01*
X123687800Y-140017000D01*
G75*
G02*
X123764000Y-139940800I76200J0D01*
G01*
X125664000Y-139940800D01*
G75*
G02*
X125740200Y-140017000I0J-76200D01*
G01*
X125740200Y-141417000D01*
G75*
G02*
X125664000Y-141493200I-76200J0D01*
G01*
G37*
G36*
G01*
X124056200Y-130487000D02*
X124056200Y-131387000D01*
G75*
G02*
X123730000Y-131713200I-326200J0D01*
G01*
X123205000Y-131713200D01*
G75*
G02*
X122878800Y-131387000I0J326200D01*
G01*
X122878800Y-130487000D01*
G75*
G02*
X123205000Y-130160800I326200J0D01*
G01*
X123730000Y-130160800D01*
G75*
G02*
X124056200Y-130487000I0J-326200D01*
G01*
G37*
G36*
G01*
X122231200Y-130487000D02*
X122231200Y-131387000D01*
G75*
G02*
X121905000Y-131713200I-326200J0D01*
G01*
X121380000Y-131713200D01*
G75*
G02*
X121053800Y-131387000I0J326200D01*
G01*
X121053800Y-130487000D01*
G75*
G02*
X121380000Y-130160800I326200J0D01*
G01*
X121905000Y-130160800D01*
G75*
G02*
X122231200Y-130487000I0J-326200D01*
G01*
G37*
G36*
X47599020Y-135809373D02*
G01*
X47572958Y-135764232D01*
X47571800Y-135751000D01*
X47571800Y-134251000D01*
X47589627Y-134202020D01*
X47634768Y-134175958D01*
X47648000Y-134174800D01*
X48148000Y-134174800D01*
X48162334Y-134180017D01*
X48229337Y-134181245D01*
X48250664Y-134184699D01*
X48385979Y-134226974D01*
X48405480Y-134236275D01*
X48523490Y-134314830D01*
X48539596Y-134329231D01*
X48630816Y-134437750D01*
X48642233Y-134456092D01*
X48699328Y-134585851D01*
X48705138Y-134606660D01*
X48722060Y-134736068D01*
X48723042Y-134737768D01*
X48724200Y-134751000D01*
X48724200Y-135251000D01*
X48723448Y-135253066D01*
X48723256Y-135268833D01*
X48701445Y-135408910D01*
X48695128Y-135429570D01*
X48634880Y-135557895D01*
X48623018Y-135575953D01*
X48529174Y-135682211D01*
X48512721Y-135696213D01*
X48392826Y-135771861D01*
X48373105Y-135780683D01*
X48236798Y-135819640D01*
X48215392Y-135822573D01*
X48167745Y-135822282D01*
X48161232Y-135826042D01*
X48148000Y-135827200D01*
X47648000Y-135827200D01*
X47599020Y-135809373D01*
G37*
G36*
X46833919Y-135822075D02*
G01*
X46773630Y-135821707D01*
X46752262Y-135818513D01*
X46616441Y-135777894D01*
X46596828Y-135768832D01*
X46477866Y-135691725D01*
X46461585Y-135677522D01*
X46369047Y-135570125D01*
X46357408Y-135551924D01*
X46298731Y-135422872D01*
X46292667Y-135402135D01*
X46272570Y-135261802D01*
X46271800Y-135251000D01*
X46271800Y-134751000D01*
X46271806Y-134750071D01*
X46271955Y-134737855D01*
X46273005Y-134726142D01*
X46296525Y-134586341D01*
X46303094Y-134565758D01*
X46364906Y-134438179D01*
X46376987Y-134420268D01*
X46472122Y-134315164D01*
X46488745Y-134301363D01*
X46609555Y-134227186D01*
X46629383Y-134218606D01*
X46766156Y-134181317D01*
X46787596Y-134178647D01*
X46828802Y-134179402D01*
X46834768Y-134175958D01*
X46848000Y-134174800D01*
X47348000Y-134174800D01*
X47396980Y-134192627D01*
X47423042Y-134237768D01*
X47424200Y-134251000D01*
X47424200Y-135751000D01*
X47406373Y-135799980D01*
X47361232Y-135826042D01*
X47348000Y-135827200D01*
X46848000Y-135827200D01*
X46833919Y-135822075D01*
G37*
D12*
X76581000Y-137287000D03*
X75565000Y-132207000D03*
X77597000Y-132207000D03*
D13*
X77216000Y-136017000D03*
X75946000Y-136017000D03*
X77216000Y-134747000D03*
X75946000Y-134747000D03*
X77216000Y-133477000D03*
X75946000Y-133477000D03*
G36*
G01*
X115318200Y-150107750D02*
X115318200Y-151057750D01*
G75*
G02*
X114992000Y-151383950I-326200J0D01*
G01*
X114492000Y-151383950D01*
G75*
G02*
X114165800Y-151057750I0J326200D01*
G01*
X114165800Y-150107750D01*
G75*
G02*
X114492000Y-149781550I326200J0D01*
G01*
X114992000Y-149781550D01*
G75*
G02*
X115318200Y-150107750I0J-326200D01*
G01*
G37*
G36*
G01*
X113418200Y-150107750D02*
X113418200Y-151057750D01*
G75*
G02*
X113092000Y-151383950I-326200J0D01*
G01*
X112592000Y-151383950D01*
G75*
G02*
X112265800Y-151057750I0J326200D01*
G01*
X112265800Y-150107750D01*
G75*
G02*
X112592000Y-149781550I326200J0D01*
G01*
X113092000Y-149781550D01*
G75*
G02*
X113418200Y-150107750I0J-326200D01*
G01*
G37*
G36*
G01*
X61239200Y-120537000D02*
X61239200Y-121737000D01*
G75*
G02*
X60963000Y-122013200I-276200J0D01*
G01*
X60563000Y-122013200D01*
G75*
G02*
X60286800Y-121737000I0J276200D01*
G01*
X60286800Y-120537000D01*
G75*
G02*
X60563000Y-120260800I276200J0D01*
G01*
X60963000Y-120260800D01*
G75*
G02*
X61239200Y-120537000I0J-276200D01*
G01*
G37*
G36*
G01*
X59989200Y-120537000D02*
X59989200Y-121737000D01*
G75*
G02*
X59713000Y-122013200I-276200J0D01*
G01*
X59313000Y-122013200D01*
G75*
G02*
X59036800Y-121737000I0J276200D01*
G01*
X59036800Y-120537000D01*
G75*
G02*
X59313000Y-120260800I276200J0D01*
G01*
X59713000Y-120260800D01*
G75*
G02*
X59989200Y-120537000I0J-276200D01*
G01*
G37*
G36*
G01*
X58739200Y-120537000D02*
X58739200Y-121737000D01*
G75*
G02*
X58463000Y-122013200I-276200J0D01*
G01*
X58063000Y-122013200D01*
G75*
G02*
X57786800Y-121737000I0J276200D01*
G01*
X57786800Y-120537000D01*
G75*
G02*
X58063000Y-120260800I276200J0D01*
G01*
X58463000Y-120260800D01*
G75*
G02*
X58739200Y-120537000I0J-276200D01*
G01*
G37*
G36*
G01*
X57489200Y-120537000D02*
X57489200Y-121737000D01*
G75*
G02*
X57213000Y-122013200I-276200J0D01*
G01*
X56813000Y-122013200D01*
G75*
G02*
X56536800Y-121737000I0J276200D01*
G01*
X56536800Y-120537000D01*
G75*
G02*
X56813000Y-120260800I276200J0D01*
G01*
X57213000Y-120260800D01*
G75*
G02*
X57489200Y-120537000I0J-276200D01*
G01*
G37*
G36*
G01*
X55589200Y-116987001D02*
X55589200Y-119486999D01*
G75*
G02*
X55262999Y-119813200I-326201J0D01*
G01*
X53663001Y-119813200D01*
G75*
G02*
X53336800Y-119486999I0J326201D01*
G01*
X53336800Y-116987001D01*
G75*
G02*
X53663001Y-116660800I326201J0D01*
G01*
X55262999Y-116660800D01*
G75*
G02*
X55589200Y-116987001I0J-326201D01*
G01*
G37*
G36*
G01*
X64439200Y-116987001D02*
X64439200Y-119486999D01*
G75*
G02*
X64112999Y-119813200I-326201J0D01*
G01*
X62513001Y-119813200D01*
G75*
G02*
X62186800Y-119486999I0J326201D01*
G01*
X62186800Y-116987001D01*
G75*
G02*
X62513001Y-116660800I326201J0D01*
G01*
X64112999Y-116660800D01*
G75*
G02*
X64439200Y-116987001I0J-326201D01*
G01*
G37*
G36*
X47599020Y-129205373D02*
G01*
X47572958Y-129160232D01*
X47571800Y-129147000D01*
X47571800Y-127647000D01*
X47589627Y-127598020D01*
X47634768Y-127571958D01*
X47648000Y-127570800D01*
X48148000Y-127570800D01*
X48162334Y-127576017D01*
X48229337Y-127577245D01*
X48250664Y-127580699D01*
X48385979Y-127622974D01*
X48405480Y-127632275D01*
X48523490Y-127710830D01*
X48539596Y-127725231D01*
X48630816Y-127833750D01*
X48642233Y-127852092D01*
X48699328Y-127981851D01*
X48705138Y-128002660D01*
X48722060Y-128132068D01*
X48723042Y-128133768D01*
X48724200Y-128147000D01*
X48724200Y-128647000D01*
X48723448Y-128649066D01*
X48723256Y-128664833D01*
X48701445Y-128804910D01*
X48695128Y-128825570D01*
X48634880Y-128953895D01*
X48623018Y-128971953D01*
X48529174Y-129078211D01*
X48512721Y-129092213D01*
X48392826Y-129167861D01*
X48373105Y-129176683D01*
X48236798Y-129215640D01*
X48215392Y-129218573D01*
X48167745Y-129218282D01*
X48161232Y-129222042D01*
X48148000Y-129223200D01*
X47648000Y-129223200D01*
X47599020Y-129205373D01*
G37*
G36*
X46833919Y-129218075D02*
G01*
X46773630Y-129217707D01*
X46752262Y-129214513D01*
X46616441Y-129173894D01*
X46596828Y-129164832D01*
X46477866Y-129087725D01*
X46461585Y-129073522D01*
X46369047Y-128966125D01*
X46357408Y-128947924D01*
X46298731Y-128818872D01*
X46292667Y-128798135D01*
X46272570Y-128657802D01*
X46271800Y-128647000D01*
X46271800Y-128147000D01*
X46271806Y-128146071D01*
X46271955Y-128133855D01*
X46273005Y-128122142D01*
X46296525Y-127982341D01*
X46303094Y-127961758D01*
X46364906Y-127834179D01*
X46376987Y-127816268D01*
X46472122Y-127711164D01*
X46488745Y-127697363D01*
X46609555Y-127623186D01*
X46629383Y-127614606D01*
X46766156Y-127577317D01*
X46787596Y-127574647D01*
X46828802Y-127575402D01*
X46834768Y-127571958D01*
X46848000Y-127570800D01*
X47348000Y-127570800D01*
X47396980Y-127588627D01*
X47423042Y-127633768D01*
X47424200Y-127647000D01*
X47424200Y-129147000D01*
X47406373Y-129195980D01*
X47361232Y-129222042D01*
X47348000Y-129223200D01*
X46848000Y-129223200D01*
X46833919Y-129218075D01*
G37*
G36*
G01*
X116712300Y-156874750D02*
X116712300Y-155974750D01*
G75*
G02*
X117038500Y-155648550I326200J0D01*
G01*
X117563500Y-155648550D01*
G75*
G02*
X117889700Y-155974750I0J-326200D01*
G01*
X117889700Y-156874750D01*
G75*
G02*
X117563500Y-157200950I-326200J0D01*
G01*
X117038500Y-157200950D01*
G75*
G02*
X116712300Y-156874750I0J326200D01*
G01*
G37*
G36*
G01*
X118537300Y-156874750D02*
X118537300Y-155974750D01*
G75*
G02*
X118863500Y-155648550I326200J0D01*
G01*
X119388500Y-155648550D01*
G75*
G02*
X119714700Y-155974750I0J-326200D01*
G01*
X119714700Y-156874750D01*
G75*
G02*
X119388500Y-157200950I-326200J0D01*
G01*
X118863500Y-157200950D01*
G75*
G02*
X118537300Y-156874750I0J326200D01*
G01*
G37*
G36*
G01*
X115318200Y-133597750D02*
X115318200Y-134547750D01*
G75*
G02*
X114992000Y-134873950I-326200J0D01*
G01*
X114492000Y-134873950D01*
G75*
G02*
X114165800Y-134547750I0J326200D01*
G01*
X114165800Y-133597750D01*
G75*
G02*
X114492000Y-133271550I326200J0D01*
G01*
X114992000Y-133271550D01*
G75*
G02*
X115318200Y-133597750I0J-326200D01*
G01*
G37*
G36*
G01*
X113418200Y-133597750D02*
X113418200Y-134547750D01*
G75*
G02*
X113092000Y-134873950I-326200J0D01*
G01*
X112592000Y-134873950D01*
G75*
G02*
X112265800Y-134547750I0J326200D01*
G01*
X112265800Y-133597750D01*
G75*
G02*
X112592000Y-133271550I326200J0D01*
G01*
X113092000Y-133271550D01*
G75*
G02*
X113418200Y-133597750I0J-326200D01*
G01*
G37*
G36*
G01*
X139987000Y-154136550D02*
X140937000Y-154136550D01*
G75*
G02*
X141263200Y-154462750I0J-326200D01*
G01*
X141263200Y-154962750D01*
G75*
G02*
X140937000Y-155288950I-326200J0D01*
G01*
X139987000Y-155288950D01*
G75*
G02*
X139660800Y-154962750I0J326200D01*
G01*
X139660800Y-154462750D01*
G75*
G02*
X139987000Y-154136550I326200J0D01*
G01*
G37*
G36*
G01*
X139987000Y-156036550D02*
X140937000Y-156036550D01*
G75*
G02*
X141263200Y-156362750I0J-326200D01*
G01*
X141263200Y-156862750D01*
G75*
G02*
X140937000Y-157188950I-326200J0D01*
G01*
X139987000Y-157188950D01*
G75*
G02*
X139660800Y-156862750I0J326200D01*
G01*
X139660800Y-156362750D01*
G75*
G02*
X139987000Y-156036550I326200J0D01*
G01*
G37*
G36*
G01*
X42186800Y-185368250D02*
X42186800Y-184455750D01*
G75*
G02*
X42506750Y-184135800I319950J0D01*
G01*
X42994250Y-184135800D01*
G75*
G02*
X43314200Y-184455750I0J-319950D01*
G01*
X43314200Y-185368250D01*
G75*
G02*
X42994250Y-185688200I-319950J0D01*
G01*
X42506750Y-185688200D01*
G75*
G02*
X42186800Y-185368250I0J319950D01*
G01*
G37*
G36*
G01*
X44061800Y-185368250D02*
X44061800Y-184455750D01*
G75*
G02*
X44381750Y-184135800I319950J0D01*
G01*
X44869250Y-184135800D01*
G75*
G02*
X45189200Y-184455750I0J-319950D01*
G01*
X45189200Y-185368250D01*
G75*
G02*
X44869250Y-185688200I-319950J0D01*
G01*
X44381750Y-185688200D01*
G75*
G02*
X44061800Y-185368250I0J319950D01*
G01*
G37*
G36*
G01*
X115441100Y-121868050D02*
X116634900Y-121868050D01*
G75*
G02*
X116711100Y-121944250I0J-76200D01*
G01*
X116711100Y-124433450D01*
G75*
G02*
X116634900Y-124509650I-76200J0D01*
G01*
X115441100Y-124509650D01*
G75*
G02*
X115364900Y-124433450I0J76200D01*
G01*
X115364900Y-121944250D01*
G75*
G02*
X115441100Y-121868050I76200J0D01*
G01*
G37*
G36*
G01*
X112941100Y-121868050D02*
X114134900Y-121868050D01*
G75*
G02*
X114211100Y-121944250I0J-76200D01*
G01*
X114211100Y-124433450D01*
G75*
G02*
X114134900Y-124509650I-76200J0D01*
G01*
X112941100Y-124509650D01*
G75*
G02*
X112864900Y-124433450I0J76200D01*
G01*
X112864900Y-121944250D01*
G75*
G02*
X112941100Y-121868050I76200J0D01*
G01*
G37*
G36*
G01*
X110441100Y-121868050D02*
X111634900Y-121868050D01*
G75*
G02*
X111711100Y-121944250I0J-76200D01*
G01*
X111711100Y-124433450D01*
G75*
G02*
X111634900Y-124509650I-76200J0D01*
G01*
X110441100Y-124509650D01*
G75*
G02*
X110364900Y-124433450I0J76200D01*
G01*
X110364900Y-121944250D01*
G75*
G02*
X110441100Y-121868050I76200J0D01*
G01*
G37*
G36*
G01*
X115441100Y-127379850D02*
X116634900Y-127379850D01*
G75*
G02*
X116711100Y-127456050I0J-76200D01*
G01*
X116711100Y-129945250D01*
G75*
G02*
X116634900Y-130021450I-76200J0D01*
G01*
X115441100Y-130021450D01*
G75*
G02*
X115364900Y-129945250I0J76200D01*
G01*
X115364900Y-127456050D01*
G75*
G02*
X115441100Y-127379850I76200J0D01*
G01*
G37*
G36*
G01*
X112941100Y-127379850D02*
X114134900Y-127379850D01*
G75*
G02*
X114211100Y-127456050I0J-76200D01*
G01*
X114211100Y-129945250D01*
G75*
G02*
X114134900Y-130021450I-76200J0D01*
G01*
X112941100Y-130021450D01*
G75*
G02*
X112864900Y-129945250I0J76200D01*
G01*
X112864900Y-127456050D01*
G75*
G02*
X112941100Y-127379850I76200J0D01*
G01*
G37*
G36*
G01*
X110441100Y-127379850D02*
X111634900Y-127379850D01*
G75*
G02*
X111711100Y-127456050I0J-76200D01*
G01*
X111711100Y-129945250D01*
G75*
G02*
X111634900Y-130021450I-76200J0D01*
G01*
X110441100Y-130021450D01*
G75*
G02*
X110364900Y-129945250I0J76200D01*
G01*
X110364900Y-127456050D01*
G75*
G02*
X110441100Y-127379850I76200J0D01*
G01*
G37*
D14*
X127797500Y-183328750D03*
X139227500Y-183328750D03*
G36*
G01*
X128241300Y-177728750D02*
X128241300Y-176228750D01*
G75*
G02*
X128317500Y-176152550I76200J0D01*
G01*
X129817500Y-176152550D01*
G75*
G02*
X129893700Y-176228750I0J-76200D01*
G01*
X129893700Y-177728750D01*
G75*
G02*
X129817500Y-177804950I-76200J0D01*
G01*
X128317500Y-177804950D01*
G75*
G02*
X128241300Y-177728750I0J76200D01*
G01*
G37*
D15*
X130337500Y-174438750D03*
X131607500Y-176978750D03*
X132877500Y-174438750D03*
X134147500Y-176978750D03*
X135417500Y-174438750D03*
X136687500Y-176978750D03*
X137957500Y-174438750D03*
G36*
G01*
X119772000Y-187436950D02*
X117972000Y-187436950D01*
G75*
G02*
X117895800Y-187360750I0J76200D01*
G01*
X117895800Y-184860750D01*
G75*
G02*
X117972000Y-184784550I76200J0D01*
G01*
X119772000Y-184784550D01*
G75*
G02*
X119848200Y-184860750I0J-76200D01*
G01*
X119848200Y-187360750D01*
G75*
G02*
X119772000Y-187436950I-76200J0D01*
G01*
G37*
G36*
G01*
X119772000Y-183436950D02*
X117972000Y-183436950D01*
G75*
G02*
X117895800Y-183360750I0J76200D01*
G01*
X117895800Y-180860750D01*
G75*
G02*
X117972000Y-180784550I76200J0D01*
G01*
X119772000Y-180784550D01*
G75*
G02*
X119848200Y-180860750I0J-76200D01*
G01*
X119848200Y-183360750D01*
G75*
G02*
X119772000Y-183436950I-76200J0D01*
G01*
G37*
G36*
G01*
X119714700Y-133622750D02*
X119714700Y-134522750D01*
G75*
G02*
X119388500Y-134848950I-326200J0D01*
G01*
X118863500Y-134848950D01*
G75*
G02*
X118537300Y-134522750I0J326200D01*
G01*
X118537300Y-133622750D01*
G75*
G02*
X118863500Y-133296550I326200J0D01*
G01*
X119388500Y-133296550D01*
G75*
G02*
X119714700Y-133622750I0J-326200D01*
G01*
G37*
G36*
G01*
X117889700Y-133622750D02*
X117889700Y-134522750D01*
G75*
G02*
X117563500Y-134848950I-326200J0D01*
G01*
X117038500Y-134848950D01*
G75*
G02*
X116712300Y-134522750I0J326200D01*
G01*
X116712300Y-133622750D01*
G75*
G02*
X117038500Y-133296550I326200J0D01*
G01*
X117563500Y-133296550D01*
G75*
G02*
X117889700Y-133622750I0J-326200D01*
G01*
G37*
G36*
G01*
X34029000Y-148943800D02*
X36329000Y-148943800D01*
G75*
G02*
X36405200Y-149020000I0J-76200D01*
G01*
X36405200Y-151320000D01*
G75*
G02*
X36329000Y-151396200I-76200J0D01*
G01*
X34029000Y-151396200D01*
G75*
G02*
X33952800Y-151320000I0J76200D01*
G01*
X33952800Y-149020000D01*
G75*
G02*
X34029000Y-148943800I76200J0D01*
G01*
G37*
D11*
X35179000Y-153670000D03*
X35179000Y-157170000D03*
G36*
G01*
X55786000Y-165605800D02*
X56736000Y-165605800D01*
G75*
G02*
X57062200Y-165932000I0J-326200D01*
G01*
X57062200Y-166432000D01*
G75*
G02*
X56736000Y-166758200I-326200J0D01*
G01*
X55786000Y-166758200D01*
G75*
G02*
X55459800Y-166432000I0J326200D01*
G01*
X55459800Y-165932000D01*
G75*
G02*
X55786000Y-165605800I326200J0D01*
G01*
G37*
G36*
G01*
X55786000Y-167505800D02*
X56736000Y-167505800D01*
G75*
G02*
X57062200Y-167832000I0J-326200D01*
G01*
X57062200Y-168332000D01*
G75*
G02*
X56736000Y-168658200I-326200J0D01*
G01*
X55786000Y-168658200D01*
G75*
G02*
X55459800Y-168332000I0J326200D01*
G01*
X55459800Y-167832000D01*
G75*
G02*
X55786000Y-167505800I326200J0D01*
G01*
G37*
G36*
G01*
X42395200Y-137853000D02*
X42395200Y-138753000D01*
G75*
G02*
X42069000Y-139079200I-326200J0D01*
G01*
X41544000Y-139079200D01*
G75*
G02*
X41217800Y-138753000I0J326200D01*
G01*
X41217800Y-137853000D01*
G75*
G02*
X41544000Y-137526800I326200J0D01*
G01*
X42069000Y-137526800D01*
G75*
G02*
X42395200Y-137853000I0J-326200D01*
G01*
G37*
G36*
G01*
X40570200Y-137853000D02*
X40570200Y-138753000D01*
G75*
G02*
X40244000Y-139079200I-326200J0D01*
G01*
X39719000Y-139079200D01*
G75*
G02*
X39392800Y-138753000I0J326200D01*
G01*
X39392800Y-137853000D01*
G75*
G02*
X39719000Y-137526800I326200J0D01*
G01*
X40244000Y-137526800D01*
G75*
G02*
X40570200Y-137853000I0J-326200D01*
G01*
G37*
G36*
G01*
X110730800Y-171511000D02*
X110730800Y-169611000D01*
G75*
G02*
X110807000Y-169534800I76200J0D01*
G01*
X112207000Y-169534800D01*
G75*
G02*
X112283200Y-169611000I0J-76200D01*
G01*
X112283200Y-171511000D01*
G75*
G02*
X112207000Y-171587200I-76200J0D01*
G01*
X110807000Y-171587200D01*
G75*
G02*
X110730800Y-171511000I0J76200D01*
G01*
G37*
G36*
G01*
X114030800Y-171511000D02*
X114030800Y-169611000D01*
G75*
G02*
X114107000Y-169534800I76200J0D01*
G01*
X115507000Y-169534800D01*
G75*
G02*
X115583200Y-169611000I0J-76200D01*
G01*
X115583200Y-171511000D01*
G75*
G02*
X115507000Y-171587200I-76200J0D01*
G01*
X114107000Y-171587200D01*
G75*
G02*
X114030800Y-171511000I0J76200D01*
G01*
G37*
G36*
G01*
X119714700Y-146830750D02*
X119714700Y-147730750D01*
G75*
G02*
X119388500Y-148056950I-326200J0D01*
G01*
X118863500Y-148056950D01*
G75*
G02*
X118537300Y-147730750I0J326200D01*
G01*
X118537300Y-146830750D01*
G75*
G02*
X118863500Y-146504550I326200J0D01*
G01*
X119388500Y-146504550D01*
G75*
G02*
X119714700Y-146830750I0J-326200D01*
G01*
G37*
G36*
G01*
X117889700Y-146830750D02*
X117889700Y-147730750D01*
G75*
G02*
X117563500Y-148056950I-326200J0D01*
G01*
X117038500Y-148056950D01*
G75*
G02*
X116712300Y-147730750I0J326200D01*
G01*
X116712300Y-146830750D01*
G75*
G02*
X117038500Y-146504550I326200J0D01*
G01*
X117563500Y-146504550D01*
G75*
G02*
X117889700Y-146830750I0J-326200D01*
G01*
G37*
G36*
G01*
X54466800Y-185954000D02*
X54466800Y-183454000D01*
G75*
G02*
X54543000Y-183377800I76200J0D01*
G01*
X57043000Y-183377800D01*
G75*
G02*
X57119200Y-183454000I0J-76200D01*
G01*
X57119200Y-185954000D01*
G75*
G02*
X57043000Y-186030200I-76200J0D01*
G01*
X54543000Y-186030200D01*
G75*
G02*
X54466800Y-185954000I0J76200D01*
G01*
G37*
D16*
X60793000Y-184704000D03*
G36*
G01*
X136010700Y-148630450D02*
X136810700Y-148630450D01*
G75*
G02*
X136886900Y-148706650I0J-76200D01*
G01*
X136886900Y-151366650D01*
G75*
G02*
X136810700Y-151442850I-76200J0D01*
G01*
X136010700Y-151442850D01*
G75*
G02*
X135934500Y-151366650I0J76200D01*
G01*
X135934500Y-148706650D01*
G75*
G02*
X136010700Y-148630450I76200J0D01*
G01*
G37*
G36*
G01*
X132810300Y-148630450D02*
X133610300Y-148630450D01*
G75*
G02*
X133686500Y-148706650I0J-76200D01*
G01*
X133686500Y-151366650D01*
G75*
G02*
X133610300Y-151442850I-76200J0D01*
G01*
X132810300Y-151442850D01*
G75*
G02*
X132734100Y-151366650I0J76200D01*
G01*
X132734100Y-148706650D01*
G75*
G02*
X132810300Y-148630450I76200J0D01*
G01*
G37*
G36*
G01*
X130600500Y-148630450D02*
X131400500Y-148630450D01*
G75*
G02*
X131476700Y-148706650I0J-76200D01*
G01*
X131476700Y-151366650D01*
G75*
G02*
X131400500Y-151442850I-76200J0D01*
G01*
X130600500Y-151442850D01*
G75*
G02*
X130524300Y-151366650I0J76200D01*
G01*
X130524300Y-148706650D01*
G75*
G02*
X130600500Y-148630450I76200J0D01*
G01*
G37*
G36*
G01*
X128390700Y-148630450D02*
X129190700Y-148630450D01*
G75*
G02*
X129266900Y-148706650I0J-76200D01*
G01*
X129266900Y-151366650D01*
G75*
G02*
X129190700Y-151442850I-76200J0D01*
G01*
X128390700Y-151442850D01*
G75*
G02*
X128314500Y-151366650I0J76200D01*
G01*
X128314500Y-148706650D01*
G75*
G02*
X128390700Y-148630450I76200J0D01*
G01*
G37*
G36*
G01*
X128390700Y-155818650D02*
X129190700Y-155818650D01*
G75*
G02*
X129266900Y-155894850I0J-76200D01*
G01*
X129266900Y-158554850D01*
G75*
G02*
X129190700Y-158631050I-76200J0D01*
G01*
X128390700Y-158631050D01*
G75*
G02*
X128314500Y-158554850I0J76200D01*
G01*
X128314500Y-155894850D01*
G75*
G02*
X128390700Y-155818650I76200J0D01*
G01*
G37*
G36*
G01*
X130600500Y-155818650D02*
X131400500Y-155818650D01*
G75*
G02*
X131476700Y-155894850I0J-76200D01*
G01*
X131476700Y-158554850D01*
G75*
G02*
X131400500Y-158631050I-76200J0D01*
G01*
X130600500Y-158631050D01*
G75*
G02*
X130524300Y-158554850I0J76200D01*
G01*
X130524300Y-155894850D01*
G75*
G02*
X130600500Y-155818650I76200J0D01*
G01*
G37*
G36*
G01*
X132810300Y-155818650D02*
X133610300Y-155818650D01*
G75*
G02*
X133686500Y-155894850I0J-76200D01*
G01*
X133686500Y-158554850D01*
G75*
G02*
X133610300Y-158631050I-76200J0D01*
G01*
X132810300Y-158631050D01*
G75*
G02*
X132734100Y-158554850I0J76200D01*
G01*
X132734100Y-155894850D01*
G75*
G02*
X132810300Y-155818650I76200J0D01*
G01*
G37*
G36*
G01*
X136010700Y-155818650D02*
X136810700Y-155818650D01*
G75*
G02*
X136886900Y-155894850I0J-76200D01*
G01*
X136886900Y-158554850D01*
G75*
G02*
X136810700Y-158631050I-76200J0D01*
G01*
X136010700Y-158631050D01*
G75*
G02*
X135934500Y-158554850I0J76200D01*
G01*
X135934500Y-155894850D01*
G75*
G02*
X136010700Y-155818650I76200J0D01*
G01*
G37*
G36*
G01*
X34029000Y-136751800D02*
X36329000Y-136751800D01*
G75*
G02*
X36405200Y-136828000I0J-76200D01*
G01*
X36405200Y-139128000D01*
G75*
G02*
X36329000Y-139204200I-76200J0D01*
G01*
X34029000Y-139204200D01*
G75*
G02*
X33952800Y-139128000I0J76200D01*
G01*
X33952800Y-136828000D01*
G75*
G02*
X34029000Y-136751800I76200J0D01*
G01*
G37*
D11*
X35179000Y-141478000D03*
X35179000Y-144978000D03*
G36*
G01*
X136010700Y-160314450D02*
X136810700Y-160314450D01*
G75*
G02*
X136886900Y-160390650I0J-76200D01*
G01*
X136886900Y-163050650D01*
G75*
G02*
X136810700Y-163126850I-76200J0D01*
G01*
X136010700Y-163126850D01*
G75*
G02*
X135934500Y-163050650I0J76200D01*
G01*
X135934500Y-160390650D01*
G75*
G02*
X136010700Y-160314450I76200J0D01*
G01*
G37*
G36*
G01*
X132810300Y-160314450D02*
X133610300Y-160314450D01*
G75*
G02*
X133686500Y-160390650I0J-76200D01*
G01*
X133686500Y-163050650D01*
G75*
G02*
X133610300Y-163126850I-76200J0D01*
G01*
X132810300Y-163126850D01*
G75*
G02*
X132734100Y-163050650I0J76200D01*
G01*
X132734100Y-160390650D01*
G75*
G02*
X132810300Y-160314450I76200J0D01*
G01*
G37*
G36*
G01*
X130600500Y-160314450D02*
X131400500Y-160314450D01*
G75*
G02*
X131476700Y-160390650I0J-76200D01*
G01*
X131476700Y-163050650D01*
G75*
G02*
X131400500Y-163126850I-76200J0D01*
G01*
X130600500Y-163126850D01*
G75*
G02*
X130524300Y-163050650I0J76200D01*
G01*
X130524300Y-160390650D01*
G75*
G02*
X130600500Y-160314450I76200J0D01*
G01*
G37*
G36*
G01*
X128390700Y-160314450D02*
X129190700Y-160314450D01*
G75*
G02*
X129266900Y-160390650I0J-76200D01*
G01*
X129266900Y-163050650D01*
G75*
G02*
X129190700Y-163126850I-76200J0D01*
G01*
X128390700Y-163126850D01*
G75*
G02*
X128314500Y-163050650I0J76200D01*
G01*
X128314500Y-160390650D01*
G75*
G02*
X128390700Y-160314450I76200J0D01*
G01*
G37*
G36*
G01*
X128390700Y-167502650D02*
X129190700Y-167502650D01*
G75*
G02*
X129266900Y-167578850I0J-76200D01*
G01*
X129266900Y-170238850D01*
G75*
G02*
X129190700Y-170315050I-76200J0D01*
G01*
X128390700Y-170315050D01*
G75*
G02*
X128314500Y-170238850I0J76200D01*
G01*
X128314500Y-167578850D01*
G75*
G02*
X128390700Y-167502650I76200J0D01*
G01*
G37*
G36*
G01*
X130600500Y-167502650D02*
X131400500Y-167502650D01*
G75*
G02*
X131476700Y-167578850I0J-76200D01*
G01*
X131476700Y-170238850D01*
G75*
G02*
X131400500Y-170315050I-76200J0D01*
G01*
X130600500Y-170315050D01*
G75*
G02*
X130524300Y-170238850I0J76200D01*
G01*
X130524300Y-167578850D01*
G75*
G02*
X130600500Y-167502650I76200J0D01*
G01*
G37*
G36*
G01*
X132810300Y-167502650D02*
X133610300Y-167502650D01*
G75*
G02*
X133686500Y-167578850I0J-76200D01*
G01*
X133686500Y-170238850D01*
G75*
G02*
X133610300Y-170315050I-76200J0D01*
G01*
X132810300Y-170315050D01*
G75*
G02*
X132734100Y-170238850I0J76200D01*
G01*
X132734100Y-167578850D01*
G75*
G02*
X132810300Y-167502650I76200J0D01*
G01*
G37*
G36*
G01*
X136010700Y-167502650D02*
X136810700Y-167502650D01*
G75*
G02*
X136886900Y-167578850I0J-76200D01*
G01*
X136886900Y-170238850D01*
G75*
G02*
X136810700Y-170315050I-76200J0D01*
G01*
X136010700Y-170315050D01*
G75*
G02*
X135934500Y-170238850I0J76200D01*
G01*
X135934500Y-167578850D01*
G75*
G02*
X136010700Y-167502650I76200J0D01*
G01*
G37*
G36*
G01*
X136010700Y-136946450D02*
X136810700Y-136946450D01*
G75*
G02*
X136886900Y-137022650I0J-76200D01*
G01*
X136886900Y-139682650D01*
G75*
G02*
X136810700Y-139758850I-76200J0D01*
G01*
X136010700Y-139758850D01*
G75*
G02*
X135934500Y-139682650I0J76200D01*
G01*
X135934500Y-137022650D01*
G75*
G02*
X136010700Y-136946450I76200J0D01*
G01*
G37*
G36*
G01*
X132810300Y-136946450D02*
X133610300Y-136946450D01*
G75*
G02*
X133686500Y-137022650I0J-76200D01*
G01*
X133686500Y-139682650D01*
G75*
G02*
X133610300Y-139758850I-76200J0D01*
G01*
X132810300Y-139758850D01*
G75*
G02*
X132734100Y-139682650I0J76200D01*
G01*
X132734100Y-137022650D01*
G75*
G02*
X132810300Y-136946450I76200J0D01*
G01*
G37*
G36*
G01*
X130600500Y-136946450D02*
X131400500Y-136946450D01*
G75*
G02*
X131476700Y-137022650I0J-76200D01*
G01*
X131476700Y-139682650D01*
G75*
G02*
X131400500Y-139758850I-76200J0D01*
G01*
X130600500Y-139758850D01*
G75*
G02*
X130524300Y-139682650I0J76200D01*
G01*
X130524300Y-137022650D01*
G75*
G02*
X130600500Y-136946450I76200J0D01*
G01*
G37*
G36*
G01*
X128390700Y-136946450D02*
X129190700Y-136946450D01*
G75*
G02*
X129266900Y-137022650I0J-76200D01*
G01*
X129266900Y-139682650D01*
G75*
G02*
X129190700Y-139758850I-76200J0D01*
G01*
X128390700Y-139758850D01*
G75*
G02*
X128314500Y-139682650I0J76200D01*
G01*
X128314500Y-137022650D01*
G75*
G02*
X128390700Y-136946450I76200J0D01*
G01*
G37*
G36*
G01*
X128390700Y-144134650D02*
X129190700Y-144134650D01*
G75*
G02*
X129266900Y-144210850I0J-76200D01*
G01*
X129266900Y-146870850D01*
G75*
G02*
X129190700Y-146947050I-76200J0D01*
G01*
X128390700Y-146947050D01*
G75*
G02*
X128314500Y-146870850I0J76200D01*
G01*
X128314500Y-144210850D01*
G75*
G02*
X128390700Y-144134650I76200J0D01*
G01*
G37*
G36*
G01*
X130600500Y-144134650D02*
X131400500Y-144134650D01*
G75*
G02*
X131476700Y-144210850I0J-76200D01*
G01*
X131476700Y-146870850D01*
G75*
G02*
X131400500Y-146947050I-76200J0D01*
G01*
X130600500Y-146947050D01*
G75*
G02*
X130524300Y-146870850I0J76200D01*
G01*
X130524300Y-144210850D01*
G75*
G02*
X130600500Y-144134650I76200J0D01*
G01*
G37*
G36*
G01*
X132810300Y-144134650D02*
X133610300Y-144134650D01*
G75*
G02*
X133686500Y-144210850I0J-76200D01*
G01*
X133686500Y-146870850D01*
G75*
G02*
X133610300Y-146947050I-76200J0D01*
G01*
X132810300Y-146947050D01*
G75*
G02*
X132734100Y-146870850I0J76200D01*
G01*
X132734100Y-144210850D01*
G75*
G02*
X132810300Y-144134650I76200J0D01*
G01*
G37*
G36*
G01*
X136010700Y-144134650D02*
X136810700Y-144134650D01*
G75*
G02*
X136886900Y-144210850I0J-76200D01*
G01*
X136886900Y-146870850D01*
G75*
G02*
X136810700Y-146947050I-76200J0D01*
G01*
X136010700Y-146947050D01*
G75*
G02*
X135934500Y-146870850I0J76200D01*
G01*
X135934500Y-144210850D01*
G75*
G02*
X136010700Y-144134650I76200J0D01*
G01*
G37*
G36*
G01*
X42395200Y-141155000D02*
X42395200Y-142055000D01*
G75*
G02*
X42069000Y-142381200I-326200J0D01*
G01*
X41544000Y-142381200D01*
G75*
G02*
X41217800Y-142055000I0J326200D01*
G01*
X41217800Y-141155000D01*
G75*
G02*
X41544000Y-140828800I326200J0D01*
G01*
X42069000Y-140828800D01*
G75*
G02*
X42395200Y-141155000I0J-326200D01*
G01*
G37*
G36*
G01*
X40570200Y-141155000D02*
X40570200Y-142055000D01*
G75*
G02*
X40244000Y-142381200I-326200J0D01*
G01*
X39719000Y-142381200D01*
G75*
G02*
X39392800Y-142055000I0J326200D01*
G01*
X39392800Y-141155000D01*
G75*
G02*
X39719000Y-140828800I326200J0D01*
G01*
X40244000Y-140828800D01*
G75*
G02*
X40570200Y-141155000I0J-326200D01*
G01*
G37*
G36*
G01*
X119714700Y-158514750D02*
X119714700Y-159414750D01*
G75*
G02*
X119388500Y-159740950I-326200J0D01*
G01*
X118863500Y-159740950D01*
G75*
G02*
X118537300Y-159414750I0J326200D01*
G01*
X118537300Y-158514750D01*
G75*
G02*
X118863500Y-158188550I326200J0D01*
G01*
X119388500Y-158188550D01*
G75*
G02*
X119714700Y-158514750I0J-326200D01*
G01*
G37*
G36*
G01*
X117889700Y-158514750D02*
X117889700Y-159414750D01*
G75*
G02*
X117563500Y-159740950I-326200J0D01*
G01*
X117038500Y-159740950D01*
G75*
G02*
X116712300Y-159414750I0J326200D01*
G01*
X116712300Y-158514750D01*
G75*
G02*
X117038500Y-158188550I326200J0D01*
G01*
X117563500Y-158188550D01*
G75*
G02*
X117889700Y-158514750I0J-326200D01*
G01*
G37*
D14*
X102616000Y-183348750D03*
X114046000Y-183348750D03*
G36*
G01*
X103059800Y-177748750D02*
X103059800Y-176248750D01*
G75*
G02*
X103136000Y-176172550I76200J0D01*
G01*
X104636000Y-176172550D01*
G75*
G02*
X104712200Y-176248750I0J-76200D01*
G01*
X104712200Y-177748750D01*
G75*
G02*
X104636000Y-177824950I-76200J0D01*
G01*
X103136000Y-177824950D01*
G75*
G02*
X103059800Y-177748750I0J76200D01*
G01*
G37*
D15*
X105156000Y-174458750D03*
X106426000Y-176998750D03*
X107696000Y-174458750D03*
X108966000Y-176998750D03*
X110236000Y-174458750D03*
X111506000Y-176998750D03*
X112776000Y-174458750D03*
G36*
G01*
X42395200Y-172016000D02*
X42395200Y-172916000D01*
G75*
G02*
X42069000Y-173242200I-326200J0D01*
G01*
X41544000Y-173242200D01*
G75*
G02*
X41217800Y-172916000I0J326200D01*
G01*
X41217800Y-172016000D01*
G75*
G02*
X41544000Y-171689800I326200J0D01*
G01*
X42069000Y-171689800D01*
G75*
G02*
X42395200Y-172016000I0J-326200D01*
G01*
G37*
G36*
G01*
X40570200Y-172016000D02*
X40570200Y-172916000D01*
G75*
G02*
X40244000Y-173242200I-326200J0D01*
G01*
X39719000Y-173242200D01*
G75*
G02*
X39392800Y-172916000I0J326200D01*
G01*
X39392800Y-172016000D01*
G75*
G02*
X39719000Y-171689800I326200J0D01*
G01*
X40244000Y-171689800D01*
G75*
G02*
X40570200Y-172016000I0J-326200D01*
G01*
G37*
G36*
G01*
X59077800Y-148913000D02*
X59077800Y-148013000D01*
G75*
G02*
X59404000Y-147686800I326200J0D01*
G01*
X59929000Y-147686800D01*
G75*
G02*
X60255200Y-148013000I0J-326200D01*
G01*
X60255200Y-148913000D01*
G75*
G02*
X59929000Y-149239200I-326200J0D01*
G01*
X59404000Y-149239200D01*
G75*
G02*
X59077800Y-148913000I0J326200D01*
G01*
G37*
G36*
G01*
X60902800Y-148913000D02*
X60902800Y-148013000D01*
G75*
G02*
X61229000Y-147686800I326200J0D01*
G01*
X61754000Y-147686800D01*
G75*
G02*
X62080200Y-148013000I0J-326200D01*
G01*
X62080200Y-148913000D01*
G75*
G02*
X61754000Y-149239200I-326200J0D01*
G01*
X61229000Y-149239200D01*
G75*
G02*
X60902800Y-148913000I0J326200D01*
G01*
G37*
G36*
X87909980Y-171999377D02*
G01*
X87936042Y-172044518D01*
X87937200Y-172057750D01*
X87937200Y-173557750D01*
X87919373Y-173606730D01*
X87874232Y-173632792D01*
X87861000Y-173633950D01*
X87361000Y-173633950D01*
X87346666Y-173628733D01*
X87279663Y-173627505D01*
X87258336Y-173624051D01*
X87123021Y-173581776D01*
X87103520Y-173572475D01*
X86985510Y-173493920D01*
X86969404Y-173479519D01*
X86878184Y-173371000D01*
X86866767Y-173352658D01*
X86809672Y-173222899D01*
X86803862Y-173202090D01*
X86786940Y-173072682D01*
X86785958Y-173070982D01*
X86784800Y-173057750D01*
X86784800Y-172557750D01*
X86785552Y-172555684D01*
X86785744Y-172539917D01*
X86807555Y-172399840D01*
X86813872Y-172379180D01*
X86874120Y-172250855D01*
X86885982Y-172232797D01*
X86979826Y-172126539D01*
X86996279Y-172112537D01*
X87116174Y-172036889D01*
X87135895Y-172028067D01*
X87272202Y-171989110D01*
X87293608Y-171986177D01*
X87341255Y-171986468D01*
X87347768Y-171982708D01*
X87361000Y-171981550D01*
X87861000Y-171981550D01*
X87909980Y-171999377D01*
G37*
G36*
X88675081Y-171986675D02*
G01*
X88735370Y-171987043D01*
X88756738Y-171990237D01*
X88892559Y-172030856D01*
X88912172Y-172039918D01*
X89031134Y-172117025D01*
X89047415Y-172131228D01*
X89139953Y-172238625D01*
X89151592Y-172256826D01*
X89210269Y-172385878D01*
X89216333Y-172406615D01*
X89236430Y-172546948D01*
X89237200Y-172557750D01*
X89237200Y-173057750D01*
X89237194Y-173058679D01*
X89237045Y-173070895D01*
X89235995Y-173082608D01*
X89212475Y-173222409D01*
X89205906Y-173242992D01*
X89144094Y-173370571D01*
X89132013Y-173388482D01*
X89036878Y-173493586D01*
X89020255Y-173507387D01*
X88899445Y-173581564D01*
X88879617Y-173590144D01*
X88742844Y-173627433D01*
X88721404Y-173630103D01*
X88680198Y-173629348D01*
X88674232Y-173632792D01*
X88661000Y-173633950D01*
X88161000Y-173633950D01*
X88112020Y-173616123D01*
X88085958Y-173570982D01*
X88084800Y-173557750D01*
X88084800Y-172057750D01*
X88102627Y-172008770D01*
X88147768Y-171982708D01*
X88161000Y-171981550D01*
X88661000Y-171981550D01*
X88675081Y-171986675D01*
G37*
G36*
G01*
X42395200Y-134551000D02*
X42395200Y-135451000D01*
G75*
G02*
X42069000Y-135777200I-326200J0D01*
G01*
X41544000Y-135777200D01*
G75*
G02*
X41217800Y-135451000I0J326200D01*
G01*
X41217800Y-134551000D01*
G75*
G02*
X41544000Y-134224800I326200J0D01*
G01*
X42069000Y-134224800D01*
G75*
G02*
X42395200Y-134551000I0J-326200D01*
G01*
G37*
G36*
G01*
X40570200Y-134551000D02*
X40570200Y-135451000D01*
G75*
G02*
X40244000Y-135777200I-326200J0D01*
G01*
X39719000Y-135777200D01*
G75*
G02*
X39392800Y-135451000I0J326200D01*
G01*
X39392800Y-134551000D01*
G75*
G02*
X39719000Y-134224800I326200J0D01*
G01*
X40244000Y-134224800D01*
G75*
G02*
X40570200Y-134551000I0J-326200D01*
G01*
G37*
G36*
G01*
X119822000Y-178321200D02*
X117922000Y-178321200D01*
G75*
G02*
X117845800Y-178245000I0J76200D01*
G01*
X117845800Y-176845000D01*
G75*
G02*
X117922000Y-176768800I76200J0D01*
G01*
X119822000Y-176768800D01*
G75*
G02*
X119898200Y-176845000I0J-76200D01*
G01*
X119898200Y-178245000D01*
G75*
G02*
X119822000Y-178321200I-76200J0D01*
G01*
G37*
G36*
G01*
X119822000Y-175021200D02*
X117922000Y-175021200D01*
G75*
G02*
X117845800Y-174945000I0J76200D01*
G01*
X117845800Y-173545000D01*
G75*
G02*
X117922000Y-173468800I76200J0D01*
G01*
X119822000Y-173468800D01*
G75*
G02*
X119898200Y-173545000I0J-76200D01*
G01*
X119898200Y-174945000D01*
G75*
G02*
X119822000Y-175021200I-76200J0D01*
G01*
G37*
G36*
G01*
X101848800Y-134730750D02*
X101848800Y-134430750D01*
G75*
G02*
X102075000Y-134204550I226200J0D01*
G01*
X103525000Y-134204550D01*
G75*
G02*
X103751200Y-134430750I0J-226200D01*
G01*
X103751200Y-134730750D01*
G75*
G02*
X103525000Y-134956950I-226200J0D01*
G01*
X102075000Y-134956950D01*
G75*
G02*
X101848800Y-134730750I0J226200D01*
G01*
G37*
G36*
G01*
X101848800Y-136000750D02*
X101848800Y-135700750D01*
G75*
G02*
X102075000Y-135474550I226200J0D01*
G01*
X103525000Y-135474550D01*
G75*
G02*
X103751200Y-135700750I0J-226200D01*
G01*
X103751200Y-136000750D01*
G75*
G02*
X103525000Y-136226950I-226200J0D01*
G01*
X102075000Y-136226950D01*
G75*
G02*
X101848800Y-136000750I0J226200D01*
G01*
G37*
G36*
G01*
X101848800Y-137270750D02*
X101848800Y-136970750D01*
G75*
G02*
X102075000Y-136744550I226200J0D01*
G01*
X103525000Y-136744550D01*
G75*
G02*
X103751200Y-136970750I0J-226200D01*
G01*
X103751200Y-137270750D01*
G75*
G02*
X103525000Y-137496950I-226200J0D01*
G01*
X102075000Y-137496950D01*
G75*
G02*
X101848800Y-137270750I0J226200D01*
G01*
G37*
G36*
G01*
X101848800Y-138540750D02*
X101848800Y-138240750D01*
G75*
G02*
X102075000Y-138014550I226200J0D01*
G01*
X103525000Y-138014550D01*
G75*
G02*
X103751200Y-138240750I0J-226200D01*
G01*
X103751200Y-138540750D01*
G75*
G02*
X103525000Y-138766950I-226200J0D01*
G01*
X102075000Y-138766950D01*
G75*
G02*
X101848800Y-138540750I0J226200D01*
G01*
G37*
G36*
G01*
X101848800Y-139810750D02*
X101848800Y-139510750D01*
G75*
G02*
X102075000Y-139284550I226200J0D01*
G01*
X103525000Y-139284550D01*
G75*
G02*
X103751200Y-139510750I0J-226200D01*
G01*
X103751200Y-139810750D01*
G75*
G02*
X103525000Y-140036950I-226200J0D01*
G01*
X102075000Y-140036950D01*
G75*
G02*
X101848800Y-139810750I0J226200D01*
G01*
G37*
G36*
G01*
X101848800Y-141080750D02*
X101848800Y-140780750D01*
G75*
G02*
X102075000Y-140554550I226200J0D01*
G01*
X103525000Y-140554550D01*
G75*
G02*
X103751200Y-140780750I0J-226200D01*
G01*
X103751200Y-141080750D01*
G75*
G02*
X103525000Y-141306950I-226200J0D01*
G01*
X102075000Y-141306950D01*
G75*
G02*
X101848800Y-141080750I0J226200D01*
G01*
G37*
G36*
G01*
X101848800Y-142350750D02*
X101848800Y-142050750D01*
G75*
G02*
X102075000Y-141824550I226200J0D01*
G01*
X103525000Y-141824550D01*
G75*
G02*
X103751200Y-142050750I0J-226200D01*
G01*
X103751200Y-142350750D01*
G75*
G02*
X103525000Y-142576950I-226200J0D01*
G01*
X102075000Y-142576950D01*
G75*
G02*
X101848800Y-142350750I0J226200D01*
G01*
G37*
G36*
G01*
X101848800Y-143620750D02*
X101848800Y-143320750D01*
G75*
G02*
X102075000Y-143094550I226200J0D01*
G01*
X103525000Y-143094550D01*
G75*
G02*
X103751200Y-143320750I0J-226200D01*
G01*
X103751200Y-143620750D01*
G75*
G02*
X103525000Y-143846950I-226200J0D01*
G01*
X102075000Y-143846950D01*
G75*
G02*
X101848800Y-143620750I0J226200D01*
G01*
G37*
G36*
G01*
X106998800Y-143620750D02*
X106998800Y-143320750D01*
G75*
G02*
X107225000Y-143094550I226200J0D01*
G01*
X108675000Y-143094550D01*
G75*
G02*
X108901200Y-143320750I0J-226200D01*
G01*
X108901200Y-143620750D01*
G75*
G02*
X108675000Y-143846950I-226200J0D01*
G01*
X107225000Y-143846950D01*
G75*
G02*
X106998800Y-143620750I0J226200D01*
G01*
G37*
G36*
G01*
X106998800Y-142350750D02*
X106998800Y-142050750D01*
G75*
G02*
X107225000Y-141824550I226200J0D01*
G01*
X108675000Y-141824550D01*
G75*
G02*
X108901200Y-142050750I0J-226200D01*
G01*
X108901200Y-142350750D01*
G75*
G02*
X108675000Y-142576950I-226200J0D01*
G01*
X107225000Y-142576950D01*
G75*
G02*
X106998800Y-142350750I0J226200D01*
G01*
G37*
G36*
G01*
X106998800Y-141080750D02*
X106998800Y-140780750D01*
G75*
G02*
X107225000Y-140554550I226200J0D01*
G01*
X108675000Y-140554550D01*
G75*
G02*
X108901200Y-140780750I0J-226200D01*
G01*
X108901200Y-141080750D01*
G75*
G02*
X108675000Y-141306950I-226200J0D01*
G01*
X107225000Y-141306950D01*
G75*
G02*
X106998800Y-141080750I0J226200D01*
G01*
G37*
G36*
G01*
X106998800Y-139810750D02*
X106998800Y-139510750D01*
G75*
G02*
X107225000Y-139284550I226200J0D01*
G01*
X108675000Y-139284550D01*
G75*
G02*
X108901200Y-139510750I0J-226200D01*
G01*
X108901200Y-139810750D01*
G75*
G02*
X108675000Y-140036950I-226200J0D01*
G01*
X107225000Y-140036950D01*
G75*
G02*
X106998800Y-139810750I0J226200D01*
G01*
G37*
G36*
G01*
X106998800Y-138540750D02*
X106998800Y-138240750D01*
G75*
G02*
X107225000Y-138014550I226200J0D01*
G01*
X108675000Y-138014550D01*
G75*
G02*
X108901200Y-138240750I0J-226200D01*
G01*
X108901200Y-138540750D01*
G75*
G02*
X108675000Y-138766950I-226200J0D01*
G01*
X107225000Y-138766950D01*
G75*
G02*
X106998800Y-138540750I0J226200D01*
G01*
G37*
G36*
G01*
X106998800Y-137270750D02*
X106998800Y-136970750D01*
G75*
G02*
X107225000Y-136744550I226200J0D01*
G01*
X108675000Y-136744550D01*
G75*
G02*
X108901200Y-136970750I0J-226200D01*
G01*
X108901200Y-137270750D01*
G75*
G02*
X108675000Y-137496950I-226200J0D01*
G01*
X107225000Y-137496950D01*
G75*
G02*
X106998800Y-137270750I0J226200D01*
G01*
G37*
G36*
G01*
X106998800Y-136000750D02*
X106998800Y-135700750D01*
G75*
G02*
X107225000Y-135474550I226200J0D01*
G01*
X108675000Y-135474550D01*
G75*
G02*
X108901200Y-135700750I0J-226200D01*
G01*
X108901200Y-136000750D01*
G75*
G02*
X108675000Y-136226950I-226200J0D01*
G01*
X107225000Y-136226950D01*
G75*
G02*
X106998800Y-136000750I0J226200D01*
G01*
G37*
G36*
G01*
X106998800Y-134730750D02*
X106998800Y-134430750D01*
G75*
G02*
X107225000Y-134204550I226200J0D01*
G01*
X108675000Y-134204550D01*
G75*
G02*
X108901200Y-134430750I0J-226200D01*
G01*
X108901200Y-134730750D01*
G75*
G02*
X108675000Y-134956950I-226200J0D01*
G01*
X107225000Y-134956950D01*
G75*
G02*
X106998800Y-134730750I0J226200D01*
G01*
G37*
G36*
G01*
X99474000Y-135467550D02*
X100424000Y-135467550D01*
G75*
G02*
X100750200Y-135793750I0J-326200D01*
G01*
X100750200Y-136293750D01*
G75*
G02*
X100424000Y-136619950I-326200J0D01*
G01*
X99474000Y-136619950D01*
G75*
G02*
X99147800Y-136293750I0J326200D01*
G01*
X99147800Y-135793750D01*
G75*
G02*
X99474000Y-135467550I326200J0D01*
G01*
G37*
G36*
G01*
X99474000Y-137367550D02*
X100424000Y-137367550D01*
G75*
G02*
X100750200Y-137693750I0J-326200D01*
G01*
X100750200Y-138193750D01*
G75*
G02*
X100424000Y-138519950I-326200J0D01*
G01*
X99474000Y-138519950D01*
G75*
G02*
X99147800Y-138193750I0J326200D01*
G01*
X99147800Y-137693750D01*
G75*
G02*
X99474000Y-137367550I326200J0D01*
G01*
G37*
G36*
G01*
X47891700Y-155573100D02*
X47891700Y-156766900D01*
G75*
G02*
X47815500Y-156843100I-76200J0D01*
G01*
X45326300Y-156843100D01*
G75*
G02*
X45250100Y-156766900I0J76200D01*
G01*
X45250100Y-155573100D01*
G75*
G02*
X45326300Y-155496900I76200J0D01*
G01*
X47815500Y-155496900D01*
G75*
G02*
X47891700Y-155573100I0J-76200D01*
G01*
G37*
G36*
G01*
X47891700Y-153073100D02*
X47891700Y-154266900D01*
G75*
G02*
X47815500Y-154343100I-76200J0D01*
G01*
X45326300Y-154343100D01*
G75*
G02*
X45250100Y-154266900I0J76200D01*
G01*
X45250100Y-153073100D01*
G75*
G02*
X45326300Y-152996900I76200J0D01*
G01*
X47815500Y-152996900D01*
G75*
G02*
X47891700Y-153073100I0J-76200D01*
G01*
G37*
G36*
G01*
X47891700Y-150573100D02*
X47891700Y-151766900D01*
G75*
G02*
X47815500Y-151843100I-76200J0D01*
G01*
X45326300Y-151843100D01*
G75*
G02*
X45250100Y-151766900I0J76200D01*
G01*
X45250100Y-150573100D01*
G75*
G02*
X45326300Y-150496900I76200J0D01*
G01*
X47815500Y-150496900D01*
G75*
G02*
X47891700Y-150573100I0J-76200D01*
G01*
G37*
G36*
G01*
X42379900Y-155573100D02*
X42379900Y-156766900D01*
G75*
G02*
X42303700Y-156843100I-76200J0D01*
G01*
X39814500Y-156843100D01*
G75*
G02*
X39738300Y-156766900I0J76200D01*
G01*
X39738300Y-155573100D01*
G75*
G02*
X39814500Y-155496900I76200J0D01*
G01*
X42303700Y-155496900D01*
G75*
G02*
X42379900Y-155573100I0J-76200D01*
G01*
G37*
G36*
G01*
X42379900Y-153073100D02*
X42379900Y-154266900D01*
G75*
G02*
X42303700Y-154343100I-76200J0D01*
G01*
X39814500Y-154343100D01*
G75*
G02*
X39738300Y-154266900I0J76200D01*
G01*
X39738300Y-153073100D01*
G75*
G02*
X39814500Y-152996900I76200J0D01*
G01*
X42303700Y-152996900D01*
G75*
G02*
X42379900Y-153073100I0J-76200D01*
G01*
G37*
G36*
G01*
X42379900Y-150573100D02*
X42379900Y-151766900D01*
G75*
G02*
X42303700Y-151843100I-76200J0D01*
G01*
X39814500Y-151843100D01*
G75*
G02*
X39738300Y-151766900I0J76200D01*
G01*
X39738300Y-150573100D01*
G75*
G02*
X39814500Y-150496900I76200J0D01*
G01*
X42303700Y-150496900D01*
G75*
G02*
X42379900Y-150573100I0J-76200D01*
G01*
G37*
G36*
G01*
X124140000Y-178322200D02*
X122240000Y-178322200D01*
G75*
G02*
X122163800Y-178246000I0J76200D01*
G01*
X122163800Y-176846000D01*
G75*
G02*
X122240000Y-176769800I76200J0D01*
G01*
X124140000Y-176769800D01*
G75*
G02*
X124216200Y-176846000I0J-76200D01*
G01*
X124216200Y-178246000D01*
G75*
G02*
X124140000Y-178322200I-76200J0D01*
G01*
G37*
G36*
G01*
X124140000Y-175022200D02*
X122240000Y-175022200D01*
G75*
G02*
X122163800Y-174946000I0J76200D01*
G01*
X122163800Y-173546000D01*
G75*
G02*
X122240000Y-173469800I76200J0D01*
G01*
X124140000Y-173469800D01*
G75*
G02*
X124216200Y-173546000I0J-76200D01*
G01*
X124216200Y-174946000D01*
G75*
G02*
X124140000Y-175022200I-76200J0D01*
G01*
G37*
G36*
G01*
X119714700Y-143528750D02*
X119714700Y-144428750D01*
G75*
G02*
X119388500Y-144754950I-326200J0D01*
G01*
X118863500Y-144754950D01*
G75*
G02*
X118537300Y-144428750I0J326200D01*
G01*
X118537300Y-143528750D01*
G75*
G02*
X118863500Y-143202550I326200J0D01*
G01*
X119388500Y-143202550D01*
G75*
G02*
X119714700Y-143528750I0J-326200D01*
G01*
G37*
G36*
G01*
X117889700Y-143528750D02*
X117889700Y-144428750D01*
G75*
G02*
X117563500Y-144754950I-326200J0D01*
G01*
X117038500Y-144754950D01*
G75*
G02*
X116712300Y-144428750I0J326200D01*
G01*
X116712300Y-143528750D01*
G75*
G02*
X117038500Y-143202550I326200J0D01*
G01*
X117563500Y-143202550D01*
G75*
G02*
X117889700Y-143528750I0J-326200D01*
G01*
G37*
G36*
G01*
X115318200Y-140201750D02*
X115318200Y-141151750D01*
G75*
G02*
X114992000Y-141477950I-326200J0D01*
G01*
X114492000Y-141477950D01*
G75*
G02*
X114165800Y-141151750I0J326200D01*
G01*
X114165800Y-140201750D01*
G75*
G02*
X114492000Y-139875550I326200J0D01*
G01*
X114992000Y-139875550D01*
G75*
G02*
X115318200Y-140201750I0J-326200D01*
G01*
G37*
G36*
G01*
X113418200Y-140201750D02*
X113418200Y-141151750D01*
G75*
G02*
X113092000Y-141477950I-326200J0D01*
G01*
X112592000Y-141477950D01*
G75*
G02*
X112265800Y-141151750I0J326200D01*
G01*
X112265800Y-140201750D01*
G75*
G02*
X112592000Y-139875550I326200J0D01*
G01*
X113092000Y-139875550D01*
G75*
G02*
X113418200Y-140201750I0J-326200D01*
G01*
G37*
G36*
G01*
X74237000Y-175745200D02*
X73337000Y-175745200D01*
G75*
G02*
X73010800Y-175419000I0J326200D01*
G01*
X73010800Y-174894000D01*
G75*
G02*
X73337000Y-174567800I326200J0D01*
G01*
X74237000Y-174567800D01*
G75*
G02*
X74563200Y-174894000I0J-326200D01*
G01*
X74563200Y-175419000D01*
G75*
G02*
X74237000Y-175745200I-326200J0D01*
G01*
G37*
G36*
G01*
X74237000Y-173920200D02*
X73337000Y-173920200D01*
G75*
G02*
X73010800Y-173594000I0J326200D01*
G01*
X73010800Y-173069000D01*
G75*
G02*
X73337000Y-172742800I326200J0D01*
G01*
X74237000Y-172742800D01*
G75*
G02*
X74563200Y-173069000I0J-326200D01*
G01*
X74563200Y-173594000D01*
G75*
G02*
X74237000Y-173920200I-326200J0D01*
G01*
G37*
G36*
G01*
X119714700Y-153434750D02*
X119714700Y-154334750D01*
G75*
G02*
X119388500Y-154660950I-326200J0D01*
G01*
X118863500Y-154660950D01*
G75*
G02*
X118537300Y-154334750I0J326200D01*
G01*
X118537300Y-153434750D01*
G75*
G02*
X118863500Y-153108550I326200J0D01*
G01*
X119388500Y-153108550D01*
G75*
G02*
X119714700Y-153434750I0J-326200D01*
G01*
G37*
G36*
G01*
X117889700Y-153434750D02*
X117889700Y-154334750D01*
G75*
G02*
X117563500Y-154660950I-326200J0D01*
G01*
X117038500Y-154660950D01*
G75*
G02*
X116712300Y-154334750I0J326200D01*
G01*
X116712300Y-153434750D01*
G75*
G02*
X117038500Y-153108550I326200J0D01*
G01*
X117563500Y-153108550D01*
G75*
G02*
X117889700Y-153434750I0J-326200D01*
G01*
G37*
G36*
G01*
X99474000Y-147212550D02*
X100424000Y-147212550D01*
G75*
G02*
X100750200Y-147538750I0J-326200D01*
G01*
X100750200Y-148038750D01*
G75*
G02*
X100424000Y-148364950I-326200J0D01*
G01*
X99474000Y-148364950D01*
G75*
G02*
X99147800Y-148038750I0J326200D01*
G01*
X99147800Y-147538750D01*
G75*
G02*
X99474000Y-147212550I326200J0D01*
G01*
G37*
G36*
G01*
X99474000Y-149112550D02*
X100424000Y-149112550D01*
G75*
G02*
X100750200Y-149438750I0J-326200D01*
G01*
X100750200Y-149938750D01*
G75*
G02*
X100424000Y-150264950I-326200J0D01*
G01*
X99474000Y-150264950D01*
G75*
G02*
X99147800Y-149938750I0J326200D01*
G01*
X99147800Y-149438750D01*
G75*
G02*
X99474000Y-149112550I326200J0D01*
G01*
G37*
G36*
G01*
X71813000Y-129181800D02*
X72713000Y-129181800D01*
G75*
G02*
X73039200Y-129508000I0J-326200D01*
G01*
X73039200Y-130033000D01*
G75*
G02*
X72713000Y-130359200I-326200J0D01*
G01*
X71813000Y-130359200D01*
G75*
G02*
X71486800Y-130033000I0J326200D01*
G01*
X71486800Y-129508000D01*
G75*
G02*
X71813000Y-129181800I326200J0D01*
G01*
G37*
G36*
G01*
X71813000Y-131006800D02*
X72713000Y-131006800D01*
G75*
G02*
X73039200Y-131333000I0J-326200D01*
G01*
X73039200Y-131858000D01*
G75*
G02*
X72713000Y-132184200I-326200J0D01*
G01*
X71813000Y-132184200D01*
G75*
G02*
X71486800Y-131858000I0J326200D01*
G01*
X71486800Y-131333000D01*
G75*
G02*
X71813000Y-131006800I326200J0D01*
G01*
G37*
G36*
G01*
X119714700Y-150132750D02*
X119714700Y-151032750D01*
G75*
G02*
X119388500Y-151358950I-326200J0D01*
G01*
X118863500Y-151358950D01*
G75*
G02*
X118537300Y-151032750I0J326200D01*
G01*
X118537300Y-150132750D01*
G75*
G02*
X118863500Y-149806550I326200J0D01*
G01*
X119388500Y-149806550D01*
G75*
G02*
X119714700Y-150132750I0J-326200D01*
G01*
G37*
G36*
G01*
X117889700Y-150132750D02*
X117889700Y-151032750D01*
G75*
G02*
X117563500Y-151358950I-326200J0D01*
G01*
X117038500Y-151358950D01*
G75*
G02*
X116712300Y-151032750I0J326200D01*
G01*
X116712300Y-150132750D01*
G75*
G02*
X117038500Y-149806550I326200J0D01*
G01*
X117563500Y-149806550D01*
G75*
G02*
X117889700Y-150132750I0J-326200D01*
G01*
G37*
G36*
G01*
X116712300Y-164494750D02*
X116712300Y-163594750D01*
G75*
G02*
X117038500Y-163268550I326200J0D01*
G01*
X117563500Y-163268550D01*
G75*
G02*
X117889700Y-163594750I0J-326200D01*
G01*
X117889700Y-164494750D01*
G75*
G02*
X117563500Y-164820950I-326200J0D01*
G01*
X117038500Y-164820950D01*
G75*
G02*
X116712300Y-164494750I0J326200D01*
G01*
G37*
G36*
G01*
X118537300Y-164494750D02*
X118537300Y-163594750D01*
G75*
G02*
X118863500Y-163268550I326200J0D01*
G01*
X119388500Y-163268550D01*
G75*
G02*
X119714700Y-163594750I0J-326200D01*
G01*
X119714700Y-164494750D01*
G75*
G02*
X119388500Y-164820950I-326200J0D01*
G01*
X118863500Y-164820950D01*
G75*
G02*
X118537300Y-164494750I0J326200D01*
G01*
G37*
G36*
G01*
X59077800Y-151453000D02*
X59077800Y-150553000D01*
G75*
G02*
X59404000Y-150226800I326200J0D01*
G01*
X59929000Y-150226800D01*
G75*
G02*
X60255200Y-150553000I0J-326200D01*
G01*
X60255200Y-151453000D01*
G75*
G02*
X59929000Y-151779200I-326200J0D01*
G01*
X59404000Y-151779200D01*
G75*
G02*
X59077800Y-151453000I0J326200D01*
G01*
G37*
G36*
G01*
X60902800Y-151453000D02*
X60902800Y-150553000D01*
G75*
G02*
X61229000Y-150226800I326200J0D01*
G01*
X61754000Y-150226800D01*
G75*
G02*
X62080200Y-150553000I0J-326200D01*
G01*
X62080200Y-151453000D01*
G75*
G02*
X61754000Y-151779200I-326200J0D01*
G01*
X61229000Y-151779200D01*
G75*
G02*
X60902800Y-151453000I0J326200D01*
G01*
G37*
G36*
G01*
X34029000Y-161008800D02*
X36329000Y-161008800D01*
G75*
G02*
X36405200Y-161085000I0J-76200D01*
G01*
X36405200Y-163385000D01*
G75*
G02*
X36329000Y-163461200I-76200J0D01*
G01*
X34029000Y-163461200D01*
G75*
G02*
X33952800Y-163385000I0J76200D01*
G01*
X33952800Y-161085000D01*
G75*
G02*
X34029000Y-161008800I76200J0D01*
G01*
G37*
D11*
X35179000Y-165735000D03*
X35179000Y-169235000D03*
G36*
X47599020Y-132507373D02*
G01*
X47572958Y-132462232D01*
X47571800Y-132449000D01*
X47571800Y-130949000D01*
X47589627Y-130900020D01*
X47634768Y-130873958D01*
X47648000Y-130872800D01*
X48148000Y-130872800D01*
X48162334Y-130878017D01*
X48229337Y-130879245D01*
X48250664Y-130882699D01*
X48385979Y-130924974D01*
X48405480Y-130934275D01*
X48523490Y-131012830D01*
X48539596Y-131027231D01*
X48630816Y-131135750D01*
X48642233Y-131154092D01*
X48699328Y-131283851D01*
X48705138Y-131304660D01*
X48722060Y-131434068D01*
X48723042Y-131435768D01*
X48724200Y-131449000D01*
X48724200Y-131949000D01*
X48723448Y-131951066D01*
X48723256Y-131966833D01*
X48701445Y-132106910D01*
X48695128Y-132127570D01*
X48634880Y-132255895D01*
X48623018Y-132273953D01*
X48529174Y-132380211D01*
X48512721Y-132394213D01*
X48392826Y-132469861D01*
X48373105Y-132478683D01*
X48236798Y-132517640D01*
X48215392Y-132520573D01*
X48167745Y-132520282D01*
X48161232Y-132524042D01*
X48148000Y-132525200D01*
X47648000Y-132525200D01*
X47599020Y-132507373D01*
G37*
G36*
X46833919Y-132520075D02*
G01*
X46773630Y-132519707D01*
X46752262Y-132516513D01*
X46616441Y-132475894D01*
X46596828Y-132466832D01*
X46477866Y-132389725D01*
X46461585Y-132375522D01*
X46369047Y-132268125D01*
X46357408Y-132249924D01*
X46298731Y-132120872D01*
X46292667Y-132100135D01*
X46272570Y-131959802D01*
X46271800Y-131949000D01*
X46271800Y-131449000D01*
X46271806Y-131448071D01*
X46271955Y-131435855D01*
X46273005Y-131424142D01*
X46296525Y-131284341D01*
X46303094Y-131263758D01*
X46364906Y-131136179D01*
X46376987Y-131118268D01*
X46472122Y-131013164D01*
X46488745Y-130999363D01*
X46609555Y-130925186D01*
X46629383Y-130916606D01*
X46766156Y-130879317D01*
X46787596Y-130876647D01*
X46828802Y-130877402D01*
X46834768Y-130873958D01*
X46848000Y-130872800D01*
X47348000Y-130872800D01*
X47396980Y-130890627D01*
X47423042Y-130935768D01*
X47424200Y-130949000D01*
X47424200Y-132449000D01*
X47406373Y-132497980D01*
X47361232Y-132524042D01*
X47348000Y-132525200D01*
X46848000Y-132525200D01*
X46833919Y-132520075D01*
G37*
G36*
G01*
X48305200Y-120499000D02*
X48305200Y-121699000D01*
G75*
G02*
X48029000Y-121975200I-276200J0D01*
G01*
X47629000Y-121975200D01*
G75*
G02*
X47352800Y-121699000I0J276200D01*
G01*
X47352800Y-120499000D01*
G75*
G02*
X47629000Y-120222800I276200J0D01*
G01*
X48029000Y-120222800D01*
G75*
G02*
X48305200Y-120499000I0J-276200D01*
G01*
G37*
G36*
G01*
X47055200Y-120499000D02*
X47055200Y-121699000D01*
G75*
G02*
X46779000Y-121975200I-276200J0D01*
G01*
X46379000Y-121975200D01*
G75*
G02*
X46102800Y-121699000I0J276200D01*
G01*
X46102800Y-120499000D01*
G75*
G02*
X46379000Y-120222800I276200J0D01*
G01*
X46779000Y-120222800D01*
G75*
G02*
X47055200Y-120499000I0J-276200D01*
G01*
G37*
G36*
G01*
X45805200Y-120499000D02*
X45805200Y-121699000D01*
G75*
G02*
X45529000Y-121975200I-276200J0D01*
G01*
X45129000Y-121975200D01*
G75*
G02*
X44852800Y-121699000I0J276200D01*
G01*
X44852800Y-120499000D01*
G75*
G02*
X45129000Y-120222800I276200J0D01*
G01*
X45529000Y-120222800D01*
G75*
G02*
X45805200Y-120499000I0J-276200D01*
G01*
G37*
G36*
G01*
X44555200Y-120499000D02*
X44555200Y-121699000D01*
G75*
G02*
X44279000Y-121975200I-276200J0D01*
G01*
X43879000Y-121975200D01*
G75*
G02*
X43602800Y-121699000I0J276200D01*
G01*
X43602800Y-120499000D01*
G75*
G02*
X43879000Y-120222800I276200J0D01*
G01*
X44279000Y-120222800D01*
G75*
G02*
X44555200Y-120499000I0J-276200D01*
G01*
G37*
G36*
G01*
X42655200Y-116949001D02*
X42655200Y-119448999D01*
G75*
G02*
X42328999Y-119775200I-326201J0D01*
G01*
X40729001Y-119775200D01*
G75*
G02*
X40402800Y-119448999I0J326201D01*
G01*
X40402800Y-116949001D01*
G75*
G02*
X40729001Y-116622800I326201J0D01*
G01*
X42328999Y-116622800D01*
G75*
G02*
X42655200Y-116949001I0J-326201D01*
G01*
G37*
G36*
G01*
X51505200Y-116949001D02*
X51505200Y-119448999D01*
G75*
G02*
X51178999Y-119775200I-326201J0D01*
G01*
X49579001Y-119775200D01*
G75*
G02*
X49252800Y-119448999I0J326201D01*
G01*
X49252800Y-116949001D01*
G75*
G02*
X49579001Y-116622800I326201J0D01*
G01*
X51178999Y-116622800D01*
G75*
G02*
X51505200Y-116949001I0J-326201D01*
G01*
G37*
G36*
G01*
X121147000Y-119189550D02*
X122947000Y-119189550D01*
G75*
G02*
X123023200Y-119265750I0J-76200D01*
G01*
X123023200Y-121765750D01*
G75*
G02*
X122947000Y-121841950I-76200J0D01*
G01*
X121147000Y-121841950D01*
G75*
G02*
X121070800Y-121765750I0J76200D01*
G01*
X121070800Y-119265750D01*
G75*
G02*
X121147000Y-119189550I76200J0D01*
G01*
G37*
G36*
G01*
X121147000Y-123189550D02*
X122947000Y-123189550D01*
G75*
G02*
X123023200Y-123265750I0J-76200D01*
G01*
X123023200Y-125765750D01*
G75*
G02*
X122947000Y-125841950I-76200J0D01*
G01*
X121147000Y-125841950D01*
G75*
G02*
X121070800Y-125765750I0J76200D01*
G01*
X121070800Y-123265750D01*
G75*
G02*
X121147000Y-123189550I76200J0D01*
G01*
G37*
G36*
G01*
X42395200Y-175318000D02*
X42395200Y-176218000D01*
G75*
G02*
X42069000Y-176544200I-326200J0D01*
G01*
X41544000Y-176544200D01*
G75*
G02*
X41217800Y-176218000I0J326200D01*
G01*
X41217800Y-175318000D01*
G75*
G02*
X41544000Y-174991800I326200J0D01*
G01*
X42069000Y-174991800D01*
G75*
G02*
X42395200Y-175318000I0J-326200D01*
G01*
G37*
G36*
G01*
X40570200Y-175318000D02*
X40570200Y-176218000D01*
G75*
G02*
X40244000Y-176544200I-326200J0D01*
G01*
X39719000Y-176544200D01*
G75*
G02*
X39392800Y-176218000I0J326200D01*
G01*
X39392800Y-175318000D01*
G75*
G02*
X39719000Y-174991800I326200J0D01*
G01*
X40244000Y-174991800D01*
G75*
G02*
X40570200Y-175318000I0J-326200D01*
G01*
G37*
G36*
G01*
X115318200Y-136899750D02*
X115318200Y-137849750D01*
G75*
G02*
X114992000Y-138175950I-326200J0D01*
G01*
X114492000Y-138175950D01*
G75*
G02*
X114165800Y-137849750I0J326200D01*
G01*
X114165800Y-136899750D01*
G75*
G02*
X114492000Y-136573550I326200J0D01*
G01*
X114992000Y-136573550D01*
G75*
G02*
X115318200Y-136899750I0J-326200D01*
G01*
G37*
G36*
G01*
X113418200Y-136899750D02*
X113418200Y-137849750D01*
G75*
G02*
X113092000Y-138175950I-326200J0D01*
G01*
X112592000Y-138175950D01*
G75*
G02*
X112265800Y-137849750I0J326200D01*
G01*
X112265800Y-136899750D01*
G75*
G02*
X112592000Y-136573550I326200J0D01*
G01*
X113092000Y-136573550D01*
G75*
G02*
X113418200Y-136899750I0J-326200D01*
G01*
G37*
G36*
G01*
X68616200Y-140947000D02*
X68616200Y-141247000D01*
G75*
G02*
X68390000Y-141473200I-226200J0D01*
G01*
X66640000Y-141473200D01*
G75*
G02*
X66413800Y-141247000I0J226200D01*
G01*
X66413800Y-140947000D01*
G75*
G02*
X66640000Y-140720800I226200J0D01*
G01*
X68390000Y-140720800D01*
G75*
G02*
X68616200Y-140947000I0J-226200D01*
G01*
G37*
G36*
G01*
X68616200Y-139677000D02*
X68616200Y-139977000D01*
G75*
G02*
X68390000Y-140203200I-226200J0D01*
G01*
X66640000Y-140203200D01*
G75*
G02*
X66413800Y-139977000I0J226200D01*
G01*
X66413800Y-139677000D01*
G75*
G02*
X66640000Y-139450800I226200J0D01*
G01*
X68390000Y-139450800D01*
G75*
G02*
X68616200Y-139677000I0J-226200D01*
G01*
G37*
G36*
G01*
X68616200Y-138407000D02*
X68616200Y-138707000D01*
G75*
G02*
X68390000Y-138933200I-226200J0D01*
G01*
X66640000Y-138933200D01*
G75*
G02*
X66413800Y-138707000I0J226200D01*
G01*
X66413800Y-138407000D01*
G75*
G02*
X66640000Y-138180800I226200J0D01*
G01*
X68390000Y-138180800D01*
G75*
G02*
X68616200Y-138407000I0J-226200D01*
G01*
G37*
G36*
G01*
X68616200Y-137137000D02*
X68616200Y-137437000D01*
G75*
G02*
X68390000Y-137663200I-226200J0D01*
G01*
X66640000Y-137663200D01*
G75*
G02*
X66413800Y-137437000I0J226200D01*
G01*
X66413800Y-137137000D01*
G75*
G02*
X66640000Y-136910800I226200J0D01*
G01*
X68390000Y-136910800D01*
G75*
G02*
X68616200Y-137137000I0J-226200D01*
G01*
G37*
G36*
G01*
X68616200Y-135867000D02*
X68616200Y-136167000D01*
G75*
G02*
X68390000Y-136393200I-226200J0D01*
G01*
X66640000Y-136393200D01*
G75*
G02*
X66413800Y-136167000I0J226200D01*
G01*
X66413800Y-135867000D01*
G75*
G02*
X66640000Y-135640800I226200J0D01*
G01*
X68390000Y-135640800D01*
G75*
G02*
X68616200Y-135867000I0J-226200D01*
G01*
G37*
G36*
G01*
X68616200Y-134597000D02*
X68616200Y-134897000D01*
G75*
G02*
X68390000Y-135123200I-226200J0D01*
G01*
X66640000Y-135123200D01*
G75*
G02*
X66413800Y-134897000I0J226200D01*
G01*
X66413800Y-134597000D01*
G75*
G02*
X66640000Y-134370800I226200J0D01*
G01*
X68390000Y-134370800D01*
G75*
G02*
X68616200Y-134597000I0J-226200D01*
G01*
G37*
G36*
G01*
X68616200Y-133327000D02*
X68616200Y-133627000D01*
G75*
G02*
X68390000Y-133853200I-226200J0D01*
G01*
X66640000Y-133853200D01*
G75*
G02*
X66413800Y-133627000I0J226200D01*
G01*
X66413800Y-133327000D01*
G75*
G02*
X66640000Y-133100800I226200J0D01*
G01*
X68390000Y-133100800D01*
G75*
G02*
X68616200Y-133327000I0J-226200D01*
G01*
G37*
G36*
G01*
X68616200Y-132057000D02*
X68616200Y-132357000D01*
G75*
G02*
X68390000Y-132583200I-226200J0D01*
G01*
X66640000Y-132583200D01*
G75*
G02*
X66413800Y-132357000I0J226200D01*
G01*
X66413800Y-132057000D01*
G75*
G02*
X66640000Y-131830800I226200J0D01*
G01*
X68390000Y-131830800D01*
G75*
G02*
X68616200Y-132057000I0J-226200D01*
G01*
G37*
G36*
G01*
X68616200Y-130787000D02*
X68616200Y-131087000D01*
G75*
G02*
X68390000Y-131313200I-226200J0D01*
G01*
X66640000Y-131313200D01*
G75*
G02*
X66413800Y-131087000I0J226200D01*
G01*
X66413800Y-130787000D01*
G75*
G02*
X66640000Y-130560800I226200J0D01*
G01*
X68390000Y-130560800D01*
G75*
G02*
X68616200Y-130787000I0J-226200D01*
G01*
G37*
G36*
G01*
X68616200Y-129517000D02*
X68616200Y-129817000D01*
G75*
G02*
X68390000Y-130043200I-226200J0D01*
G01*
X66640000Y-130043200D01*
G75*
G02*
X66413800Y-129817000I0J226200D01*
G01*
X66413800Y-129517000D01*
G75*
G02*
X66640000Y-129290800I226200J0D01*
G01*
X68390000Y-129290800D01*
G75*
G02*
X68616200Y-129517000I0J-226200D01*
G01*
G37*
G36*
G01*
X59316200Y-129517000D02*
X59316200Y-129817000D01*
G75*
G02*
X59090000Y-130043200I-226200J0D01*
G01*
X57340000Y-130043200D01*
G75*
G02*
X57113800Y-129817000I0J226200D01*
G01*
X57113800Y-129517000D01*
G75*
G02*
X57340000Y-129290800I226200J0D01*
G01*
X59090000Y-129290800D01*
G75*
G02*
X59316200Y-129517000I0J-226200D01*
G01*
G37*
G36*
G01*
X59316200Y-130787000D02*
X59316200Y-131087000D01*
G75*
G02*
X59090000Y-131313200I-226200J0D01*
G01*
X57340000Y-131313200D01*
G75*
G02*
X57113800Y-131087000I0J226200D01*
G01*
X57113800Y-130787000D01*
G75*
G02*
X57340000Y-130560800I226200J0D01*
G01*
X59090000Y-130560800D01*
G75*
G02*
X59316200Y-130787000I0J-226200D01*
G01*
G37*
G36*
G01*
X59316200Y-132057000D02*
X59316200Y-132357000D01*
G75*
G02*
X59090000Y-132583200I-226200J0D01*
G01*
X57340000Y-132583200D01*
G75*
G02*
X57113800Y-132357000I0J226200D01*
G01*
X57113800Y-132057000D01*
G75*
G02*
X57340000Y-131830800I226200J0D01*
G01*
X59090000Y-131830800D01*
G75*
G02*
X59316200Y-132057000I0J-226200D01*
G01*
G37*
G36*
G01*
X59316200Y-133327000D02*
X59316200Y-133627000D01*
G75*
G02*
X59090000Y-133853200I-226200J0D01*
G01*
X57340000Y-133853200D01*
G75*
G02*
X57113800Y-133627000I0J226200D01*
G01*
X57113800Y-133327000D01*
G75*
G02*
X57340000Y-133100800I226200J0D01*
G01*
X59090000Y-133100800D01*
G75*
G02*
X59316200Y-133327000I0J-226200D01*
G01*
G37*
G36*
G01*
X59316200Y-134597000D02*
X59316200Y-134897000D01*
G75*
G02*
X59090000Y-135123200I-226200J0D01*
G01*
X57340000Y-135123200D01*
G75*
G02*
X57113800Y-134897000I0J226200D01*
G01*
X57113800Y-134597000D01*
G75*
G02*
X57340000Y-134370800I226200J0D01*
G01*
X59090000Y-134370800D01*
G75*
G02*
X59316200Y-134597000I0J-226200D01*
G01*
G37*
G36*
G01*
X59316200Y-135867000D02*
X59316200Y-136167000D01*
G75*
G02*
X59090000Y-136393200I-226200J0D01*
G01*
X57340000Y-136393200D01*
G75*
G02*
X57113800Y-136167000I0J226200D01*
G01*
X57113800Y-135867000D01*
G75*
G02*
X57340000Y-135640800I226200J0D01*
G01*
X59090000Y-135640800D01*
G75*
G02*
X59316200Y-135867000I0J-226200D01*
G01*
G37*
G36*
G01*
X59316200Y-137137000D02*
X59316200Y-137437000D01*
G75*
G02*
X59090000Y-137663200I-226200J0D01*
G01*
X57340000Y-137663200D01*
G75*
G02*
X57113800Y-137437000I0J226200D01*
G01*
X57113800Y-137137000D01*
G75*
G02*
X57340000Y-136910800I226200J0D01*
G01*
X59090000Y-136910800D01*
G75*
G02*
X59316200Y-137137000I0J-226200D01*
G01*
G37*
G36*
G01*
X59316200Y-138407000D02*
X59316200Y-138707000D01*
G75*
G02*
X59090000Y-138933200I-226200J0D01*
G01*
X57340000Y-138933200D01*
G75*
G02*
X57113800Y-138707000I0J226200D01*
G01*
X57113800Y-138407000D01*
G75*
G02*
X57340000Y-138180800I226200J0D01*
G01*
X59090000Y-138180800D01*
G75*
G02*
X59316200Y-138407000I0J-226200D01*
G01*
G37*
G36*
G01*
X59316200Y-139677000D02*
X59316200Y-139977000D01*
G75*
G02*
X59090000Y-140203200I-226200J0D01*
G01*
X57340000Y-140203200D01*
G75*
G02*
X57113800Y-139977000I0J226200D01*
G01*
X57113800Y-139677000D01*
G75*
G02*
X57340000Y-139450800I226200J0D01*
G01*
X59090000Y-139450800D01*
G75*
G02*
X59316200Y-139677000I0J-226200D01*
G01*
G37*
G36*
G01*
X59316200Y-140947000D02*
X59316200Y-141247000D01*
G75*
G02*
X59090000Y-141473200I-226200J0D01*
G01*
X57340000Y-141473200D01*
G75*
G02*
X57113800Y-141247000I0J226200D01*
G01*
X57113800Y-140947000D01*
G75*
G02*
X57340000Y-140720800I226200J0D01*
G01*
X59090000Y-140720800D01*
G75*
G02*
X59316200Y-140947000I0J-226200D01*
G01*
G37*
G36*
G01*
X63594000Y-169039200D02*
X62644000Y-169039200D01*
G75*
G02*
X62317800Y-168713000I0J326200D01*
G01*
X62317800Y-168213000D01*
G75*
G02*
X62644000Y-167886800I326200J0D01*
G01*
X63594000Y-167886800D01*
G75*
G02*
X63920200Y-168213000I0J-326200D01*
G01*
X63920200Y-168713000D01*
G75*
G02*
X63594000Y-169039200I-326200J0D01*
G01*
G37*
G36*
G01*
X63594000Y-167139200D02*
X62644000Y-167139200D01*
G75*
G02*
X62317800Y-166813000I0J326200D01*
G01*
X62317800Y-166313000D01*
G75*
G02*
X62644000Y-165986800I326200J0D01*
G01*
X63594000Y-165986800D01*
G75*
G02*
X63920200Y-166313000I0J-326200D01*
G01*
X63920200Y-166813000D01*
G75*
G02*
X63594000Y-167139200I-326200J0D01*
G01*
G37*
G36*
X47614020Y-166543373D02*
G01*
X47587958Y-166498232D01*
X47586800Y-166485000D01*
X47586800Y-164985000D01*
X47604627Y-164936020D01*
X47649768Y-164909958D01*
X47663000Y-164908800D01*
X48163000Y-164908800D01*
X48177334Y-164914017D01*
X48244337Y-164915245D01*
X48265664Y-164918699D01*
X48400979Y-164960974D01*
X48420480Y-164970275D01*
X48538490Y-165048830D01*
X48554596Y-165063231D01*
X48645816Y-165171750D01*
X48657233Y-165190092D01*
X48714328Y-165319851D01*
X48720138Y-165340660D01*
X48737060Y-165470068D01*
X48738042Y-165471768D01*
X48739200Y-165485000D01*
X48739200Y-165985000D01*
X48738448Y-165987066D01*
X48738256Y-166002833D01*
X48716445Y-166142910D01*
X48710128Y-166163570D01*
X48649880Y-166291895D01*
X48638018Y-166309953D01*
X48544174Y-166416211D01*
X48527721Y-166430213D01*
X48407826Y-166505861D01*
X48388105Y-166514683D01*
X48251798Y-166553640D01*
X48230392Y-166556573D01*
X48182745Y-166556282D01*
X48176232Y-166560042D01*
X48163000Y-166561200D01*
X47663000Y-166561200D01*
X47614020Y-166543373D01*
G37*
G36*
X46848919Y-166556075D02*
G01*
X46788630Y-166555707D01*
X46767262Y-166552513D01*
X46631441Y-166511894D01*
X46611828Y-166502832D01*
X46492866Y-166425725D01*
X46476585Y-166411522D01*
X46384047Y-166304125D01*
X46372408Y-166285924D01*
X46313731Y-166156872D01*
X46307667Y-166136135D01*
X46287570Y-165995802D01*
X46286800Y-165985000D01*
X46286800Y-165485000D01*
X46286806Y-165484071D01*
X46286955Y-165471855D01*
X46288005Y-165460142D01*
X46311525Y-165320341D01*
X46318094Y-165299758D01*
X46379906Y-165172179D01*
X46391987Y-165154268D01*
X46487122Y-165049164D01*
X46503745Y-165035363D01*
X46624555Y-164961186D01*
X46644383Y-164952606D01*
X46781156Y-164915317D01*
X46802596Y-164912647D01*
X46843802Y-164913402D01*
X46849768Y-164909958D01*
X46863000Y-164908800D01*
X47363000Y-164908800D01*
X47411980Y-164926627D01*
X47438042Y-164971768D01*
X47439200Y-164985000D01*
X47439200Y-166485000D01*
X47421373Y-166533980D01*
X47376232Y-166560042D01*
X47363000Y-166561200D01*
X46863000Y-166561200D01*
X46848919Y-166556075D01*
G37*
G36*
G01*
X104040200Y-123125000D02*
X104040200Y-125425000D01*
G75*
G02*
X103964000Y-125501200I-76200J0D01*
G01*
X101664000Y-125501200D01*
G75*
G02*
X101587800Y-125425000I0J76200D01*
G01*
X101587800Y-123125000D01*
G75*
G02*
X101664000Y-123048800I76200J0D01*
G01*
X103964000Y-123048800D01*
G75*
G02*
X104040200Y-123125000I0J-76200D01*
G01*
G37*
X99314000Y-124275000D03*
X95814000Y-124275000D03*
G36*
G01*
X76603800Y-169868000D02*
X76603800Y-168968000D01*
G75*
G02*
X76930000Y-168641800I326200J0D01*
G01*
X77455000Y-168641800D01*
G75*
G02*
X77781200Y-168968000I0J-326200D01*
G01*
X77781200Y-169868000D01*
G75*
G02*
X77455000Y-170194200I-326200J0D01*
G01*
X76930000Y-170194200D01*
G75*
G02*
X76603800Y-169868000I0J326200D01*
G01*
G37*
G36*
G01*
X78428800Y-169868000D02*
X78428800Y-168968000D01*
G75*
G02*
X78755000Y-168641800I326200J0D01*
G01*
X79280000Y-168641800D01*
G75*
G02*
X79606200Y-168968000I0J-326200D01*
G01*
X79606200Y-169868000D01*
G75*
G02*
X79280000Y-170194200I-326200J0D01*
G01*
X78755000Y-170194200D01*
G75*
G02*
X78428800Y-169868000I0J326200D01*
G01*
G37*
G36*
G01*
X147723000Y-170365950D02*
X146473000Y-170365950D01*
G75*
G02*
X146246800Y-170139750I0J226200D01*
G01*
X146246800Y-169839750D01*
G75*
G02*
X146473000Y-169613550I226200J0D01*
G01*
X147723000Y-169613550D01*
G75*
G02*
X147949200Y-169839750I0J-226200D01*
G01*
X147949200Y-170139750D01*
G75*
G02*
X147723000Y-170365950I-226200J0D01*
G01*
G37*
G36*
G01*
X147723000Y-169365950D02*
X146473000Y-169365950D01*
G75*
G02*
X146246800Y-169139750I0J226200D01*
G01*
X146246800Y-168839750D01*
G75*
G02*
X146473000Y-168613550I226200J0D01*
G01*
X147723000Y-168613550D01*
G75*
G02*
X147949200Y-168839750I0J-226200D01*
G01*
X147949200Y-169139750D01*
G75*
G02*
X147723000Y-169365950I-226200J0D01*
G01*
G37*
G36*
G01*
X147723000Y-168365950D02*
X146473000Y-168365950D01*
G75*
G02*
X146246800Y-168139750I0J226200D01*
G01*
X146246800Y-167839750D01*
G75*
G02*
X146473000Y-167613550I226200J0D01*
G01*
X147723000Y-167613550D01*
G75*
G02*
X147949200Y-167839750I0J-226200D01*
G01*
X147949200Y-168139750D01*
G75*
G02*
X147723000Y-168365950I-226200J0D01*
G01*
G37*
G36*
G01*
X147723000Y-167365950D02*
X146473000Y-167365950D01*
G75*
G02*
X146246800Y-167139750I0J226200D01*
G01*
X146246800Y-166839750D01*
G75*
G02*
X146473000Y-166613550I226200J0D01*
G01*
X147723000Y-166613550D01*
G75*
G02*
X147949200Y-166839750I0J-226200D01*
G01*
X147949200Y-167139750D01*
G75*
G02*
X147723000Y-167365950I-226200J0D01*
G01*
G37*
G36*
G01*
X151623000Y-171965950D02*
X150323000Y-171965950D01*
G75*
G02*
X149996800Y-171639750I0J326200D01*
G01*
X149996800Y-170939750D01*
G75*
G02*
X150323000Y-170613550I326200J0D01*
G01*
X151623000Y-170613550D01*
G75*
G02*
X151949200Y-170939750I0J-326200D01*
G01*
X151949200Y-171639750D01*
G75*
G02*
X151623000Y-171965950I-326200J0D01*
G01*
G37*
G36*
G01*
X151623000Y-166365950D02*
X150323000Y-166365950D01*
G75*
G02*
X149996800Y-166039750I0J326200D01*
G01*
X149996800Y-165339750D01*
G75*
G02*
X150323000Y-165013550I326200J0D01*
G01*
X151623000Y-165013550D01*
G75*
G02*
X151949200Y-165339750I0J-326200D01*
G01*
X151949200Y-166039750D01*
G75*
G02*
X151623000Y-166365950I-326200J0D01*
G01*
G37*
G36*
G01*
X115318200Y-143503750D02*
X115318200Y-144453750D01*
G75*
G02*
X114992000Y-144779950I-326200J0D01*
G01*
X114492000Y-144779950D01*
G75*
G02*
X114165800Y-144453750I0J326200D01*
G01*
X114165800Y-143503750D01*
G75*
G02*
X114492000Y-143177550I326200J0D01*
G01*
X114992000Y-143177550D01*
G75*
G02*
X115318200Y-143503750I0J-326200D01*
G01*
G37*
G36*
G01*
X113418200Y-143503750D02*
X113418200Y-144453750D01*
G75*
G02*
X113092000Y-144779950I-326200J0D01*
G01*
X112592000Y-144779950D01*
G75*
G02*
X112265800Y-144453750I0J326200D01*
G01*
X112265800Y-143503750D01*
G75*
G02*
X112592000Y-143177550I326200J0D01*
G01*
X113092000Y-143177550D01*
G75*
G02*
X113418200Y-143503750I0J-326200D01*
G01*
G37*
G36*
G01*
X78102800Y-130142000D02*
X78102800Y-129192000D01*
G75*
G02*
X78429000Y-128865800I326200J0D01*
G01*
X78929000Y-128865800D01*
G75*
G02*
X79255200Y-129192000I0J-326200D01*
G01*
X79255200Y-130142000D01*
G75*
G02*
X78929000Y-130468200I-326200J0D01*
G01*
X78429000Y-130468200D01*
G75*
G02*
X78102800Y-130142000I0J326200D01*
G01*
G37*
G36*
G01*
X80002800Y-130142000D02*
X80002800Y-129192000D01*
G75*
G02*
X80329000Y-128865800I326200J0D01*
G01*
X80829000Y-128865800D01*
G75*
G02*
X81155200Y-129192000I0J-326200D01*
G01*
X81155200Y-130142000D01*
G75*
G02*
X80829000Y-130468200I-326200J0D01*
G01*
X80329000Y-130468200D01*
G75*
G02*
X80002800Y-130142000I0J326200D01*
G01*
G37*
G36*
G01*
X42395200Y-178620000D02*
X42395200Y-179520000D01*
G75*
G02*
X42069000Y-179846200I-326200J0D01*
G01*
X41544000Y-179846200D01*
G75*
G02*
X41217800Y-179520000I0J326200D01*
G01*
X41217800Y-178620000D01*
G75*
G02*
X41544000Y-178293800I326200J0D01*
G01*
X42069000Y-178293800D01*
G75*
G02*
X42395200Y-178620000I0J-326200D01*
G01*
G37*
G36*
G01*
X40570200Y-178620000D02*
X40570200Y-179520000D01*
G75*
G02*
X40244000Y-179846200I-326200J0D01*
G01*
X39719000Y-179846200D01*
G75*
G02*
X39392800Y-179520000I0J326200D01*
G01*
X39392800Y-178620000D01*
G75*
G02*
X39719000Y-178293800I326200J0D01*
G01*
X40244000Y-178293800D01*
G75*
G02*
X40570200Y-178620000I0J-326200D01*
G01*
G37*
G36*
G01*
X142174000Y-147674950D02*
X140274000Y-147674950D01*
G75*
G02*
X140197800Y-147598750I0J76200D01*
G01*
X140197800Y-146198750D01*
G75*
G02*
X140274000Y-146122550I76200J0D01*
G01*
X142174000Y-146122550D01*
G75*
G02*
X142250200Y-146198750I0J-76200D01*
G01*
X142250200Y-147598750D01*
G75*
G02*
X142174000Y-147674950I-76200J0D01*
G01*
G37*
G36*
G01*
X142174000Y-144374950D02*
X140274000Y-144374950D01*
G75*
G02*
X140197800Y-144298750I0J76200D01*
G01*
X140197800Y-142898750D01*
G75*
G02*
X140274000Y-142822550I76200J0D01*
G01*
X142174000Y-142822550D01*
G75*
G02*
X142250200Y-142898750I0J-76200D01*
G01*
X142250200Y-144298750D01*
G75*
G02*
X142174000Y-144374950I-76200J0D01*
G01*
G37*
G36*
X87909980Y-176571377D02*
G01*
X87936042Y-176616518D01*
X87937200Y-176629750D01*
X87937200Y-178129750D01*
X87919373Y-178178730D01*
X87874232Y-178204792D01*
X87861000Y-178205950D01*
X87361000Y-178205950D01*
X87346666Y-178200733D01*
X87279663Y-178199505D01*
X87258336Y-178196051D01*
X87123021Y-178153776D01*
X87103520Y-178144475D01*
X86985510Y-178065920D01*
X86969404Y-178051519D01*
X86878184Y-177943000D01*
X86866767Y-177924658D01*
X86809672Y-177794899D01*
X86803862Y-177774090D01*
X86786940Y-177644682D01*
X86785958Y-177642982D01*
X86784800Y-177629750D01*
X86784800Y-177129750D01*
X86785552Y-177127684D01*
X86785744Y-177111917D01*
X86807555Y-176971840D01*
X86813872Y-176951180D01*
X86874120Y-176822855D01*
X86885982Y-176804797D01*
X86979826Y-176698539D01*
X86996279Y-176684537D01*
X87116174Y-176608889D01*
X87135895Y-176600067D01*
X87272202Y-176561110D01*
X87293608Y-176558177D01*
X87341255Y-176558468D01*
X87347768Y-176554708D01*
X87361000Y-176553550D01*
X87861000Y-176553550D01*
X87909980Y-176571377D01*
G37*
G36*
X88675081Y-176558675D02*
G01*
X88735370Y-176559043D01*
X88756738Y-176562237D01*
X88892559Y-176602856D01*
X88912172Y-176611918D01*
X89031134Y-176689025D01*
X89047415Y-176703228D01*
X89139953Y-176810625D01*
X89151592Y-176828826D01*
X89210269Y-176957878D01*
X89216333Y-176978615D01*
X89236430Y-177118948D01*
X89237200Y-177129750D01*
X89237200Y-177629750D01*
X89237194Y-177630679D01*
X89237045Y-177642895D01*
X89235995Y-177654608D01*
X89212475Y-177794409D01*
X89205906Y-177814992D01*
X89144094Y-177942571D01*
X89132013Y-177960482D01*
X89036878Y-178065586D01*
X89020255Y-178079387D01*
X88899445Y-178153564D01*
X88879617Y-178162144D01*
X88742844Y-178199433D01*
X88721404Y-178202103D01*
X88680198Y-178201348D01*
X88674232Y-178204792D01*
X88661000Y-178205950D01*
X88161000Y-178205950D01*
X88112020Y-178188123D01*
X88085958Y-178142982D01*
X88084800Y-178129750D01*
X88084800Y-176629750D01*
X88102627Y-176580770D01*
X88147768Y-176554708D01*
X88161000Y-176553550D01*
X88661000Y-176553550D01*
X88675081Y-176558675D01*
G37*
G36*
G01*
X121053800Y-134562000D02*
X121053800Y-133662000D01*
G75*
G02*
X121380000Y-133335800I326200J0D01*
G01*
X121905000Y-133335800D01*
G75*
G02*
X122231200Y-133662000I0J-326200D01*
G01*
X122231200Y-134562000D01*
G75*
G02*
X121905000Y-134888200I-326200J0D01*
G01*
X121380000Y-134888200D01*
G75*
G02*
X121053800Y-134562000I0J326200D01*
G01*
G37*
G36*
G01*
X122878800Y-134562000D02*
X122878800Y-133662000D01*
G75*
G02*
X123205000Y-133335800I326200J0D01*
G01*
X123730000Y-133335800D01*
G75*
G02*
X124056200Y-133662000I0J-326200D01*
G01*
X124056200Y-134562000D01*
G75*
G02*
X123730000Y-134888200I-326200J0D01*
G01*
X123205000Y-134888200D01*
G75*
G02*
X122878800Y-134562000I0J326200D01*
G01*
G37*
G36*
G01*
X121053800Y-137864000D02*
X121053800Y-136964000D01*
G75*
G02*
X121380000Y-136637800I326200J0D01*
G01*
X121905000Y-136637800D01*
G75*
G02*
X122231200Y-136964000I0J-326200D01*
G01*
X122231200Y-137864000D01*
G75*
G02*
X121905000Y-138190200I-326200J0D01*
G01*
X121380000Y-138190200D01*
G75*
G02*
X121053800Y-137864000I0J326200D01*
G01*
G37*
G36*
G01*
X122878800Y-137864000D02*
X122878800Y-136964000D01*
G75*
G02*
X123205000Y-136637800I326200J0D01*
G01*
X123730000Y-136637800D01*
G75*
G02*
X124056200Y-136964000I0J-326200D01*
G01*
X124056200Y-137864000D01*
G75*
G02*
X123730000Y-138190200I-326200J0D01*
G01*
X123205000Y-138190200D01*
G75*
G02*
X122878800Y-137864000I0J326200D01*
G01*
G37*
G36*
G01*
X95943000Y-137055800D02*
X96843000Y-137055800D01*
G75*
G02*
X97169200Y-137382000I0J-326200D01*
G01*
X97169200Y-137907000D01*
G75*
G02*
X96843000Y-138233200I-326200J0D01*
G01*
X95943000Y-138233200D01*
G75*
G02*
X95616800Y-137907000I0J326200D01*
G01*
X95616800Y-137382000D01*
G75*
G02*
X95943000Y-137055800I326200J0D01*
G01*
G37*
G36*
G01*
X95943000Y-138880800D02*
X96843000Y-138880800D01*
G75*
G02*
X97169200Y-139207000I0J-326200D01*
G01*
X97169200Y-139732000D01*
G75*
G02*
X96843000Y-140058200I-326200J0D01*
G01*
X95943000Y-140058200D01*
G75*
G02*
X95616800Y-139732000I0J326200D01*
G01*
X95616800Y-139207000D01*
G75*
G02*
X95943000Y-138880800I326200J0D01*
G01*
G37*
G36*
G01*
X42395200Y-165285000D02*
X42395200Y-166185000D01*
G75*
G02*
X42069000Y-166511200I-326200J0D01*
G01*
X41544000Y-166511200D01*
G75*
G02*
X41217800Y-166185000I0J326200D01*
G01*
X41217800Y-165285000D01*
G75*
G02*
X41544000Y-164958800I326200J0D01*
G01*
X42069000Y-164958800D01*
G75*
G02*
X42395200Y-165285000I0J-326200D01*
G01*
G37*
G36*
G01*
X40570200Y-165285000D02*
X40570200Y-166185000D01*
G75*
G02*
X40244000Y-166511200I-326200J0D01*
G01*
X39719000Y-166511200D01*
G75*
G02*
X39392800Y-166185000I0J326200D01*
G01*
X39392800Y-165285000D01*
G75*
G02*
X39719000Y-164958800I326200J0D01*
G01*
X40244000Y-164958800D01*
G75*
G02*
X40570200Y-165285000I0J-326200D01*
G01*
G37*
G36*
G01*
X87167200Y-120537000D02*
X87167200Y-121737000D01*
G75*
G02*
X86891000Y-122013200I-276200J0D01*
G01*
X86491000Y-122013200D01*
G75*
G02*
X86214800Y-121737000I0J276200D01*
G01*
X86214800Y-120537000D01*
G75*
G02*
X86491000Y-120260800I276200J0D01*
G01*
X86891000Y-120260800D01*
G75*
G02*
X87167200Y-120537000I0J-276200D01*
G01*
G37*
G36*
G01*
X85917200Y-120537000D02*
X85917200Y-121737000D01*
G75*
G02*
X85641000Y-122013200I-276200J0D01*
G01*
X85241000Y-122013200D01*
G75*
G02*
X84964800Y-121737000I0J276200D01*
G01*
X84964800Y-120537000D01*
G75*
G02*
X85241000Y-120260800I276200J0D01*
G01*
X85641000Y-120260800D01*
G75*
G02*
X85917200Y-120537000I0J-276200D01*
G01*
G37*
G36*
G01*
X84667200Y-120537000D02*
X84667200Y-121737000D01*
G75*
G02*
X84391000Y-122013200I-276200J0D01*
G01*
X83991000Y-122013200D01*
G75*
G02*
X83714800Y-121737000I0J276200D01*
G01*
X83714800Y-120537000D01*
G75*
G02*
X83991000Y-120260800I276200J0D01*
G01*
X84391000Y-120260800D01*
G75*
G02*
X84667200Y-120537000I0J-276200D01*
G01*
G37*
G36*
G01*
X83417200Y-120537000D02*
X83417200Y-121737000D01*
G75*
G02*
X83141000Y-122013200I-276200J0D01*
G01*
X82741000Y-122013200D01*
G75*
G02*
X82464800Y-121737000I0J276200D01*
G01*
X82464800Y-120537000D01*
G75*
G02*
X82741000Y-120260800I276200J0D01*
G01*
X83141000Y-120260800D01*
G75*
G02*
X83417200Y-120537000I0J-276200D01*
G01*
G37*
G36*
G01*
X90367200Y-116987001D02*
X90367200Y-119486999D01*
G75*
G02*
X90040999Y-119813200I-326201J0D01*
G01*
X88441001Y-119813200D01*
G75*
G02*
X88114800Y-119486999I0J326201D01*
G01*
X88114800Y-116987001D01*
G75*
G02*
X88441001Y-116660800I326201J0D01*
G01*
X90040999Y-116660800D01*
G75*
G02*
X90367200Y-116987001I0J-326201D01*
G01*
G37*
G36*
G01*
X81517200Y-116987001D02*
X81517200Y-119486999D01*
G75*
G02*
X81190999Y-119813200I-326201J0D01*
G01*
X79591001Y-119813200D01*
G75*
G02*
X79264800Y-119486999I0J326201D01*
G01*
X79264800Y-116987001D01*
G75*
G02*
X79591001Y-116660800I326201J0D01*
G01*
X81190999Y-116660800D01*
G75*
G02*
X81517200Y-116987001I0J-326201D01*
G01*
G37*
G36*
G01*
X115318200Y-146805750D02*
X115318200Y-147755750D01*
G75*
G02*
X114992000Y-148081950I-326200J0D01*
G01*
X114492000Y-148081950D01*
G75*
G02*
X114165800Y-147755750I0J326200D01*
G01*
X114165800Y-146805750D01*
G75*
G02*
X114492000Y-146479550I326200J0D01*
G01*
X114992000Y-146479550D01*
G75*
G02*
X115318200Y-146805750I0J-326200D01*
G01*
G37*
G36*
G01*
X113418200Y-146805750D02*
X113418200Y-147755750D01*
G75*
G02*
X113092000Y-148081950I-326200J0D01*
G01*
X112592000Y-148081950D01*
G75*
G02*
X112265800Y-147755750I0J326200D01*
G01*
X112265800Y-146805750D01*
G75*
G02*
X112592000Y-146479550I326200J0D01*
G01*
X113092000Y-146479550D01*
G75*
G02*
X113418200Y-146805750I0J-326200D01*
G01*
G37*
G36*
G01*
X79631200Y-164879000D02*
X79631200Y-165829000D01*
G75*
G02*
X79305000Y-166155200I-326200J0D01*
G01*
X78805000Y-166155200D01*
G75*
G02*
X78478800Y-165829000I0J326200D01*
G01*
X78478800Y-164879000D01*
G75*
G02*
X78805000Y-164552800I326200J0D01*
G01*
X79305000Y-164552800D01*
G75*
G02*
X79631200Y-164879000I0J-326200D01*
G01*
G37*
G36*
G01*
X77731200Y-164879000D02*
X77731200Y-165829000D01*
G75*
G02*
X77405000Y-166155200I-326200J0D01*
G01*
X76905000Y-166155200D01*
G75*
G02*
X76578800Y-165829000I0J326200D01*
G01*
X76578800Y-164879000D01*
G75*
G02*
X76905000Y-164552800I326200J0D01*
G01*
X77405000Y-164552800D01*
G75*
G02*
X77731200Y-164879000I0J-326200D01*
G01*
G37*
G36*
X47614020Y-162987373D02*
G01*
X47587958Y-162942232D01*
X47586800Y-162929000D01*
X47586800Y-161429000D01*
X47604627Y-161380020D01*
X47649768Y-161353958D01*
X47663000Y-161352800D01*
X48163000Y-161352800D01*
X48177334Y-161358017D01*
X48244337Y-161359245D01*
X48265664Y-161362699D01*
X48400979Y-161404974D01*
X48420480Y-161414275D01*
X48538490Y-161492830D01*
X48554596Y-161507231D01*
X48645816Y-161615750D01*
X48657233Y-161634092D01*
X48714328Y-161763851D01*
X48720138Y-161784660D01*
X48737060Y-161914068D01*
X48738042Y-161915768D01*
X48739200Y-161929000D01*
X48739200Y-162429000D01*
X48738448Y-162431066D01*
X48738256Y-162446833D01*
X48716445Y-162586910D01*
X48710128Y-162607570D01*
X48649880Y-162735895D01*
X48638018Y-162753953D01*
X48544174Y-162860211D01*
X48527721Y-162874213D01*
X48407826Y-162949861D01*
X48388105Y-162958683D01*
X48251798Y-162997640D01*
X48230392Y-163000573D01*
X48182745Y-163000282D01*
X48176232Y-163004042D01*
X48163000Y-163005200D01*
X47663000Y-163005200D01*
X47614020Y-162987373D01*
G37*
G36*
X46848919Y-163000075D02*
G01*
X46788630Y-162999707D01*
X46767262Y-162996513D01*
X46631441Y-162955894D01*
X46611828Y-162946832D01*
X46492866Y-162869725D01*
X46476585Y-162855522D01*
X46384047Y-162748125D01*
X46372408Y-162729924D01*
X46313731Y-162600872D01*
X46307667Y-162580135D01*
X46287570Y-162439802D01*
X46286800Y-162429000D01*
X46286800Y-161929000D01*
X46286806Y-161928071D01*
X46286955Y-161915855D01*
X46288005Y-161904142D01*
X46311525Y-161764341D01*
X46318094Y-161743758D01*
X46379906Y-161616179D01*
X46391987Y-161598268D01*
X46487122Y-161493164D01*
X46503745Y-161479363D01*
X46624555Y-161405186D01*
X46644383Y-161396606D01*
X46781156Y-161359317D01*
X46802596Y-161356647D01*
X46843802Y-161357402D01*
X46849768Y-161353958D01*
X46863000Y-161352800D01*
X47363000Y-161352800D01*
X47411980Y-161370627D01*
X47438042Y-161415768D01*
X47439200Y-161429000D01*
X47439200Y-162929000D01*
X47421373Y-162977980D01*
X47376232Y-163004042D01*
X47363000Y-163005200D01*
X46863000Y-163005200D01*
X46848919Y-163000075D01*
G37*
G36*
G01*
X95918000Y-142364800D02*
X96868000Y-142364800D01*
G75*
G02*
X97194200Y-142691000I0J-326200D01*
G01*
X97194200Y-143191000D01*
G75*
G02*
X96868000Y-143517200I-326200J0D01*
G01*
X95918000Y-143517200D01*
G75*
G02*
X95591800Y-143191000I0J326200D01*
G01*
X95591800Y-142691000D01*
G75*
G02*
X95918000Y-142364800I326200J0D01*
G01*
G37*
G36*
G01*
X95918000Y-144264800D02*
X96868000Y-144264800D01*
G75*
G02*
X97194200Y-144591000I0J-326200D01*
G01*
X97194200Y-145091000D01*
G75*
G02*
X96868000Y-145417200I-326200J0D01*
G01*
X95918000Y-145417200D01*
G75*
G02*
X95591800Y-145091000I0J326200D01*
G01*
X95591800Y-144591000D01*
G75*
G02*
X95918000Y-144264800I326200J0D01*
G01*
G37*
G36*
G01*
X79444000Y-175745200D02*
X78544000Y-175745200D01*
G75*
G02*
X78217800Y-175419000I0J326200D01*
G01*
X78217800Y-174894000D01*
G75*
G02*
X78544000Y-174567800I326200J0D01*
G01*
X79444000Y-174567800D01*
G75*
G02*
X79770200Y-174894000I0J-326200D01*
G01*
X79770200Y-175419000D01*
G75*
G02*
X79444000Y-175745200I-326200J0D01*
G01*
G37*
G36*
G01*
X79444000Y-173920200D02*
X78544000Y-173920200D01*
G75*
G02*
X78217800Y-173594000I0J326200D01*
G01*
X78217800Y-173069000D01*
G75*
G02*
X78544000Y-172742800I326200J0D01*
G01*
X79444000Y-172742800D01*
G75*
G02*
X79770200Y-173069000I0J-326200D01*
G01*
X79770200Y-173594000D01*
G75*
G02*
X79444000Y-173920200I-326200J0D01*
G01*
G37*
G36*
X47614020Y-173274373D02*
G01*
X47587958Y-173229232D01*
X47586800Y-173216000D01*
X47586800Y-171716000D01*
X47604627Y-171667020D01*
X47649768Y-171640958D01*
X47663000Y-171639800D01*
X48163000Y-171639800D01*
X48177334Y-171645017D01*
X48244337Y-171646245D01*
X48265664Y-171649699D01*
X48400979Y-171691974D01*
X48420480Y-171701275D01*
X48538490Y-171779830D01*
X48554596Y-171794231D01*
X48645816Y-171902750D01*
X48657233Y-171921092D01*
X48714328Y-172050851D01*
X48720138Y-172071660D01*
X48737060Y-172201068D01*
X48738042Y-172202768D01*
X48739200Y-172216000D01*
X48739200Y-172716000D01*
X48738448Y-172718066D01*
X48738256Y-172733833D01*
X48716445Y-172873910D01*
X48710128Y-172894570D01*
X48649880Y-173022895D01*
X48638018Y-173040953D01*
X48544174Y-173147211D01*
X48527721Y-173161213D01*
X48407826Y-173236861D01*
X48388105Y-173245683D01*
X48251798Y-173284640D01*
X48230392Y-173287573D01*
X48182745Y-173287282D01*
X48176232Y-173291042D01*
X48163000Y-173292200D01*
X47663000Y-173292200D01*
X47614020Y-173274373D01*
G37*
G36*
X46848919Y-173287075D02*
G01*
X46788630Y-173286707D01*
X46767262Y-173283513D01*
X46631441Y-173242894D01*
X46611828Y-173233832D01*
X46492866Y-173156725D01*
X46476585Y-173142522D01*
X46384047Y-173035125D01*
X46372408Y-173016924D01*
X46313731Y-172887872D01*
X46307667Y-172867135D01*
X46287570Y-172726802D01*
X46286800Y-172716000D01*
X46286800Y-172216000D01*
X46286806Y-172215071D01*
X46286955Y-172202855D01*
X46288005Y-172191142D01*
X46311525Y-172051341D01*
X46318094Y-172030758D01*
X46379906Y-171903179D01*
X46391987Y-171885268D01*
X46487122Y-171780164D01*
X46503745Y-171766363D01*
X46624555Y-171692186D01*
X46644383Y-171683606D01*
X46781156Y-171646317D01*
X46802596Y-171643647D01*
X46843802Y-171644402D01*
X46849768Y-171640958D01*
X46863000Y-171639800D01*
X47363000Y-171639800D01*
X47411980Y-171657627D01*
X47438042Y-171702768D01*
X47439200Y-171716000D01*
X47439200Y-173216000D01*
X47421373Y-173264980D01*
X47376232Y-173291042D01*
X47363000Y-173292200D01*
X46863000Y-173292200D01*
X46848919Y-173287075D01*
G37*
G36*
G01*
X70879200Y-177739000D02*
X70879200Y-179639000D01*
G75*
G02*
X70803000Y-179715200I-76200J0D01*
G01*
X69403000Y-179715200D01*
G75*
G02*
X69326800Y-179639000I0J76200D01*
G01*
X69326800Y-177739000D01*
G75*
G02*
X69403000Y-177662800I76200J0D01*
G01*
X70803000Y-177662800D01*
G75*
G02*
X70879200Y-177739000I0J-76200D01*
G01*
G37*
G36*
G01*
X67579200Y-177739000D02*
X67579200Y-179639000D01*
G75*
G02*
X67503000Y-179715200I-76200J0D01*
G01*
X66103000Y-179715200D01*
G75*
G02*
X66026800Y-179639000I0J76200D01*
G01*
X66026800Y-177739000D01*
G75*
G02*
X66103000Y-177662800I76200J0D01*
G01*
X67503000Y-177662800D01*
G75*
G02*
X67579200Y-177739000I0J-76200D01*
G01*
G37*
G36*
X87909980Y-181143377D02*
G01*
X87936042Y-181188518D01*
X87937200Y-181201750D01*
X87937200Y-182701750D01*
X87919373Y-182750730D01*
X87874232Y-182776792D01*
X87861000Y-182777950D01*
X87361000Y-182777950D01*
X87346666Y-182772733D01*
X87279663Y-182771505D01*
X87258336Y-182768051D01*
X87123021Y-182725776D01*
X87103520Y-182716475D01*
X86985510Y-182637920D01*
X86969404Y-182623519D01*
X86878184Y-182515000D01*
X86866767Y-182496658D01*
X86809672Y-182366899D01*
X86803862Y-182346090D01*
X86786940Y-182216682D01*
X86785958Y-182214982D01*
X86784800Y-182201750D01*
X86784800Y-181701750D01*
X86785552Y-181699684D01*
X86785744Y-181683917D01*
X86807555Y-181543840D01*
X86813872Y-181523180D01*
X86874120Y-181394855D01*
X86885982Y-181376797D01*
X86979826Y-181270539D01*
X86996279Y-181256537D01*
X87116174Y-181180889D01*
X87135895Y-181172067D01*
X87272202Y-181133110D01*
X87293608Y-181130177D01*
X87341255Y-181130468D01*
X87347768Y-181126708D01*
X87361000Y-181125550D01*
X87861000Y-181125550D01*
X87909980Y-181143377D01*
G37*
G36*
X88675081Y-181130675D02*
G01*
X88735370Y-181131043D01*
X88756738Y-181134237D01*
X88892559Y-181174856D01*
X88912172Y-181183918D01*
X89031134Y-181261025D01*
X89047415Y-181275228D01*
X89139953Y-181382625D01*
X89151592Y-181400826D01*
X89210269Y-181529878D01*
X89216333Y-181550615D01*
X89236430Y-181690948D01*
X89237200Y-181701750D01*
X89237200Y-182201750D01*
X89237194Y-182202679D01*
X89237045Y-182214895D01*
X89235995Y-182226608D01*
X89212475Y-182366409D01*
X89205906Y-182386992D01*
X89144094Y-182514571D01*
X89132013Y-182532482D01*
X89036878Y-182637586D01*
X89020255Y-182651387D01*
X88899445Y-182725564D01*
X88879617Y-182734144D01*
X88742844Y-182771433D01*
X88721404Y-182774103D01*
X88680198Y-182773348D01*
X88674232Y-182776792D01*
X88661000Y-182777950D01*
X88161000Y-182777950D01*
X88112020Y-182760123D01*
X88085958Y-182714982D01*
X88084800Y-182701750D01*
X88084800Y-181201750D01*
X88102627Y-181152770D01*
X88147768Y-181126708D01*
X88161000Y-181125550D01*
X88661000Y-181125550D01*
X88675081Y-181130675D01*
G37*
G36*
G01*
X99946800Y-158550750D02*
X99946800Y-157600750D01*
G75*
G02*
X100273000Y-157274550I326200J0D01*
G01*
X100773000Y-157274550D01*
G75*
G02*
X101099200Y-157600750I0J-326200D01*
G01*
X101099200Y-158550750D01*
G75*
G02*
X100773000Y-158876950I-326200J0D01*
G01*
X100273000Y-158876950D01*
G75*
G02*
X99946800Y-158550750I0J326200D01*
G01*
G37*
G36*
G01*
X101846800Y-158550750D02*
X101846800Y-157600750D01*
G75*
G02*
X102173000Y-157274550I326200J0D01*
G01*
X102673000Y-157274550D01*
G75*
G02*
X102999200Y-157600750I0J-326200D01*
G01*
X102999200Y-158550750D01*
G75*
G02*
X102673000Y-158876950I-326200J0D01*
G01*
X102173000Y-158876950D01*
G75*
G02*
X101846800Y-158550750I0J326200D01*
G01*
G37*
G36*
G01*
X66026800Y-183068000D02*
X66026800Y-181168000D01*
G75*
G02*
X66103000Y-181091800I76200J0D01*
G01*
X67503000Y-181091800D01*
G75*
G02*
X67579200Y-181168000I0J-76200D01*
G01*
X67579200Y-183068000D01*
G75*
G02*
X67503000Y-183144200I-76200J0D01*
G01*
X66103000Y-183144200D01*
G75*
G02*
X66026800Y-183068000I0J76200D01*
G01*
G37*
G36*
G01*
X69326800Y-183068000D02*
X69326800Y-181168000D01*
G75*
G02*
X69403000Y-181091800I76200J0D01*
G01*
X70803000Y-181091800D01*
G75*
G02*
X70879200Y-181168000I0J-76200D01*
G01*
X70879200Y-183068000D01*
G75*
G02*
X70803000Y-183144200I-76200J0D01*
G01*
X69403000Y-183144200D01*
G75*
G02*
X69326800Y-183068000I0J76200D01*
G01*
G37*
G36*
G01*
X119714700Y-140226750D02*
X119714700Y-141126750D01*
G75*
G02*
X119388500Y-141452950I-326200J0D01*
G01*
X118863500Y-141452950D01*
G75*
G02*
X118537300Y-141126750I0J326200D01*
G01*
X118537300Y-140226750D01*
G75*
G02*
X118863500Y-139900550I326200J0D01*
G01*
X119388500Y-139900550D01*
G75*
G02*
X119714700Y-140226750I0J-326200D01*
G01*
G37*
G36*
G01*
X117889700Y-140226750D02*
X117889700Y-141126750D01*
G75*
G02*
X117563500Y-141452950I-326200J0D01*
G01*
X117038500Y-141452950D01*
G75*
G02*
X116712300Y-141126750I0J326200D01*
G01*
X116712300Y-140226750D01*
G75*
G02*
X117038500Y-139900550I326200J0D01*
G01*
X117563500Y-139900550D01*
G75*
G02*
X117889700Y-140226750I0J-326200D01*
G01*
G37*
G36*
G01*
X42395200Y-161729000D02*
X42395200Y-162629000D01*
G75*
G02*
X42069000Y-162955200I-326200J0D01*
G01*
X41544000Y-162955200D01*
G75*
G02*
X41217800Y-162629000I0J326200D01*
G01*
X41217800Y-161729000D01*
G75*
G02*
X41544000Y-161402800I326200J0D01*
G01*
X42069000Y-161402800D01*
G75*
G02*
X42395200Y-161729000I0J-326200D01*
G01*
G37*
G36*
G01*
X40570200Y-161729000D02*
X40570200Y-162629000D01*
G75*
G02*
X40244000Y-162955200I-326200J0D01*
G01*
X39719000Y-162955200D01*
G75*
G02*
X39392800Y-162629000I0J326200D01*
G01*
X39392800Y-161729000D01*
G75*
G02*
X39719000Y-161402800I326200J0D01*
G01*
X40244000Y-161402800D01*
G75*
G02*
X40570200Y-161729000I0J-326200D01*
G01*
G37*
G36*
G01*
X65438000Y-161668800D02*
X66388000Y-161668800D01*
G75*
G02*
X66714200Y-161995000I0J-326200D01*
G01*
X66714200Y-162495000D01*
G75*
G02*
X66388000Y-162821200I-326200J0D01*
G01*
X65438000Y-162821200D01*
G75*
G02*
X65111800Y-162495000I0J326200D01*
G01*
X65111800Y-161995000D01*
G75*
G02*
X65438000Y-161668800I326200J0D01*
G01*
G37*
G36*
G01*
X65438000Y-163568800D02*
X66388000Y-163568800D01*
G75*
G02*
X66714200Y-163895000I0J-326200D01*
G01*
X66714200Y-164395000D01*
G75*
G02*
X66388000Y-164721200I-326200J0D01*
G01*
X65438000Y-164721200D01*
G75*
G02*
X65111800Y-164395000I0J326200D01*
G01*
X65111800Y-163895000D01*
G75*
G02*
X65438000Y-163568800I326200J0D01*
G01*
G37*
G36*
G01*
X61211800Y-144366000D02*
X61211800Y-143416000D01*
G75*
G02*
X61538000Y-143089800I326200J0D01*
G01*
X62038000Y-143089800D01*
G75*
G02*
X62364200Y-143416000I0J-326200D01*
G01*
X62364200Y-144366000D01*
G75*
G02*
X62038000Y-144692200I-326200J0D01*
G01*
X61538000Y-144692200D01*
G75*
G02*
X61211800Y-144366000I0J326200D01*
G01*
G37*
G36*
G01*
X63111800Y-144366000D02*
X63111800Y-143416000D01*
G75*
G02*
X63438000Y-143089800I326200J0D01*
G01*
X63938000Y-143089800D01*
G75*
G02*
X64264200Y-143416000I0J-326200D01*
G01*
X64264200Y-144366000D01*
G75*
G02*
X63938000Y-144692200I-326200J0D01*
G01*
X63438000Y-144692200D01*
G75*
G02*
X63111800Y-144366000I0J326200D01*
G01*
G37*
G36*
G01*
X72285800Y-169868000D02*
X72285800Y-168968000D01*
G75*
G02*
X72612000Y-168641800I326200J0D01*
G01*
X73137000Y-168641800D01*
G75*
G02*
X73463200Y-168968000I0J-326200D01*
G01*
X73463200Y-169868000D01*
G75*
G02*
X73137000Y-170194200I-326200J0D01*
G01*
X72612000Y-170194200D01*
G75*
G02*
X72285800Y-169868000I0J326200D01*
G01*
G37*
G36*
G01*
X74110800Y-169868000D02*
X74110800Y-168968000D01*
G75*
G02*
X74437000Y-168641800I326200J0D01*
G01*
X74962000Y-168641800D01*
G75*
G02*
X75288200Y-168968000I0J-326200D01*
G01*
X75288200Y-169868000D01*
G75*
G02*
X74962000Y-170194200I-326200J0D01*
G01*
X74437000Y-170194200D01*
G75*
G02*
X74110800Y-169868000I0J326200D01*
G01*
G37*
D14*
X138902500Y-123932750D03*
X127472500Y-123932750D03*
G36*
G01*
X138458700Y-129532750D02*
X138458700Y-131032750D01*
G75*
G02*
X138382500Y-131108950I-76200J0D01*
G01*
X136882500Y-131108950D01*
G75*
G02*
X136806300Y-131032750I0J76200D01*
G01*
X136806300Y-129532750D01*
G75*
G02*
X136882500Y-129456550I76200J0D01*
G01*
X138382500Y-129456550D01*
G75*
G02*
X138458700Y-129532750I0J-76200D01*
G01*
G37*
D15*
X136362500Y-132822750D03*
X135092500Y-130282750D03*
X133822500Y-132822750D03*
X132552500Y-130282750D03*
X131282500Y-132822750D03*
X130012500Y-130282750D03*
X128742500Y-132822750D03*
G36*
G01*
X103566000Y-132880950D02*
X101666000Y-132880950D01*
G75*
G02*
X101589800Y-132804750I0J76200D01*
G01*
X101589800Y-131404750D01*
G75*
G02*
X101666000Y-131328550I76200J0D01*
G01*
X103566000Y-131328550D01*
G75*
G02*
X103642200Y-131404750I0J-76200D01*
G01*
X103642200Y-132804750D01*
G75*
G02*
X103566000Y-132880950I-76200J0D01*
G01*
G37*
G36*
G01*
X103566000Y-129580950D02*
X101666000Y-129580950D01*
G75*
G02*
X101589800Y-129504750I0J76200D01*
G01*
X101589800Y-128104750D01*
G75*
G02*
X101666000Y-128028550I76200J0D01*
G01*
X103566000Y-128028550D01*
G75*
G02*
X103642200Y-128104750I0J-76200D01*
G01*
X103642200Y-129504750D01*
G75*
G02*
X103566000Y-129580950I-76200J0D01*
G01*
G37*
G36*
X47599020Y-139111373D02*
G01*
X47572958Y-139066232D01*
X47571800Y-139053000D01*
X47571800Y-137553000D01*
X47589627Y-137504020D01*
X47634768Y-137477958D01*
X47648000Y-137476800D01*
X48148000Y-137476800D01*
X48162334Y-137482017D01*
X48229337Y-137483245D01*
X48250664Y-137486699D01*
X48385979Y-137528974D01*
X48405480Y-137538275D01*
X48523490Y-137616830D01*
X48539596Y-137631231D01*
X48630816Y-137739750D01*
X48642233Y-137758092D01*
X48699328Y-137887851D01*
X48705138Y-137908660D01*
X48722060Y-138038068D01*
X48723042Y-138039768D01*
X48724200Y-138053000D01*
X48724200Y-138553000D01*
X48723448Y-138555066D01*
X48723256Y-138570833D01*
X48701445Y-138710910D01*
X48695128Y-138731570D01*
X48634880Y-138859895D01*
X48623018Y-138877953D01*
X48529174Y-138984211D01*
X48512721Y-138998213D01*
X48392826Y-139073861D01*
X48373105Y-139082683D01*
X48236798Y-139121640D01*
X48215392Y-139124573D01*
X48167745Y-139124282D01*
X48161232Y-139128042D01*
X48148000Y-139129200D01*
X47648000Y-139129200D01*
X47599020Y-139111373D01*
G37*
G36*
X46833919Y-139124075D02*
G01*
X46773630Y-139123707D01*
X46752262Y-139120513D01*
X46616441Y-139079894D01*
X46596828Y-139070832D01*
X46477866Y-138993725D01*
X46461585Y-138979522D01*
X46369047Y-138872125D01*
X46357408Y-138853924D01*
X46298731Y-138724872D01*
X46292667Y-138704135D01*
X46272570Y-138563802D01*
X46271800Y-138553000D01*
X46271800Y-138053000D01*
X46271806Y-138052071D01*
X46271955Y-138039855D01*
X46273005Y-138028142D01*
X46296525Y-137888341D01*
X46303094Y-137867758D01*
X46364906Y-137740179D01*
X46376987Y-137722268D01*
X46472122Y-137617164D01*
X46488745Y-137603363D01*
X46609555Y-137529186D01*
X46629383Y-137520606D01*
X46766156Y-137483317D01*
X46787596Y-137480647D01*
X46828802Y-137481402D01*
X46834768Y-137477958D01*
X46848000Y-137476800D01*
X47348000Y-137476800D01*
X47396980Y-137494627D01*
X47423042Y-137539768D01*
X47424200Y-137553000D01*
X47424200Y-139053000D01*
X47406373Y-139101980D01*
X47361232Y-139128042D01*
X47348000Y-139129200D01*
X46848000Y-139129200D01*
X46833919Y-139124075D01*
G37*
G36*
G01*
X147723000Y-149283950D02*
X146473000Y-149283950D01*
G75*
G02*
X146246800Y-149057750I0J226200D01*
G01*
X146246800Y-148757750D01*
G75*
G02*
X146473000Y-148531550I226200J0D01*
G01*
X147723000Y-148531550D01*
G75*
G02*
X147949200Y-148757750I0J-226200D01*
G01*
X147949200Y-149057750D01*
G75*
G02*
X147723000Y-149283950I-226200J0D01*
G01*
G37*
G36*
G01*
X147723000Y-148283950D02*
X146473000Y-148283950D01*
G75*
G02*
X146246800Y-148057750I0J226200D01*
G01*
X146246800Y-147757750D01*
G75*
G02*
X146473000Y-147531550I226200J0D01*
G01*
X147723000Y-147531550D01*
G75*
G02*
X147949200Y-147757750I0J-226200D01*
G01*
X147949200Y-148057750D01*
G75*
G02*
X147723000Y-148283950I-226200J0D01*
G01*
G37*
G36*
G01*
X147723000Y-147283950D02*
X146473000Y-147283950D01*
G75*
G02*
X146246800Y-147057750I0J226200D01*
G01*
X146246800Y-146757750D01*
G75*
G02*
X146473000Y-146531550I226200J0D01*
G01*
X147723000Y-146531550D01*
G75*
G02*
X147949200Y-146757750I0J-226200D01*
G01*
X147949200Y-147057750D01*
G75*
G02*
X147723000Y-147283950I-226200J0D01*
G01*
G37*
G36*
G01*
X147723000Y-146283950D02*
X146473000Y-146283950D01*
G75*
G02*
X146246800Y-146057750I0J226200D01*
G01*
X146246800Y-145757750D01*
G75*
G02*
X146473000Y-145531550I226200J0D01*
G01*
X147723000Y-145531550D01*
G75*
G02*
X147949200Y-145757750I0J-226200D01*
G01*
X147949200Y-146057750D01*
G75*
G02*
X147723000Y-146283950I-226200J0D01*
G01*
G37*
G36*
G01*
X151623000Y-145283950D02*
X150323000Y-145283950D01*
G75*
G02*
X149996800Y-144957750I0J326200D01*
G01*
X149996800Y-144257750D01*
G75*
G02*
X150323000Y-143931550I326200J0D01*
G01*
X151623000Y-143931550D01*
G75*
G02*
X151949200Y-144257750I0J-326200D01*
G01*
X151949200Y-144957750D01*
G75*
G02*
X151623000Y-145283950I-326200J0D01*
G01*
G37*
G36*
G01*
X151623000Y-150883950D02*
X150323000Y-150883950D01*
G75*
G02*
X149996800Y-150557750I0J326200D01*
G01*
X149996800Y-149857750D01*
G75*
G02*
X150323000Y-149531550I326200J0D01*
G01*
X151623000Y-149531550D01*
G75*
G02*
X151949200Y-149857750I0J-326200D01*
G01*
X151949200Y-150557750D01*
G75*
G02*
X151623000Y-150883950I-326200J0D01*
G01*
G37*
G36*
G01*
X58890000Y-169389200D02*
X58590000Y-169389200D01*
G75*
G02*
X58363800Y-169163000I0J226200D01*
G01*
X58363800Y-168138000D01*
G75*
G02*
X58590000Y-167911800I226200J0D01*
G01*
X58890000Y-167911800D01*
G75*
G02*
X59116200Y-168138000I0J-226200D01*
G01*
X59116200Y-169163000D01*
G75*
G02*
X58890000Y-169389200I-226200J0D01*
G01*
G37*
G36*
G01*
X59840000Y-169389200D02*
X59540000Y-169389200D01*
G75*
G02*
X59313800Y-169163000I0J226200D01*
G01*
X59313800Y-168138000D01*
G75*
G02*
X59540000Y-167911800I226200J0D01*
G01*
X59840000Y-167911800D01*
G75*
G02*
X60066200Y-168138000I0J-226200D01*
G01*
X60066200Y-169163000D01*
G75*
G02*
X59840000Y-169389200I-226200J0D01*
G01*
G37*
G36*
G01*
X60790000Y-169389200D02*
X60490000Y-169389200D01*
G75*
G02*
X60263800Y-169163000I0J226200D01*
G01*
X60263800Y-168138000D01*
G75*
G02*
X60490000Y-167911800I226200J0D01*
G01*
X60790000Y-167911800D01*
G75*
G02*
X61016200Y-168138000I0J-226200D01*
G01*
X61016200Y-169163000D01*
G75*
G02*
X60790000Y-169389200I-226200J0D01*
G01*
G37*
G36*
G01*
X60790000Y-167114200D02*
X60490000Y-167114200D01*
G75*
G02*
X60263800Y-166888000I0J226200D01*
G01*
X60263800Y-165863000D01*
G75*
G02*
X60490000Y-165636800I226200J0D01*
G01*
X60790000Y-165636800D01*
G75*
G02*
X61016200Y-165863000I0J-226200D01*
G01*
X61016200Y-166888000D01*
G75*
G02*
X60790000Y-167114200I-226200J0D01*
G01*
G37*
G36*
G01*
X59840000Y-167114200D02*
X59540000Y-167114200D01*
G75*
G02*
X59313800Y-166888000I0J226200D01*
G01*
X59313800Y-165863000D01*
G75*
G02*
X59540000Y-165636800I226200J0D01*
G01*
X59840000Y-165636800D01*
G75*
G02*
X60066200Y-165863000I0J-226200D01*
G01*
X60066200Y-166888000D01*
G75*
G02*
X59840000Y-167114200I-226200J0D01*
G01*
G37*
G36*
G01*
X58890000Y-167114200D02*
X58590000Y-167114200D01*
G75*
G02*
X58363800Y-166888000I0J226200D01*
G01*
X58363800Y-165863000D01*
G75*
G02*
X58590000Y-165636800I226200J0D01*
G01*
X58890000Y-165636800D01*
G75*
G02*
X59116200Y-165863000I0J-226200D01*
G01*
X59116200Y-166888000D01*
G75*
G02*
X58890000Y-167114200I-226200J0D01*
G01*
G37*
G36*
G01*
X116712300Y-167034750D02*
X116712300Y-166134750D01*
G75*
G02*
X117038500Y-165808550I326200J0D01*
G01*
X117563500Y-165808550D01*
G75*
G02*
X117889700Y-166134750I0J-326200D01*
G01*
X117889700Y-167034750D01*
G75*
G02*
X117563500Y-167360950I-326200J0D01*
G01*
X117038500Y-167360950D01*
G75*
G02*
X116712300Y-167034750I0J326200D01*
G01*
G37*
G36*
G01*
X118537300Y-167034750D02*
X118537300Y-166134750D01*
G75*
G02*
X118863500Y-165808550I326200J0D01*
G01*
X119388500Y-165808550D01*
G75*
G02*
X119714700Y-166134750I0J-326200D01*
G01*
X119714700Y-167034750D01*
G75*
G02*
X119388500Y-167360950I-326200J0D01*
G01*
X118863500Y-167360950D01*
G75*
G02*
X118537300Y-167034750I0J326200D01*
G01*
G37*
G36*
G01*
X97701000Y-129312800D02*
X98001000Y-129312800D01*
G75*
G02*
X98227200Y-129539000I0J-226200D01*
G01*
X98227200Y-130714000D01*
G75*
G02*
X98001000Y-130940200I-226200J0D01*
G01*
X97701000Y-130940200D01*
G75*
G02*
X97474800Y-130714000I0J226200D01*
G01*
X97474800Y-129539000D01*
G75*
G02*
X97701000Y-129312800I226200J0D01*
G01*
G37*
G36*
G01*
X95801000Y-129312800D02*
X96101000Y-129312800D01*
G75*
G02*
X96327200Y-129539000I0J-226200D01*
G01*
X96327200Y-130714000D01*
G75*
G02*
X96101000Y-130940200I-226200J0D01*
G01*
X95801000Y-130940200D01*
G75*
G02*
X95574800Y-130714000I0J226200D01*
G01*
X95574800Y-129539000D01*
G75*
G02*
X95801000Y-129312800I226200J0D01*
G01*
G37*
G36*
G01*
X96751000Y-131187800D02*
X97051000Y-131187800D01*
G75*
G02*
X97277200Y-131414000I0J-226200D01*
G01*
X97277200Y-132589000D01*
G75*
G02*
X97051000Y-132815200I-226200J0D01*
G01*
X96751000Y-132815200D01*
G75*
G02*
X96524800Y-132589000I0J226200D01*
G01*
X96524800Y-131414000D01*
G75*
G02*
X96751000Y-131187800I226200J0D01*
G01*
G37*
D10*
X29718000Y-187452000D03*
G36*
G01*
X62644000Y-161668800D02*
X63594000Y-161668800D01*
G75*
G02*
X63920200Y-161995000I0J-326200D01*
G01*
X63920200Y-162495000D01*
G75*
G02*
X63594000Y-162821200I-326200J0D01*
G01*
X62644000Y-162821200D01*
G75*
G02*
X62317800Y-162495000I0J326200D01*
G01*
X62317800Y-161995000D01*
G75*
G02*
X62644000Y-161668800I326200J0D01*
G01*
G37*
G36*
G01*
X62644000Y-163568800D02*
X63594000Y-163568800D01*
G75*
G02*
X63920200Y-163895000I0J-326200D01*
G01*
X63920200Y-164395000D01*
G75*
G02*
X63594000Y-164721200I-326200J0D01*
G01*
X62644000Y-164721200D01*
G75*
G02*
X62317800Y-164395000I0J326200D01*
G01*
X62317800Y-163895000D01*
G75*
G02*
X62644000Y-163568800I326200J0D01*
G01*
G37*
G36*
G01*
X142151000Y-159538800D02*
X142451000Y-159538800D01*
G75*
G02*
X142677200Y-159765000I0J-226200D01*
G01*
X142677200Y-160940000D01*
G75*
G02*
X142451000Y-161166200I-226200J0D01*
G01*
X142151000Y-161166200D01*
G75*
G02*
X141924800Y-160940000I0J226200D01*
G01*
X141924800Y-159765000D01*
G75*
G02*
X142151000Y-159538800I226200J0D01*
G01*
G37*
G36*
G01*
X140251000Y-159538800D02*
X140551000Y-159538800D01*
G75*
G02*
X140777200Y-159765000I0J-226200D01*
G01*
X140777200Y-160940000D01*
G75*
G02*
X140551000Y-161166200I-226200J0D01*
G01*
X140251000Y-161166200D01*
G75*
G02*
X140024800Y-160940000I0J226200D01*
G01*
X140024800Y-159765000D01*
G75*
G02*
X140251000Y-159538800I226200J0D01*
G01*
G37*
G36*
G01*
X141201000Y-161413800D02*
X141501000Y-161413800D01*
G75*
G02*
X141727200Y-161640000I0J-226200D01*
G01*
X141727200Y-162815000D01*
G75*
G02*
X141501000Y-163041200I-226200J0D01*
G01*
X141201000Y-163041200D01*
G75*
G02*
X140974800Y-162815000I0J226200D01*
G01*
X140974800Y-161640000D01*
G75*
G02*
X141201000Y-161413800I226200J0D01*
G01*
G37*
G36*
G01*
X115318200Y-153409750D02*
X115318200Y-154359750D01*
G75*
G02*
X114992000Y-154685950I-326200J0D01*
G01*
X114492000Y-154685950D01*
G75*
G02*
X114165800Y-154359750I0J326200D01*
G01*
X114165800Y-153409750D01*
G75*
G02*
X114492000Y-153083550I326200J0D01*
G01*
X114992000Y-153083550D01*
G75*
G02*
X115318200Y-153409750I0J-326200D01*
G01*
G37*
G36*
G01*
X113418200Y-153409750D02*
X113418200Y-154359750D01*
G75*
G02*
X113092000Y-154685950I-326200J0D01*
G01*
X112592000Y-154685950D01*
G75*
G02*
X112265800Y-154359750I0J326200D01*
G01*
X112265800Y-153409750D01*
G75*
G02*
X112592000Y-153083550I326200J0D01*
G01*
X113092000Y-153083550D01*
G75*
G02*
X113418200Y-153409750I0J-326200D01*
G01*
G37*
G36*
G01*
X79969400Y-162725950D02*
X78069400Y-162725950D01*
G75*
G02*
X77993200Y-162649750I0J76200D01*
G01*
X77993200Y-161249750D01*
G75*
G02*
X78069400Y-161173550I76200J0D01*
G01*
X79969400Y-161173550D01*
G75*
G02*
X80045600Y-161249750I0J-76200D01*
G01*
X80045600Y-162649750D01*
G75*
G02*
X79969400Y-162725950I-76200J0D01*
G01*
G37*
G36*
G01*
X79969400Y-159425950D02*
X78069400Y-159425950D01*
G75*
G02*
X77993200Y-159349750I0J76200D01*
G01*
X77993200Y-157949750D01*
G75*
G02*
X78069400Y-157873550I76200J0D01*
G01*
X79969400Y-157873550D01*
G75*
G02*
X80045600Y-157949750I0J-76200D01*
G01*
X80045600Y-159349750D01*
G75*
G02*
X79969400Y-159425950I-76200J0D01*
G01*
G37*
G36*
G01*
X63962200Y-174583000D02*
X63962200Y-175683000D01*
G75*
G02*
X63636000Y-176009200I-326200J0D01*
G01*
X60636000Y-176009200D01*
G75*
G02*
X60309800Y-175683000I0J326200D01*
G01*
X60309800Y-174583000D01*
G75*
G02*
X60636000Y-174256800I326200J0D01*
G01*
X63636000Y-174256800D01*
G75*
G02*
X63962200Y-174583000I0J-326200D01*
G01*
G37*
G36*
G01*
X58562200Y-174583000D02*
X58562200Y-175683000D01*
G75*
G02*
X58236000Y-176009200I-326200J0D01*
G01*
X55236000Y-176009200D01*
G75*
G02*
X54909800Y-175683000I0J326200D01*
G01*
X54909800Y-174583000D01*
G75*
G02*
X55236000Y-174256800I326200J0D01*
G01*
X58236000Y-174256800D01*
G75*
G02*
X58562200Y-174583000I0J-326200D01*
G01*
G37*
G36*
G01*
X74233200Y-120545000D02*
X74233200Y-121745000D01*
G75*
G02*
X73957000Y-122021200I-276200J0D01*
G01*
X73557000Y-122021200D01*
G75*
G02*
X73280800Y-121745000I0J276200D01*
G01*
X73280800Y-120545000D01*
G75*
G02*
X73557000Y-120268800I276200J0D01*
G01*
X73957000Y-120268800D01*
G75*
G02*
X74233200Y-120545000I0J-276200D01*
G01*
G37*
G36*
G01*
X72983200Y-120545000D02*
X72983200Y-121745000D01*
G75*
G02*
X72707000Y-122021200I-276200J0D01*
G01*
X72307000Y-122021200D01*
G75*
G02*
X72030800Y-121745000I0J276200D01*
G01*
X72030800Y-120545000D01*
G75*
G02*
X72307000Y-120268800I276200J0D01*
G01*
X72707000Y-120268800D01*
G75*
G02*
X72983200Y-120545000I0J-276200D01*
G01*
G37*
G36*
G01*
X71733200Y-120545000D02*
X71733200Y-121745000D01*
G75*
G02*
X71457000Y-122021200I-276200J0D01*
G01*
X71057000Y-122021200D01*
G75*
G02*
X70780800Y-121745000I0J276200D01*
G01*
X70780800Y-120545000D01*
G75*
G02*
X71057000Y-120268800I276200J0D01*
G01*
X71457000Y-120268800D01*
G75*
G02*
X71733200Y-120545000I0J-276200D01*
G01*
G37*
G36*
G01*
X70483200Y-120545000D02*
X70483200Y-121745000D01*
G75*
G02*
X70207000Y-122021200I-276200J0D01*
G01*
X69807000Y-122021200D01*
G75*
G02*
X69530800Y-121745000I0J276200D01*
G01*
X69530800Y-120545000D01*
G75*
G02*
X69807000Y-120268800I276200J0D01*
G01*
X70207000Y-120268800D01*
G75*
G02*
X70483200Y-120545000I0J-276200D01*
G01*
G37*
G36*
G01*
X68583200Y-116995001D02*
X68583200Y-119494999D01*
G75*
G02*
X68256999Y-119821200I-326201J0D01*
G01*
X66657001Y-119821200D01*
G75*
G02*
X66330800Y-119494999I0J326201D01*
G01*
X66330800Y-116995001D01*
G75*
G02*
X66657001Y-116668800I326201J0D01*
G01*
X68256999Y-116668800D01*
G75*
G02*
X68583200Y-116995001I0J-326201D01*
G01*
G37*
G36*
G01*
X77433200Y-116995001D02*
X77433200Y-119494999D01*
G75*
G02*
X77106999Y-119821200I-326201J0D01*
G01*
X75507001Y-119821200D01*
G75*
G02*
X75180800Y-119494999I0J326201D01*
G01*
X75180800Y-116995001D01*
G75*
G02*
X75507001Y-116668800I326201J0D01*
G01*
X77106999Y-116668800D01*
G75*
G02*
X77433200Y-116995001I0J-326201D01*
G01*
G37*
X148082000Y-187412750D03*
G36*
X47599020Y-142413373D02*
G01*
X47572958Y-142368232D01*
X47571800Y-142355000D01*
X47571800Y-140855000D01*
X47589627Y-140806020D01*
X47634768Y-140779958D01*
X47648000Y-140778800D01*
X48148000Y-140778800D01*
X48162334Y-140784017D01*
X48229337Y-140785245D01*
X48250664Y-140788699D01*
X48385979Y-140830974D01*
X48405480Y-140840275D01*
X48523490Y-140918830D01*
X48539596Y-140933231D01*
X48630816Y-141041750D01*
X48642233Y-141060092D01*
X48699328Y-141189851D01*
X48705138Y-141210660D01*
X48722060Y-141340068D01*
X48723042Y-141341768D01*
X48724200Y-141355000D01*
X48724200Y-141855000D01*
X48723448Y-141857066D01*
X48723256Y-141872833D01*
X48701445Y-142012910D01*
X48695128Y-142033570D01*
X48634880Y-142161895D01*
X48623018Y-142179953D01*
X48529174Y-142286211D01*
X48512721Y-142300213D01*
X48392826Y-142375861D01*
X48373105Y-142384683D01*
X48236798Y-142423640D01*
X48215392Y-142426573D01*
X48167745Y-142426282D01*
X48161232Y-142430042D01*
X48148000Y-142431200D01*
X47648000Y-142431200D01*
X47599020Y-142413373D01*
G37*
G36*
X46833919Y-142426075D02*
G01*
X46773630Y-142425707D01*
X46752262Y-142422513D01*
X46616441Y-142381894D01*
X46596828Y-142372832D01*
X46477866Y-142295725D01*
X46461585Y-142281522D01*
X46369047Y-142174125D01*
X46357408Y-142155924D01*
X46298731Y-142026872D01*
X46292667Y-142006135D01*
X46272570Y-141865802D01*
X46271800Y-141855000D01*
X46271800Y-141355000D01*
X46271806Y-141354071D01*
X46271955Y-141341855D01*
X46273005Y-141330142D01*
X46296525Y-141190341D01*
X46303094Y-141169758D01*
X46364906Y-141042179D01*
X46376987Y-141024268D01*
X46472122Y-140919164D01*
X46488745Y-140905363D01*
X46609555Y-140831186D01*
X46629383Y-140822606D01*
X46766156Y-140785317D01*
X46787596Y-140782647D01*
X46828802Y-140783402D01*
X46834768Y-140779958D01*
X46848000Y-140778800D01*
X47348000Y-140778800D01*
X47396980Y-140796627D01*
X47423042Y-140841768D01*
X47424200Y-140855000D01*
X47424200Y-142355000D01*
X47406373Y-142403980D01*
X47361232Y-142430042D01*
X47348000Y-142431200D01*
X46848000Y-142431200D01*
X46833919Y-142426075D01*
G37*
G36*
G01*
X116735800Y-171987750D02*
X116735800Y-171087750D01*
G75*
G02*
X117062000Y-170761550I326200J0D01*
G01*
X117587000Y-170761550D01*
G75*
G02*
X117913200Y-171087750I0J-326200D01*
G01*
X117913200Y-171987750D01*
G75*
G02*
X117587000Y-172313950I-326200J0D01*
G01*
X117062000Y-172313950D01*
G75*
G02*
X116735800Y-171987750I0J326200D01*
G01*
G37*
G36*
G01*
X118560800Y-171987750D02*
X118560800Y-171087750D01*
G75*
G02*
X118887000Y-170761550I326200J0D01*
G01*
X119412000Y-170761550D01*
G75*
G02*
X119738200Y-171087750I0J-326200D01*
G01*
X119738200Y-171987750D01*
G75*
G02*
X119412000Y-172313950I-326200J0D01*
G01*
X118887000Y-172313950D01*
G75*
G02*
X118560800Y-171987750I0J326200D01*
G01*
G37*
G36*
X47599020Y-145715373D02*
G01*
X47572958Y-145670232D01*
X47571800Y-145657000D01*
X47571800Y-144157000D01*
X47589627Y-144108020D01*
X47634768Y-144081958D01*
X47648000Y-144080800D01*
X48148000Y-144080800D01*
X48162334Y-144086017D01*
X48229337Y-144087245D01*
X48250664Y-144090699D01*
X48385979Y-144132974D01*
X48405480Y-144142275D01*
X48523490Y-144220830D01*
X48539596Y-144235231D01*
X48630816Y-144343750D01*
X48642233Y-144362092D01*
X48699328Y-144491851D01*
X48705138Y-144512660D01*
X48722060Y-144642068D01*
X48723042Y-144643768D01*
X48724200Y-144657000D01*
X48724200Y-145157000D01*
X48723448Y-145159066D01*
X48723256Y-145174833D01*
X48701445Y-145314910D01*
X48695128Y-145335570D01*
X48634880Y-145463895D01*
X48623018Y-145481953D01*
X48529174Y-145588211D01*
X48512721Y-145602213D01*
X48392826Y-145677861D01*
X48373105Y-145686683D01*
X48236798Y-145725640D01*
X48215392Y-145728573D01*
X48167745Y-145728282D01*
X48161232Y-145732042D01*
X48148000Y-145733200D01*
X47648000Y-145733200D01*
X47599020Y-145715373D01*
G37*
G36*
X46833919Y-145728075D02*
G01*
X46773630Y-145727707D01*
X46752262Y-145724513D01*
X46616441Y-145683894D01*
X46596828Y-145674832D01*
X46477866Y-145597725D01*
X46461585Y-145583522D01*
X46369047Y-145476125D01*
X46357408Y-145457924D01*
X46298731Y-145328872D01*
X46292667Y-145308135D01*
X46272570Y-145167802D01*
X46271800Y-145157000D01*
X46271800Y-144657000D01*
X46271806Y-144656071D01*
X46271955Y-144643855D01*
X46273005Y-144632142D01*
X46296525Y-144492341D01*
X46303094Y-144471758D01*
X46364906Y-144344179D01*
X46376987Y-144326268D01*
X46472122Y-144221164D01*
X46488745Y-144207363D01*
X46609555Y-144133186D01*
X46629383Y-144124606D01*
X46766156Y-144087317D01*
X46787596Y-144084647D01*
X46828802Y-144085402D01*
X46834768Y-144081958D01*
X46848000Y-144080800D01*
X47348000Y-144080800D01*
X47396980Y-144098627D01*
X47423042Y-144143768D01*
X47424200Y-144157000D01*
X47424200Y-145657000D01*
X47406373Y-145705980D01*
X47361232Y-145732042D01*
X47348000Y-145733200D01*
X46848000Y-145733200D01*
X46833919Y-145728075D01*
G37*
G36*
G01*
X42395200Y-127947000D02*
X42395200Y-128847000D01*
G75*
G02*
X42069000Y-129173200I-326200J0D01*
G01*
X41544000Y-129173200D01*
G75*
G02*
X41217800Y-128847000I0J326200D01*
G01*
X41217800Y-127947000D01*
G75*
G02*
X41544000Y-127620800I326200J0D01*
G01*
X42069000Y-127620800D01*
G75*
G02*
X42395200Y-127947000I0J-326200D01*
G01*
G37*
G36*
G01*
X40570200Y-127947000D02*
X40570200Y-128847000D01*
G75*
G02*
X40244000Y-129173200I-326200J0D01*
G01*
X39719000Y-129173200D01*
G75*
G02*
X39392800Y-128847000I0J326200D01*
G01*
X39392800Y-127947000D01*
G75*
G02*
X39719000Y-127620800I326200J0D01*
G01*
X40244000Y-127620800D01*
G75*
G02*
X40570200Y-127947000I0J-326200D01*
G01*
G37*
G36*
G01*
X116712300Y-169574750D02*
X116712300Y-168674750D01*
G75*
G02*
X117038500Y-168348550I326200J0D01*
G01*
X117563500Y-168348550D01*
G75*
G02*
X117889700Y-168674750I0J-326200D01*
G01*
X117889700Y-169574750D01*
G75*
G02*
X117563500Y-169900950I-326200J0D01*
G01*
X117038500Y-169900950D01*
G75*
G02*
X116712300Y-169574750I0J326200D01*
G01*
G37*
G36*
G01*
X118537300Y-169574750D02*
X118537300Y-168674750D01*
G75*
G02*
X118863500Y-168348550I326200J0D01*
G01*
X119388500Y-168348550D01*
G75*
G02*
X119714700Y-168674750I0J-326200D01*
G01*
X119714700Y-169574750D01*
G75*
G02*
X119388500Y-169900950I-326200J0D01*
G01*
X118863500Y-169900950D01*
G75*
G02*
X118537300Y-169574750I0J326200D01*
G01*
G37*
G36*
X47614020Y-179878373D02*
G01*
X47587958Y-179833232D01*
X47586800Y-179820000D01*
X47586800Y-178320000D01*
X47604627Y-178271020D01*
X47649768Y-178244958D01*
X47663000Y-178243800D01*
X48163000Y-178243800D01*
X48177334Y-178249017D01*
X48244337Y-178250245D01*
X48265664Y-178253699D01*
X48400979Y-178295974D01*
X48420480Y-178305275D01*
X48538490Y-178383830D01*
X48554596Y-178398231D01*
X48645816Y-178506750D01*
X48657233Y-178525092D01*
X48714328Y-178654851D01*
X48720138Y-178675660D01*
X48737060Y-178805068D01*
X48738042Y-178806768D01*
X48739200Y-178820000D01*
X48739200Y-179320000D01*
X48738448Y-179322066D01*
X48738256Y-179337833D01*
X48716445Y-179477910D01*
X48710128Y-179498570D01*
X48649880Y-179626895D01*
X48638018Y-179644953D01*
X48544174Y-179751211D01*
X48527721Y-179765213D01*
X48407826Y-179840861D01*
X48388105Y-179849683D01*
X48251798Y-179888640D01*
X48230392Y-179891573D01*
X48182745Y-179891282D01*
X48176232Y-179895042D01*
X48163000Y-179896200D01*
X47663000Y-179896200D01*
X47614020Y-179878373D01*
G37*
G36*
X46848919Y-179891075D02*
G01*
X46788630Y-179890707D01*
X46767262Y-179887513D01*
X46631441Y-179846894D01*
X46611828Y-179837832D01*
X46492866Y-179760725D01*
X46476585Y-179746522D01*
X46384047Y-179639125D01*
X46372408Y-179620924D01*
X46313731Y-179491872D01*
X46307667Y-179471135D01*
X46287570Y-179330802D01*
X46286800Y-179320000D01*
X46286800Y-178820000D01*
X46286806Y-178819071D01*
X46286955Y-178806855D01*
X46288005Y-178795142D01*
X46311525Y-178655341D01*
X46318094Y-178634758D01*
X46379906Y-178507179D01*
X46391987Y-178489268D01*
X46487122Y-178384164D01*
X46503745Y-178370363D01*
X46624555Y-178296186D01*
X46644383Y-178287606D01*
X46781156Y-178250317D01*
X46802596Y-178247647D01*
X46843802Y-178248402D01*
X46849768Y-178244958D01*
X46863000Y-178243800D01*
X47363000Y-178243800D01*
X47411980Y-178261627D01*
X47438042Y-178306768D01*
X47439200Y-178320000D01*
X47439200Y-179820000D01*
X47421373Y-179868980D01*
X47376232Y-179895042D01*
X47363000Y-179896200D01*
X46863000Y-179896200D01*
X46848919Y-179891075D01*
G37*
G36*
G01*
X115293200Y-163594750D02*
X115293200Y-164494750D01*
G75*
G02*
X114967000Y-164820950I-326200J0D01*
G01*
X114442000Y-164820950D01*
G75*
G02*
X114115800Y-164494750I0J326200D01*
G01*
X114115800Y-163594750D01*
G75*
G02*
X114442000Y-163268550I326200J0D01*
G01*
X114967000Y-163268550D01*
G75*
G02*
X115293200Y-163594750I0J-326200D01*
G01*
G37*
G36*
G01*
X113468200Y-163594750D02*
X113468200Y-164494750D01*
G75*
G02*
X113142000Y-164820950I-326200J0D01*
G01*
X112617000Y-164820950D01*
G75*
G02*
X112290800Y-164494750I0J326200D01*
G01*
X112290800Y-163594750D01*
G75*
G02*
X112617000Y-163268550I326200J0D01*
G01*
X113142000Y-163268550D01*
G75*
G02*
X113468200Y-163594750I0J-326200D01*
G01*
G37*
G36*
G01*
X142174000Y-170828200D02*
X140274000Y-170828200D01*
G75*
G02*
X140197800Y-170752000I0J76200D01*
G01*
X140197800Y-169352000D01*
G75*
G02*
X140274000Y-169275800I76200J0D01*
G01*
X142174000Y-169275800D01*
G75*
G02*
X142250200Y-169352000I0J-76200D01*
G01*
X142250200Y-170752000D01*
G75*
G02*
X142174000Y-170828200I-76200J0D01*
G01*
G37*
G36*
G01*
X142174000Y-167528200D02*
X140274000Y-167528200D01*
G75*
G02*
X140197800Y-167452000I0J76200D01*
G01*
X140197800Y-166052000D01*
G75*
G02*
X140274000Y-165975800I76200J0D01*
G01*
X142174000Y-165975800D01*
G75*
G02*
X142250200Y-166052000I0J-76200D01*
G01*
X142250200Y-167452000D01*
G75*
G02*
X142174000Y-167528200I-76200J0D01*
G01*
G37*
G36*
G01*
X56319000Y-148231800D02*
X57219000Y-148231800D01*
G75*
G02*
X57545200Y-148558000I0J-326200D01*
G01*
X57545200Y-149083000D01*
G75*
G02*
X57219000Y-149409200I-326200J0D01*
G01*
X56319000Y-149409200D01*
G75*
G02*
X55992800Y-149083000I0J326200D01*
G01*
X55992800Y-148558000D01*
G75*
G02*
X56319000Y-148231800I326200J0D01*
G01*
G37*
G36*
G01*
X56319000Y-150056800D02*
X57219000Y-150056800D01*
G75*
G02*
X57545200Y-150383000I0J-326200D01*
G01*
X57545200Y-150908000D01*
G75*
G02*
X57219000Y-151234200I-326200J0D01*
G01*
X56319000Y-151234200D01*
G75*
G02*
X55992800Y-150908000I0J326200D01*
G01*
X55992800Y-150383000D01*
G75*
G02*
X56319000Y-150056800I326200J0D01*
G01*
G37*
G36*
G01*
X147723000Y-138615950D02*
X146473000Y-138615950D01*
G75*
G02*
X146246800Y-138389750I0J226200D01*
G01*
X146246800Y-138089750D01*
G75*
G02*
X146473000Y-137863550I226200J0D01*
G01*
X147723000Y-137863550D01*
G75*
G02*
X147949200Y-138089750I0J-226200D01*
G01*
X147949200Y-138389750D01*
G75*
G02*
X147723000Y-138615950I-226200J0D01*
G01*
G37*
G36*
G01*
X147723000Y-137615950D02*
X146473000Y-137615950D01*
G75*
G02*
X146246800Y-137389750I0J226200D01*
G01*
X146246800Y-137089750D01*
G75*
G02*
X146473000Y-136863550I226200J0D01*
G01*
X147723000Y-136863550D01*
G75*
G02*
X147949200Y-137089750I0J-226200D01*
G01*
X147949200Y-137389750D01*
G75*
G02*
X147723000Y-137615950I-226200J0D01*
G01*
G37*
G36*
G01*
X147723000Y-136615950D02*
X146473000Y-136615950D01*
G75*
G02*
X146246800Y-136389750I0J226200D01*
G01*
X146246800Y-136089750D01*
G75*
G02*
X146473000Y-135863550I226200J0D01*
G01*
X147723000Y-135863550D01*
G75*
G02*
X147949200Y-136089750I0J-226200D01*
G01*
X147949200Y-136389750D01*
G75*
G02*
X147723000Y-136615950I-226200J0D01*
G01*
G37*
G36*
G01*
X147723000Y-135615950D02*
X146473000Y-135615950D01*
G75*
G02*
X146246800Y-135389750I0J226200D01*
G01*
X146246800Y-135089750D01*
G75*
G02*
X146473000Y-134863550I226200J0D01*
G01*
X147723000Y-134863550D01*
G75*
G02*
X147949200Y-135089750I0J-226200D01*
G01*
X147949200Y-135389750D01*
G75*
G02*
X147723000Y-135615950I-226200J0D01*
G01*
G37*
G36*
G01*
X151623000Y-140215950D02*
X150323000Y-140215950D01*
G75*
G02*
X149996800Y-139889750I0J326200D01*
G01*
X149996800Y-139189750D01*
G75*
G02*
X150323000Y-138863550I326200J0D01*
G01*
X151623000Y-138863550D01*
G75*
G02*
X151949200Y-139189750I0J-326200D01*
G01*
X151949200Y-139889750D01*
G75*
G02*
X151623000Y-140215950I-326200J0D01*
G01*
G37*
G36*
G01*
X151623000Y-134615950D02*
X150323000Y-134615950D01*
G75*
G02*
X149996800Y-134289750I0J326200D01*
G01*
X149996800Y-133589750D01*
G75*
G02*
X150323000Y-133263550I326200J0D01*
G01*
X151623000Y-133263550D01*
G75*
G02*
X151949200Y-133589750I0J-326200D01*
G01*
X151949200Y-134289750D01*
G75*
G02*
X151623000Y-134615950I-326200J0D01*
G01*
G37*
G36*
G01*
X124090000Y-187436950D02*
X122290000Y-187436950D01*
G75*
G02*
X122213800Y-187360750I0J76200D01*
G01*
X122213800Y-184860750D01*
G75*
G02*
X122290000Y-184784550I76200J0D01*
G01*
X124090000Y-184784550D01*
G75*
G02*
X124166200Y-184860750I0J-76200D01*
G01*
X124166200Y-187360750D01*
G75*
G02*
X124090000Y-187436950I-76200J0D01*
G01*
G37*
G36*
G01*
X124090000Y-183436950D02*
X122290000Y-183436950D01*
G75*
G02*
X122213800Y-183360750I0J76200D01*
G01*
X122213800Y-180860750D01*
G75*
G02*
X122290000Y-180784550I76200J0D01*
G01*
X124090000Y-180784550D01*
G75*
G02*
X124166200Y-180860750I0J-76200D01*
G01*
X124166200Y-183360750D01*
G75*
G02*
X124090000Y-183436950I-76200J0D01*
G01*
G37*
G36*
G01*
X76004000Y-172742800D02*
X76904000Y-172742800D01*
G75*
G02*
X77230200Y-173069000I0J-326200D01*
G01*
X77230200Y-173594000D01*
G75*
G02*
X76904000Y-173920200I-326200J0D01*
G01*
X76004000Y-173920200D01*
G75*
G02*
X75677800Y-173594000I0J326200D01*
G01*
X75677800Y-173069000D01*
G75*
G02*
X76004000Y-172742800I326200J0D01*
G01*
G37*
G36*
G01*
X76004000Y-174567800D02*
X76904000Y-174567800D01*
G75*
G02*
X77230200Y-174894000I0J-326200D01*
G01*
X77230200Y-175419000D01*
G75*
G02*
X76904000Y-175745200I-326200J0D01*
G01*
X76004000Y-175745200D01*
G75*
G02*
X75677800Y-175419000I0J326200D01*
G01*
X75677800Y-174894000D01*
G75*
G02*
X76004000Y-174567800I326200J0D01*
G01*
G37*
X148082000Y-119848750D03*
G36*
G01*
X112290800Y-160978000D02*
X112290800Y-160078000D01*
G75*
G02*
X112617000Y-159751800I326200J0D01*
G01*
X113142000Y-159751800D01*
G75*
G02*
X113468200Y-160078000I0J-326200D01*
G01*
X113468200Y-160978000D01*
G75*
G02*
X113142000Y-161304200I-326200J0D01*
G01*
X112617000Y-161304200D01*
G75*
G02*
X112290800Y-160978000I0J326200D01*
G01*
G37*
G36*
G01*
X114115800Y-160978000D02*
X114115800Y-160078000D01*
G75*
G02*
X114442000Y-159751800I326200J0D01*
G01*
X114967000Y-159751800D01*
G75*
G02*
X115293200Y-160078000I0J-326200D01*
G01*
X115293200Y-160978000D01*
G75*
G02*
X114967000Y-161304200I-326200J0D01*
G01*
X114442000Y-161304200D01*
G75*
G02*
X114115800Y-160978000I0J326200D01*
G01*
G37*
G36*
G01*
X42395200Y-131249000D02*
X42395200Y-132149000D01*
G75*
G02*
X42069000Y-132475200I-326200J0D01*
G01*
X41544000Y-132475200D01*
G75*
G02*
X41217800Y-132149000I0J326200D01*
G01*
X41217800Y-131249000D01*
G75*
G02*
X41544000Y-130922800I326200J0D01*
G01*
X42069000Y-130922800D01*
G75*
G02*
X42395200Y-131249000I0J-326200D01*
G01*
G37*
G36*
G01*
X40570200Y-131249000D02*
X40570200Y-132149000D01*
G75*
G02*
X40244000Y-132475200I-326200J0D01*
G01*
X39719000Y-132475200D01*
G75*
G02*
X39392800Y-132149000I0J326200D01*
G01*
X39392800Y-131249000D01*
G75*
G02*
X39719000Y-130922800I326200J0D01*
G01*
X40244000Y-130922800D01*
G75*
G02*
X40570200Y-131249000I0J-326200D01*
G01*
G37*
G36*
G01*
X66026800Y-186497000D02*
X66026800Y-184597000D01*
G75*
G02*
X66103000Y-184520800I76200J0D01*
G01*
X67503000Y-184520800D01*
G75*
G02*
X67579200Y-184597000I0J-76200D01*
G01*
X67579200Y-186497000D01*
G75*
G02*
X67503000Y-186573200I-76200J0D01*
G01*
X66103000Y-186573200D01*
G75*
G02*
X66026800Y-186497000I0J76200D01*
G01*
G37*
G36*
G01*
X69326800Y-186497000D02*
X69326800Y-184597000D01*
G75*
G02*
X69403000Y-184520800I76200J0D01*
G01*
X70803000Y-184520800D01*
G75*
G02*
X70879200Y-184597000I0J-76200D01*
G01*
X70879200Y-186497000D01*
G75*
G02*
X70803000Y-186573200I-76200J0D01*
G01*
X69403000Y-186573200D01*
G75*
G02*
X69326800Y-186497000I0J76200D01*
G01*
G37*
G36*
G01*
X105603000Y-128028550D02*
X107503000Y-128028550D01*
G75*
G02*
X107579200Y-128104750I0J-76200D01*
G01*
X107579200Y-129504750D01*
G75*
G02*
X107503000Y-129580950I-76200J0D01*
G01*
X105603000Y-129580950D01*
G75*
G02*
X105526800Y-129504750I0J76200D01*
G01*
X105526800Y-128104750D01*
G75*
G02*
X105603000Y-128028550I76200J0D01*
G01*
G37*
G36*
G01*
X105603000Y-131328550D02*
X107503000Y-131328550D01*
G75*
G02*
X107579200Y-131404750I0J-76200D01*
G01*
X107579200Y-132804750D01*
G75*
G02*
X107503000Y-132880950I-76200J0D01*
G01*
X105603000Y-132880950D01*
G75*
G02*
X105526800Y-132804750I0J76200D01*
G01*
X105526800Y-131404750D01*
G75*
G02*
X105603000Y-131328550I76200J0D01*
G01*
G37*
G36*
G01*
X112265800Y-157447000D02*
X112265800Y-156497000D01*
G75*
G02*
X112592000Y-156170800I326200J0D01*
G01*
X113092000Y-156170800D01*
G75*
G02*
X113418200Y-156497000I0J-326200D01*
G01*
X113418200Y-157447000D01*
G75*
G02*
X113092000Y-157773200I-326200J0D01*
G01*
X112592000Y-157773200D01*
G75*
G02*
X112265800Y-157447000I0J326200D01*
G01*
G37*
G36*
G01*
X114165800Y-157447000D02*
X114165800Y-156497000D01*
G75*
G02*
X114492000Y-156170800I326200J0D01*
G01*
X114992000Y-156170800D01*
G75*
G02*
X115318200Y-156497000I0J-326200D01*
G01*
X115318200Y-157447000D01*
G75*
G02*
X114992000Y-157773200I-326200J0D01*
G01*
X114492000Y-157773200D01*
G75*
G02*
X114165800Y-157447000I0J326200D01*
G01*
G37*
G36*
G01*
X103205000Y-167212950D02*
X103005000Y-167212950D01*
G75*
G02*
X102828800Y-167036750I0J176200D01*
G01*
X102828800Y-165761750D01*
G75*
G02*
X103005000Y-165585550I176200J0D01*
G01*
X103205000Y-165585550D01*
G75*
G02*
X103381200Y-165761750I0J-176200D01*
G01*
X103381200Y-167036750D01*
G75*
G02*
X103205000Y-167212950I-176200J0D01*
G01*
G37*
G36*
G01*
X103855000Y-167212950D02*
X103655000Y-167212950D01*
G75*
G02*
X103478800Y-167036750I0J176200D01*
G01*
X103478800Y-165761750D01*
G75*
G02*
X103655000Y-165585550I176200J0D01*
G01*
X103855000Y-165585550D01*
G75*
G02*
X104031200Y-165761750I0J-176200D01*
G01*
X104031200Y-167036750D01*
G75*
G02*
X103855000Y-167212950I-176200J0D01*
G01*
G37*
G36*
G01*
X104505000Y-167212950D02*
X104305000Y-167212950D01*
G75*
G02*
X104128800Y-167036750I0J176200D01*
G01*
X104128800Y-165761750D01*
G75*
G02*
X104305000Y-165585550I176200J0D01*
G01*
X104505000Y-165585550D01*
G75*
G02*
X104681200Y-165761750I0J-176200D01*
G01*
X104681200Y-167036750D01*
G75*
G02*
X104505000Y-167212950I-176200J0D01*
G01*
G37*
G36*
G01*
X105155000Y-167212950D02*
X104955000Y-167212950D01*
G75*
G02*
X104778800Y-167036750I0J176200D01*
G01*
X104778800Y-165761750D01*
G75*
G02*
X104955000Y-165585550I176200J0D01*
G01*
X105155000Y-165585550D01*
G75*
G02*
X105331200Y-165761750I0J-176200D01*
G01*
X105331200Y-167036750D01*
G75*
G02*
X105155000Y-167212950I-176200J0D01*
G01*
G37*
G36*
G01*
X105805000Y-167212950D02*
X105605000Y-167212950D01*
G75*
G02*
X105428800Y-167036750I0J176200D01*
G01*
X105428800Y-165761750D01*
G75*
G02*
X105605000Y-165585550I176200J0D01*
G01*
X105805000Y-165585550D01*
G75*
G02*
X105981200Y-165761750I0J-176200D01*
G01*
X105981200Y-167036750D01*
G75*
G02*
X105805000Y-167212950I-176200J0D01*
G01*
G37*
G36*
G01*
X106455000Y-167212950D02*
X106255000Y-167212950D01*
G75*
G02*
X106078800Y-167036750I0J176200D01*
G01*
X106078800Y-165761750D01*
G75*
G02*
X106255000Y-165585550I176200J0D01*
G01*
X106455000Y-165585550D01*
G75*
G02*
X106631200Y-165761750I0J-176200D01*
G01*
X106631200Y-167036750D01*
G75*
G02*
X106455000Y-167212950I-176200J0D01*
G01*
G37*
G36*
G01*
X107105000Y-167212950D02*
X106905000Y-167212950D01*
G75*
G02*
X106728800Y-167036750I0J176200D01*
G01*
X106728800Y-165761750D01*
G75*
G02*
X106905000Y-165585550I176200J0D01*
G01*
X107105000Y-165585550D01*
G75*
G02*
X107281200Y-165761750I0J-176200D01*
G01*
X107281200Y-167036750D01*
G75*
G02*
X107105000Y-167212950I-176200J0D01*
G01*
G37*
G36*
G01*
X107755000Y-167212950D02*
X107555000Y-167212950D01*
G75*
G02*
X107378800Y-167036750I0J176200D01*
G01*
X107378800Y-165761750D01*
G75*
G02*
X107555000Y-165585550I176200J0D01*
G01*
X107755000Y-165585550D01*
G75*
G02*
X107931200Y-165761750I0J-176200D01*
G01*
X107931200Y-167036750D01*
G75*
G02*
X107755000Y-167212950I-176200J0D01*
G01*
G37*
G36*
G01*
X108405000Y-167212950D02*
X108205000Y-167212950D01*
G75*
G02*
X108028800Y-167036750I0J176200D01*
G01*
X108028800Y-165761750D01*
G75*
G02*
X108205000Y-165585550I176200J0D01*
G01*
X108405000Y-165585550D01*
G75*
G02*
X108581200Y-165761750I0J-176200D01*
G01*
X108581200Y-167036750D01*
G75*
G02*
X108405000Y-167212950I-176200J0D01*
G01*
G37*
G36*
G01*
X109055000Y-167212950D02*
X108855000Y-167212950D01*
G75*
G02*
X108678800Y-167036750I0J176200D01*
G01*
X108678800Y-165761750D01*
G75*
G02*
X108855000Y-165585550I176200J0D01*
G01*
X109055000Y-165585550D01*
G75*
G02*
X109231200Y-165761750I0J-176200D01*
G01*
X109231200Y-167036750D01*
G75*
G02*
X109055000Y-167212950I-176200J0D01*
G01*
G37*
G36*
G01*
X109705000Y-167212950D02*
X109505000Y-167212950D01*
G75*
G02*
X109328800Y-167036750I0J176200D01*
G01*
X109328800Y-165761750D01*
G75*
G02*
X109505000Y-165585550I176200J0D01*
G01*
X109705000Y-165585550D01*
G75*
G02*
X109881200Y-165761750I0J-176200D01*
G01*
X109881200Y-167036750D01*
G75*
G02*
X109705000Y-167212950I-176200J0D01*
G01*
G37*
G36*
G01*
X110355000Y-167212950D02*
X110155000Y-167212950D01*
G75*
G02*
X109978800Y-167036750I0J176200D01*
G01*
X109978800Y-165761750D01*
G75*
G02*
X110155000Y-165585550I176200J0D01*
G01*
X110355000Y-165585550D01*
G75*
G02*
X110531200Y-165761750I0J-176200D01*
G01*
X110531200Y-167036750D01*
G75*
G02*
X110355000Y-167212950I-176200J0D01*
G01*
G37*
G36*
G01*
X110355000Y-161487950D02*
X110155000Y-161487950D01*
G75*
G02*
X109978800Y-161311750I0J176200D01*
G01*
X109978800Y-160036750D01*
G75*
G02*
X110155000Y-159860550I176200J0D01*
G01*
X110355000Y-159860550D01*
G75*
G02*
X110531200Y-160036750I0J-176200D01*
G01*
X110531200Y-161311750D01*
G75*
G02*
X110355000Y-161487950I-176200J0D01*
G01*
G37*
G36*
G01*
X109705000Y-161487950D02*
X109505000Y-161487950D01*
G75*
G02*
X109328800Y-161311750I0J176200D01*
G01*
X109328800Y-160036750D01*
G75*
G02*
X109505000Y-159860550I176200J0D01*
G01*
X109705000Y-159860550D01*
G75*
G02*
X109881200Y-160036750I0J-176200D01*
G01*
X109881200Y-161311750D01*
G75*
G02*
X109705000Y-161487950I-176200J0D01*
G01*
G37*
G36*
G01*
X109055000Y-161487950D02*
X108855000Y-161487950D01*
G75*
G02*
X108678800Y-161311750I0J176200D01*
G01*
X108678800Y-160036750D01*
G75*
G02*
X108855000Y-159860550I176200J0D01*
G01*
X109055000Y-159860550D01*
G75*
G02*
X109231200Y-160036750I0J-176200D01*
G01*
X109231200Y-161311750D01*
G75*
G02*
X109055000Y-161487950I-176200J0D01*
G01*
G37*
G36*
G01*
X108405000Y-161487950D02*
X108205000Y-161487950D01*
G75*
G02*
X108028800Y-161311750I0J176200D01*
G01*
X108028800Y-160036750D01*
G75*
G02*
X108205000Y-159860550I176200J0D01*
G01*
X108405000Y-159860550D01*
G75*
G02*
X108581200Y-160036750I0J-176200D01*
G01*
X108581200Y-161311750D01*
G75*
G02*
X108405000Y-161487950I-176200J0D01*
G01*
G37*
G36*
G01*
X107755000Y-161487950D02*
X107555000Y-161487950D01*
G75*
G02*
X107378800Y-161311750I0J176200D01*
G01*
X107378800Y-160036750D01*
G75*
G02*
X107555000Y-159860550I176200J0D01*
G01*
X107755000Y-159860550D01*
G75*
G02*
X107931200Y-160036750I0J-176200D01*
G01*
X107931200Y-161311750D01*
G75*
G02*
X107755000Y-161487950I-176200J0D01*
G01*
G37*
G36*
G01*
X107105000Y-161487950D02*
X106905000Y-161487950D01*
G75*
G02*
X106728800Y-161311750I0J176200D01*
G01*
X106728800Y-160036750D01*
G75*
G02*
X106905000Y-159860550I176200J0D01*
G01*
X107105000Y-159860550D01*
G75*
G02*
X107281200Y-160036750I0J-176200D01*
G01*
X107281200Y-161311750D01*
G75*
G02*
X107105000Y-161487950I-176200J0D01*
G01*
G37*
G36*
G01*
X106455000Y-161487950D02*
X106255000Y-161487950D01*
G75*
G02*
X106078800Y-161311750I0J176200D01*
G01*
X106078800Y-160036750D01*
G75*
G02*
X106255000Y-159860550I176200J0D01*
G01*
X106455000Y-159860550D01*
G75*
G02*
X106631200Y-160036750I0J-176200D01*
G01*
X106631200Y-161311750D01*
G75*
G02*
X106455000Y-161487950I-176200J0D01*
G01*
G37*
G36*
G01*
X105805000Y-161487950D02*
X105605000Y-161487950D01*
G75*
G02*
X105428800Y-161311750I0J176200D01*
G01*
X105428800Y-160036750D01*
G75*
G02*
X105605000Y-159860550I176200J0D01*
G01*
X105805000Y-159860550D01*
G75*
G02*
X105981200Y-160036750I0J-176200D01*
G01*
X105981200Y-161311750D01*
G75*
G02*
X105805000Y-161487950I-176200J0D01*
G01*
G37*
G36*
G01*
X105155000Y-161487950D02*
X104955000Y-161487950D01*
G75*
G02*
X104778800Y-161311750I0J176200D01*
G01*
X104778800Y-160036750D01*
G75*
G02*
X104955000Y-159860550I176200J0D01*
G01*
X105155000Y-159860550D01*
G75*
G02*
X105331200Y-160036750I0J-176200D01*
G01*
X105331200Y-161311750D01*
G75*
G02*
X105155000Y-161487950I-176200J0D01*
G01*
G37*
G36*
G01*
X104505000Y-161487950D02*
X104305000Y-161487950D01*
G75*
G02*
X104128800Y-161311750I0J176200D01*
G01*
X104128800Y-160036750D01*
G75*
G02*
X104305000Y-159860550I176200J0D01*
G01*
X104505000Y-159860550D01*
G75*
G02*
X104681200Y-160036750I0J-176200D01*
G01*
X104681200Y-161311750D01*
G75*
G02*
X104505000Y-161487950I-176200J0D01*
G01*
G37*
G36*
G01*
X103855000Y-161487950D02*
X103655000Y-161487950D01*
G75*
G02*
X103478800Y-161311750I0J176200D01*
G01*
X103478800Y-160036750D01*
G75*
G02*
X103655000Y-159860550I176200J0D01*
G01*
X103855000Y-159860550D01*
G75*
G02*
X104031200Y-160036750I0J-176200D01*
G01*
X104031200Y-161311750D01*
G75*
G02*
X103855000Y-161487950I-176200J0D01*
G01*
G37*
G36*
G01*
X103205000Y-161487950D02*
X103005000Y-161487950D01*
G75*
G02*
X102828800Y-161311750I0J176200D01*
G01*
X102828800Y-160036750D01*
G75*
G02*
X103005000Y-159860550I176200J0D01*
G01*
X103205000Y-159860550D01*
G75*
G02*
X103381200Y-160036750I0J-176200D01*
G01*
X103381200Y-161311750D01*
G75*
G02*
X103205000Y-161487950I-176200J0D01*
G01*
G37*
G36*
G01*
X69583300Y-163309300D02*
X69583300Y-157746700D01*
G75*
G02*
X69659500Y-157670500I76200J0D01*
G01*
X71767700Y-157670500D01*
G75*
G02*
X71843900Y-157746700I0J-76200D01*
G01*
X71843900Y-163309300D01*
G75*
G02*
X71767700Y-163385500I-76200J0D01*
G01*
X69659500Y-163385500D01*
G75*
G02*
X69583300Y-163309300I0J76200D01*
G01*
G37*
G36*
G01*
X74180700Y-163309300D02*
X74180700Y-157746700D01*
G75*
G02*
X74256900Y-157670500I76200J0D01*
G01*
X76365100Y-157670500D01*
G75*
G02*
X76441300Y-157746700I0J-76200D01*
G01*
X76441300Y-163309300D01*
G75*
G02*
X76365100Y-163385500I-76200J0D01*
G01*
X74256900Y-163385500D01*
G75*
G02*
X74180700Y-163309300I0J76200D01*
G01*
G37*
G36*
X87909980Y-167427377D02*
G01*
X87936042Y-167472518D01*
X87937200Y-167485750D01*
X87937200Y-168985750D01*
X87919373Y-169034730D01*
X87874232Y-169060792D01*
X87861000Y-169061950D01*
X87361000Y-169061950D01*
X87346666Y-169056733D01*
X87279663Y-169055505D01*
X87258336Y-169052051D01*
X87123021Y-169009776D01*
X87103520Y-169000475D01*
X86985510Y-168921920D01*
X86969404Y-168907519D01*
X86878184Y-168799000D01*
X86866767Y-168780658D01*
X86809672Y-168650899D01*
X86803862Y-168630090D01*
X86786940Y-168500682D01*
X86785958Y-168498982D01*
X86784800Y-168485750D01*
X86784800Y-167985750D01*
X86785552Y-167983684D01*
X86785744Y-167967917D01*
X86807555Y-167827840D01*
X86813872Y-167807180D01*
X86874120Y-167678855D01*
X86885982Y-167660797D01*
X86979826Y-167554539D01*
X86996279Y-167540537D01*
X87116174Y-167464889D01*
X87135895Y-167456067D01*
X87272202Y-167417110D01*
X87293608Y-167414177D01*
X87341255Y-167414468D01*
X87347768Y-167410708D01*
X87361000Y-167409550D01*
X87861000Y-167409550D01*
X87909980Y-167427377D01*
G37*
G36*
X88675081Y-167414675D02*
G01*
X88735370Y-167415043D01*
X88756738Y-167418237D01*
X88892559Y-167458856D01*
X88912172Y-167467918D01*
X89031134Y-167545025D01*
X89047415Y-167559228D01*
X89139953Y-167666625D01*
X89151592Y-167684826D01*
X89210269Y-167813878D01*
X89216333Y-167834615D01*
X89236430Y-167974948D01*
X89237200Y-167985750D01*
X89237200Y-168485750D01*
X89237194Y-168486679D01*
X89237045Y-168498895D01*
X89235995Y-168510608D01*
X89212475Y-168650409D01*
X89205906Y-168670992D01*
X89144094Y-168798571D01*
X89132013Y-168816482D01*
X89036878Y-168921586D01*
X89020255Y-168935387D01*
X88899445Y-169009564D01*
X88879617Y-169018144D01*
X88742844Y-169055433D01*
X88721404Y-169058103D01*
X88680198Y-169057348D01*
X88674232Y-169060792D01*
X88661000Y-169061950D01*
X88161000Y-169061950D01*
X88112020Y-169044123D01*
X88085958Y-168998982D01*
X88084800Y-168985750D01*
X88084800Y-167485750D01*
X88102627Y-167436770D01*
X88147768Y-167410708D01*
X88161000Y-167409550D01*
X88661000Y-167409550D01*
X88675081Y-167414675D01*
G37*
G36*
G01*
X142174000Y-140308950D02*
X140274000Y-140308950D01*
G75*
G02*
X140197800Y-140232750I0J76200D01*
G01*
X140197800Y-138832750D01*
G75*
G02*
X140274000Y-138756550I76200J0D01*
G01*
X142174000Y-138756550D01*
G75*
G02*
X142250200Y-138832750I0J-76200D01*
G01*
X142250200Y-140232750D01*
G75*
G02*
X142174000Y-140308950I-76200J0D01*
G01*
G37*
G36*
G01*
X142174000Y-137008950D02*
X140274000Y-137008950D01*
G75*
G02*
X140197800Y-136932750I0J76200D01*
G01*
X140197800Y-135532750D01*
G75*
G02*
X140274000Y-135456550I76200J0D01*
G01*
X142174000Y-135456550D01*
G75*
G02*
X142250200Y-135532750I0J-76200D01*
G01*
X142250200Y-136932750D01*
G75*
G02*
X142174000Y-137008950I-76200J0D01*
G01*
G37*
M02*
