M48
INCH,TZ
T1C0.0120
T2C0.0299
T3C0.0472
T4C0.0512
T5C0.1260
%
G90
G05
T1
X15450Y-58450
X15450Y-58950
X15850Y-72800
X15950Y-58450
X15950Y-58950
X16200Y-72800
X16900Y-64350
X17250Y-65750
X17600Y-67100
X17950Y-68400
X17950Y-71000
X18255Y-69695
X19750Y-47700
X19750Y-48050
X20650Y-56350
X21150Y-58450
X21150Y-59050
X21150Y-59650
X21550Y-55700
X21600Y-48400
X21750Y-68150
X21750Y-69800
X22300Y-68150
X22300Y-69800
X22800Y-68150
X22800Y-69800
X22850Y-66900
X22850Y-67300
X23400Y-60250
X23650Y-53550
X23650Y-54050
X23850Y-60250
X24300Y-65300
X24300Y-65600
X24650Y-65100
X24750Y-54550
X24750Y-54950
X24750Y-55300
X24900Y-47700
X24900Y-48050
X25050Y-65100
X25200Y-60500
X25400Y-63650
X25400Y-64000
X25600Y-53050
X25600Y-56650
X25750Y-65150
X25750Y-65550
X25950Y-56650
X26000Y-53050
X26050Y-60500
X26150Y-65150
X26150Y-65550
X26250Y-48350
X27500Y-51550
X27500Y-52050
X27500Y-52550
X27500Y-54050
X27600Y-72350
X28100Y-72350
X29100Y-52550
X29200Y-65000
X29203Y-64614
X29450Y-52550
X29450Y-53050
X30050Y-47700
X30050Y-48050
X30150Y-54550
X30150Y-55050
X30350Y-64500
X30350Y-65650
X30600Y-68950
X30850Y-53050
X31100Y-65700
X31100Y-66150
X31600Y-68950
X31650Y-48350
X32400Y-51050
X34394Y-66890
X34394Y-68690
X34394Y-70490
X34394Y-72290
X35150Y-47700
X35150Y-48050
X35415Y-69835
X35700Y-68450
X35750Y-67250
X35850Y-72200
X35865Y-73435
X37069Y-68115
X37419Y-68115
X37650Y-61350
X39610Y-56485
X39624Y-61185
X39800Y-59450
X39800Y-60300
X39800Y-60685
X39910Y-56485
X39924Y-61185
X40000Y-68635
X40000Y-68985
X41415Y-51985
X41791Y-51985
X42500Y-61585
X42850Y-62000
X43150Y-60685
X43400Y-62550
X43400Y-64635
X43407Y-64977
X43637Y-59285
X43700Y-49385
X43700Y-49785
X43700Y-52785
X43700Y-54085
X43700Y-55385
X43700Y-56685
X43700Y-57985
X43700Y-60585
X43937Y-59285
X43950Y-52000
X44000Y-52785
X44000Y-54085
X44000Y-55385
X44000Y-56685
X44000Y-57985
X44000Y-60585
X44350Y-52000
X45200Y-61200
X45500Y-61200
X46181Y-62103
X46181Y-65103
X46181Y-66103
X46200Y-70935
X46800Y-70935
X47350Y-49085
X47350Y-49685
X47400Y-70935
X47650Y-71635
X47650Y-72135
X47700Y-53385
X47800Y-49835
X47900Y-55685
X47900Y-56085
X47900Y-64985
X47900Y-65385
X47900Y-70935
X48200Y-53385
X48300Y-49835
X48300Y-55685
X48300Y-56085
X48300Y-65685
X48300Y-66085
X48500Y-70935
X48700Y-57485
X48700Y-57785
X48700Y-64600
X48700Y-65050
X48750Y-49085
X48750Y-49685
X48750Y-66785
X49100Y-56485
X49100Y-56885
X49100Y-61550
X49100Y-70935
X49200Y-66785
X49485Y-67985
X49500Y-57485
X49500Y-57785
X49500Y-62900
X49500Y-63300
X49900Y-59585
X49900Y-59985
X49900Y-67985
X50700Y-59785
X50700Y-60085
X50700Y-62585
X50705Y-57980
X50705Y-58280
X50705Y-62880
X51400Y-60685
X51400Y-60985
X52000Y-58785
X52000Y-59385
X52000Y-61685
X52000Y-62085
X52445Y-56075
X52445Y-56485
X52700Y-64985
X52700Y-65385
X53100Y-61685
X53100Y-62085
X55300Y-62185
X55300Y-62585
X57900Y-54835
X57900Y-55185
X57900Y-59035
X57900Y-59385
X57900Y-63185
X57900Y-63535
X57900Y-67335
X57900Y-67685
X59400Y-53835
X59400Y-58035
X59400Y-62185
X59400Y-66335
T2
X40900Y-69685
X41400Y-68685
X41900Y-69685
X42400Y-68685
X42900Y-69685
X43400Y-68685
X43900Y-69685
X44400Y-68685
X50686Y-52292
X50814Y-69677
X51186Y-51292
X51314Y-68677
X51686Y-52292
X51814Y-69677
X52186Y-51292
X52314Y-68677
X52686Y-52292
X52814Y-69677
X53186Y-51292
X53314Y-68677
X53686Y-52292
X53814Y-69677
X54186Y-51292
X54314Y-68677
T3
X13850Y-49572
X13850Y-50950
X13850Y-52328
X13850Y-54322
X13850Y-55700
X13850Y-57078
X13850Y-59122
X13850Y-60500
X13850Y-61878
X13850Y-63872
X13850Y-65250
X13850Y-66628
X13850Y-68672
X13850Y-70050
X13850Y-71428
X37722Y-48950
X39100Y-48950
X40478Y-48950
T4
X21966Y-72718
X23934Y-72718
T5
X11700Y-47200
X11700Y-73800
X58300Y-47185
X58300Y-73785
T0
M30
